<svg version="1.2" baseProfile="tiny-ps" xmlns="http://www.w3.org/2000/svg" viewBox="0 0 575 1420" width="575" height="1420">
	<title>extraObeseWeight-svg</title>
	<style>
		tspan { white-space:pre }
		.shp0 { fill: #f9a485 } 
		.shp1 { fill: #65a6ce } 
		.shp2 { fill: #3b344a } 
		.shp3 { fill: #d5d1d8 } 
		.shp4 { fill: #a5b1c7 } 
		.shp5 { fill: #4c7d9b } 
		.shp6 { fill: #e8e6e9 } 
		.shp7 { fill: #85504c } 
		.shp8 { fill: #e07560 } 
		.shp9 { fill: #ffffff } 
		.shp10 { fill: #1e1a25 } 
	</style>
	<g id="_Group_">
		<path id="_Path_" fill-rule="evenodd" class="shp0" d="M30.68 1042.5C38.26 1067.97 117.69 1333.47 119.19 1343.97C120.69 1354.47 174.7 1358.97 182.2 1343.97C189.7 1328.98 228.71 1138.49 218.21 1098C211.21 1071 198.2 1043.5 179.2 1015.5C71.14 1003.11 21.63 1012.11 30.68 1042.5Z" />
		<path id="_Path_2" fill-rule="evenodd" class="shp0" d="M350.23 1004.87C357.73 1021.37 414.07 1336.23 414.07 1350.59C414.07 1364.96 468.07 1375.12 476.25 1353.61C488.99 1320.12 537.76 1141.49 531.76 1094.99C527.76 1064 513.75 1031 489.75 996L350.23 1004.87Z" />
		<path id="_Path_3" fill-rule="evenodd" class="shp1" d="M82.69 673.54C78.69 685.53 21.04 989.5 20.86 1024.5C20.74 1047.83 31.72 1089.34 53.8 1149.04C131.14 1161.26 189.14 1151.26 227.82 1119.05C209.3 1058.5 200.82 1020.44 202.38 1004.87C204.71 981.51 223.27 826.95 253.28 822.95C283.28 818.95 330.73 969.5 342.73 1024.5C350.73 1061.17 360.33 1106.41 371.54 1160.22C453.45 1175.47 509.9 1174.43 540.9 1157.1C539.47 1084.03 522.76 1026.84 490.75 985.51C496.08 844.19 493.42 759.19 482.75 730.53C472.08 701.87 458.25 682.87 441.25 673.53L82.69 673.53L82.69 673.54Z" />
		<g id="_Group_2">
			<path id="_Path_4" fill-rule="evenodd" class="shp2" d="M4.19 1390.77C6.15 1381.86 96.88 1310.59 107.01 1309.79C117.15 1308.98 149.74 1324.11 151.33 1326.97C152.39 1328.87 151.44 1333.26 148.47 1340.12C146.97 1347.47 152.21 1350.91 164.2 1350.45C184.03 1349.68 184.46 1314.36 189.44 1316.76C194.42 1319.16 203.11 1328.41 203.55 1332.36C203.98 1336.31 198.49 1354.23 200.59 1358.79C202.69 1363.35 208.29 1399.44 204.17 1405.49C200.05 1411.55 158.98 1414.17 149.99 1414.45C141 1414.74 7.62 1424.57 3.41 1415.45C0.61 1409.38 0.87 1401.16 4.19 1390.77Z" />
			<path id="_Path_5" fill-rule="evenodd" class="shp3" d="M1.95 1402.02C6.55 1402.8 11.16 1403.49 15.79 1404.1C20.42 1404.71 25.06 1405.23 29.7 1405.67C34.35 1406.11 39 1406.46 43.66 1406.73C48.32 1407 52.98 1407.18 57.65 1407.28C83.37 1407.65 165.23 1398.02 169.67 1395.54C174.11 1393.07 196.04 1354.49 200.59 1358.79C205.15 1363.09 213.42 1405.2 210.27 1408.16C207.12 1411.11 186.05 1415.68 173.83 1415.73C161.62 1415.78 4.47 1424.35 1.4 1415.97C-0.65 1410.39 -0.47 1405.74 1.95 1402.02Z" />
			<g id="_Group_3">
				<path id="_Path_6" fill-rule="evenodd" class="shp4" d="M177.27 1389.12C176.64 1386.54 171.23 1363.83 175.09 1358.43C177.93 1354.45 179.94 1338.34 180.48 1332.48L182.83 1332.69C182.75 1333.58 180.8 1354.49 177.01 1359.8C174.58 1363.21 177.29 1379.25 179.56 1388.56L177.27 1389.12Z" />
			</g>
			<g id="_Group_4">
				<path id="_Path_7" fill-rule="evenodd" class="shp4" d="M64.91 1380.96L64.36 1380.55C64.14 1380.38 42.13 1364 28.29 1368.43L27.57 1366.18C41.42 1361.74 61.53 1375.59 65.22 1378.26C68.31 1376.9 82.37 1370.68 95.97 1363.84C111.31 1356.13 147.61 1339.22 147.97 1339.05L148.97 1341.19C148.61 1341.36 112.34 1358.25 97.03 1365.95C81.66 1373.68 65.7 1380.62 65.54 1380.69L64.91 1380.96Z" />
			</g>
			<g id="_Group_5">
				<path id="_Path_8" fill-rule="evenodd" class="shp4" d="M54.44 1397.17C53.97 1397.18 53.5 1397.17 53.04 1397.14C52.57 1397.11 52.11 1397.06 51.65 1396.99C51.19 1396.93 50.73 1396.84 50.27 1396.73C49.82 1396.63 49.37 1396.51 48.93 1396.37C28.29 1389.33 4.56 1391.93 4.32 1391.95L4.06 1389.61C4.3 1389.58 28.54 1386.92 49.69 1394.12C64.63 1399.24 102.65 1376.15 125.36 1362.36C133.98 1357.14 140.2 1353.35 142.73 1352.59C143.69 1352.33 144.66 1352.11 145.63 1351.91C146.61 1351.71 147.59 1351.55 148.57 1351.41C149.56 1351.28 150.55 1351.17 151.54 1351.1C152.53 1351.02 153.53 1350.98 154.52 1350.97C159.3 1350.71 164.24 1350.46 169.58 1348.19C175.05 1345.87 177.39 1340.05 180.35 1332.67C180.88 1331.23 181.45 1329.8 182.05 1328.38C182.65 1326.97 183.3 1325.57 183.97 1324.18C184.65 1322.8 185.36 1321.44 186.11 1320.09C186.86 1318.74 187.64 1317.42 188.45 1316.11L190.43 1317.4C189.63 1318.68 188.87 1319.97 188.15 1321.28C187.42 1322.6 186.73 1323.93 186.07 1325.28C185.41 1326.62 184.79 1327.99 184.2 1329.37C183.61 1330.75 183.05 1332.14 182.54 1333.55C179.5 1341.12 176.88 1347.66 170.51 1350.37C164.78 1352.8 159.63 1353.06 154.64 1353.32C153.69 1353.33 152.75 1353.37 151.8 1353.44C150.86 1353.51 149.92 1353.61 148.98 1353.73C148.04 1353.86 147.11 1354.02 146.18 1354.21C145.25 1354.39 144.33 1354.61 143.41 1354.85C141.17 1355.53 134.73 1359.44 126.58 1364.39C105.85 1376.97 72.57 1397.17 54.44 1397.17Z" />
			</g>
			<g id="_Group_6">
				<path id="_Compound_Path_" fill-rule="evenodd" class="shp4" d="M82.76 1371.3C80.31 1371.3 77.92 1369.71 76.11 1366.86C74.98 1365.09 75.69 1363.46 76.26 1362.17C76.08 1362.06 75.9 1361.96 75.72 1361.87C75.53 1361.77 75.35 1361.68 75.16 1361.6C74.97 1361.51 74.78 1361.43 74.59 1361.35C74.39 1361.28 74.2 1361.21 74 1361.14C65.55 1357.69 52.78 1352.5 45.5 1354.19L44.96 1351.9C52.96 1350.02 66.16 1355.4 74.89 1358.96L76.76 1359.72C76.39 1358.56 75.98 1357.42 75.52 1356.29C75.07 1355.17 74.57 1354.06 74.03 1352.97C73.5 1351.88 72.92 1350.81 72.3 1349.76C71.69 1348.71 71.04 1347.69 70.34 1346.69C66.9 1346.12 62.86 1344.81 61.35 1342.36C61.14 1342.01 60.98 1341.63 60.87 1341.24C60.77 1340.84 60.72 1340.43 60.73 1340.03C60.74 1339.62 60.82 1339.21 60.94 1338.83C61.07 1338.44 61.26 1338.07 61.49 1337.73L61.96 1336.93L62.85 1337.22C66.12 1338.21 69.12 1341.06 71.65 1344.49C71.91 1344.53 72.16 1344.56 72.41 1344.58C72.67 1344.61 72.92 1344.63 73.18 1344.64C73.44 1344.65 73.69 1344.66 73.95 1344.66C74.2 1344.66 74.46 1344.66 74.71 1344.65C80.57 1344.25 88.21 1344.18 95.29 1346.64C95.17 1346.21 95.05 1345.78 94.93 1345.36C94.8 1344.93 94.67 1344.51 94.53 1344.09C94.4 1343.67 94.25 1343.25 94.1 1342.83C93.96 1342.41 93.8 1342 93.64 1341.58C93.38 1340.94 93.09 1340.12 92.76 1339.22C92.21 1337.71 91.57 1335.9 90.78 1334.15C85.72 1333.12 81.08 1331.57 79.35 1329.36C79.17 1329.16 79.02 1328.94 78.9 1328.7C78.78 1328.46 78.68 1328.21 78.62 1327.95C78.55 1327.69 78.52 1327.42 78.52 1327.15C78.52 1326.88 78.55 1326.62 78.61 1326.36L78.74 1325.82L79.24 1325.57C79.75 1325.28 80.3 1325.05 80.86 1324.88C81.43 1324.71 82.01 1324.6 82.6 1324.56C83.19 1324.51 83.79 1324.53 84.37 1324.62C84.96 1324.7 85.53 1324.85 86.08 1325.06C88.9 1326.21 90.9 1329.02 92.41 1332.06C93.52 1332.26 94.63 1332.44 95.74 1332.59C96.85 1332.75 97.97 1332.88 99.08 1332.99C100.2 1333.1 101.32 1333.19 102.44 1333.25C103.56 1333.32 104.69 1333.36 105.81 1333.39C106.39 1333.39 106.97 1333.4 107.55 1333.42C108.14 1333.44 108.72 1333.47 109.3 1333.52C109.88 1333.57 110.46 1333.62 111.03 1333.69C111.61 1333.76 112.19 1333.84 112.76 1333.94C112.19 1332.68 111.59 1331.44 110.9 1330.24C110.44 1329.49 109.96 1328.74 109.48 1328C108.99 1327.26 108.49 1326.53 107.97 1325.8C107.46 1325.08 106.93 1324.37 106.39 1323.67C105.85 1322.96 105.3 1322.27 104.73 1321.59C104.32 1321.48 103.91 1321.38 103.49 1321.29C103.08 1321.2 102.66 1321.12 102.25 1321.05C101.83 1320.98 101.41 1320.92 100.99 1320.86C100.57 1320.81 100.15 1320.76 99.73 1320.72C99.25 1320.68 98.78 1320.59 98.33 1320.43C97.88 1320.28 97.44 1320.07 97.04 1319.81C96.64 1319.55 96.27 1319.24 95.94 1318.89C95.62 1318.54 95.33 1318.16 95.1 1317.74C94.53 1316.6 94.19 1314.71 95.81 1312.19L96.3 1311.43L97.16 1311.7C99.71 1312.52 103.06 1315.89 106.05 1319.49C118.36 1322.81 133.81 1332.57 140.31 1341.78L138.38 1343.14C132.8 1335.24 119.77 1326.64 108.64 1322.77C109.02 1323.28 109.4 1323.79 109.78 1324.3C110.15 1324.82 110.52 1325.34 110.87 1325.86C111.23 1326.39 111.59 1326.92 111.93 1327.45C112.28 1327.99 112.62 1328.52 112.95 1329.07C113.19 1329.51 113.44 1329.96 113.67 1330.4C113.9 1330.85 114.13 1331.31 114.35 1331.76C114.58 1332.22 114.79 1332.68 115 1333.14C115.21 1333.6 115.41 1334.06 115.6 1334.53C120.29 1335.73 125.26 1338.11 128.3 1342.8C128.5 1343.06 128.67 1343.34 128.83 1343.63C128.98 1343.92 129.11 1344.22 129.21 1344.54C129.32 1344.85 129.4 1345.17 129.45 1345.49C129.51 1345.81 129.54 1346.14 129.54 1346.47C129.53 1346.77 129.48 1347.07 129.39 1347.35C129.3 1347.64 129.17 1347.91 129.01 1348.16C128.85 1348.42 128.66 1348.65 128.44 1348.85C128.22 1349.05 127.98 1349.23 127.71 1349.37C127.27 1349.59 126.81 1349.75 126.34 1349.85C125.86 1349.96 125.38 1350.01 124.89 1350C124.4 1349.99 123.92 1349.92 123.45 1349.8C122.98 1349.67 122.52 1349.49 122.1 1349.26C119.33 1347.79 117.71 1345 116.6 1342.74C115.76 1341.03 115.03 1339.26 114.32 1337.56C114.18 1337.23 114.04 1336.89 113.9 1336.55C113.23 1336.41 112.56 1336.29 111.89 1336.19C111.22 1336.09 110.55 1336.01 109.88 1335.94C109.2 1335.87 108.53 1335.82 107.85 1335.79C107.17 1335.76 106.5 1335.74 105.82 1335.75L105.63 1335.75C104.62 1335.73 103.61 1335.69 102.6 1335.64C101.59 1335.59 100.58 1335.52 99.58 1335.42C98.57 1335.33 97.57 1335.22 96.56 1335.1C95.56 1334.97 94.56 1334.82 93.56 1334.66C94.11 1335.98 94.57 1337.28 94.98 1338.43C95.29 1339.3 95.57 1340.08 95.82 1340.69C96 1341.16 96.18 1341.64 96.34 1342.11C96.51 1342.59 96.68 1343.07 96.83 1343.55C96.99 1344.03 97.13 1344.51 97.28 1344.99C97.42 1345.48 97.55 1345.96 97.68 1346.45C97.8 1346.89 97.93 1347.32 98.05 1347.75C98.66 1348.03 99.26 1348.33 99.85 1348.65C100.44 1348.98 101.01 1349.32 101.57 1349.68C102.14 1350.05 102.68 1350.44 103.22 1350.84C103.75 1351.25 104.27 1351.68 104.77 1352.12C106.11 1353.32 107.65 1355.39 107.59 1357.33C107.59 1357.54 107.57 1357.75 107.52 1357.96C107.47 1358.16 107.4 1358.36 107.3 1358.55C107.21 1358.74 107.1 1358.92 106.96 1359.08C106.83 1359.25 106.68 1359.39 106.51 1359.52C106.34 1359.66 106.16 1359.77 105.96 1359.87C105.76 1359.96 105.55 1360.04 105.34 1360.09C105.13 1360.14 104.91 1360.17 104.69 1360.17C104.48 1360.18 104.26 1360.16 104.04 1360.12C103.55 1360 103.07 1359.82 102.61 1359.61C102.15 1359.39 101.72 1359.13 101.31 1358.83C100.9 1358.53 100.52 1358.19 100.17 1357.82C99.82 1357.45 99.51 1357.05 99.24 1356.62C98.89 1356.06 98.57 1355.5 98.26 1354.92C97.95 1354.35 97.67 1353.76 97.41 1353.16C97.14 1352.57 96.9 1351.96 96.68 1351.34C96.46 1350.73 96.27 1350.11 96.1 1349.48C88.99 1346.54 80.93 1346.59 74.87 1347C74.74 1347.01 74.62 1347.01 74.49 1347.02C74.37 1347.02 74.24 1347.02 74.12 1347.02C73.99 1347.02 73.87 1347.02 73.74 1347.02C73.62 1347.02 73.49 1347.01 73.37 1347.01C73.96 1347.95 74.52 1348.91 75.06 1349.88C75.59 1350.85 76.09 1351.85 76.57 1352.85C77.04 1353.86 77.48 1354.88 77.89 1355.91C78.3 1356.94 78.68 1357.99 79.02 1359.04C79.06 1359.19 79.1 1359.33 79.13 1359.48C79.15 1359.63 79.17 1359.77 79.19 1359.92C79.2 1360.07 79.2 1360.22 79.2 1360.37C79.19 1360.52 79.18 1360.67 79.16 1360.82C82.98 1362.94 84.05 1365.86 84.47 1369.95L84.59 1371.11L83.44 1371.25C83.39 1371.26 83.33 1371.26 83.27 1371.27C83.22 1371.28 83.16 1371.28 83.1 1371.29C83.05 1371.29 82.99 1371.29 82.93 1371.29C82.87 1371.3 82.82 1371.3 82.76 1371.3ZM78.43 1363.12C77.88 1364.37 77.69 1364.95 78.1 1365.6C78.31 1365.97 78.55 1366.33 78.82 1366.66C79.1 1366.99 79.4 1367.3 79.73 1367.57C80.06 1367.85 80.41 1368.09 80.79 1368.3C81.16 1368.51 81.55 1368.69 81.96 1368.83C81.54 1366.26 80.69 1364.51 78.43 1363.12ZM99.07 1350.93C99.07 1350.93 99.07 1350.93 99.07 1350.93C99.07 1350.93 99.07 1350.93 99.07 1350.93L99.07 1350.93ZM99.51 1352.07C99.67 1352.45 99.84 1352.82 100.02 1353.18C100.2 1353.55 100.39 1353.91 100.59 1354.27C100.79 1354.62 101 1354.97 101.23 1355.31C101.41 1355.61 101.62 1355.88 101.85 1356.14C102.08 1356.39 102.34 1356.63 102.61 1356.84C102.88 1357.05 103.17 1357.23 103.48 1357.39C103.78 1357.55 104.1 1357.69 104.43 1357.79C104.48 1357.81 104.54 1357.82 104.6 1357.82C104.65 1357.82 104.71 1357.82 104.76 1357.81C104.82 1357.8 104.87 1357.78 104.92 1357.76C104.97 1357.74 105.02 1357.71 105.07 1357.67C105.1 1357.65 105.12 1357.62 105.15 1357.59C105.17 1357.56 105.19 1357.53 105.21 1357.49C105.22 1357.46 105.24 1357.42 105.24 1357.38C105.25 1357.34 105.25 1357.3 105.25 1357.26C105.27 1356.41 104.38 1354.92 103.21 1353.87C102.89 1353.59 102.57 1353.32 102.24 1353.05C101.9 1352.79 101.57 1352.53 101.22 1352.29C100.87 1352.04 100.52 1351.8 100.16 1351.58C99.81 1351.35 99.44 1351.13 99.07 1350.93C99.21 1351.31 99.35 1351.69 99.51 1352.07ZM116.79 1337.32C116.79 1337.32 116.79 1337.32 116.79 1337.32C116.79 1337.32 116.79 1337.32 116.79 1337.32L116.79 1337.32ZM118.74 1341.7C119.69 1343.65 121.06 1346.02 123.22 1347.18C123.47 1347.32 123.74 1347.43 124.02 1347.5C124.3 1347.58 124.59 1347.63 124.87 1347.64C125.16 1347.65 125.45 1347.63 125.74 1347.57C126.02 1347.52 126.3 1347.43 126.56 1347.31C126.65 1347.27 126.74 1347.21 126.81 1347.15C126.89 1347.08 126.96 1347.01 127.01 1346.92C127.07 1346.84 127.12 1346.75 127.15 1346.65C127.18 1346.55 127.2 1346.45 127.2 1346.35C127.19 1346.15 127.16 1345.94 127.11 1345.74C127.07 1345.54 127.01 1345.35 126.93 1345.15C126.86 1344.96 126.77 1344.77 126.67 1344.6C126.57 1344.42 126.46 1344.24 126.33 1344.08C125.76 1343.27 125.12 1342.5 124.42 1341.8C123.72 1341.09 122.96 1340.45 122.15 1339.87C121.34 1339.3 120.48 1338.8 119.58 1338.37C118.68 1337.94 117.75 1337.59 116.79 1337.32C117.4 1338.78 118.04 1340.27 118.74 1341.7ZM63.14 1339.85C63.15 1339.85 63.15 1339.85 63.15 1339.85C63.15 1339.85 63.15 1339.85 63.15 1339.85L63.14 1339.85ZM63.1 1340.18C63.1 1340.29 63.11 1340.4 63.13 1340.51C63.14 1340.62 63.17 1340.73 63.22 1340.83C63.26 1340.93 63.31 1341.03 63.37 1341.12C64.05 1342.24 65.93 1343.12 68.03 1343.74C67.7 1343.34 67.34 1342.95 66.96 1342.58C66.59 1342.22 66.2 1341.87 65.79 1341.54C65.38 1341.22 64.95 1340.91 64.51 1340.63C64.07 1340.35 63.61 1340.09 63.15 1339.85C63.12 1339.96 63.11 1340.07 63.1 1340.18ZM80.93 1327.4C80.95 1327.45 80.96 1327.49 80.98 1327.54C81 1327.58 81.02 1327.62 81.05 1327.66C81.07 1327.7 81.09 1327.74 81.12 1327.78C81.15 1327.82 81.18 1327.86 81.21 1327.89C82.35 1329.33 85.55 1330.54 89.4 1331.44C89.18 1330.99 88.91 1330.56 88.62 1330.15C88.32 1329.75 88 1329.36 87.64 1329.01C87.28 1328.65 86.9 1328.33 86.49 1328.03C86.08 1327.74 85.65 1327.47 85.21 1327.25C84.86 1327.12 84.51 1327.02 84.15 1326.96C83.78 1326.9 83.42 1326.88 83.05 1326.89C82.68 1326.91 82.32 1326.96 81.96 1327.04C81.61 1327.13 81.26 1327.25 80.93 1327.4L80.93 1327.4ZM97.33 1314.35C97.23 1314.53 97.16 1314.72 97.11 1314.91C97.05 1315.11 97.02 1315.31 97.01 1315.51C97 1315.71 97.02 1315.91 97.06 1316.11C97.09 1316.31 97.15 1316.5 97.23 1316.69C97.37 1316.93 97.54 1317.14 97.74 1317.34C97.93 1317.54 98.14 1317.71 98.38 1317.85C98.61 1318 98.86 1318.12 99.12 1318.21C99.38 1318.29 99.65 1318.35 99.92 1318.37C100.66 1318.42 101.42 1318.52 102.21 1318.65C101.85 1318.23 101.49 1317.83 101.11 1317.45C100.72 1317.06 100.33 1316.69 99.92 1316.33C99.51 1315.97 99.09 1315.62 98.66 1315.29C98.23 1314.96 97.79 1314.65 97.33 1314.35L97.33 1314.35Z" />
			</g>
		</g>
		<g id="_Group_7">
			<path id="_Path_9" fill-rule="evenodd" class="shp2" d="M301.34 1390.77C303.31 1381.86 397.53 1310.62 407.66 1309.81C417.79 1309.01 446.89 1324.11 448.48 1326.97C449.55 1328.87 448.59 1333.26 445.62 1340.12C444.12 1347.47 449.37 1350.91 461.35 1350.45C481.18 1349.68 481.62 1314.36 486.59 1316.76C491.57 1319.16 500.26 1328.41 500.7 1332.36C501.13 1336.31 495.64 1354.23 497.75 1358.79C499.85 1363.35 505.45 1399.44 501.33 1405.49C497.21 1411.55 456.14 1414.17 447.14 1414.45C438.15 1414.74 304.77 1424.57 300.56 1415.45C297.76 1409.38 298.02 1401.16 301.34 1390.77Z" />
			<path id="_Path_10" fill-rule="evenodd" class="shp3" d="M299.1 1402.02C303.7 1402.8 308.32 1403.49 312.95 1404.1C317.57 1404.71 322.21 1405.23 326.86 1405.67C331.5 1406.11 336.16 1406.46 340.82 1406.73C345.48 1407 350.14 1407.18 354.8 1407.28C380.52 1407.65 462.39 1398.02 466.82 1395.54C471.26 1393.07 493.19 1354.49 497.75 1358.79C502.3 1363.09 510.57 1405.2 507.42 1408.16C504.28 1411.11 483.2 1415.68 470.98 1415.73C458.77 1415.78 301.62 1424.35 298.55 1415.97C296.5 1410.39 296.69 1405.74 299.1 1402.02Z" />
			<g id="_Group_8">
				<path id="_Path_11" fill-rule="evenodd" class="shp4" d="M474.42 1389.12C473.79 1386.54 468.39 1363.83 472.24 1358.43C475.08 1354.45 477.1 1338.34 477.63 1332.48L479.98 1332.69C479.9 1333.58 477.96 1354.49 474.17 1359.8C471.74 1363.21 474.44 1379.25 476.71 1388.56L474.42 1389.12Z" />
			</g>
			<g id="_Group_9">
				<path id="_Path_12" fill-rule="evenodd" class="shp4" d="M361.99 1381L361.42 1380.48C361.22 1380.31 341.68 1362.7 327.92 1367.11L327.2 1364.86C341.01 1360.44 358.94 1375.18 362.44 1378.22C365.66 1376.81 379.62 1370.63 393.12 1363.84C408.47 1356.13 444.76 1339.22 445.12 1339.05L446.12 1341.19C445.76 1341.36 409.5 1358.25 394.18 1365.95C378.81 1373.68 362.85 1380.62 362.69 1380.69L361.99 1381Z" />
			</g>
			<g id="_Group_10">
				<path id="_Path_13" fill-rule="evenodd" class="shp4" d="M351.59 1397.17C351.12 1397.18 350.66 1397.17 350.19 1397.14C349.73 1397.11 349.26 1397.06 348.8 1396.99C348.34 1396.93 347.88 1396.84 347.43 1396.73C346.97 1396.63 346.52 1396.51 346.08 1396.37C325.44 1389.33 301.72 1391.93 301.48 1391.95L301.21 1389.61C301.45 1389.58 325.69 1386.92 346.84 1394.12C361.79 1399.24 399.81 1376.15 422.52 1362.36C431.13 1357.14 437.36 1353.35 439.88 1352.59C440.84 1352.33 441.81 1352.11 442.79 1351.91C443.76 1351.71 444.74 1351.55 445.73 1351.41C446.71 1351.28 447.7 1351.17 448.69 1351.1C449.68 1351.02 450.68 1350.98 451.67 1350.97C456.45 1350.71 461.39 1350.46 466.74 1348.19C472.21 1345.87 474.54 1340.05 477.5 1332.67C478.03 1331.23 478.6 1329.8 479.2 1328.38C479.81 1326.97 480.45 1325.57 481.13 1324.18C481.8 1322.8 482.51 1321.44 483.26 1320.09C484.01 1318.74 484.79 1317.42 485.61 1316.11L487.58 1317.4C486.79 1318.68 486.03 1319.97 485.3 1321.28C484.57 1322.6 483.88 1323.93 483.22 1325.28C482.56 1326.62 481.94 1327.99 481.35 1329.37C480.76 1330.75 480.21 1332.14 479.69 1333.55C476.65 1341.12 474.03 1347.66 467.66 1350.37C461.93 1352.8 456.78 1353.06 451.8 1353.32C450.85 1353.33 449.9 1353.37 448.96 1353.44C448.01 1353.51 447.07 1353.61 446.13 1353.73C445.2 1353.86 444.26 1354.02 443.34 1354.21C442.41 1354.39 441.49 1354.61 440.57 1354.85C438.33 1355.53 431.89 1359.44 423.74 1364.38C403.01 1376.97 369.73 1397.17 351.59 1397.17Z" />
			</g>
			<g id="_Group_11">
				<path id="_Compound_Path_2" fill-rule="evenodd" class="shp4" d="M375.93 1367.32C375.78 1366.95 375.65 1366.58 375.53 1366.2C375.41 1365.83 375.3 1365.44 375.21 1365.06C375.12 1364.67 375.05 1364.29 374.98 1363.89C374.92 1363.5 374.87 1363.11 374.84 1362.72C374.49 1362.53 374.17 1362.38 373.89 1362.26C372.32 1361.56 370.57 1360.67 368.72 1359.72C361.7 1356.12 352.94 1351.64 345.22 1353.37L344.7 1351.06C353.27 1349.14 362.44 1353.84 369.81 1357.61C371.52 1358.5 373.14 1359.33 374.59 1359.98C374.58 1359.9 374.57 1359.81 374.56 1359.72C374.4 1358.62 374.2 1357.53 373.95 1356.45C373.71 1355.37 373.42 1354.31 373.08 1353.25C372.75 1352.19 372.37 1351.15 371.95 1350.13C371.53 1349.1 371.07 1348.09 370.56 1347.11C366.59 1346.43 361.66 1344.88 360.47 1342.03C359.94 1340.78 359.89 1338.79 362.6 1336.41L363.11 1335.96L363.76 1336.18C367.01 1337.26 369.88 1340.8 372.11 1344.97C372.36 1345.01 372.62 1345.05 372.88 1345.08C373.14 1345.1 373.4 1345.13 373.66 1345.14C373.92 1345.16 374.18 1345.17 374.44 1345.17C374.7 1345.17 374.96 1345.17 375.22 1345.16C376.53 1345.04 377.84 1344.96 379.15 1344.93C380.46 1344.91 381.78 1344.93 383.09 1345C384.4 1345.07 385.71 1345.18 387.01 1345.35C388.32 1345.51 389.61 1345.72 390.9 1345.98C390.57 1345.39 390.25 1344.8 389.96 1344.19C389.66 1343.59 389.39 1342.97 389.13 1342.35C388.88 1341.73 388.64 1341.1 388.42 1340.46C388.21 1339.82 388.01 1339.18 387.83 1338.53C387.68 1337.85 387.52 1337.18 387.33 1336.52C387.14 1335.85 386.94 1335.19 386.72 1334.54C386.49 1333.88 386.25 1333.23 385.99 1332.59C385.74 1331.95 385.46 1331.32 385.16 1330.69C382.17 1329.73 379.7 1328.45 378.62 1326.83C378.44 1326.58 378.3 1326.31 378.2 1326.03C378.09 1325.75 378.02 1325.45 377.99 1325.15C377.97 1324.85 377.98 1324.55 378.02 1324.25C378.07 1323.95 378.16 1323.66 378.29 1323.39L378.54 1322.8L379.16 1322.68C382.4 1322.11 385 1325.09 386.88 1328.74C388 1329.04 389.13 1329.31 390.27 1329.54C391.4 1329.77 392.55 1329.97 393.69 1330.13C394.84 1330.3 396 1330.42 397.15 1330.51C398.31 1330.6 399.47 1330.66 400.63 1330.67L400.94 1330.67C402.03 1330.73 403.11 1330.83 404.19 1330.98C405.27 1331.12 406.34 1331.31 407.4 1331.55C408.46 1331.78 409.52 1332.06 410.55 1332.38C411.59 1332.7 412.62 1333.07 413.63 1333.47C413.39 1332.6 413.12 1331.75 412.81 1330.92C412.04 1328.83 408.01 1323.85 404.01 1319.73C403.54 1319.65 403.08 1319.6 402.63 1319.56C402.57 1319.55 396.44 1318.98 395.06 1315.76C394.68 1314.86 394.54 1313.43 395.99 1311.66L396.51 1311.02L397.29 1311.29C399.08 1311.91 402.11 1314.46 405.18 1317.53C416.83 1319.84 433.66 1332.07 438.87 1342.47L436.76 1343.53C432.4 1334.84 418.87 1324.44 408.28 1320.82C411.52 1324.45 414.31 1328.15 415.04 1330.11C415.17 1330.47 415.3 1330.84 415.42 1331.22C415.54 1331.59 415.66 1331.96 415.77 1332.34C415.88 1332.71 415.99 1333.09 416.09 1333.47C416.19 1333.85 416.28 1334.23 416.37 1334.61C421.26 1336.84 425.59 1339.9 427.18 1343.48C427.32 1343.76 427.44 1344.05 427.54 1344.35C427.63 1344.65 427.7 1344.96 427.75 1345.27C427.79 1345.58 427.81 1345.9 427.8 1346.21C427.79 1346.52 427.76 1346.84 427.7 1347.15C427.62 1347.47 427.5 1347.78 427.35 1348.07C427.19 1348.36 427 1348.63 426.78 1348.88C426.56 1349.12 426.31 1349.34 426.04 1349.53C425.77 1349.72 425.47 1349.87 425.16 1349.99C424.76 1350.15 424.34 1350.27 423.91 1350.34C423.48 1350.41 423.04 1350.43 422.61 1350.4C422.17 1350.38 421.74 1350.3 421.32 1350.17C420.91 1350.04 420.5 1349.87 420.13 1349.65C417.66 1348.16 416.59 1345.37 415.94 1343.11C415.45 1341.43 415.08 1339.69 414.72 1338.03C414.59 1337.45 414.47 1336.88 414.34 1336.31C409.65 1334.3 404.48 1333.03 400.96 1333.03L400.67 1333.03C399.61 1333.02 398.56 1332.98 397.51 1332.9C396.46 1332.83 395.41 1332.73 394.37 1332.61C393.32 1332.48 392.28 1332.33 391.24 1332.14C390.21 1331.96 389.17 1331.75 388.15 1331.52C388.36 1332.05 388.56 1332.58 388.75 1333.12C388.94 1333.65 389.12 1334.2 389.29 1334.74C389.46 1335.29 389.61 1335.83 389.76 1336.39C389.9 1336.94 390.03 1337.49 390.15 1338.05C390.63 1340.33 392.29 1343.62 394.08 1346.9C394.91 1347.18 395.73 1347.51 396.51 1347.89C397.3 1348.27 398.07 1348.7 398.81 1349.18C399.54 1349.65 400.25 1350.17 400.92 1350.73C401.59 1351.3 402.23 1351.9 402.82 1352.54C403.13 1352.86 403.4 1353.21 403.64 1353.59C403.88 1353.97 404.08 1354.36 404.24 1354.78C404.4 1355.19 404.52 1355.62 404.6 1356.06C404.67 1356.5 404.7 1356.95 404.69 1357.39C404.65 1357.87 404.49 1358.33 404.25 1358.75C404 1359.17 403.67 1359.52 403.27 1359.79C402.87 1360.07 402.42 1360.25 401.94 1360.32C401.46 1360.4 400.98 1360.37 400.51 1360.24C400.09 1360.09 399.69 1359.9 399.31 1359.67C398.93 1359.44 398.58 1359.17 398.25 1358.87C397.93 1358.57 397.64 1358.24 397.38 1357.88C397.12 1357.52 396.9 1357.13 396.72 1356.72C396.04 1355.25 394.91 1353.24 393.72 1351.1C393.3 1350.37 392.88 1349.61 392.46 1348.85C386.82 1347.07 380.43 1347.17 375.39 1347.52C375.22 1347.53 375.05 1347.53 374.88 1347.53C374.71 1347.53 374.54 1347.53 374.37 1347.53C374.19 1347.52 374.02 1347.51 373.85 1347.5C373.68 1347.49 373.51 1347.48 373.34 1347.46C373.78 1348.41 374.19 1349.38 374.56 1350.36C374.93 1351.34 375.26 1352.33 375.56 1353.33C375.86 1354.34 376.12 1355.35 376.34 1356.37C376.57 1357.4 376.76 1358.43 376.91 1359.47C376.96 1359.95 377 1360.44 377.04 1360.92C377.05 1361.03 377.06 1361.15 377.07 1361.26C381.01 1363.67 383.03 1367.09 382.69 1370.91L382.6 1371.86L381.66 1371.98C381.6 1371.99 381.55 1371.99 381.5 1372C381.44 1372 381.39 1372.01 381.34 1372.01C381.29 1372.01 381.23 1372.02 381.18 1372.02C381.13 1372.02 381.07 1372.02 381.02 1372.02C377.95 1372.02 376.7 1369.1 375.93 1367.32ZM377.62 1364.98C377.66 1365.14 377.71 1365.3 377.76 1365.45C377.81 1365.61 377.86 1365.77 377.92 1365.92C377.97 1366.08 378.03 1366.23 378.1 1366.38C378.92 1368.3 379.55 1369.23 380.34 1369.53C380.28 1369.04 380.18 1368.56 380.02 1368.09C379.87 1367.62 379.67 1367.17 379.43 1366.73C379.19 1366.3 378.9 1365.9 378.58 1365.52C378.26 1365.15 377.9 1364.8 377.51 1364.5C377.54 1364.66 377.58 1364.82 377.62 1364.98ZM395.95 1350.27C397.1 1352.33 398.17 1354.26 398.86 1355.74C398.96 1355.99 399.1 1356.23 399.25 1356.45C399.4 1356.67 399.58 1356.88 399.77 1357.07C399.96 1357.26 400.18 1357.43 400.4 1357.58C400.63 1357.73 400.87 1357.85 401.12 1357.96C401.18 1357.98 401.26 1357.99 401.33 1358C401.4 1358.01 401.47 1358 401.54 1357.99C401.61 1357.98 401.68 1357.97 401.75 1357.94C401.81 1357.91 401.88 1357.88 401.94 1357.84C401.99 1357.8 402.05 1357.75 402.09 1357.7C402.14 1357.65 402.18 1357.59 402.21 1357.53C402.25 1357.47 402.28 1357.41 402.29 1357.34C402.31 1357.27 402.32 1357.2 402.33 1357.14C402.32 1356.86 402.29 1356.58 402.23 1356.31C402.17 1356.03 402.08 1355.77 401.98 1355.51C401.87 1355.25 401.73 1355.01 401.58 1354.78C401.43 1354.54 401.25 1354.33 401.05 1354.13C400.69 1353.73 400.31 1353.35 399.92 1352.99C399.52 1352.63 399.11 1352.29 398.68 1351.97C398.25 1351.64 397.81 1351.34 397.35 1351.06C396.9 1350.77 396.43 1350.51 395.95 1350.27ZM418.2 1342.47C418.73 1344.31 419.57 1346.57 421.33 1347.64C421.55 1347.76 421.79 1347.85 422.03 1347.92C422.27 1347.99 422.52 1348.04 422.77 1348.05C423.02 1348.07 423.27 1348.05 423.52 1348.01C423.76 1347.97 424.01 1347.91 424.24 1347.81C424.38 1347.76 424.51 1347.7 424.63 1347.62C424.75 1347.54 424.86 1347.45 424.96 1347.34C425.06 1347.24 425.15 1347.12 425.22 1347C425.29 1346.87 425.35 1346.74 425.39 1346.6C425.41 1346.41 425.43 1346.23 425.42 1346.04C425.42 1345.86 425.4 1345.67 425.37 1345.49C425.34 1345.31 425.29 1345.13 425.23 1344.95C425.17 1344.78 425.09 1344.61 425 1344.44C423.88 1341.91 420.78 1339.51 417.02 1337.57C417.38 1339.19 417.74 1340.86 418.2 1342.47ZM363.64 1338.68C362.7 1339.63 362.36 1340.46 362.64 1341.11C363.24 1342.55 366.12 1343.7 369.06 1344.4C367.43 1341.72 365.56 1339.6 363.64 1338.68L363.64 1338.68ZM380.36 1325.02C380.37 1325.07 380.38 1325.11 380.4 1325.16C380.41 1325.2 380.43 1325.24 380.44 1325.28C380.46 1325.33 380.48 1325.37 380.51 1325.41C380.53 1325.45 380.55 1325.49 380.58 1325.52C380.76 1325.74 380.95 1325.95 381.16 1326.14C381.37 1326.33 381.59 1326.51 381.82 1326.68C382.05 1326.84 382.29 1326.99 382.54 1327.12C382.79 1327.26 383.05 1327.37 383.32 1327.47C383.15 1327.19 382.96 1326.92 382.75 1326.67C382.54 1326.43 382.31 1326.2 382.05 1325.99C381.8 1325.78 381.53 1325.59 381.25 1325.43C380.97 1325.27 380.67 1325.13 380.36 1325.02L380.36 1325.02ZM397.32 1313.91C397.28 1313.98 397.24 1314.05 397.22 1314.13C397.2 1314.2 397.18 1314.28 397.17 1314.36C397.17 1314.44 397.17 1314.52 397.18 1314.6C397.19 1314.68 397.21 1314.75 397.23 1314.83C397.64 1315.78 399.51 1316.53 401.14 1316.92C400.85 1316.64 400.55 1316.37 400.24 1316.1C399.94 1315.83 399.62 1315.57 399.31 1315.32C398.99 1315.07 398.66 1314.82 398.33 1314.59C398 1314.35 397.66 1314.13 397.32 1313.91L397.32 1313.91Z" />
			</g>
		</g>
		<g id="_Group_12">
			<path id="_Path_14" fill-rule="evenodd" class="shp5" d="M277.16 844.51C277.06 844.51 276.95 844.5 276.85 844.47C276.74 844.44 276.64 844.4 276.55 844.34C276.46 844.29 276.38 844.22 276.3 844.15C276.23 844.07 276.17 843.98 276.12 843.89C254.57 803.23 237.03 781.33 225.41 780.55C209.43 779.47 190.4 684.58 188.28 673.76C188.27 673.68 188.26 673.59 188.26 673.5C188.26 673.41 188.27 673.33 188.29 673.24C188.32 673.16 188.35 673.08 188.39 673C188.43 672.92 188.47 672.85 188.53 672.78C188.58 672.72 188.65 672.65 188.72 672.6C188.78 672.55 188.86 672.5 188.94 672.46C189.02 672.43 189.1 672.4 189.18 672.38C189.27 672.36 189.35 672.35 189.44 672.35L210.97 672.35C211.11 672.35 211.26 672.38 211.4 672.43C211.53 672.49 211.66 672.57 211.77 672.67C211.88 672.77 211.96 672.88 212.03 673.02C212.09 673.15 212.13 673.29 212.14 673.44C212.21 674.3 219.21 759.23 249.43 778.37C249.69 778.54 249.87 778.81 249.94 779.11C250.01 779.42 249.95 779.73 249.79 780C249.62 780.26 249.35 780.45 249.05 780.51C248.75 780.58 248.43 780.53 248.16 780.36C218.48 761.57 210.8 685.24 209.88 674.71L190.88 674.71C199.13 716.46 214.95 777.48 225.57 778.19C238.23 779.04 255.94 800.77 278.2 842.78C278.28 842.91 278.32 843.06 278.34 843.22C278.35 843.37 278.34 843.53 278.29 843.68C278.25 843.83 278.17 843.96 278.07 844.08C277.97 844.2 277.85 844.3 277.72 844.37C277.67 844.4 277.63 844.42 277.58 844.43C277.54 844.45 277.49 844.47 277.45 844.48C277.4 844.49 277.35 844.5 277.31 844.5C277.26 844.51 277.21 844.51 277.16 844.51Z" />
		</g>
		<g id="_Group_13">
			<path id="_Path_15" fill-rule="evenodd" class="shp5" d="M217.76 809.53C217.67 809.53 217.58 809.52 217.49 809.5C217.4 809.48 217.32 809.45 217.24 809.41C217.16 809.37 217.08 809.32 217.01 809.27C216.94 809.21 216.88 809.15 216.83 809.08C214.35 805.95 211.67 802.99 208.78 800.23C205.9 797.48 202.83 794.93 199.59 792.6C196.35 790.27 192.96 788.16 189.43 786.31C185.9 784.45 182.24 782.84 178.49 781.49C178.2 781.38 177.97 781.16 177.84 780.88C177.71 780.6 177.7 780.28 177.8 779.99C177.91 779.7 178.12 779.46 178.4 779.33C178.67 779.19 178.99 779.17 179.28 779.27C183.14 780.65 186.9 782.31 190.53 784.22C194.15 786.13 197.64 788.29 200.97 790.68C204.3 793.07 207.46 795.7 210.42 798.53C213.38 801.37 216.14 804.4 218.69 807.62C218.82 807.79 218.91 808 218.93 808.22C218.95 808.44 218.91 808.66 218.82 808.86C218.72 809.06 218.57 809.23 218.38 809.35C218.19 809.47 217.98 809.53 217.76 809.53Z" />
		</g>
		<g id="_Group_14">
			<path id="_Path_16" fill-rule="evenodd" class="shp5" d="M462.35 1149.55C454.4 1149.5 446.45 1149.22 438.52 1148.69C430.59 1148.17 422.67 1147.41 414.78 1146.42C406.89 1145.43 399.04 1144.2 391.22 1142.74C383.41 1141.28 375.64 1139.59 367.92 1137.67C367.62 1137.59 367.37 1137.39 367.21 1137.12C367.06 1136.84 367.02 1136.52 367.1 1136.22C367.18 1135.92 367.38 1135.67 367.65 1135.51C367.93 1135.36 368.25 1135.32 368.55 1135.4C369.52 1135.66 466.09 1161.79 539.2 1135.42C539.34 1135.37 539.5 1135.34 539.65 1135.35C539.81 1135.36 539.96 1135.4 540.1 1135.46C540.24 1135.53 540.37 1135.62 540.47 1135.74C540.58 1135.85 540.66 1135.99 540.71 1136.13C540.76 1136.28 540.79 1136.43 540.78 1136.59C540.77 1136.74 540.73 1136.9 540.67 1137.04C540.6 1137.18 540.51 1137.3 540.39 1137.41C540.28 1137.51 540.15 1137.59 540 1137.64C515.25 1146.57 487.86 1149.55 462.35 1149.55Z" />
		</g>
		<g id="_Group_15">
			<path id="_Path_17" fill-rule="evenodd" class="shp5" d="M102.26 1135.06C97.58 1135.07 92.89 1134.98 88.2 1134.76C83.52 1134.55 78.84 1134.22 74.17 1133.78C69.5 1133.34 64.84 1132.78 60.2 1132.11C55.56 1131.43 50.93 1130.65 46.33 1129.75C46.03 1129.68 45.76 1129.49 45.6 1129.23C45.43 1128.96 45.38 1128.64 45.45 1128.34C45.52 1128.03 45.7 1127.77 45.97 1127.6C46.23 1127.44 46.55 1127.38 46.85 1127.45C47.93 1127.68 155.4 1151.14 217.43 1097.11C217.67 1096.91 217.97 1096.8 218.29 1096.82C218.6 1096.84 218.89 1096.99 219.09 1097.22C219.3 1097.46 219.4 1097.76 219.38 1098.07C219.36 1098.38 219.22 1098.67 218.98 1098.88C185.33 1128.19 138.62 1135.06 102.26 1135.06Z" />
		</g>
		<g id="_Group_16">
			<path id="_Path_18" fill-rule="evenodd" class="shp5" d="M519.2 1143.67C519.06 1143.67 518.92 1143.65 518.79 1143.6C518.66 1143.55 518.54 1143.48 518.43 1143.39C518.32 1143.3 518.23 1143.19 518.17 1143.06C518.1 1142.94 518.06 1142.81 518.04 1142.67C510.24 1090.97 477.25 1007.24 468.61 996.76C464.01 991.18 464.92 957.68 466.79 903.5C468.4 856.92 470.22 804.13 465.89 780.59C457.43 734.67 425.97 674.69 425.66 674.09C425.51 673.81 425.48 673.49 425.57 673.19C425.67 672.89 425.87 672.64 426.15 672.49C426.43 672.34 426.75 672.31 427.05 672.41C427.35 672.5 427.6 672.71 427.75 672.98C428.07 673.59 459.69 733.88 468.22 780.16C472.59 803.95 470.77 856.88 469.15 903.58C467.68 946.11 466.17 990.08 470.43 995.25C480.29 1007.22 512.93 1092.98 520.37 1142.31C520.39 1142.47 520.39 1142.62 520.35 1142.77C520.31 1142.92 520.25 1143.07 520.15 1143.19C520.06 1143.32 519.95 1143.42 519.81 1143.5C519.68 1143.58 519.53 1143.63 519.38 1143.66C519.36 1143.66 519.35 1143.66 519.33 1143.66C519.32 1143.67 519.3 1143.67 519.29 1143.67C519.27 1143.67 519.26 1143.67 519.25 1143.67C519.23 1143.67 519.22 1143.67 519.2 1143.67L519.2 1143.67Z" />
		</g>
		<g id="_Group_17">
			<path id="_Path_19" fill-rule="evenodd" class="shp5" d="M490.75 986.69C490.66 986.69 490.56 986.68 490.47 986.66C490.37 986.63 490.28 986.6 490.2 986.55C490.11 986.51 490.03 986.45 489.96 986.39C489.89 986.32 489.83 986.25 489.77 986.17C479.66 971.29 441.58 969.56 441.2 969.55C441.04 969.55 440.89 969.51 440.75 969.44C440.61 969.38 440.48 969.28 440.38 969.17C440.27 969.06 440.19 968.92 440.14 968.78C440.08 968.63 440.06 968.47 440.07 968.32C440.08 968.17 440.12 968.02 440.19 967.88C440.26 967.75 440.35 967.63 440.47 967.52C440.58 967.42 440.71 967.34 440.85 967.28C440.99 967.22 441.14 967.19 441.29 967.19C442.91 967.26 480.96 968.99 491.73 984.84C491.85 985.02 491.92 985.23 491.93 985.44C491.94 985.66 491.9 985.87 491.8 986.06C491.7 986.25 491.54 986.41 491.36 986.52C491.18 986.63 490.97 986.69 490.75 986.69L490.75 986.69Z" />
		</g>
		<g id="_Group_18">
			<path id="_Path_20" fill-rule="evenodd" class="shp5" d="M489.75 997.19C489.69 997.19 489.62 997.18 489.56 997.17C489.49 997.16 489.43 997.14 489.37 997.12C489.31 997.1 489.25 997.07 489.19 997.04C489.13 997.01 489.08 996.98 489.03 996.93C474.06 985.37 445.96 986.67 445.68 986.68C445.53 986.69 445.37 986.67 445.22 986.62C445.07 986.57 444.94 986.49 444.82 986.39C444.71 986.28 444.61 986.16 444.55 986.02C444.48 985.87 444.45 985.72 444.44 985.57C444.43 985.41 444.46 985.26 444.51 985.11C444.56 984.96 444.64 984.83 444.75 984.72C444.85 984.6 444.98 984.51 445.12 984.44C445.26 984.38 445.41 984.34 445.56 984.33C446.74 984.27 474.8 982.96 490.47 995.07C490.67 995.22 490.81 995.43 490.88 995.67C490.95 995.9 490.95 996.16 490.87 996.39C490.79 996.62 490.64 996.83 490.44 996.97C490.24 997.11 490 997.19 489.75 997.19Z" />
		</g>
		<g id="_Group_19">
			<path id="_Path_21" fill-rule="evenodd" class="shp5" d="M205.65 1048.57C205.54 1048.57 205.44 1048.56 205.33 1048.53C205.23 1048.5 205.13 1048.46 205.03 1048.4C204.94 1048.34 204.86 1048.27 204.78 1048.19C204.71 1048.11 204.65 1048.02 204.6 1047.93C199.26 1037.33 177.46 999.53 177.24 999.16C177.09 998.89 177.04 998.56 177.12 998.26C177.2 997.96 177.4 997.7 177.67 997.54C177.94 997.39 178.27 997.34 178.57 997.42C178.87 997.5 179.13 997.7 179.29 997.97C179.51 998.35 201.35 1036.21 206.71 1046.87C206.78 1047.01 206.82 1047.16 206.83 1047.31C206.84 1047.47 206.82 1047.62 206.77 1047.77C206.72 1047.92 206.65 1048.05 206.55 1048.17C206.44 1048.29 206.32 1048.39 206.18 1048.46C206.14 1048.48 206.1 1048.49 206.06 1048.51C206.01 1048.52 205.97 1048.53 205.92 1048.54C205.88 1048.55 205.83 1048.56 205.79 1048.57C205.74 1048.57 205.7 1048.57 205.65 1048.57Z" />
		</g>
		<g id="_Group_20">
			<path id="_Path_22" fill-rule="evenodd" class="shp5" d="M42.31 1041.09C42.27 1041.09 42.22 1041.09 42.18 1041.08C42.13 1041.08 42.09 1041.07 42.04 1041.06C42 1041.05 41.96 1041.04 41.92 1041.02C41.87 1041 41.83 1040.99 41.79 1040.96C41.65 1040.9 41.53 1040.8 41.43 1040.69C41.32 1040.57 41.24 1040.44 41.19 1040.29C41.14 1040.14 41.12 1039.99 41.13 1039.83C41.14 1039.68 41.18 1039.53 41.25 1039.39L54.99 1011.31C55.13 1011.03 55.37 1010.81 55.67 1010.71C55.97 1010.61 56.29 1010.63 56.57 1010.77C56.85 1010.91 57.07 1011.15 57.17 1011.45C57.27 1011.74 57.25 1012.07 57.11 1012.35L43.37 1040.43C43.32 1040.53 43.26 1040.62 43.19 1040.7C43.12 1040.78 43.03 1040.85 42.94 1040.91C42.84 1040.97 42.74 1041.02 42.64 1041.05C42.53 1041.08 42.42 1041.09 42.31 1041.09L42.31 1041.09Z" />
		</g>
		<g id="_Group_21">
			<path id="_Path_23" fill-rule="evenodd" class="shp5" d="M360.89 1019.46C360.82 1019.46 360.74 1019.45 360.67 1019.44C360.6 1019.43 360.54 1019.41 360.47 1019.38C360.4 1019.36 360.34 1019.33 360.28 1019.29C360.22 1019.25 360.16 1019.21 360.1 1019.17C359.99 1019.06 359.89 1018.94 359.82 1018.8C359.76 1018.66 359.72 1018.51 359.71 1018.35C359.7 1018.2 359.72 1018.04 359.77 1017.9C359.82 1017.75 359.9 1017.62 360.01 1017.5C361.18 1016.18 362.27 1014.79 363.29 1013.34C364.3 1011.9 365.23 1010.39 366.07 1008.84C366.91 1007.28 367.66 1005.68 368.32 1004.04C368.97 1002.4 369.53 1000.73 370 999.02C370.08 998.72 370.28 998.46 370.55 998.31C370.82 998.15 371.14 998.11 371.45 998.19C371.75 998.27 372 998.47 372.16 998.74C372.32 999.01 372.36 999.34 372.28 999.64C371.79 1001.43 371.2 1003.19 370.51 1004.92C369.82 1006.64 369.03 1008.33 368.15 1009.96C367.27 1011.59 366.29 1013.18 365.22 1014.7C364.16 1016.22 363.01 1017.68 361.77 1019.07C361.72 1019.13 361.66 1019.19 361.59 1019.23C361.52 1019.28 361.45 1019.33 361.37 1019.36C361.3 1019.39 361.22 1019.42 361.14 1019.44C361.05 1019.45 360.97 1019.46 360.89 1019.46Z" />
		</g>
		<g id="_Group_22">
			<path id="_Path_24" fill-rule="evenodd" class="shp5" d="M463.21 764.93C463.19 764.93 463.17 764.93 463.14 764.93C463.12 764.93 463.1 764.93 463.07 764.92C463.05 764.92 463.03 764.92 463 764.91C462.98 764.91 462.96 764.9 462.93 764.9C462.1 764.7 379.67 743.92 354.89 673.93C354.79 673.64 354.82 673.32 354.95 673.04C355.09 672.76 355.33 672.55 355.62 672.45C355.91 672.35 356.23 672.36 356.51 672.49C356.79 672.62 357.01 672.85 357.12 673.14C379.3 735.79 448.66 758.37 461.46 762.05L456.63 746.29C397.18 732.66 370.32 674.61 370.06 674.02C369.93 673.74 369.92 673.41 370.03 673.12C370.14 672.82 370.36 672.59 370.65 672.46C370.94 672.33 371.26 672.32 371.55 672.43C371.85 672.54 372.08 672.76 372.21 673.05C372.47 673.63 399.07 731.05 457.82 744.14C457.92 744.16 458.02 744.2 458.11 744.25C458.2 744.29 458.28 744.35 458.36 744.42C458.44 744.5 458.5 744.58 458.56 744.66C458.62 744.75 458.66 744.85 458.69 744.95L464.35 763.4C464.4 763.58 464.41 763.77 464.38 763.95C464.35 764.13 464.28 764.3 464.17 764.45C464.06 764.6 463.91 764.72 463.75 764.81C463.58 764.89 463.4 764.93 463.21 764.93L463.21 764.93Z" />
		</g>
	</g>
	<g id="_Group_23">
		<path id="_Path_25" fill-rule="evenodd" class="shp2" d="M137.23 230.6C65.34 319.93 27.79 370.65 24.57 382.76C19.74 400.92 74.74 394.29 77.71 389C79.69 385.48 100.7 361.22 140.73 316.23L137.23 230.6Z" />
		<path id="_Path_26" fill-rule="evenodd" class="shp6" d="M483.53 688.15C483.53 699.57 387.25 715.28 277.45 728.74C167.68 742.23 81.49 688.04 73.31 678.69C65.15 669.35 75.25 651.74 77.18 644.03C79.09 636.34 46.37 590.11 39.8 513.1C35.43 461.76 62.02 398.87 119.55 324.42C119.54 324.39 119.51 324.34 119.48 324.28C119.32 324.01 119.17 323.75 119.03 323.47C118.89 323.2 118.75 322.93 118.62 322.64C118.5 322.36 118.38 322.08 118.27 321.79C118.16 321.51 118.06 321.22 117.97 320.92C111.23 300.74 120.93 242.42 140.74 226.23C161.92 208.89 234.99 200.62 294.79 201.18C335.11 201.58 398.81 199.27 445.02 247.4C471.52 274.99 474.6 395.01 472.01 493.85C470.12 567.39 465.11 629.2 464.27 632.47C462.36 640.18 483.53 676.76 483.53 688.15Z" />
		<path id="_Path_27" fill-rule="evenodd" class="shp2" d="M472.01 493.85C469.17 462.37 404.33 451.18 386.27 399.34C366.73 343.25 359.89 252.28 266.15 251.11C203.64 250.33 154.77 274.77 119.55 324.41C119.54 324.38 119.51 324.34 119.48 324.27C119.32 323.9 118.78 322.71 117.97 320.92C111.23 300.74 120.93 242.42 140.74 226.23C161.92 208.89 234.91 192.14 294.28 184.93C347.55 178.47 398.8 199.27 445.02 247.41C471.52 274.99 474.6 395.01 472.01 493.85Z" />
		<path id="_Path_28" fill-rule="evenodd" class="shp0" d="M391.08 697.67C389.69 699.03 388.36 700.47 387.1 701.96C385.84 703.44 384.65 704.99 383.53 706.59C382.41 708.19 381.36 709.84 380.39 711.53C379.42 713.22 378.53 714.96 377.72 716.74C372.85 727.99 372.46 740.77 372.29 752.85C372.24 756.19 375.24 763.86 379.03 763.68C384.12 747.57 392.87 731.56 410.73 725.8C411.73 725.48 410.1 744.91 409.66 746.61C409.18 748.42 408.62 750.21 407.98 751.97C407.33 753.73 406.6 755.46 405.8 757.15C404.99 758.84 404.11 760.49 403.15 762.1C402.18 763.71 401.15 765.28 400.04 766.79C398.89 768.37 397.68 769.89 396.39 771.36C395.11 772.83 393.77 774.24 392.36 775.59C390.95 776.94 389.49 778.23 387.97 779.45C386.45 780.67 384.87 781.82 383.25 782.9C374.3 788.88 369.99 787.82 373.12 799.45C373.65 801.39 374.24 803.44 375.75 804.76C378.51 807.18 382.88 805.97 385.95 803.95C389.02 801.94 391.83 799.18 395.46 798.61C397.73 798.25 400.03 798.82 402.29 799.21C453.17 808.03 469.11 740.28 474.13 703.49C476.22 688.18 464.39 678.72 451.07 674.58C445.06 672.71 436.53 670.1 430.56 672.74C428.29 673.73 426.04 674.78 423.81 675.86C421.59 676.95 419.38 678.08 417.2 679.25C415.01 680.42 412.85 681.63 410.72 682.89C408.58 684.15 406.47 685.45 404.39 686.79C403.19 687.57 402.01 688.39 400.85 689.24C399.69 690.09 398.56 690.97 397.45 691.88C396.34 692.78 395.25 693.72 394.19 694.69C393.13 695.65 392.09 696.65 391.08 697.67L391.08 697.67Z" />
		<path id="_Path_29" fill-rule="evenodd" class="shp0" d="M390.03 378.03C397.25 402.58 442.63 511.18 435.88 519.84C429.13 528.5 413.14 679.47 420.09 690.71C427.05 701.95 445.02 729.23 458.02 724.89C471.02 720.56 559.13 541.5 560.57 519.84C562.02 498.18 535.8 362.45 530.02 356.68C526.17 352.83 479.51 359.95 390.03 378.03Z" />
		<path id="_Path_30" fill-rule="evenodd" class="shp2" d="M401.15 216.87C402.2 216.5 456.22 235.96 499.72 293.05C548.94 357.64 572.13 474.59 574.05 476.52C575.98 478.44 461.39 538.13 410.35 515.03C391.2 434.79 380.98 378.95 379.69 347.5C377.77 300.33 338.99 238.32 401.15 216.87Z" />
		<path id="_Path_31" fill-rule="evenodd" class="shp7" d="M316.01 19.48C299.06 6.18 284.13 1.66 271.22 5.91C251.86 12.3 228.76 46.63 215.34 51.33L201.91 56.03C205.7 70.21 212.77 76.9 223.14 76.08C225.71 98.61 230.32 114.97 236.97 125.18C246.95 140.48 311.57 167.5 313.71 162.13C318.32 150.55 314.9 148.1 318.68 146.23C322.45 144.37 351 120.38 354.87 72.88C356.87 48.41 352.41 17.38 316.01 19.48Z" />
		<path id="_Path_32" fill-rule="evenodd" class="shp0" d="M256.15 126.67C261.34 163.38 263.39 182.42 262.32 183.78C261.24 185.14 257.97 188.14 252.51 192.78C254.09 208.82 267.44 216.85 292.57 216.86C335.85 216.89 344.24 189.18 342.19 187.57C340.15 185.95 332.04 179.82 330.96 175.38C330.23 172.42 322.81 147.71 308.7 101.23L256.15 126.67Z" />
		<path id="_Path_33" fill-rule="evenodd" class="shp8" d="M260.69 161.46L261.48 164.85C263.64 174.39 268.31 179.63 275.5 180.6C313.52 185.72 318.23 132.71 312.64 114.22L309.5 101.34C308.01 122.66 305.87 134.88 303.09 138C300.31 141.12 286.17 148.94 260.69 161.46Z" />
		<path id="_Path_34" fill-rule="evenodd" class="shp0" d="M284.84 50.66C258.08 67.68 241.32 76.15 234.57 76.08C228.3 76.02 235.79 98.17 236.97 125.17C238.04 149.5 254.07 163.84 267.72 165.74C292.2 169.14 307.4 155.72 312.42 139.48C314.72 132.05 313.72 122.4 309.42 110.55C315.81 109.19 319.15 103.69 319.46 94.06C319.91 79.61 314.89 76.06 309.09 85C305.22 90.97 297.14 79.52 284.84 50.66Z" />
		<g id="_Group_24">
			<path id="_Path_35" fill-rule="evenodd" class="shp7" d="M321.31 140.66L321.1 138.31C328.45 137.65 335.72 133.65 341.56 127.05C347.42 120.44 351.01 112.28 353.48 105.92C354.82 102.54 355.98 99.08 356.96 95.58C357.94 92.07 358.73 88.52 359.34 84.93C359.95 81.34 360.38 77.73 360.61 74.1C360.85 70.47 360.9 66.82 360.75 63.19C360.11 49.81 357.95 34.88 346.84 25.54C338.65 18.65 325.65 14.99 315.04 22.34L314.09 23L313.41 22.06C308.04 14.61 299.45 8.33 289.84 4.82C287.59 3.98 285.27 3.35 282.9 2.93C280.53 2.52 278.13 2.32 275.73 2.35C273.33 2.37 270.93 2.62 268.58 3.08C266.22 3.55 263.91 4.23 261.68 5.12C252.71 8.86 246.99 15.65 240.94 22.83C240.09 23.9 239.21 24.96 238.31 26C237.41 27.04 236.49 28.06 235.55 29.06C234.61 30.06 233.65 31.04 232.68 32C231.7 32.97 230.7 33.91 229.69 34.84C226.89 37.27 223.95 39.54 220.9 41.64C217.84 43.74 214.67 45.66 211.39 47.41C208.12 49.15 204.75 50.7 201.3 52.06C197.85 53.42 194.32 54.58 190.74 55.54C193.58 60.5 197.44 64.8 202.06 68.17C206.68 71.55 211.96 73.91 217.55 75.11C223.14 76.3 228.92 76.31 234.52 75.13C240.11 73.95 245.4 71.6 250.03 68.25C256.07 63.86 260.88 57.77 264.79 52.38L266.71 53.77C262.68 59.31 257.72 65.58 251.42 70.16C246.41 73.79 240.68 76.3 234.62 77.52C228.56 78.74 222.3 78.65 216.28 77.24C210.26 75.84 204.61 73.15 199.72 69.37C194.82 65.59 190.8 60.8 187.92 55.33L187.22 53.99L188.69 53.63C192.32 52.72 195.89 51.6 199.39 50.27C202.89 48.94 206.31 47.4 209.63 45.67C212.95 43.94 216.16 42.02 219.25 39.91C222.35 37.8 225.31 35.51 228.14 33.06C229.13 32.15 230.1 31.23 231.06 30.29C232.02 29.34 232.95 28.38 233.87 27.4C234.79 26.42 235.68 25.43 236.56 24.41C237.44 23.4 238.3 22.36 239.14 21.32C245.1 14.23 251.27 6.91 260.76 2.94C263.13 2 265.58 1.28 268.08 0.78C270.59 0.29 273.13 0.02 275.68 -0.01C278.23 -0.03 280.77 0.17 283.28 0.61C285.79 1.05 288.26 1.72 290.65 2.61C293 3.44 295.28 4.44 297.49 5.6C299.7 6.75 301.82 8.06 303.85 9.51C305.88 10.96 307.8 12.55 309.61 14.26C311.41 15.98 313.1 17.82 314.65 19.76C326.09 12.55 339.73 16.46 348.36 23.73C360.17 33.65 362.44 49.19 363.11 63.07C363.26 66.79 363.21 70.51 362.97 74.23C362.73 77.94 362.3 81.64 361.67 85.31C361.05 88.98 360.24 92.61 359.24 96.2C358.24 99.78 357.05 103.31 355.68 106.77C353.14 113.32 349.43 121.72 343.33 128.61C337.09 135.67 329.26 139.94 321.31 140.66Z" />
		</g>
		<path id="_Path_36" fill-rule="evenodd" class="shp7" d="M254.01 97.81C254.41 101.34 253.22 104.37 251.35 104.58C249.47 104.79 247.63 102.1 247.23 98.58C246.83 95.05 248.03 92.02 249.9 91.81C251.77 91.6 253.62 94.29 254.01 97.81Z" />
		<path id="_Path_37" fill-rule="evenodd" class="shp7" d="M283.42 93.86C283.82 97.39 282.62 100.41 280.75 100.63C278.88 100.84 277.04 98.15 276.64 94.62C276.23 91.1 277.43 88.07 279.31 87.86C281.18 87.65 283.02 90.33 283.42 93.86Z" />
		<g id="_Group_25">
			<path id="_Path_38" fill-rule="evenodd" class="shp7" d="M310.05 102.52C310.04 102.52 310.02 102.52 310.01 102.52C310 102.52 309.98 102.52 309.97 102.52C309.95 102.52 309.94 102.52 309.92 102.51C309.91 102.51 309.89 102.51 309.88 102.51C309.72 102.49 309.58 102.43 309.44 102.35C309.31 102.27 309.2 102.17 309.1 102.04C309.01 101.92 308.94 101.78 308.91 101.63C308.87 101.48 308.86 101.32 308.88 101.17C309.02 100.25 309.24 99.36 309.53 98.48C309.82 97.61 310.18 96.76 310.61 95.94C311.05 95.13 311.55 94.36 312.11 93.63C312.68 92.9 313.3 92.22 313.99 91.6C314.22 91.4 314.52 91.3 314.83 91.31C315.14 91.33 315.42 91.47 315.63 91.7C315.84 91.93 315.95 92.23 315.94 92.53C315.93 92.84 315.8 93.13 315.58 93.35C315 93.88 314.47 94.46 313.99 95.08C313.51 95.71 313.08 96.37 312.71 97.06C312.34 97.76 312.02 98.48 311.78 99.23C311.53 99.97 311.34 100.74 311.22 101.51C311.2 101.65 311.15 101.79 311.09 101.91C311.02 102.03 310.93 102.14 310.82 102.23C310.72 102.33 310.6 102.4 310.47 102.45C310.33 102.5 310.19 102.52 310.05 102.52L310.05 102.52Z" />
		</g>
		<g id="_Group_26">
			<path id="_Path_39" fill-rule="evenodd" class="shp7" d="M270.68 84.29C270.42 84.29 270.17 84.2 269.96 84.04C269.75 83.89 269.61 83.67 269.54 83.42C269.47 83.16 269.49 82.9 269.59 82.66C269.68 82.42 269.86 82.22 270.08 82.09C271.19 81.45 272.37 80.93 273.58 80.53C274.8 80.12 276.06 79.85 277.33 79.7C278.6 79.55 279.88 79.53 281.16 79.64C282.44 79.75 283.7 79.99 284.93 80.35C285.23 80.44 285.48 80.65 285.63 80.93C285.77 81.2 285.81 81.53 285.72 81.83C285.62 82.13 285.42 82.38 285.14 82.53C284.87 82.67 284.54 82.71 284.24 82.61C283.17 82.3 282.07 82.09 280.95 81.99C279.84 81.89 278.71 81.91 277.6 82.04C276.49 82.17 275.4 82.41 274.33 82.76C273.27 83.11 272.25 83.57 271.28 84.13C271.23 84.15 271.18 84.18 271.14 84.2C271.09 84.22 271.04 84.23 270.99 84.25C270.94 84.26 270.89 84.27 270.83 84.28C270.78 84.29 270.73 84.29 270.68 84.29L270.68 84.29Z" />
		</g>
		<path id="_Path_40" fill-rule="evenodd" class="shp9" d="M280.16 128.56C279.48 129.48 278.72 130.33 277.9 131.12C277.08 131.91 276.2 132.63 275.26 133.28C274.33 133.93 273.34 134.5 272.31 134.99C271.29 135.48 270.22 135.88 269.13 136.2C268.29 136.45 267.44 136.63 266.58 136.74C265.71 136.85 264.84 136.89 263.97 136.85C263.1 136.82 262.23 136.71 261.38 136.53C260.53 136.35 259.69 136.1 258.88 135.78C258.48 135.65 258.1 135.47 257.74 135.25C257.38 135.04 257.04 134.78 256.73 134.5C256.42 134.21 256.14 133.89 255.9 133.55C255.66 133.2 255.45 132.83 255.28 132.44L280.16 128.56Z" />
		<g id="_Group_27">
			<path id="_Path_41" fill-rule="evenodd" class="shp7" d="M266.15 143.48C265.58 143.48 265.01 143.46 264.44 143.41C264.29 143.39 264.14 143.35 264 143.28C263.86 143.21 263.74 143.11 263.64 142.99C263.54 142.88 263.46 142.74 263.41 142.59C263.37 142.44 263.35 142.29 263.36 142.13C263.38 141.98 263.42 141.83 263.49 141.69C263.57 141.56 263.66 141.44 263.78 141.34C263.9 141.24 264.04 141.16 264.18 141.11C264.33 141.06 264.49 141.05 264.64 141.06C265.14 141.1 265.64 141.12 266.14 141.12C266.64 141.12 267.14 141.1 267.64 141.06C268.14 141.01 268.64 140.95 269.13 140.86C269.62 140.78 270.11 140.67 270.6 140.54C270.9 140.46 271.22 140.51 271.49 140.66C271.76 140.82 271.96 141.08 272.04 141.38C272.12 141.68 272.08 142.01 271.92 142.28C271.76 142.55 271.51 142.75 271.2 142.83C270.79 142.94 270.38 143.03 269.96 143.11C269.54 143.19 269.12 143.26 268.7 143.32C268.27 143.37 267.85 143.41 267.42 143.44C267 143.47 266.57 143.48 266.15 143.48L266.15 143.48Z" />
		</g>
		<g id="_Group_28">
			<path id="_Path_42" fill-rule="evenodd" class="shp7" d="M240.92 88.7C240.65 88.7 240.38 88.61 240.17 88.44C239.96 88.26 239.82 88.02 239.76 87.76C239.71 87.49 239.75 87.21 239.87 86.97C240 86.73 240.2 86.54 240.45 86.43C241.59 86.01 242.74 85.65 243.92 85.36C245.09 85.07 246.28 84.84 247.48 84.69C248.68 84.54 249.88 84.45 251.09 84.44C252.3 84.43 253.51 84.48 254.71 84.61C254.87 84.63 255.01 84.69 255.15 84.77C255.28 84.85 255.4 84.95 255.49 85.08C255.58 85.2 255.65 85.34 255.69 85.5C255.72 85.65 255.73 85.8 255.71 85.96C255.68 86.11 255.63 86.25 255.55 86.39C255.46 86.52 255.36 86.63 255.24 86.72C255.11 86.82 254.97 86.88 254.82 86.92C254.67 86.96 254.52 86.97 254.36 86.95C253.27 86.84 252.17 86.79 251.07 86.8C249.97 86.81 248.87 86.89 247.78 87.03C246.69 87.17 245.6 87.37 244.53 87.64C243.47 87.9 242.41 88.22 241.38 88.61C241.35 88.62 241.31 88.64 241.27 88.65C241.23 88.66 241.19 88.67 241.16 88.68C241.12 88.69 241.08 88.69 241.04 88.7C241 88.7 240.96 88.7 240.92 88.7L240.92 88.7Z" />
		</g>
		<g id="_Group_29">
			<path id="_Path_43" fill-rule="evenodd" class="shp7" d="M261.82 122.38C261.16 122.39 260.5 122.33 259.86 122.2C259.21 122.08 258.58 121.89 257.97 121.64C257.36 121.39 256.78 121.07 256.24 120.71C255.69 120.34 255.19 119.92 254.73 119.45C254.59 119.31 254.46 119.17 254.34 119.01C254.22 118.86 254.11 118.7 254.02 118.53C253.92 118.36 253.84 118.19 253.77 118.01C253.7 117.83 253.64 117.64 253.59 117.45C253.57 117.21 253.56 116.97 253.57 116.73C253.58 116.49 253.61 116.25 253.66 116.01C253.71 115.78 253.77 115.55 253.86 115.32C253.94 115.09 254.04 114.87 254.16 114.66C258.52 105.01 259.89 96.29 258.21 88.75C258.21 88.71 258.2 88.68 258.19 88.64C258.18 88.61 258.17 88.57 258.16 88.54C258.15 88.5 258.14 88.47 258.13 88.44C258.11 88.4 258.1 88.37 258.08 88.34C257.94 88.3 257.8 88.23 257.69 88.14C257.58 88.04 257.48 87.93 257.41 87.8C257.35 87.66 257.31 87.52 257.3 87.37C257.29 87.23 257.31 87.08 257.37 86.94C257.42 86.79 257.51 86.65 257.62 86.54C257.72 86.42 257.85 86.32 258 86.26C258.14 86.19 258.3 86.15 258.46 86.13C258.61 86.12 258.77 86.14 258.93 86.19C259.14 86.27 259.34 86.38 259.53 86.51C259.71 86.64 259.88 86.8 260.02 86.98C260.16 87.16 260.27 87.36 260.36 87.57C260.44 87.79 260.5 88.01 260.52 88.24C262.31 96.28 260.89 105.5 256.31 115.63C256.25 115.74 256.19 115.85 256.15 115.96C256.1 116.07 256.06 116.18 256.03 116.3C255.99 116.42 255.97 116.54 255.95 116.65C255.93 116.77 255.92 116.89 255.92 117.02C255.94 117.09 255.97 117.17 256.01 117.24C256.04 117.31 256.08 117.39 256.13 117.45C256.17 117.52 256.22 117.59 256.27 117.65C256.33 117.71 256.38 117.77 256.44 117.82C257.02 118.41 257.7 118.89 258.43 119.26C259.17 119.62 259.96 119.86 260.78 119.97C261.59 120.08 262.42 120.05 263.23 119.89C264.03 119.73 264.81 119.43 265.52 119.02C265.79 118.85 266.11 118.8 266.41 118.88C266.72 118.95 266.98 119.14 267.14 119.41C267.31 119.67 267.36 119.99 267.29 120.3C267.21 120.6 267.02 120.87 266.76 121.03C266.39 121.25 266 121.45 265.6 121.62C265.21 121.79 264.8 121.93 264.38 122.05C263.96 122.16 263.54 122.25 263.11 122.3C262.68 122.36 262.25 122.39 261.82 122.38Z" />
		</g>
		<path id="_Path_44" fill-rule="evenodd" class="shp0" d="M119.55 324.41C91.14 323.45 36.25 359.55 23.25 399.98C10.26 440.42 27.89 498.76 39.45 488.65C51 478.54 104.14 399.98 109.92 389.88C113.77 383.13 116.98 361.31 119.55 324.41Z" />
		<path id="_Path_45" fill-rule="evenodd" class="shp0" d="M135.34 369.43C148.99 365.27 162.74 361.04 175.31 355C182.18 351.69 186.12 348.32 194.17 348.97C198.83 349.34 212.14 354.31 213.03 346.32C213.7 340.3 203.06 330.53 199.4 326.43C195.06 321.56 193.51 314.8 188.63 310.3C182.87 304.97 174.09 306.88 167.04 307.16L137.55 308.32C127.2 308.73 120.98 314.32 115.19 322.54C110.73 328.85 106.66 336.42 101.3 341.99C97.61 345.82 92.99 346.12 92.66 352.51C92.22 361.15 104.05 368.27 108.2 374.79C108.38 375.28 108.67 375.71 109.04 376.07C109.42 376.43 109.87 376.7 110.36 376.86C110.85 377.02 111.37 377.06 111.89 377C112.4 376.93 112.89 376.74 113.32 376.46C120.5 373.95 127.9 371.7 135.34 369.43Z" />
	</g>
	<path id="_Path_46" fill-rule="evenodd" class="shp6" d="M245.87 191.72C247.47 205.6 257.66 214.61 276.43 218.73C320.73 228.48 341.43 209.78 347.54 187.74L337.59 183.78C332.77 204.23 315.86 213.4 286.85 211.28C264.56 209.65 259.07 200.25 254.13 189.65L245.87 191.72Z" />
	<g id="_Group_30">
		<path id="_Path_47" fill-rule="evenodd" class="shp4" d="M304.02 435.09C300.93 428.77 297.46 422.64 293.62 416.74C289.78 410.85 285.59 405.19 281.06 399.8C276.53 394.41 271.68 389.31 266.52 384.51C261.37 379.72 255.93 375.24 250.23 371.11C230.47 356.81 212.33 347.83 188.02 350.53L187.76 348.18C212.82 345.4 231.41 354.57 251.62 369.2C257.39 373.38 262.91 377.92 268.13 382.78C273.35 387.64 278.28 392.82 282.87 398.28C287.46 403.74 291.71 409.47 295.6 415.46C299.49 421.44 303.01 427.65 306.14 434.06L304.02 435.09Z" />
	</g>
	<g id="_Group_31">
		<path id="_Path_48" fill-rule="evenodd" class="shp4" d="M182.99 689.81C180.8 689.82 178.6 689.78 176.41 689.71C174.22 689.63 172.03 689.51 169.85 689.36C167.66 689.2 165.48 689 163.3 688.77C161.12 688.53 158.95 688.25 156.78 687.94C123.29 682.97 94.49 667.82 75.67 645.26L77.48 643.75C95.93 665.86 124.21 680.72 157.12 685.6C184.14 689.6 214.05 687.14 248.56 678.06L249.16 680.34C225.09 686.67 203.22 689.81 182.99 689.81Z" />
	</g>
	<g id="_Group_32">
		<path id="_Path_49" fill-rule="evenodd" class="shp4" d="M240.42 697.47C239.15 697.47 237.88 697.44 236.61 697.39C235.35 697.33 234.08 697.24 232.82 697.13C231.55 697.01 230.29 696.87 229.04 696.7C227.78 696.52 226.53 696.32 225.28 696.09L225.71 693.77C232.29 694.94 238.99 695.33 245.67 694.92C252.34 694.51 258.95 693.31 265.34 691.35C271.73 689.38 277.87 686.67 283.62 683.26C289.37 679.85 294.7 675.77 299.49 671.1L301.16 672.78C297.14 676.69 292.75 680.2 288.06 683.27C283.37 686.34 278.39 688.95 273.2 691.06C268.01 693.17 262.62 694.77 257.12 695.85C251.62 696.93 246.02 697.47 240.42 697.47L240.42 697.47Z" />
	</g>
	<g id="_Group_33">
		<path id="_Path_50" fill-rule="evenodd" class="shp4" d="M333.41 456.14C331.22 451.23 328.75 446.46 326.01 441.84C323.28 437.22 320.27 432.76 317.02 428.49C313.77 424.21 310.27 420.13 306.55 416.26C302.82 412.39 298.88 408.74 294.74 405.32L296.23 403.5C300.45 406.97 304.46 410.69 308.25 414.62C312.04 418.56 315.59 422.71 318.9 427.06C322.21 431.41 325.26 435.94 328.05 440.64C330.83 445.34 333.34 450.19 335.57 455.18L333.41 456.14Z" />
	</g>
	<g id="_Group_34">
		<path id="_Path_51" fill-rule="evenodd" class="shp4" d="M287.79 333.26C271.52 329.71 259.1 318.8 251.55 310.29C241.95 299.45 234.74 286.72 227.76 274.4L229.82 273.24C236.73 285.45 243.88 298.07 253.32 308.72C260.63 316.98 272.64 327.53 288.3 330.96L287.79 333.26Z" />
	</g>
	<g id="_Group_35">
		<path id="_Path_52" fill-rule="evenodd" class="shp4" d="M278.22 315.33C275.23 314.99 272.3 314.26 269.5 313.15C266.71 312.03 264.07 310.55 261.67 308.75C259.26 306.94 257.11 304.82 255.27 302.44C253.42 300.06 251.9 297.45 250.75 294.68L252.94 293.8C254.01 296.38 255.42 298.8 257.14 301.01C258.85 303.22 260.85 305.19 263.08 306.87C265.32 308.54 267.76 309.92 270.36 310.95C272.96 311.98 275.68 312.67 278.46 312.98L278.22 315.33Z" />
	</g>
	<g id="_Group_36">
		<path id="_Path_53" fill-rule="evenodd" class="shp4" d="M162.54 638.84C154.5 633.98 146.85 628.52 139.65 622.5C132.45 616.48 125.72 609.91 119.53 602.86C113.33 595.81 107.68 588.29 102.64 580.38C97.59 572.47 93.16 564.18 89.37 555.59L91.54 554.64C95.27 563.12 99.65 571.3 104.63 579.11C109.61 586.92 115.19 594.34 121.3 601.3C127.42 608.26 134.06 614.74 141.17 620.69C148.27 626.63 155.82 632.02 163.75 636.81L162.54 638.84Z" />
	</g>
	<g id="_Group_37">
		<path id="_Path_54" fill-rule="evenodd" class="shp4" d="M202.09 647.22C197.21 646.09 192.43 644.55 187.81 642.6C183.19 640.65 178.75 638.3 174.54 635.59C170.33 632.87 166.35 629.8 162.67 626.4C158.99 623 155.61 619.29 152.56 615.3L154.45 613.88C157.41 617.75 160.7 621.36 164.28 624.67C167.86 627.97 171.72 630.96 175.82 633.6C179.91 636.24 184.23 638.52 188.72 640.42C193.21 642.32 197.86 643.82 202.61 644.92L202.09 647.22Z" />
	</g>
	<g id="_Group_38">
		<path id="_Path_55" fill-rule="evenodd" class="shp10" d="M299 222.52C297.86 222.52 296.72 222.49 295.58 222.45C294.44 222.41 293.3 222.35 292.17 222.27C291.03 222.19 289.89 222.09 288.76 221.97C287.62 221.85 286.49 221.71 285.36 221.56C248.82 216.67 244.73 192.14 244.7 191.9L247.03 191.54C247.18 192.48 250.98 214.58 285.68 219.22C318.4 223.6 338.28 213.18 346.42 187.38L348.68 188.09C341.46 210.98 324.78 222.52 299 222.52Z" />
	</g>
	<g id="_Group_39">
		<path id="_Path_56" fill-rule="evenodd" class="shp10" d="M391.12 274.26L388.93 273.38C404.99 233.56 453.28 245.34 453.76 245.47L453.18 247.76C452.71 247.64 406.41 236.37 391.12 274.26Z" />
	</g>
	<g id="_Group_40">
		<path id="_Path_57" fill-rule="evenodd" class="shp10" d="M435.75 521.02C433.54 521.03 431.33 520.94 429.13 520.74C426.93 520.54 424.74 520.23 422.57 519.82C420.4 519.41 418.25 518.89 416.13 518.27C414.01 517.65 411.92 516.93 409.87 516.1L409.33 515.86L409.2 515.28C409.06 514.65 395.07 451.46 388.87 420.32C382.66 389.13 376.88 332.79 376.82 332.23L379.17 331.99C379.23 332.55 385 388.78 391.18 419.86C397.05 449.35 409.93 507.62 411.37 514.17C413.32 514.91 415.29 515.56 417.29 516.12C419.29 516.68 421.32 517.15 423.36 517.53C425.4 517.9 427.46 518.18 429.53 518.37C431.6 518.56 433.67 518.66 435.75 518.66L435.87 518.66L435.87 521.02L435.74 521.02L435.75 521.02Z" />
	</g>
	<g id="_Group_41">
		<path id="_Path_58" fill-rule="evenodd" class="shp10" d="M383.91 377.02L381.56 376.88C382.65 358.76 388.81 332.11 388.88 331.84L391.18 332.37C391.12 332.64 384.99 359.11 383.91 377.02Z" />
	</g>
	<g id="_Group_42">
		<path id="_Path_59" fill-rule="evenodd" class="shp10" d="M114.01 322.61C113.91 320.96 111.69 282.07 121.56 258.87L123.73 259.8C114.09 282.48 116.34 322.06 116.36 322.46L114.01 322.61Z" />
	</g>
	<g id="_Group_43">
		<path id="_Path_60" fill-rule="evenodd" class="shp10" d="M113.76 304.41C110.8 287.95 109.35 277.39 109.34 277.29L111.68 276.97C111.69 277.07 113.13 287.58 116.09 303.99L113.76 304.41Z" />
	</g>
	<g id="_Group_44">
		<path id="_Path_61" fill-rule="evenodd" class="shp10" d="M495.33 474.18C487.83 471.26 480.64 467.6 473.85 463.27C467.07 458.94 460.73 453.95 454.92 448.37C449.11 442.8 443.87 436.67 439.27 430.06C434.66 423.46 430.72 416.42 427.5 409.05L429.67 408.12C432.83 415.35 436.7 422.25 441.21 428.72C445.72 435.2 450.86 441.21 456.55 446.68C462.25 452.14 468.46 457.03 475.11 461.28C481.77 465.53 488.82 469.11 496.17 471.98L495.33 474.18Z" />
	</g>
	<g id="_Group_45">
		<path id="_Path_62" fill-rule="evenodd" class="shp10" d="M458.02 439.55C443.18 430.14 435.56 412.73 429.44 398.75L431.6 397.8C437.59 411.49 445.05 428.54 459.29 437.56L458.02 439.55Z" />
	</g>
	<g id="_Group_46">
		<path id="_Path_63" fill-rule="evenodd" class="shp7" d="M213.7 345.35C213.68 345.35 213.65 345.35 213.63 345.35C213.61 345.35 213.58 345.34 213.56 345.34C213.53 345.34 213.51 345.33 213.49 345.33C213.46 345.33 213.44 345.32 213.42 345.32C213.27 345.28 213.12 345.21 213 345.12C212.87 345.03 212.77 344.91 212.69 344.78C212.61 344.64 212.56 344.5 212.53 344.34C212.51 344.19 212.52 344.03 212.56 343.88C212.26 342.2 202.33 333.29 194.15 333.29C185.16 333.37 170.15 337.33 169.15 337.66C168.86 337.76 168.53 337.74 168.25 337.6C167.97 337.46 167.76 337.21 167.66 336.92C167.56 336.62 167.58 336.3 167.72 336.02C167.86 335.74 168.11 335.52 168.41 335.42C169.47 335.07 184.69 331.02 194.02 330.93L194.15 330.93C202.01 330.93 210.85 337.8 213.64 341.33C214.67 342.64 215.05 343.63 214.85 344.45C214.82 344.58 214.76 344.7 214.69 344.81C214.62 344.92 214.53 345.02 214.43 345.1C214.33 345.18 214.21 345.24 214.09 345.29C213.96 345.33 213.83 345.35 213.7 345.35Z" />
	</g>
	<g id="_Group_47">
		<path id="_Path_64" fill-rule="evenodd" class="shp7" d="M209.51 339.32C209.42 339.32 209.33 339.31 209.25 339.29C209.17 339.27 209.08 339.24 209.01 339.21C208.93 339.17 208.85 339.12 208.78 339.07C208.72 339.02 208.65 338.96 208.6 338.89C208.48 338.75 197.05 325.01 187.45 320.44C178.18 316.03 162.16 325.32 161.99 325.41C161.72 325.57 161.4 325.61 161.1 325.53C160.8 325.45 160.54 325.25 160.38 324.98C160.23 324.72 160.18 324.4 160.26 324.09C160.34 323.79 160.53 323.53 160.8 323.37C161.5 322.96 178.06 313.35 188.46 318.31C198.53 323.11 209.94 336.8 210.42 337.38C210.56 337.56 210.65 337.77 210.68 337.99C210.71 338.21 210.67 338.44 210.58 338.64C210.48 338.84 210.33 339.01 210.14 339.13C209.95 339.25 209.73 339.32 209.51 339.32L209.51 339.32Z" />
	</g>
	<g id="_Group_48">
		<path id="_Path_65" fill-rule="evenodd" class="shp7" d="M196.96 326.67C196.83 326.67 196.7 326.65 196.58 326.61C196.46 326.57 196.35 326.51 196.25 326.43C196.14 326.36 196.06 326.27 195.98 326.16C195.91 326.06 195.86 325.94 195.82 325.82C195.78 325.67 191.41 310.71 183.26 308.73C174.9 306.71 157.13 317.26 156.95 317.36C156.68 317.52 156.36 317.57 156.06 317.5C155.75 317.42 155.49 317.23 155.33 316.96C155.17 316.69 155.12 316.37 155.2 316.06C155.27 315.76 155.47 315.5 155.74 315.34C156.5 314.88 174.5 304.17 183.81 306.44C193.31 308.74 197.9 324.5 198.09 325.17C198.14 325.34 198.15 325.53 198.12 325.71C198.08 325.89 198.01 326.06 197.9 326.2C197.79 326.35 197.65 326.47 197.48 326.55C197.32 326.63 197.14 326.67 196.96 326.67Z" />
	</g>
	<g id="_Group_49">
		<path id="_Path_66" fill-rule="evenodd" class="shp7" d="M113.71 325.87C113.41 325.87 113.12 325.76 112.9 325.55C112.68 325.35 112.55 325.07 112.52 324.77C112.5 324.47 112.59 324.18 112.78 323.94C112.97 323.71 113.24 323.56 113.54 323.52C115.08 323.28 121.6 320.56 127.35 318.15C132.82 315.86 137.99 313.7 140.32 313.02C140.75 312.83 154.23 307.18 164.38 306.12C174.49 305.08 177.85 306.35 178.2 306.5C178.49 306.62 178.72 306.85 178.84 307.14C178.96 307.43 178.96 307.75 178.84 308.04C178.72 308.33 178.49 308.56 178.2 308.68C177.91 308.8 177.59 308.8 177.3 308.68C177.22 308.65 174.04 307.5 164.62 308.47C154.81 309.49 141.24 315.19 141.1 315.24C138.78 315.93 133.43 318.17 128.26 320.33C120.69 323.5 115.59 325.6 113.89 325.85C113.87 325.85 113.86 325.86 113.84 325.86C113.83 325.86 113.81 325.86 113.8 325.86C113.78 325.86 113.77 325.86 113.75 325.87C113.74 325.87 113.72 325.87 113.71 325.87Z" />
	</g>
	<g id="_Group_50">
		<path id="_Path_67" fill-rule="evenodd" class="shp7" d="M118.62 375.78C116.48 375.79 114.35 375.62 112.24 375.27C110.13 374.91 108.06 374.38 106.05 373.67C104.03 372.96 102.08 372.07 100.22 371.03C98.35 369.98 96.58 368.78 94.93 367.42C94.69 367.22 94.54 366.93 94.51 366.62C94.48 366.31 94.58 366 94.78 365.76C94.98 365.52 95.27 365.37 95.58 365.34C95.9 365.32 96.21 365.41 96.45 365.61C99.03 367.71 101.9 369.42 104.97 370.7C108.04 371.99 111.27 372.83 114.58 373.2C117.88 373.57 121.22 373.47 124.5 372.9C127.78 372.33 130.96 371.29 133.94 369.82C134.22 369.68 134.54 369.66 134.84 369.75C135.14 369.85 135.39 370.06 135.53 370.34C135.67 370.62 135.7 370.94 135.6 371.24C135.51 371.54 135.3 371.79 135.02 371.93C133.75 372.57 132.45 373.13 131.12 373.61C129.79 374.1 128.43 374.5 127.05 374.82C125.67 375.15 124.27 375.39 122.86 375.55C121.45 375.71 120.04 375.79 118.62 375.78Z" />
	</g>
	<g id="_Group_51">
		<path id="_Path_68" fill-rule="evenodd" class="shp7" d="M105.46 379.62C104.4 379.61 103.34 379.48 102.31 379.23C101.27 378.99 100.27 378.63 99.31 378.17C98.35 377.7 97.45 377.14 96.62 376.48C95.78 375.82 95.03 375.07 94.35 374.25C94.16 374 94.07 373.69 94.1 373.38C94.13 373.07 94.29 372.78 94.54 372.59C94.78 372.39 95.09 372.3 95.4 372.33C95.71 372.37 96 372.52 96.2 372.77C96.76 373.46 97.39 374.08 98.09 374.63C98.78 375.18 99.54 375.66 100.34 376.04C101.13 376.43 101.97 376.73 102.84 376.93C103.7 377.14 104.59 377.25 105.47 377.26C105.79 377.26 106.09 377.39 106.31 377.61C106.53 377.83 106.65 378.13 106.65 378.45C106.65 378.76 106.52 379.06 106.3 379.28C106.08 379.5 105.77 379.62 105.46 379.62L105.46 379.62Z" />
	</g>
	<g id="_Group_52">
		<path id="_Path_69" fill-rule="evenodd" class="shp7" d="M432.97 528.17C432.7 528.17 432.44 528.07 432.22 527.9C432.01 527.73 431.87 527.49 431.81 527.23C431.76 526.96 431.79 526.69 431.92 526.45C432.04 526.21 432.24 526.01 432.49 525.9C432.86 525.74 469.95 509.76 536.29 512.84C536.6 512.86 536.89 513 537.1 513.23C537.3 513.46 537.41 513.76 537.4 514.07C537.38 514.38 537.25 514.67 537.02 514.88C536.79 515.09 536.49 515.2 536.18 515.19C470.48 512.14 433.81 527.91 433.44 528.07C433.41 528.08 433.37 528.1 433.33 528.11C433.29 528.12 433.25 528.13 433.21 528.14C433.17 528.15 433.13 528.15 433.09 528.16C433.05 528.16 433.01 528.17 432.97 528.17L432.97 528.17Z" />
	</g>
	<g id="_Group_53">
		<path id="_Path_70" fill-rule="evenodd" class="shp7" d="M376.83 796.59C374.77 796.59 373.34 796.12 372.43 795.18C369.1 791.68 368.71 790.29 369.15 789.27C369.21 789.13 369.3 789 369.4 788.88C369.5 788.76 369.62 788.66 369.75 788.57C369.88 788.49 370.02 788.43 370.17 788.38C370.32 788.34 370.48 788.32 370.63 788.32C370.86 788.33 371.08 788.39 371.26 788.52C371.45 788.64 371.6 788.81 371.69 789.02C371.79 789.22 371.82 789.45 371.79 789.67C371.75 789.89 371.66 790.1 371.51 790.27C371.7 790.57 371.89 790.87 372.09 791.15C372.29 791.44 372.5 791.72 372.72 792C372.94 792.27 373.17 792.54 373.41 792.8C373.65 793.05 373.89 793.31 374.15 793.55C374.34 793.68 374.55 793.8 374.76 793.9C374.98 793.99 375.2 794.07 375.43 794.13C375.66 794.19 375.89 794.22 376.13 794.24C376.36 794.26 376.6 794.25 376.83 794.22C385.71 794.18 408.13 783.63 414.96 776.31C422.88 767.82 430.39 750.04 430.47 749.86C430.59 749.58 430.82 749.35 431.11 749.24C431.4 749.12 431.72 749.12 432.01 749.24C432.29 749.36 432.52 749.59 432.64 749.88C432.76 750.17 432.76 750.49 432.64 750.78C432.33 751.52 424.89 769.13 416.69 777.92C409.4 785.72 386.35 796.53 376.9 796.59L376.83 796.59L376.83 796.59Z" />
	</g>
	<g id="_Group_54">
		<path id="_Path_71" fill-rule="evenodd" class="shp7" d="M378.54 805.32C378.23 805.34 377.93 805.33 377.62 805.31C377.31 805.29 377.01 805.24 376.71 805.18C376.41 805.12 376.11 805.03 375.82 804.93C375.53 804.83 375.25 804.71 374.98 804.57C374.49 804.31 374.04 804.01 373.62 803.66C373.2 803.31 372.82 802.91 372.48 802.48C372.15 802.05 371.86 801.59 371.62 801.1C371.38 800.61 371.19 800.09 371.06 799.56C370.98 799.06 370.94 798.54 370.95 798.03C370.96 797.52 371.02 797.01 371.13 796.51C371.24 796 371.39 795.51 371.59 795.04C371.79 794.57 372.04 794.12 372.32 793.69C372.49 793.42 372.77 793.23 373.08 793.17C373.4 793.11 373.72 793.18 373.99 793.36C374.25 793.54 374.43 793.83 374.48 794.14C374.53 794.46 374.45 794.78 374.25 795.04C374.06 795.34 373.9 795.65 373.76 795.98C373.62 796.3 373.52 796.64 373.44 796.99C373.37 797.33 373.33 797.69 373.31 798.04C373.3 798.39 373.32 798.75 373.37 799.1C373.48 799.46 373.62 799.82 373.79 800.16C373.97 800.5 374.18 800.82 374.42 801.12C374.67 801.41 374.94 801.68 375.24 801.92C375.54 802.16 375.86 802.37 376.2 802.55C381.51 805.78 411.46 792.37 421.26 786.03C429.92 780.42 440.12 763.32 440.23 763.15C440.39 762.88 440.65 762.69 440.95 762.61C441.25 762.53 441.57 762.58 441.84 762.74C442.11 762.9 442.3 763.16 442.38 763.46C442.46 763.76 442.41 764.08 442.25 764.35C441.83 765.07 431.67 782.1 422.54 788.01C415.71 792.43 389.59 805.32 378.54 805.32Z" />
	</g>
	<g id="_Group_55">
		<path id="_Path_72" fill-rule="evenodd" class="shp7" d="M397.42 800.15C397.11 800.15 396.81 800.03 396.58 799.81C396.36 799.59 396.24 799.29 396.24 798.97C396.24 798.66 396.36 798.36 396.58 798.14C396.8 797.91 397.1 797.79 397.41 797.79C397.62 797.79 418.65 797.62 426.36 795.25C432.5 793.37 441.59 778.06 444.58 772.32C444.72 772.04 444.97 771.83 445.27 771.74C445.57 771.64 445.89 771.67 446.17 771.82C446.45 771.96 446.66 772.21 446.75 772.51C446.84 772.81 446.82 773.13 446.67 773.41C446.21 774.29 435.4 794.96 427.05 797.52C419.01 799.98 398.31 800.14 397.43 800.15L397.42 800.15L397.42 800.15Z" />
	</g>
</svg>