<svg id="_6" data-name="6" xmlns="http://www.w3.org/2000/svg" width="586.063" height="1449.628" viewBox="0 0 586.063 1449.628">
  <defs>
    <style>
      .cls-1 {
        fill: #f9a485;
      }

      .cls-1, .cls-10, .cls-11, .cls-2, .cls-3, .cls-4, .cls-5, .cls-6, .cls-7, .cls-8, .cls-9 {
        fill-rule: evenodd;
      }

      .cls-2 {
        fill: #65a6ce;
      }

      .cls-3 {
        fill: #3b344a;
      }

      .cls-4 {
        fill: #d5d1d8;
      }

      .cls-5 {
        fill: #a5b1c7;
      }

      .cls-6 {
        fill: #4c7d9b;
      }

      .cls-7 {
        fill: #e8e6e9;
      }

      .cls-8 {
        fill: #85504c;
      }

      .cls-9 {
        fill: #e07560;
      }

      .cls-10 {
        fill: #fff;
      }

      .cls-11 {
        fill: #1e1a25;
      }
    </style>
  </defs>
  <g id="_Group_" data-name="&lt;Group&gt;">
    <path id="_Path_" data-name="&lt;Path&gt;" class="cls-1" d="M105.257,1076.34c7.738,26.01,88.829,297.12,90.361,307.84s56.667,15.31,64.324,0,47.479-209.82,36.758-251.17q-10.722-41.355-39.821-84.24Q91.408,1029.795,105.257,1076.34Z" transform="translate(-73.938 -11.813)"/>
    <path id="_Path_2" data-name="&lt;Path&gt;" class="cls-1" d="M431.476,1037.91c7.658,16.85,65.176,338.36,65.176,353.03s55.12,25.04,63.474,3.08c13.009-34.2,62.793-216.6,56.667-264.08q-6.126-47.475-42.883-101.08Z" transform="translate(-73.938 -11.813)"/>
    <path id="_Path_3" data-name="&lt;Path&gt;" class="cls-2" d="M158.35,699.578c-4.084,12.252-62.93,322.642-63.117,358.382q-0.187,35.73,33.626,127.17,118.431,18.72,177.651-30.63-28.353-92.73-25.973-116.59c2.379-23.85,21.331-181.681,51.962-185.765s79.067,149.655,91.319,205.815q12.252,56.16,29.413,138.58,125.431,23.37,172.893-3.18-2.184-111.915-51.193-175.22,8.167-216.459-8.168-260.363t-42.365-58.2H158.35Z" transform="translate(-73.938 -11.813)"/>
    <g id="_Group_2" data-name="&lt;Group&gt;">
      <path id="_Path_4" data-name="&lt;Path&gt;" class="cls-3" d="M78.214,1431.97c2.006-9.1,94.628-81.88,104.971-82.7s43.614,14.63,45.242,17.55q1.628,2.91-2.924,13.43-2.292,11.25,16.063,10.54c20.24-.78,20.684-36.85,25.766-34.4s13.955,11.9,14.4,15.93-5.163,22.33-3.017,26.99,7.865,41.51,3.658,47.69-46.135,8.86-55.315,9.15-145.346,10.33-149.639,1.02Q73.128,1447.87,78.214,1431.97Z" transform="translate(-73.938 -11.813)"/>
      <path id="_Path_5" data-name="&lt;Path&gt;" class="cls-4" d="M75.927,1443.45a389.1,389.1,0,0,0,56.864,5.37c26.257,0.38,109.826-9.45,114.358-11.98s26.92-41.92,31.568-37.53,13.091,47.39,9.879,50.41-24.73,7.68-37.2,7.73-172.895,8.81-176.032.25Q72.229,1449.15,75.927,1443.45Z" transform="translate(-73.938 -11.813)"/>
      <g id="_Group_3" data-name="&lt;Group&gt;">
        <path id="_Path_6" data-name="&lt;Path&gt;" class="cls-5" d="M254.907,1430.28c-0.643-2.63-6.161-25.82-2.225-31.34,2.9-4.06,4.953-20.51,5.5-26.5l2.4,0.22c-0.083.91-2.069,22.26-5.938,27.68-2.483,3.48.28,19.86,2.6,29.37Z" transform="translate(-73.938 -11.813)"/>
      </g>
      <g id="_Group_4" data-name="&lt;Group&gt;">
        <path id="_Path_7" data-name="&lt;Path&gt;" class="cls-5" d="M140.2,1421.95l-0.563-.42c-0.224-.17-22.689-16.9-36.823-12.38l-0.734-2.29c14.143-4.54,34.676,9.6,38.435,12.33,3.154-1.39,17.517-7.74,31.391-14.72,15.668-7.88,52.721-25.14,53.093-25.32l1.018,2.19c-0.372.17-37.393,17.42-53.027,25.28-15.684,7.89-31.985,14.98-32.147,15.05Z" transform="translate(-73.938 -11.813)"/>
      </g>
      <g id="_Group_5" data-name="&lt;Group&gt;">
        <path id="_Path_8" data-name="&lt;Path&gt;" class="cls-5" d="M129.51,1438.5a17.543,17.543,0,0,1-5.625-.82c-21.07-7.18-45.289-4.53-45.534-4.51l-0.273-2.39c0.247-.03,24.995-2.75,46.585,4.61,15.251,5.22,54.064-18.35,77.251-32.43,8.8-5.34,15.154-9.2,17.733-9.98a48.951,48.951,0,0,1,12.036-1.66c4.88-.26,9.925-0.52,15.377-2.83,5.585-2.37,7.968-8.32,10.988-15.85a91.442,91.442,0,0,1,8.276-16.91l2.016,1.32a89.721,89.721,0,0,0-8.055,16.49c-3.1,7.73-5.775,14.4-12.282,17.17-5.846,2.48-11.108,2.75-16.2,3.01a46.547,46.547,0,0,0-11.459,1.57c-2.287.69-8.86,4.68-17.184,9.74C182,1417.87,148.027,1438.5,129.51,1438.5Z" transform="translate(-73.938 -11.813)"/>
      </g>
      <g id="_Group_6" data-name="&lt;Group&gt;">
        <path id="_Compound_Path_" data-name="&lt;Compound Path&gt;" class="cls-5" d="M158.425,1412.08c-2.5,0-4.943-1.62-6.792-4.53-1.149-1.81-.424-3.47.158-4.79a12.429,12.429,0,0,0-2.306-1.05c-8.632-3.52-21.669-8.82-29.1-7.1l-0.551-2.34c8.168-1.92,21.643,3.58,30.557,7.21l1.913,0.78a50.673,50.673,0,0,0-6.553-13.31c-3.514-.58-7.645-1.92-9.18-4.42a4.315,4.315,0,0,1,.139-4.72l0.485-.82,0.909,0.29c3.332,1.02,6.4,3.93,8.981,7.43a17.073,17.073,0,0,0,3.127.16c5.98-.41,13.774-0.48,21,2.03a48.892,48.892,0,0,0-1.679-5.16c-0.271-.66-0.566-1.49-0.9-2.41-0.556-1.55-1.213-3.39-2.019-5.18-5.165-1.05-9.9-2.64-11.675-4.89a3.5,3.5,0,0,1-.754-3.07l0.135-.55,0.508-.25a8.287,8.287,0,0,1,6.991-.52c2.871,1.17,4.92,4.04,6.458,7.15a87.983,87.983,0,0,0,13.677,1.35,43.742,43.742,0,0,1,7.1.56c-0.58-1.28-1.2-2.55-1.9-3.77a76.206,76.206,0,0,0-6.3-8.84,31.076,31.076,0,0,0-5.106-.88,5.988,5.988,0,0,1-4.725-3.05c-0.579-1.16-.925-3.09.723-5.66l0.5-.78,0.883,0.28c2.6,0.83,6.02,4.27,9.073,7.95,12.57,3.39,28.339,13.36,34.978,22.76l-1.969,1.39c-5.7-8.07-19-16.85-30.369-20.8a74.231,74.231,0,0,1,4.4,6.43,53.794,53.794,0,0,1,2.713,5.58c4.786,1.22,9.862,3.65,12.962,8.44a6.4,6.4,0,0,1,1.267,3.75,3.528,3.528,0,0,1-1.87,2.96,6.215,6.215,0,0,1-5.731-.11c-2.821-1.5-4.482-4.35-5.613-6.66-0.857-1.75-1.606-3.55-2.331-5.29-0.142-.34-0.285-0.68-0.429-1.03a39.947,39.947,0,0,0-8.246-.82h-0.19a84.553,84.553,0,0,1-12.321-1.11c0.554,1.35,1.027,2.68,1.446,3.85,0.316,0.89.6,1.68,0.858,2.31a55.169,55.169,0,0,1,1.9,5.88c0.127,0.45.25,0.89,0.377,1.33a27.352,27.352,0,0,1,6.859,4.46c1.365,1.22,2.939,3.34,2.882,5.32a2.868,2.868,0,0,1-1.1,2.24,3.165,3.165,0,0,1-2.523.61,8.209,8.209,0,0,1-4.9-3.58,27.1,27.1,0,0,1-3.213-7.29c-7.257-3-15.479-2.95-21.669-2.53a15.247,15.247,0,0,1-1.535.01,54.777,54.777,0,0,1,5.772,12.29,4.176,4.176,0,0,1,.139,1.81c3.9,2.17,5,5.15,5.429,9.33l0.123,1.18-1.175.14A4.24,4.24,0,0,1,158.425,1412.08ZM154,1403.73c-0.561,1.28-.747,1.87-0.328,2.53a7.088,7.088,0,0,0,3.936,3.3C157.182,1406.94,156.313,1405.15,154,1403.73Zm21.077-12.45a21.044,21.044,0,0,0,2.2,4.48,6.016,6.016,0,0,0,3.271,2.53,0.716,0.716,0,0,0,.648-0.12,0.47,0.47,0,0,0,.184-0.42c0.025-.87-0.886-2.39-2.078-3.46A23.974,23.974,0,0,0,175.075,1391.28Zm18.089-13.89c0.624,1.49,1.274,3.01,1.987,4.47,0.971,1.99,2.37,4.41,4.577,5.59a3.818,3.818,0,0,0,3.41.14,1.135,1.135,0,0,0,.653-0.98,4.314,4.314,0,0,0-.884-2.32A17.71,17.71,0,0,0,193.164,1377.39Zm-54.761,2.58a1.643,1.643,0,0,0,.224,1.3c0.7,1.14,2.612,2.04,4.76,2.67A15.739,15.739,0,0,0,138.4,1379.97Zm18.152-12.71a1.511,1.511,0,0,0,.283.5c1.166,1.47,4.43,2.7,8.368,3.62a9.728,9.728,0,0,0-4.286-4.28A5.644,5.644,0,0,0,156.555,1367.26Zm16.742-13.33a2.747,2.747,0,0,0-.1,2.39,3.58,3.58,0,0,0,2.749,1.72c0.753,0.05,1.531.15,2.331,0.28A23.571,23.571,0,0,0,173.3,1353.93Z" transform="translate(-73.938 -11.813)"/>
      </g>
    </g>
    <g id="_Group_7" data-name="&lt;Group&gt;">
      <path id="_Path_9" data-name="&lt;Path&gt;" class="cls-3" d="M381.569,1431.97c2.007-9.1,98.2-81.85,108.54-82.67s40.046,14.6,41.673,17.52q1.629,2.91-2.923,13.43-2.293,11.25,16.062,10.54c20.24-.78,20.685-36.85,25.766-34.4s13.956,11.9,14.4,15.93-5.162,22.33-3.016,26.99,7.864,41.51,3.658,47.69-46.136,8.86-55.316,9.15-145.346,10.33-149.639,1.02Q376.485,1447.87,381.569,1431.97Z" transform="translate(-73.938 -11.813)"/>
      <path id="_Path_10" data-name="&lt;Path&gt;" class="cls-4" d="M379.283,1443.45a389.086,389.086,0,0,0,56.864,5.37c26.257,0.38,109.826-9.45,114.358-11.98s26.919-41.92,31.568-37.53,13.09,47.39,9.879,50.41-24.73,7.68-37.2,7.73-172.9,8.81-176.032.25Q375.584,1449.15,379.283,1443.45Z" transform="translate(-73.938 -11.813)"/>
      <g id="_Group_8" data-name="&lt;Group&gt;">
        <path id="_Path_11" data-name="&lt;Path&gt;" class="cls-5" d="M558.262,1430.28c-0.643-2.63-6.158-25.82-2.225-31.34,2.9-4.06,4.953-20.51,5.5-26.5l2.4,0.22c-0.083.91-2.068,22.26-5.938,27.68-2.48,3.48.281,19.86,2.6,29.37Z" transform="translate(-73.938 -11.813)"/>
      </g>
      <g id="_Group_9" data-name="&lt;Group&gt;">
        <path id="_Path_12" data-name="&lt;Path&gt;" class="cls-5" d="M443.478,1421.99l-0.577-.53c-0.2-.18-20.152-18.16-34.2-13.65l-0.735-2.3c14.1-4.52,32.406,10.54,35.972,13.64,3.288-1.44,17.545-7.75,31.321-14.68,15.669-7.88,52.72-25.14,53.093-25.32l1.017,2.19c-0.372.17-37.39,17.42-53.027,25.28-15.684,7.89-31.985,14.98-32.147,15.05Z" transform="translate(-73.938 -11.813)"/>
      </g>
      <g id="_Group_10" data-name="&lt;Group&gt;">
        <path id="_Path_13" data-name="&lt;Path&gt;" class="cls-5" d="M432.865,1438.5a17.541,17.541,0,0,1-5.624-.82c-21.071-7.18-45.29-4.53-45.535-4.51l-0.273-2.39c0.25-.03,24.992-2.75,46.585,4.61,15.262,5.22,54.07-18.35,77.255-32.43,8.795-5.34,15.152-9.2,17.729-9.98a48.937,48.937,0,0,1,12.035-1.66c4.88-.26,9.925-0.52,15.378-2.83,5.584-2.37,7.968-8.32,10.987-15.85a91.514,91.514,0,0,1,8.277-16.91l2.016,1.32a89.657,89.657,0,0,0-8.055,16.49c-3.1,7.73-5.775,14.4-12.283,17.17-5.846,2.48-11.107,2.75-16.195,3.01a46.553,46.553,0,0,0-11.459,1.57c-2.286.69-8.858,4.68-17.179,9.73C485.362,1417.87,451.382,1438.5,432.865,1438.5Z" transform="translate(-73.938 -11.813)"/>
      </g>
      <g id="_Group_11" data-name="&lt;Group&gt;">
        <path id="_Compound_Path_2" data-name="&lt;Compound Path&gt;" class="cls-5" d="M462.909,1412.82c-3.132,0-4.414-2.98-5.2-4.8a16.313,16.313,0,0,1-1.107-4.7c-0.36-.19-0.69-0.34-0.973-0.47-1.6-.71-3.384-1.62-5.271-2.59-7.176-3.68-16.115-8.25-24-6.48l-0.527-2.36c8.749-1.96,18.109,2.84,25.632,6.69,1.748,0.9,3.406,1.75,4.88,2.41-0.009-.08-0.018-0.17-0.028-0.26a41.364,41.364,0,0,0-4.079-12.88c-4.059-.69-9.092-2.27-10.309-5.18-0.533-1.28-.587-3.31,2.183-5.74l0.52-.46,0.658,0.22c3.32,1.11,6.248,4.72,8.521,8.98a16.066,16.066,0,0,0,3.18.19,55.2,55.2,0,0,1,16.006.84,32.989,32.989,0,0,1-3.13-7.61,37.926,37.926,0,0,0-2.725-8c-3.057-.98-5.582-2.29-6.684-3.95a3.548,3.548,0,0,1-.337-3.51l0.257-.6,0.64-.12c3.3-.59,5.957,2.46,7.876,6.18a56.854,56.854,0,0,0,14.038,1.98h0.315a40.184,40.184,0,0,1,12.954,2.86c-0.245-.89-0.516-1.76-0.831-2.61-0.794-2.13-4.909-7.22-8.985-11.43-0.483-.08-0.957-0.13-1.416-0.17-0.061-.01-6.319-0.59-7.721-3.88-0.388-.92-0.539-2.38.943-4.19l0.534-.65,0.8,0.28c1.828,0.63,4.921,3.23,8.048,6.37,11.894,2.36,29.074,14.85,34.4,25.47l-2.157,1.08c-4.452-8.88-18.265-19.5-29.079-23.19,3.312,3.7,6.157,7.48,6.9,9.48a40.462,40.462,0,0,1,1.361,4.6c4.991,2.28,9.412,5.4,11.035,9.06a5.786,5.786,0,0,1,.534,3.74,4.186,4.186,0,0,1-2.59,2.9,5.842,5.842,0,0,1-5.142-.34c-2.52-1.52-3.608-4.37-4.272-6.68-0.5-1.72-.881-3.49-1.253-5.19-0.125-.59-0.255-1.17-0.387-1.76-4.786-2.05-10.064-3.34-13.656-3.34h-0.3a60.906,60.906,0,0,1-12.778-1.55,41.666,41.666,0,0,1,2.047,6.67c0.487,2.33,2.176,5.69,4.011,9.04a21.553,21.553,0,0,1,8.922,5.76,6.888,6.888,0,0,1,1.908,4.95,3.36,3.36,0,0,1-4.266,2.91,6.659,6.659,0,0,1-3.87-3.59c-0.695-1.51-1.849-3.56-3.069-5.74-0.421-.75-0.855-1.52-1.283-2.3-5.756-1.82-12.278-1.72-17.42-1.36a14.737,14.737,0,0,1-2.1-.06A44.039,44.039,0,0,1,458.71,1400c0.052,0.49.1,0.99,0.141,1.48,0.009,0.12.021,0.24,0.031,0.35,4.018,2.46,6.083,5.96,5.732,9.86l-0.087.97-0.968.12A4.865,4.865,0,0,1,462.909,1412.82Zm-3.582-7.68a10.132,10.132,0,0,0,.6,1.92c0.841,1.96,1.482,2.91,2.292,3.22A7.7,7.7,0,0,0,459.327,1405.14Zm18.821-14.53c1.175,2.1,2.273,4.07,2.97,5.59a4.309,4.309,0,0,0,2.308,2.26,0.954,0.954,0,0,0,.836-0.12,0.922,0.922,0,0,0,.4-0.72,4.55,4.55,0,0,0-1.3-3.07A17.975,17.975,0,0,0,478.148,1390.61Zm21.517-12.97c0.361,1.66.735,3.36,1.2,5,0.544,1.88,1.4,4.19,3.2,5.28a3.456,3.456,0,0,0,2.966.18,1.87,1.87,0,0,0,1.172-1.24,3.533,3.533,0,0,0-.393-2.2C506.666,1382.07,503.5,1379.62,499.665,1377.64Zm-54.5,1.13c-0.959.98-1.3,1.82-1.02,2.49,0.615,1.47,3.552,2.64,6.559,3.36C449.032,1381.88,447.122,1379.71,445.167,1378.77Zm17.069-13.94a1.453,1.453,0,0,0,.226.51,6.639,6.639,0,0,0,2.793,1.99A5.723,5.723,0,0,0,462.236,1364.83Zm17.311-11.35a1.149,1.149,0,0,0-.085.94c0.412,0.97,2.325,1.74,3.99,2.14A24.6,24.6,0,0,0,479.547,1353.48Z" transform="translate(-73.938 -11.813)"/>
      </g>
    </g>
    <g id="_Group_12" data-name="&lt;Group&gt;">
      <path id="_Path_14" data-name="&lt;Path&gt;" class="cls-6" d="M356.884,874.169a1.208,1.208,0,0,1-1.065-.641c-22-41.514-39.9-63.878-51.769-64.676-16.315-1.1-35.741-98-37.9-109.043a1.192,1.192,0,0,1,.252-1,1.2,1.2,0,0,1,.93-0.439h21.975a1.2,1.2,0,0,1,1.2,1.111c0.071,0.874,7.212,87.6,38.062,107.148a1.2,1.2,0,1,1-1.291,2.035c-30.3-19.193-38.137-97.134-39.081-107.882H268.8c8.427,42.625,24.577,104.933,35.411,105.661,12.928,0.869,31.008,23.06,53.738,65.952a1.2,1.2,0,0,1-.5,1.63A1.19,1.19,0,0,1,356.884,874.169Z" transform="translate(-73.938 -11.813)"/>
    </g>
    <g id="_Group_13" data-name="&lt;Group&gt;">
      <path id="_Path_15" data-name="&lt;Path&gt;" class="cls-6" d="M296.238,838.444a1.2,1.2,0,0,1-.949-0.462,87.659,87.659,0,0,0-39.136-28.169,1.206,1.206,0,0,1,.81-2.271,90.1,90.1,0,0,1,40.224,28.952A1.206,1.206,0,0,1,296.238,838.444Z" transform="translate(-73.938 -11.813)"/>
    </g>
    <g id="_Group_14" data-name="&lt;Group&gt;">
      <path id="_Path_16" data-name="&lt;Path&gt;" class="cls-6" d="M545.937,1185.65a409.348,409.348,0,0,1-96.4-12.13,1.2,1.2,0,1,1,.64-2.32c0.989,0.27,99.577,26.95,174.211.02a1.211,1.211,0,0,1,1.545.73,1.2,1.2,0,0,1-.726,1.54C599.942,1182.61,571.975,1185.65,545.937,1185.65Z" transform="translate(-73.938 -11.813)"/>
    </g>
    <g id="_Group_15" data-name="&lt;Group&gt;">
      <path id="_Path_17" data-name="&lt;Path&gt;" class="cls-6" d="M178.337,1170.85a291.933,291.933,0,0,1-57.1-5.42,1.2,1.2,0,0,1,.532-2.35c1.1,0.24,110.816,24.19,174.138-30.98a1.2,1.2,0,1,1,1.583,1.81C263.139,1163.84,215.447,1170.85,178.337,1170.85Z" transform="translate(-73.938 -11.813)"/>
    </g>
    <g id="_Group_16" data-name="&lt;Group&gt;">
      <path id="_Path_18" data-name="&lt;Path&gt;" class="cls-6" d="M603.974,1179.65a1.2,1.2,0,0,1-1.189-1.03c-7.959-52.79-41.642-138.29-50.462-148.99-4.694-5.7-3.762-39.9-1.851-95.232,1.643-47.563,3.5-101.468-.922-125.5C540.916,762,508.8,700.753,508.479,700.141a1.206,1.206,0,0,1,2.134-1.126c0.325,0.617,32.609,62.185,41.312,109.444,4.47,24.292,2.605,78.336.958,126.021-1.5,43.427-3.05,88.33,1.3,93.61,10.067,12.22,43.391,99.79,50.985,150.17a1.2,1.2,0,0,1-1.013,1.37A1.114,1.114,0,0,1,603.974,1179.65Z" transform="translate(-73.938 -11.813)"/>
    </g>
    <g id="_Group_17" data-name="&lt;Group&gt;">
      <path id="_Path_19" data-name="&lt;Path&gt;" class="cls-6" d="M574.931,1019.35a1.219,1.219,0,0,1-1-.53c-10.318-15.2-49.2-16.96-49.588-16.97a1.212,1.212,0,0,1-1.156-1.26,1.289,1.289,0,0,1,1.255-1.154c1.649,0.069,40.49,1.834,51.487,18.024A1.211,1.211,0,0,1,574.931,1019.35Z" transform="translate(-73.938 -11.813)"/>
    </g>
    <g id="_Group_18" data-name="&lt;Group&gt;">
      <path id="_Path_20" data-name="&lt;Path&gt;" class="cls-6" d="M573.909,1030.07a1.2,1.2,0,0,1-.737-0.26c-15.282-11.81-43.962-10.48-44.252-10.47a1.174,1.174,0,0,1-1.264-1.14,1.2,1.2,0,0,1,1.142-1.26c1.206-.06,29.853-1.4,45.848,10.97A1.206,1.206,0,0,1,573.909,1030.07Z" transform="translate(-73.938 -11.813)"/>
    </g>
    <g id="_Group_19" data-name="&lt;Group&gt;">
      <path id="_Path_21" data-name="&lt;Path&gt;" class="cls-6" d="M283.882,1082.54a1.2,1.2,0,0,1-1.077-.66c-5.445-10.82-27.7-49.42-27.926-49.8a1.206,1.206,0,1,1,2.087-1.21c0.226,0.39,22.519,39.04,27.992,49.93a1.208,1.208,0,0,1-.534,1.62A1.3,1.3,0,0,1,283.882,1082.54Z" transform="translate(-73.938 -11.813)"/>
    </g>
    <g id="_Group_20" data-name="&lt;Group&gt;">
      <path id="_Path_22" data-name="&lt;Path&gt;" class="cls-6" d="M117.133,1074.9a1.122,1.122,0,0,1-.53-0.13,1.2,1.2,0,0,1-.554-1.61l14.028-28.67a1.206,1.206,0,1,1,2.167,1.06l-14.028,28.67A1.206,1.206,0,0,1,117.133,1074.9Z" transform="translate(-73.938 -11.813)"/>
    </g>
    <g id="_Group_21" data-name="&lt;Group&gt;">
      <path id="_Path_23" data-name="&lt;Path&gt;" class="cls-6" d="M442.357,1052.81a1.217,1.217,0,0,1-.8-0.3,1.2,1.2,0,0,1-.1-1.7,47.018,47.018,0,0,0,10.2-18.87,1.205,1.205,0,1,1,2.327.63,49.419,49.419,0,0,1-10.721,19.84A1.2,1.2,0,0,1,442.357,1052.81Z" transform="translate(-73.938 -11.813)"/>
    </g>
    <g id="_Group_22" data-name="&lt;Group&gt;">
      <path id="_Path_24" data-name="&lt;Path&gt;" class="cls-6" d="M546.818,792.905a1.252,1.252,0,0,1-.284-0.034c-0.848-.207-85-21.419-110.3-92.891a1.207,1.207,0,0,1,2.275-.805c22.648,63.968,93.448,87.029,106.518,90.783l-4.93-16.084c-60.693-13.922-88.106-73.2-88.377-73.8a1.207,1.207,0,0,1,2.2-.994c0.266,0.591,27.418,59.229,87.388,72.593a1.208,1.208,0,0,1,.892.824l5.775,18.847A1.207,1.207,0,0,1,546.818,792.905Z" transform="translate(-73.938 -11.813)"/>
    </g>
  </g>
  <g id="_Group_23" data-name="&lt;Group&gt;">
    <path id="_Path_25" data-name="&lt;Path&gt;" class="cls-3" d="M214.032,247.283Q103.954,384.107,99.023,402.656c-4.931,18.55,51.213,11.776,54.247,6.378q3.035-5.4,64.335-74.311Z" transform="translate(-73.938 -11.813)"/>
    <path id="_Path_26" data-name="&lt;Path&gt;" class="cls-7" d="M567.554,714.506c0,11.658-98.287,27.694-210.374,41.446-112.063,13.776-200.048-41.565-208.4-51.106-8.328-9.541,1.975-27.528,3.95-35.4,1.951-7.851-31.454-55.056-38.164-133.69q-6.685-78.634,81.418-192.673c-0.016-.031-0.039-0.079-0.071-0.142a15.784,15.784,0,0,1-1.546-3.426c-6.877-20.605,3.021-80.158,23.245-96.694,21.627-17.7,96.217-26.148,157.269-25.577,41.161,0.405,106.186-1.951,153.367,47.2C555.3,292.615,558.442,415.171,555.8,516.1c-1.927,75.089-7.043,138.211-7.9,141.542C545.951,665.516,567.554,702.871,567.554,714.506Z" transform="translate(-73.938 -11.813)"/>
    <path id="_Path_27" data-name="&lt;Path&gt;" class="cls-3" d="M555.8,516.1c-2.9-32.144-69.09-43.576-87.53-96.514-19.949-57.275-26.936-150.168-122.63-151.357q-95.718-1.19-149.656,74.851c-0.016-.031-0.039-0.079-0.071-0.142-0.167-.381-0.714-1.6-1.546-3.426-6.877-20.605,3.021-80.158,23.245-96.694,21.627-17.7,96.143-34.809,156.752-42.167,54.376-6.6,106.7,14.639,153.884,63.795C555.3,292.615,558.442,415.171,555.8,516.1Z" transform="translate(-73.938 -11.813)"/>
    <path id="_Path_28" data-name="&lt;Path&gt;" class="cls-1" d="M473.181,724.219a65.383,65.383,0,0,0-13.639,19.473c-4.977,11.492-5.366,24.541-5.549,36.872-0.05,3.411,3.012,11.25,6.888,11.061,5.192-16.446,14.124-32.794,32.361-38.678,1.02-.329-0.648,19.509-1.094,21.246a61.325,61.325,0,0,1-9.821,20.609,67.485,67.485,0,0,1-17.142,16.454c-9.14,6.1-13.536,5.022-10.336,16.9,0.532,1.977,1.137,4.075,2.679,5.421,2.823,2.465,7.283,1.229,10.417-.827s6-4.877,9.708-5.457c2.316-.363,4.66.213,6.969,0.614,51.941,9.008,68.214-60.178,73.341-97.74,2.133-15.632-9.944-25.293-23.545-29.525-6.127-1.906-14.84-4.576-20.937-1.879a193.062,193.062,0,0,0-26.714,14.345A83.5,83.5,0,0,0,473.181,724.219Z" transform="translate(-73.938 -11.813)"/>
    <path id="_Path_29" data-name="&lt;Path&gt;" class="cls-1" d="M472.105,397.83c7.373,25.067,53.7,135.958,46.809,144.805s-23.219,163-16.115,174.48,25.446,39.331,38.717,34.907S644.734,564.754,646.209,542.635s-25.29-160.71-31.188-166.608Q609.123,370.129,472.105,397.83Z" transform="translate(-73.938 -11.813)"/>
    <path id="_Path_30" data-name="&lt;Path&gt;" class="cls-3" d="M483.462,233.261c1.073-.37,56.219,19.5,100.628,77.793,50.244,65.951,73.915,185.379,75.882,187.345S544.956,561.313,492.855,537.72q-29.331-122.895-31.3-171.064C459.592,318.487,420,255.17,483.462,233.261Z" transform="translate(-73.938 -11.813)"/>
    <path id="_Path_31" data-name="&lt;Path&gt;" class="cls-8" d="M396.541,31.7q-25.951-20.37-45.718-13.851c-19.766,6.52-43.348,41.577-57.055,46.374l-13.708,4.8q5.8,21.728,21.679,20.482,3.93,34.5,14.117,50.128c10.187,15.629,76.159,43.214,78.341,37.734,4.707-11.822,1.213-14.327,5.068-16.231s33-26.4,36.951-74.9C438.254,61.243,433.7,29.565,396.541,31.7Z" transform="translate(-73.938 -11.813)"/>
    <path id="_Path_32" data-name="&lt;Path&gt;" class="cls-1" d="M335.436,141.159q7.944,56.233,6.293,58.318t-10.011,9.186q2.418,24.57,40.894,24.593c44.186,0.026,52.746-28.265,50.661-29.915S412.907,195.434,411.8,190.9q-1.108-4.529-22.72-75.719Z" transform="translate(-73.938 -11.813)"/>
    <path id="_Path_33" data-name="&lt;Path&gt;" class="cls-9" d="M340.067,176.682l0.813,3.468q3.3,14.6,14.312,16.079c38.807,5.225,43.617-48.9,37.907-67.781l-3.2-13.157q-2.286,32.654-6.547,37.437T340.067,176.682Z" transform="translate(-73.938 -11.813)"/>
    <path id="_Path_34" data-name="&lt;Path&gt;" class="cls-1" d="M364.726,63.547Q323.746,89.611,313.4,89.5c-6.4-.066,1.248,22.557,2.458,50.128,1.089,24.842,17.455,39.484,31.391,41.423,24.982,3.477,40.5-10.232,45.628-26.813q3.518-11.381-3.06-29.544,9.777-2.078,10.245-16.834c0.467-14.756-4.661-18.381-10.586-9.25Q383.549,107.745,364.726,63.547Z" transform="translate(-73.938 -11.813)"/>
    <g id="_Group_24" data-name="&lt;Group&gt;">
      <path id="_Path_35" data-name="&lt;Path&gt;" class="cls-8" d="M401.955,155.442l-0.217-2.4c7.5-.675,14.923-4.756,20.889-11.492,5.978-6.753,9.645-15.08,12.172-21.579a107.45,107.45,0,0,0,7.421-43.635c-0.659-13.658-2.861-28.906-14.2-38.446-8.361-7.035-21.64-10.775-32.465-3.267l-0.973.676-0.692-.961c-5.486-7.61-14.257-14.023-24.062-17.6a39.941,39.941,0,0,0-28.753.3c-9.155,3.826-14.989,10.754-21.164,18.089a106.488,106.488,0,0,1-11.494,12.259,100.131,100.131,0,0,1-39.76,21.139A41.61,41.61,0,0,0,329.183,81.5c6.167-4.474,11.082-10.7,15.076-16.2l1.951,1.418c-4.106,5.653-9.17,12.06-15.609,16.733a44.025,44.025,0,0,1-64.817-15.142l-0.716-1.364,1.493-.369a97.571,97.571,0,0,0,40.278-21.008A104.687,104.687,0,0,0,318.066,33.58c6.089-7.232,12.384-14.709,22.079-18.761a42.391,42.391,0,0,1,30.508-.344,54.919,54.919,0,0,1,24.5,17.52c11.679-7.37,25.6-3.371,34.42,4.047,12.047,10.137,14.369,26,15.052,40.176a109.8,109.8,0,0,1-7.581,44.625c-2.6,6.686-6.381,15.266-12.615,22.3C418.058,150.345,410.073,154.712,401.955,155.442Z" transform="translate(-73.938 -11.813)"/>
    </g>
    <path id="_Path_36" data-name="&lt;Path&gt;" class="cls-8" d="M333.254,111.692c0.406,3.6-.813,6.693-2.724,6.908s-3.789-2.527-4.2-6.127,0.814-6.692,2.725-6.908S332.848,108.093,333.254,111.692Z" transform="translate(-73.938 -11.813)"/>
    <path id="_Path_37" data-name="&lt;Path&gt;" class="cls-8" d="M363.272,107.656c0.407,3.6-.813,6.692-2.724,6.908s-3.789-2.528-4.2-6.127,0.814-6.692,2.725-6.908S362.866,104.056,363.272,107.656Z" transform="translate(-73.938 -11.813)"/>
    <g id="_Group_25" data-name="&lt;Group&gt;">
      <path id="_Path_38" data-name="&lt;Path&gt;" class="cls-8" d="M390.463,116.5a1.224,1.224,0,0,1-.181-0.013,1.206,1.206,0,0,1-1.013-1.371,16.568,16.568,0,0,1,5.207-9.768,1.207,1.207,0,0,1,1.626,1.783,14.357,14.357,0,0,0-4.45,8.341A1.2,1.2,0,0,1,390.463,116.5Z" transform="translate(-73.938 -11.813)"/>
    </g>
    <g id="_Group_26" data-name="&lt;Group&gt;">
      <path id="_Path_39" data-name="&lt;Path&gt;" class="cls-8" d="M350.265,97.882a1.206,1.206,0,0,1-.607-2.248,19.39,19.39,0,0,1,15.154-1.77,1.206,1.206,0,0,1-.7,2.309,16.921,16.921,0,0,0-13.237,1.546A1.208,1.208,0,0,1,350.265,97.882Z" transform="translate(-73.938 -11.813)"/>
    </g>
    <path id="_Path_40" data-name="&lt;Path&gt;" class="cls-10" d="M359.945,143.093a21.623,21.623,0,0,1-11.264,7.8,16.01,16.01,0,0,1-10.457-.427,6.148,6.148,0,0,1-3.674-3.411Z" transform="translate(-73.938 -11.813)"/>
    <g id="_Group_27" data-name="&lt;Group&gt;">
      <path id="_Path_41" data-name="&lt;Path&gt;" class="cls-8" d="M345.64,158.326q-0.87,0-1.743-.076a1.2,1.2,0,0,1-1.1-1.3,1.222,1.222,0,0,1,1.305-1.1,17.848,17.848,0,0,0,6.081-.525,1.206,1.206,0,0,1,.618,2.332A20.243,20.243,0,0,1,345.64,158.326Z" transform="translate(-73.938 -11.813)"/>
    </g>
    <g id="_Group_28" data-name="&lt;Group&gt;">
      <path id="_Path_42" data-name="&lt;Path&gt;" class="cls-8" d="M319.885,102.389a1.206,1.206,0,0,1-.474-2.315,31.776,31.776,0,0,1,14.556-1.861,1.2,1.2,0,0,1,1.013,1.372,1.224,1.224,0,0,1-1.371,1.014,29.36,29.36,0,0,0-13.251,1.694A1.2,1.2,0,0,1,319.885,102.389Z" transform="translate(-73.938 -11.813)"/>
    </g>
    <g id="_Group_29" data-name="&lt;Group&gt;">
      <path id="_Path_43" data-name="&lt;Path&gt;" class="cls-8" d="M341.217,136.782a10,10,0,0,1-7.236-3,4.124,4.124,0,0,1-1.156-2.036,4.773,4.773,0,0,1,.574-2.847c4.459-9.862,5.851-18.765,4.141-26.463a1.31,1.31,0,0,0-.137-0.416,1.089,1.089,0,0,1-.727-1.431,1.286,1.286,0,0,1,1.592-.764,2.481,2.481,0,0,1,1.627,2.088c1.826,8.219.38,17.631-4.3,27.977a2.98,2.98,0,0,0-.4,1.411,1.891,1.891,0,0,0,.539.823A7.642,7.642,0,0,0,345,133.346a1.205,1.205,0,1,1,1.262,2.054A9.629,9.629,0,0,1,341.217,136.782Z" transform="translate(-73.938 -11.813)"/>
    </g>
    <path id="_Path_44" data-name="&lt;Path&gt;" class="cls-1" d="M195.978,343.079c-29-.983-85.032,35.881-98.3,77.169s4.734,100.861,16.53,90.539,66.045-90.539,71.943-100.861Q192.046,399.6,195.978,343.079Z" transform="translate(-73.938 -11.813)"/>
    <path id="_Path_45" data-name="&lt;Path&gt;" class="cls-1" d="M212.1,389.05c13.939-4.252,27.97-8.57,40.806-14.742,7.01-3.372,11.039-6.814,19.254-6.155,4.76,0.382,18.341,5.456,19.251-2.7,0.685-6.146-10.179-16.122-13.913-20.31-4.434-4.972-6.014-11.877-10.989-16.474-5.887-5.438-14.845-3.495-22.048-3.21l-30.105,1.19c-10.564.417-16.916,6.122-22.829,14.514-4.546,6.452-8.708,14.173-14.18,19.863-3.767,3.916-8.478,4.221-8.811,10.748-0.45,8.818,11.621,16.089,15.855,22.75a3.526,3.526,0,0,0,5.237,1.7C196.952,393.659,204.512,391.364,212.1,389.05Z" transform="translate(-73.938 -11.813)"/>
  </g>
  <path id="_Path_46" data-name="&lt;Path&gt;" class="cls-7" d="M324.935,207.584q2.455,21.261,31.2,27.585c45.222,9.949,66.356-9.143,72.6-31.652l-10.166-4.04q-7.368,31.321-51.79,28.078c-22.758-1.661-28.366-11.258-33.409-22.081Z" transform="translate(-73.938 -11.813)"/>
  <g id="_Group_30" data-name="&lt;Group&gt;">
    <path id="_Path_47" data-name="&lt;Path&gt;" class="cls-5" d="M384.3,456.1a176.234,176.234,0,0,0-54.906-65.336c-20.178-14.6-38.69-23.77-63.513-21.018l-0.264-2.4c25.581-2.833,44.562,6.53,65.19,21.462a178.639,178.639,0,0,1,55.66,66.233Z" transform="translate(-73.938 -11.813)"/>
  </g>
  <g id="_Group_31" data-name="&lt;Group&gt;">
    <path id="_Path_48" data-name="&lt;Path&gt;" class="cls-5" d="M260.744,716.2a182.1,182.1,0,0,1-26.756-1.918c-34.187-5.066-63.593-20.54-82.8-43.572l1.851-1.545c18.828,22.577,47.7,37.752,81.3,42.731,27.585,4.089,58.112,1.569,93.342-7.7l0.613,2.331C303.727,712.987,281.4,716.2,260.744,716.2Z" transform="translate(-73.938 -11.813)"/>
  </g>
  <g id="_Group_32" data-name="&lt;Group&gt;">
    <path id="_Path_49" data-name="&lt;Path&gt;" class="cls-5" d="M319.373,724.019a84.86,84.86,0,0,1-15.452-1.407l0.438-2.372a86.293,86.293,0,0,0,75.321-23.147l1.7,1.714A88.934,88.934,0,0,1,319.373,724.019Z" transform="translate(-73.938 -11.813)"/>
  </g>
  <g id="_Group_33" data-name="&lt;Group&gt;">
    <path id="_Path_50" data-name="&lt;Path&gt;" class="cls-5" d="M414.306,477.587A142.427,142.427,0,0,0,374.824,425.7l1.531-1.863a144.848,144.848,0,0,1,40.155,52.774Z" transform="translate(-73.938 -11.813)"/>
  </g>
  <g id="_Group_34" data-name="&lt;Group&gt;">
    <path id="_Path_51" data-name="&lt;Path&gt;" class="cls-5" d="M367.739,352.116c-16.619-3.632-29.295-14.763-37-23.461-9.805-11.063-17.165-24.067-24.285-36.645l2.1-1.187c7.057,12.468,14.354,25.36,23.989,36.233,7.469,8.43,19.728,19.211,35.711,22.705Z" transform="translate(-73.938 -11.813)"/>
  </g>
  <g id="_Group_35" data-name="&lt;Group&gt;">
    <path id="_Path_52" data-name="&lt;Path&gt;" class="cls-5" d="M357.965,333.806a34.586,34.586,0,0,1-28.047-21.092l2.238-.894a32.123,32.123,0,0,0,26.049,19.586Z" transform="translate(-73.938 -11.813)"/>
  </g>
  <g id="_Group_36" data-name="&lt;Group&gt;">
    <path id="_Path_53" data-name="&lt;Path&gt;" class="cls-5" d="M239.866,664.148a187.615,187.615,0,0,1-74.688-85.009l2.21-.965A185.178,185.178,0,0,0,241.11,662.08Z" transform="translate(-73.938 -11.813)"/>
  </g>
  <g id="_Group_37" data-name="&lt;Group&gt;">
    <path id="_Path_54" data-name="&lt;Path&gt;" class="cls-5" d="M280.248,672.706a88.719,88.719,0,0,1-50.564-32.591l1.927-1.453a86.261,86.261,0,0,0,49.164,31.691Z" transform="translate(-73.938 -11.813)"/>
  </g>
  <g id="_Group_38" data-name="&lt;Group&gt;">
    <path id="_Path_55" data-name="&lt;Path&gt;" class="cls-11" d="M379.179,239.035a105.236,105.236,0,0,1-13.924-.982c-37.3-4.992-41.475-30.038-41.512-30.29l2.383-.36c0.149,0.959,4.025,23.52,39.449,28.26,33.412,4.469,53.707-6.163,62.017-32.509l2.3,0.726C422.523,227.25,405.492,239.035,379.179,239.035Z" transform="translate(-73.938 -11.813)"/>
  </g>
  <g id="_Group_39" data-name="&lt;Group&gt;">
    <path id="_Path_56" data-name="&lt;Path&gt;" class="cls-11" d="M473.223,291.868l-2.238-.9c16.4-40.659,65.691-28.627,66.184-28.5l-0.594,2.336C536.1,264.685,488.834,253.175,473.223,291.868Z" transform="translate(-73.938 -11.813)"/>
  </g>
  <g id="_Group_40" data-name="&lt;Group&gt;">
    <path id="_Path_57" data-name="&lt;Path&gt;" class="cls-11" d="M518.783,543.842a69.922,69.922,0,0,1-26.421-5.022l-0.551-.248-0.132-.59c-0.144-.649-14.431-65.168-20.757-96.97-6.334-31.844-12.236-89.374-12.3-89.951l2.4-.245c0.059,0.576,5.952,57.994,12.261,89.725,5.992,30.116,19.135,89.621,20.614,96.308a70.091,70.091,0,0,0,24.886,4.581h0.124l0,2.412h-0.132Z" transform="translate(-73.938 -11.813)"/>
  </g>
  <g id="_Group_41" data-name="&lt;Group&gt;">
    <path id="_Path_58" data-name="&lt;Path&gt;" class="cls-11" d="M465.865,396.8l-2.407-.144c1.112-18.5,7.407-45.72,7.471-45.993l2.35,0.547C473.216,351.483,466.965,378.505,465.865,396.8Z" transform="translate(-73.938 -11.813)"/>
  </g>
  <g id="_Group_42" data-name="&lt;Group&gt;">
    <path id="_Path_59" data-name="&lt;Path&gt;" class="cls-11" d="M190.323,341.234c-0.1-1.68-2.36-41.39,7.711-65.079l2.219,0.944c-9.847,23.163-7.546,63.583-7.523,63.99Z" transform="translate(-73.938 -11.813)"/>
  </g>
  <g id="_Group_43" data-name="&lt;Group&gt;">
    <path id="_Path_60" data-name="&lt;Path&gt;" class="cls-11" d="M190.074,322.65c-3.027-16.808-4.5-27.583-4.513-27.691l2.388-.325c0.014,0.107,1.482,10.836,4.5,27.59Z" transform="translate(-73.938 -11.813)"/>
  </g>
  <g id="_Group_44" data-name="&lt;Group&gt;">
    <path id="_Path_61" data-name="&lt;Path&gt;" class="cls-11" d="M579.609,496.012A125.176,125.176,0,0,1,510.358,429.5l2.219-.949a122.71,122.71,0,0,0,67.889,65.212Z" transform="translate(-73.938 -11.813)"/>
  </g>
  <g id="_Group_45" data-name="&lt;Group&gt;">
    <path id="_Path_62" data-name="&lt;Path&gt;" class="cls-11" d="M541.521,460.654c-15.158-9.609-22.935-27.387-29.184-41.671l2.209-.966c6.117,13.983,13.731,31.385,28.266,40.6Z" transform="translate(-73.938 -11.813)"/>
  </g>
  <g id="_Group_46" data-name="&lt;Group&gt;">
    <path id="_Path_63" data-name="&lt;Path&gt;" class="cls-8" d="M292.1,364.459a1.28,1.28,0,0,1-.292-0.035,1.208,1.208,0,0,1-.879-1.462c-0.3-1.717-10.441-10.818-18.793-10.818-9.169.086-24.5,4.13-25.515,4.467a1.205,1.205,0,1,1-.762-2.287c1.085-.363,16.628-4.5,26.146-4.592h0.131c8.032,0,17.05,7.02,19.9,10.627,1.051,1.332,1.444,2.344,1.234,3.185A1.205,1.205,0,0,1,292.1,364.459Z" transform="translate(-73.938 -11.813)"/>
  </g>
  <g id="_Group_47" data-name="&lt;Group&gt;">
    <path id="_Path_64" data-name="&lt;Path&gt;" class="cls-8" d="M287.818,358.3a1.2,1.2,0,0,1-.928-0.437c-0.118-.141-11.793-14.169-21.591-18.84-9.466-4.507-25.821,4.979-25.988,5.076a1.206,1.206,0,0,1-1.221-2.08c0.714-.419,17.623-10.238,28.245-5.172,10.281,4.9,21.921,18.886,22.413,19.478A1.208,1.208,0,0,1,287.818,358.3Z" transform="translate(-73.938 -11.813)"/>
  </g>
  <g id="_Group_48" data-name="&lt;Group&gt;">
    <path id="_Path_65" data-name="&lt;Path&gt;" class="cls-8" d="M275.005,345.388a1.206,1.206,0,0,1-1.159-.875c-0.045-.154-4.5-15.427-12.827-17.445-8.528-2.068-26.671,8.705-26.855,8.814a1.206,1.206,0,0,1-1.239-2.07c0.778-.465,19.151-11.4,28.664-9.088,9.69,2.348,14.381,18.444,14.575,19.127A1.205,1.205,0,0,1,275.005,345.388Z" transform="translate(-73.938 -11.813)"/>
  </g>
  <g id="_Group_49" data-name="&lt;Group&gt;">
    <path id="_Path_66" data-name="&lt;Path&gt;" class="cls-8" d="M190.019,344.564a1.206,1.206,0,0,1-.176-2.4c1.578-.237,8.231-3.022,14.1-5.48,5.587-2.338,10.862-4.548,13.239-5.237,0.447-.2,14.2-5.967,24.565-7.043,10.326-1.066,13.755.228,14.115,0.38a1.206,1.206,0,0,1-.927,2.227c-0.083-.031-3.324-1.2-12.938-0.207-10.015,1.039-23.871,6.854-24.01,6.912-2.376.7-7.833,2.984-13.112,5.193-7.732,3.237-12.93,5.378-14.675,5.641A1.38,1.38,0,0,1,190.019,344.564Z" transform="translate(-73.938 -11.813)"/>
  </g>
  <g id="_Group_50" data-name="&lt;Group&gt;">
    <path id="_Path_67" data-name="&lt;Path&gt;" class="cls-8" d="M195.034,395.53A37.885,37.885,0,0,1,170.847,387a1.206,1.206,0,1,1,1.55-1.849,35.75,35.75,0,0,0,38.276,4.3,1.206,1.206,0,1,1,1.1,2.148A36.793,36.793,0,0,1,195.034,395.53Z" transform="translate(-73.938 -11.813)"/>
  </g>
  <g id="_Group_51" data-name="&lt;Group&gt;">
    <path id="_Path_68" data-name="&lt;Path&gt;" class="cls-8" d="M181.6,399.455a14.889,14.889,0,0,1-11.338-5.488,1.206,1.206,0,0,1,1.88-1.512,12.438,12.438,0,0,0,9.47,4.588A1.206,1.206,0,0,1,181.6,399.455Z" transform="translate(-73.938 -11.813)"/>
  </g>
  <g id="_Group_52" data-name="&lt;Group&gt;">
    <path id="_Path_69" data-name="&lt;Path&gt;" class="cls-8" d="M515.943,551.137a1.206,1.206,0,0,1-.488-2.309c0.375-.165,38.241-16.489,105.967-13.345a1.206,1.206,0,0,1-.113,2.409c-67.071-3.118-104.509,12.98-104.881,13.143A1.21,1.21,0,0,1,515.943,551.137Z" transform="translate(-73.938 -11.813)"/>
  </g>
  <g id="_Group_53" data-name="&lt;Group&gt;">
    <path id="_Path_70" data-name="&lt;Path&gt;" class="cls-8" d="M458.63,825.228c-2.1,0-3.564-.471-4.487-1.439-3.406-3.571-3.8-4.993-3.349-6.029a1.622,1.622,0,0,1,1.512-.968,1.206,1.206,0,0,1,.9,1.99,16.558,16.558,0,0,0,2.687,3.344,4.018,4.018,0,0,0,2.742.69c9.063-.047,31.947-10.82,38.923-18.293,8.088-8.665,15.752-26.824,15.83-27.006a1.206,1.206,0,0,1,2.224.933c-0.318.761-7.912,18.741-16.292,27.717-7.433,7.966-30.965,19.009-40.614,19.061H458.63Z" transform="translate(-73.938 -11.813)"/>
  </g>
  <g id="_Group_54" data-name="&lt;Group&gt;">
    <path id="_Path_71" data-name="&lt;Path&gt;" class="cls-8" d="M460.377,834.148a7.123,7.123,0,0,1-3.636-.77,7.935,7.935,0,0,1-4-5.109,8.386,8.386,0,0,1,1.286-6A1.205,1.205,0,1,1,456,823.65a6.014,6.014,0,0,0-.895,4.141,5.663,5.663,0,0,0,2.883,3.523c5.417,3.3,36-10.394,46-16.868,8.844-5.728,19.259-23.188,19.365-23.362a1.2,1.2,0,1,1,2.073,1.229c-0.436.737-10.811,18.124-20.128,24.158C498.328,820.986,471.659,834.148,460.377,834.148Z" transform="translate(-73.938 -11.813)"/>
  </g>
  <g id="_Group_55" data-name="&lt;Group&gt;">
    <path id="_Path_72" data-name="&lt;Path&gt;" class="cls-8" d="M479.653,828.867a1.206,1.206,0,0,1-.007-2.412c0.214,0,21.675-.174,29.547-2.586,6.274-1.922,15.552-17.558,18.6-23.421a1.205,1.205,0,0,1,2.139,1.112c-0.467.9-11.511,22.005-20.03,24.617-8.208,2.513-29.342,2.683-30.239,2.69h-0.007Z" transform="translate(-73.938 -11.813)"/>
  </g>
</svg>
