<svg version="1.2" baseProfile="tiny-ps" xmlns="http://www.w3.org/2000/svg" viewBox="0 0 546 1420" width="546" height="1420">
	<title>normalWeight-svg</title>
	<style>
		tspan { white-space:pre }
		.shp0 { fill: #f9a485 } 
		.shp1 { fill: #3b344a } 
		.shp2 { fill: #65a6ce } 
		.shp3 { fill: #d5d1d8 } 
		.shp4 { fill: #a5b1c7 } 
		.shp5 { fill: #4c7d9b } 
		.shp6 { fill: #e8e6e9 } 
		.shp7 { fill: #85504c } 
		.shp8 { fill: #e07560 } 
		.shp9 { fill: #1e1a25 } 
	</style>
	<path id="_Path_" fill-rule="evenodd" class="shp0" d="M390.68 375.66C391.95 467.6 394.03 513.58 396.93 513.58C401.28 513.58 432.81 540.79 438.25 552.31C441.87 559.99 455.28 602.01 478.48 678.37L454.52 698.83C394.96 621.39 362.13 578.13 356.05 569.06C346.92 555.45 327.48 425.64 331.76 415.17C334.62 408.19 354.26 395.02 390.68 375.66Z" />
	<path id="_Path_2" fill-rule="evenodd" class="shp1" d="M327.09 231.14C363.5 242.48 385.34 269.97 392.59 313.63C397.75 344.72 404.27 395.35 412.16 465.51C376.96 479.63 345.58 485.64 317.99 483.55C290.4 481.45 293.44 397.32 327.09 231.14Z" />
	<g id="_Group_">
		<path id="_Path_3" fill-rule="evenodd" class="shp0" d="M170.61 938.59C155.59 959 109.86 1017.11 106.1 1045.37C102.35 1073.63 141.88 1343.72 156.91 1340.57C159.53 1340.05 162.18 1339.66 164.85 1339.4C167.51 1339.14 170.18 1339.01 172.86 1339.01C175.54 1339.01 178.21 1339.15 180.88 1339.41C183.54 1339.68 186.19 1340.08 188.82 1340.6C216.35 1169.95 231.99 1073.63 235.74 1051.65C241.37 1018.67 228.23 952.72 222.6 948.01C218.85 944.87 201.51 941.73 170.61 938.59Z" />
		<path id="_Path_4" fill-rule="evenodd" class="shp0" d="M319.74 962.92C314.85 980.98 277.34 1051.65 277.34 1068.93C277.34 1086.2 392.31 1376.78 397.2 1368.91C402.1 1361.03 433.08 1345.31 434.71 1340.6C436.35 1335.9 388.23 958.48 378.45 952.72C371.93 948.88 352.36 952.28 319.74 962.92Z" />
		<path id="_Path_5" fill-rule="evenodd" class="shp2" d="M171.48 615.31C157.74 615.31 133.82 674.79 127.3 714.57C120.78 754.35 130.12 963.38 119.07 985.46C103.87 1015.81 99.46 1054.57 105.85 1101.73C147.73 1122.53 189.58 1124.7 231.39 1108.24C254.78 861.14 270.09 732.02 277.34 720.85C288.21 704.1 307.78 704.26 299.08 647.65L290.39 615.31L171.48 615.31L171.48 615.31Z" />
		<path id="_Path_6" fill-rule="evenodd" class="shp2" d="M259.94 716.66C281.48 878.51 288.58 971.63 281.22 996.02C271.08 1029.62 272.77 1067.57 286.28 1109.86C335.49 1110.85 374.59 1105.83 403.58 1094.82C402.05 1028.35 402.01 970.69 403.46 921.84C405.63 848.56 379.54 710.38 375.19 683.16C372.29 665.02 369.39 642.4 366.49 615.32L277.34 615.32L259.94 716.66Z" />
		<g id="_Group_2">
			<path id="_Path_7" fill-rule="evenodd" class="shp1" d="M541.58 1373.21C539.74 1365.17 441.94 1302.9 432.46 1302.17C422.97 1301.44 405.34 1313.11 403.85 1315.69C402.85 1317.4 403.75 1321.35 406.53 1327.54C407.93 1334.16 403.02 1337.27 391.8 1336.85C373.24 1336.16 372.83 1304.32 368.18 1306.47C363.52 1308.63 355.38 1316.99 354.97 1320.54C354.56 1324.09 359.7 1340.26 357.74 1344.37C355.77 1348.47 350.52 1381.02 354.38 1386.47C358.24 1391.92 396.68 1394.3 405.1 1394.55C413.52 1394.81 538.37 1403.67 542.31 1395.46C544.93 1389.97 544.69 1382.56 541.58 1373.21Z" />
			<path id="_Path_8" fill-rule="evenodd" class="shp3" d="M543.68 1383.34C539.37 1384.04 535.05 1384.67 530.72 1385.22C526.38 1385.77 522.04 1386.24 517.69 1386.63C513.34 1387.03 508.99 1387.35 504.63 1387.59C500.27 1387.83 495.91 1388 491.54 1388.09C467.46 1388.43 390.84 1379.74 386.68 1377.5C382.53 1375.27 362 1340.5 357.74 1344.37C353.47 1348.24 345.73 1386.22 348.68 1388.87C351.62 1391.53 371.35 1395.66 382.78 1395.7C394.22 1395.74 541.32 1403.48 544.19 1395.93C546.11 1390.89 545.94 1386.69 543.68 1383.34Z" />
			<g id="_Group_3">
				<path id="_Path_9" fill-rule="evenodd" class="shp4" d="M379.63 1371.76L377.36 1371.17C379.48 1362.81 382.01 1348.39 379.76 1345.37C376.19 1340.55 374.37 1321.66 374.3 1320.86L376.63 1320.64C377.13 1325.92 379.01 1340.4 381.65 1343.97C385.29 1348.89 380.22 1369.43 379.63 1371.76Z" />
			</g>
			<g id="_Group_4">
				<path id="_Path_10" fill-rule="evenodd" class="shp4" d="M484.97 1364.57L484.15 1364.22C484 1364.16 469.05 1357.9 454.67 1350.93C440.33 1344 406.39 1328.77 406.05 1328.61L407.01 1326.47C407.35 1326.63 441.32 1341.87 455.69 1348.82C468.12 1354.84 480.97 1360.33 484.25 1361.72C486.98 1358.54 498.69 1345.97 511.45 1349.91L510.76 1352.15C498.05 1348.24 485.65 1363.7 485.52 1363.87L484.97 1364.57Z" />
			</g>
			<g id="_Group_5">
				<path id="_Path_11" fill-rule="evenodd" class="shp4" d="M494.55 1379.08C477.56 1379.08 446.41 1360.86 427 1349.52C419.37 1345.07 413.34 1341.54 411.25 1340.92C410.39 1340.7 409.52 1340.51 408.66 1340.34C407.79 1340.18 406.91 1340.03 406.04 1339.92C405.16 1339.8 404.28 1339.71 403.39 1339.65C402.51 1339.59 401.63 1339.55 400.74 1339.54C396.08 1339.32 391.25 1339.08 385.89 1336.88C379.89 1334.43 377.43 1328.51 374.58 1321.67C374.09 1320.4 373.57 1319.14 373.02 1317.9C372.47 1316.65 371.89 1315.42 371.27 1314.21C370.65 1313 370.01 1311.8 369.33 1310.62C368.65 1309.44 367.94 1308.28 367.2 1307.14L369.15 1305.81C369.91 1306.99 370.64 1308.18 371.34 1309.4C372.04 1310.61 372.71 1311.84 373.34 1313.09C373.98 1314.34 374.58 1315.61 375.15 1316.89C375.72 1318.17 376.25 1319.46 376.75 1320.77C379.51 1327.4 381.69 1332.63 386.78 1334.71C391.77 1336.75 396.39 1336.99 400.86 1337.2C401.79 1337.21 402.72 1337.25 403.65 1337.32C404.58 1337.39 405.51 1337.49 406.43 1337.61C407.35 1337.73 408.27 1337.88 409.19 1338.06C410.1 1338.24 411.01 1338.45 411.91 1338.68C414.28 1339.37 420.11 1342.78 428.19 1347.5C449.44 1359.92 485.01 1380.71 498.99 1376.12C518.79 1369.63 541.49 1372.02 541.72 1372.05L541.46 1374.37C541.24 1374.35 519.03 1372.02 499.72 1378.35C499.3 1378.48 498.88 1378.59 498.45 1378.68C498.03 1378.78 497.6 1378.86 497.17 1378.92C496.73 1378.98 496.3 1379.02 495.86 1379.05C495.43 1379.08 494.99 1379.09 494.55 1379.08L494.55 1379.08Z" />
			</g>
			<g id="_Group_6">
				<path id="_Compound_Path_" fill-rule="evenodd" class="shp4" d="M465.93 1356.38C465.88 1356.38 465.83 1356.38 465.77 1356.38C465.72 1356.38 465.67 1356.37 465.62 1356.37C465.56 1356.37 465.51 1356.36 465.46 1356.36C465.41 1356.35 465.36 1356.35 465.3 1356.34L464.36 1356.23L464.27 1355.28C463.88 1351.08 467.46 1348.19 470.64 1346.47L470.65 1346.29C470.69 1345.85 470.73 1345.41 470.78 1344.97C470.9 1344.05 471.04 1343.14 471.22 1342.23C471.4 1341.33 471.61 1340.43 471.85 1339.53C472.1 1338.64 472.38 1337.76 472.68 1336.89C472.99 1336.02 473.33 1335.16 473.7 1334.31C473.58 1334.32 473.46 1334.32 473.35 1334.33C473.23 1334.33 473.11 1334.33 472.99 1334.33C472.87 1334.33 472.75 1334.33 472.63 1334.33C472.51 1334.33 472.39 1334.33 472.27 1334.32C466.84 1333.96 459.72 1333.9 453.94 1336.38C453.9 1336.92 453.83 1337.45 453.74 1337.97C453.66 1338.5 453.55 1339.02 453.41 1339.54C453.28 1340.06 453.13 1340.57 452.95 1341.08C452.78 1341.58 452.58 1342.08 452.36 1342.57C452.19 1342.94 451.98 1343.29 451.74 1343.62C451.49 1343.95 451.22 1344.26 450.91 1344.53C450.61 1344.81 450.28 1345.05 449.92 1345.26C449.57 1345.47 449.2 1345.64 448.81 1345.78C448.58 1345.84 448.35 1345.88 448.12 1345.9C447.88 1345.91 447.65 1345.9 447.42 1345.87C447.19 1345.83 446.96 1345.77 446.74 1345.68C446.52 1345.6 446.32 1345.49 446.12 1345.36C445.93 1345.23 445.76 1345.09 445.61 1344.92C445.45 1344.76 445.31 1344.58 445.2 1344.39C445.08 1344.19 444.99 1343.99 444.92 1343.77C444.85 1343.56 444.8 1343.34 444.78 1343.11C444.77 1342.7 444.8 1342.29 444.87 1341.88C444.95 1341.48 445.06 1341.08 445.21 1340.7C445.37 1340.32 445.56 1339.95 445.78 1339.61C446.01 1339.26 446.27 1338.94 446.56 1338.65C446.93 1338.26 447.32 1337.88 447.73 1337.52C448.13 1337.17 448.55 1336.83 448.98 1336.51C449.42 1336.18 449.87 1335.88 450.33 1335.6C450.79 1335.32 451.26 1335.06 451.74 1334.82C451.77 1334.51 451.8 1334.18 451.83 1333.86C451.86 1333.44 451.89 1333.01 451.93 1332.58C451.98 1332.16 452.02 1331.73 452.08 1331.3C452.14 1330.88 452.2 1330.46 452.27 1330.03C452.34 1329.61 452.41 1329.19 452.49 1328.77C452.6 1328.28 452.72 1327.79 452.85 1327.3C452.99 1326.82 453.13 1326.34 453.28 1325.86C453.43 1325.38 453.59 1324.91 453.76 1324.43C453.93 1323.96 454.11 1323.49 454.3 1323.03C453.34 1323.24 452.37 1323.42 451.39 1323.58C450.41 1323.74 449.43 1323.88 448.45 1323.99C447.47 1324.11 446.49 1324.19 445.5 1324.26C444.51 1324.32 443.52 1324.36 442.53 1324.38C441.96 1324.38 441.38 1324.39 440.81 1324.42C440.23 1324.45 439.66 1324.49 439.09 1324.54C438.52 1324.6 437.94 1324.66 437.37 1324.75C436.81 1324.83 436.24 1324.92 435.67 1325.03C435.62 1325.25 435.58 1325.47 435.53 1325.68C435.18 1327.2 434.83 1328.76 434.38 1330.28C433.81 1332.18 432.78 1334.87 430.41 1336.24C430.05 1336.44 429.66 1336.6 429.26 1336.71C428.86 1336.83 428.45 1336.9 428.03 1336.92C427.62 1336.94 427.2 1336.92 426.79 1336.85C426.38 1336.78 425.97 1336.67 425.59 1336.51C425.31 1336.4 425.04 1336.26 424.79 1336.09C424.54 1335.92 424.31 1335.72 424.1 1335.49C423.9 1335.27 423.72 1335.02 423.58 1334.75C423.44 1334.49 423.32 1334.2 423.24 1333.91C423.19 1333.63 423.15 1333.34 423.14 1333.04C423.14 1332.75 423.15 1332.46 423.2 1332.17C423.24 1331.88 423.31 1331.6 423.4 1331.32C423.49 1331.04 423.6 1330.77 423.74 1330.52C425.67 1326.34 429.71 1324.19 433.71 1323.11C433.8 1322.71 433.9 1322.32 434 1321.93C434.11 1321.54 434.22 1321.15 434.33 1320.76C434.45 1320.37 434.57 1319.99 434.7 1319.6C434.83 1319.22 434.96 1318.84 435.1 1318.46C435.23 1318.15 435.36 1317.84 435.49 1317.54C435.63 1317.23 435.77 1316.93 435.91 1316.63C436.06 1316.33 436.21 1316.04 436.37 1315.75C436.53 1315.45 436.69 1315.16 436.86 1314.88C434.56 1315.28 432.31 1315.95 430.16 1316.86C428.01 1317.76 425.96 1318.91 424.06 1320.27C422.17 1321.64 420.43 1323.21 418.88 1324.96C417.34 1326.71 415.99 1328.63 414.88 1330.68L412.8 1329.6C414.08 1327.24 415.65 1325.03 417.47 1323.04C419.28 1321.05 421.33 1319.28 423.56 1317.78C425.8 1316.28 428.21 1315.05 430.74 1314.12C433.26 1313.19 435.9 1312.56 438.58 1312.26C440.39 1309.78 442.62 1307.58 444.84 1306.83L445.6 1306.57L446.11 1307.18C447.49 1308.8 447.36 1310.13 447.02 1310.96C445.79 1313.91 440.18 1314.47 439.87 1314.5C439.61 1314.88 439.37 1315.26 439.13 1315.65C438.89 1316.04 438.67 1316.43 438.45 1316.83C438.24 1317.23 438.03 1317.64 437.84 1318.05C437.65 1318.46 437.46 1318.88 437.29 1319.3C437.19 1319.57 437.1 1319.83 437 1320.1C436.91 1320.37 436.82 1320.64 436.74 1320.91C436.65 1321.18 436.57 1321.45 436.49 1321.72C436.42 1321.99 436.34 1322.27 436.27 1322.54C436.79 1322.46 437.31 1322.38 437.83 1322.32C438.35 1322.25 438.88 1322.2 439.4 1322.16C439.92 1322.11 440.45 1322.08 440.97 1322.06C441.5 1322.04 442.02 1322.03 442.55 1322.04C443.65 1322.02 444.75 1321.98 445.84 1321.9C446.94 1321.82 448.03 1321.71 449.12 1321.56C450.21 1321.41 451.3 1321.23 452.38 1321.02C453.46 1320.8 454.53 1320.56 455.59 1320.28C457.36 1317 459.8 1314.32 462.84 1314.84L463.46 1314.95L463.71 1315.51C463.83 1315.76 463.91 1316.03 463.96 1316.3C464.01 1316.57 464.02 1316.85 464 1317.13C463.98 1317.4 463.92 1317.67 463.83 1317.94C463.73 1318.2 463.6 1318.44 463.45 1318.67C462.43 1320.22 460.07 1321.39 457.25 1322.26C456.98 1322.82 456.73 1323.38 456.49 1323.95C456.25 1324.52 456.03 1325.1 455.82 1325.69C455.61 1326.27 455.42 1326.86 455.25 1327.46C455.08 1328.05 454.92 1328.65 454.78 1329.25C454.71 1329.63 454.65 1330 454.58 1330.37C454.52 1330.75 454.47 1331.12 454.42 1331.5C454.37 1331.87 454.33 1332.25 454.29 1332.62C454.25 1333 454.22 1333.38 454.19 1333.76C460.17 1331.56 467.07 1331.62 472.43 1331.98C472.64 1331.99 472.84 1331.99 473.05 1331.99C473.26 1331.99 473.47 1331.99 473.68 1331.98C473.89 1331.97 474.1 1331.96 474.3 1331.94C474.51 1331.92 474.72 1331.9 474.93 1331.87C476.66 1328.83 478.91 1326.35 481.7 1325.45L482.47 1325.2L482.98 1325.83C484.53 1327.77 484.26 1329.31 483.76 1330.26C482.62 1332.44 479.31 1333.52 476.46 1334C476.03 1334.88 475.63 1335.78 475.27 1336.69C474.92 1337.6 474.6 1338.53 474.32 1339.47C474.04 1340.41 473.8 1341.36 473.6 1342.32C473.4 1343.28 473.23 1344.25 473.11 1345.22C473.28 1345.17 473.44 1345.12 473.61 1345.06C473.77 1345.01 473.93 1344.95 474.09 1344.89C474.25 1344.82 474.41 1344.76 474.57 1344.69C474.73 1344.61 474.88 1344.54 475.04 1344.46C481.69 1341.59 489.96 1338.01 496.95 1337.39L497.16 1339.73C490.54 1340.31 482.46 1343.8 475.97 1346.61L473.68 1347.61C473.43 1347.71 473.15 1347.84 472.84 1347.99C472.81 1348.34 472.76 1348.69 472.7 1349.05C472.64 1349.4 472.57 1349.75 472.49 1350.09C472.4 1350.44 472.3 1350.78 472.19 1351.12C472.08 1351.46 471.96 1351.79 471.82 1352.12C470.87 1354.25 468.66 1356.38 465.93 1356.38ZM466.66 1353.94C467 1353.83 467.32 1353.68 467.62 1353.5C467.93 1353.32 468.21 1353.11 468.47 1352.87C468.73 1352.63 468.97 1352.37 469.17 1352.08C469.37 1351.79 469.54 1351.48 469.68 1351.16C469.74 1351.02 469.8 1350.88 469.85 1350.74C469.9 1350.61 469.95 1350.47 470 1350.32C470.04 1350.18 470.09 1350.04 470.12 1349.9C470.16 1349.75 470.2 1349.61 470.23 1349.46C468.57 1350.58 467.01 1352.1 466.66 1353.94ZM451.4 1337.71C451.11 1337.88 450.83 1338.07 450.56 1338.27C450.28 1338.46 450.02 1338.67 449.76 1338.88C449.49 1339.1 449.24 1339.32 448.99 1339.54C448.75 1339.77 448.51 1340.01 448.27 1340.25C448.1 1340.42 447.94 1340.61 447.81 1340.81C447.67 1341.01 447.55 1341.22 447.45 1341.44C447.35 1341.66 447.27 1341.89 447.22 1342.13C447.16 1342.37 447.13 1342.61 447.12 1342.85C447.12 1342.91 447.13 1342.96 447.14 1343.02C447.16 1343.07 447.18 1343.12 447.21 1343.17C447.24 1343.22 447.27 1343.27 447.31 1343.31C447.35 1343.35 447.39 1343.38 447.44 1343.41C447.5 1343.45 447.55 1343.48 447.62 1343.5C447.68 1343.53 447.74 1343.54 447.81 1343.55C447.87 1343.56 447.94 1343.56 448 1343.55C448.07 1343.55 448.13 1343.53 448.2 1343.51C448.42 1343.42 448.64 1343.31 448.84 1343.18C449.04 1343.05 449.24 1342.9 449.41 1342.73C449.59 1342.56 449.75 1342.38 449.89 1342.18C450.03 1341.99 450.15 1341.78 450.25 1341.56C450.39 1341.25 450.52 1340.94 450.64 1340.63C450.76 1340.31 450.87 1339.99 450.96 1339.67C451.06 1339.35 451.14 1339.02 451.21 1338.7C451.29 1338.37 451.35 1338.04 451.4 1337.71L451.4 1337.71ZM425.88 1331.5C425.8 1331.64 425.73 1331.78 425.67 1331.93C425.62 1332.08 425.58 1332.24 425.55 1332.39C425.52 1332.55 425.5 1332.71 425.5 1332.87C425.49 1333.03 425.5 1333.19 425.52 1333.35C425.56 1333.46 425.61 1333.57 425.68 1333.68C425.74 1333.78 425.81 1333.88 425.9 1333.96C425.98 1334.05 426.08 1334.13 426.18 1334.19C426.28 1334.26 426.39 1334.31 426.51 1334.35C426.73 1334.44 426.95 1334.5 427.18 1334.54C427.42 1334.58 427.65 1334.59 427.89 1334.58C428.12 1334.57 428.36 1334.53 428.58 1334.47C428.81 1334.41 429.03 1334.32 429.24 1334.21C430.87 1333.26 431.64 1331.26 432.13 1329.61C432.51 1328.34 432.82 1327.02 433.12 1325.72C430.09 1326.73 427.27 1328.48 425.88 1331.5ZM480.61 1328.65C480.29 1328.88 479.98 1329.14 479.68 1329.41C479.39 1329.68 479.11 1329.97 478.85 1330.27C478.59 1330.58 478.35 1330.9 478.13 1331.23C479.79 1330.75 481.23 1330.05 481.68 1329.19C481.73 1329.09 481.76 1329 481.79 1328.9C481.81 1328.79 481.82 1328.69 481.81 1328.59C481.81 1328.49 481.79 1328.38 481.76 1328.29C481.72 1328.19 481.68 1328.09 481.62 1328.01C481.27 1328.2 480.93 1328.42 480.61 1328.65ZM460.91 1317.5C460.69 1317.63 460.48 1317.76 460.29 1317.92C460.09 1318.07 459.9 1318.24 459.73 1318.42C459.55 1318.6 459.39 1318.8 459.25 1319C459.47 1318.92 459.68 1318.82 459.88 1318.71C460.09 1318.6 460.29 1318.48 460.47 1318.34C460.66 1318.2 460.84 1318.06 461.01 1317.9C461.18 1317.74 461.34 1317.57 461.49 1317.39C461.5 1317.37 461.51 1317.36 461.52 1317.34C461.53 1317.32 461.54 1317.31 461.55 1317.29C461.56 1317.28 461.57 1317.26 461.57 1317.24C461.58 1317.23 461.59 1317.21 461.6 1317.19C461.36 1317.28 461.13 1317.38 460.91 1317.5ZM444.05 1309.9C443.8 1310.07 443.56 1310.25 443.33 1310.44C443.1 1310.63 442.88 1310.84 442.67 1311.04C442.45 1311.25 442.25 1311.47 442.05 1311.7C443.36 1311.31 444.58 1310.72 444.85 1310.06C444.87 1310.01 444.89 1309.96 444.89 1309.9C444.9 1309.84 444.9 1309.79 444.9 1309.73C444.89 1309.68 444.88 1309.62 444.86 1309.57C444.85 1309.51 444.83 1309.46 444.8 1309.41C444.54 1309.56 444.29 1309.73 444.05 1309.9Z" />
			</g>
		</g>
		<g id="_Group_7">
			<path id="_Path_12" fill-rule="evenodd" class="shp1" d="M200.48 1311.58C201.66 1312.04 202.33 1313.57 203.2 1315.84C203.52 1316.73 203.82 1317.62 204.11 1318.51C204.4 1319.4 204.68 1320.3 204.94 1321.2C205.21 1322.1 205.46 1323.01 205.69 1323.92C205.93 1324.83 206.15 1325.74 206.36 1326.66C208.17 1333.69 209.24 1341.3 212.19 1348.01C215.45 1355.41 225.68 1390.29 221.65 1395.33C217.63 1400.37 204.04 1415.75 168.71 1415.75C133.38 1415.75 118.7 1404.37 115.98 1395.25C115.94 1395.12 115.91 1394.98 115.88 1394.84C115.85 1394.7 115.83 1394.56 115.81 1394.42C115.78 1394.28 115.77 1394.14 115.75 1394C115.74 1393.86 115.73 1393.72 115.72 1393.58C114.29 1378.13 121.01 1359.87 125.01 1345.14C125.53 1343.08 126.08 1341.04 126.66 1339C127.24 1336.97 127.84 1334.94 128.48 1332.92C129.11 1330.9 129.77 1328.89 130.46 1326.89C131.15 1324.88 131.86 1322.89 132.6 1320.91C134.69 1315.59 137.33 1310.98 143.74 1309.82C143.96 1309.8 144.18 1309.77 144.4 1309.73C144.63 1309.69 144.85 1309.64 145.07 1309.59C145.29 1309.54 145.5 1309.48 145.72 1309.42C145.93 1309.35 146.15 1309.28 146.36 1309.2C148.11 1308.38 148.9 1306.43 150.22 1305.05C152.83 1302.32 157.15 1302.11 160.99 1302.14C170 1302.21 178.88 1303.74 187.66 1305.61C194.43 1307.06 192.99 1308.33 196.21 1312.68C197.23 1312.01 199.2 1311.09 200.48 1311.58Z" />
			<path id="_Path_13" fill-rule="evenodd" class="shp3" d="M221.68 1382.31C215.06 1391.05 201.82 1396.24 181.95 1397.86C152.14 1400.3 123.88 1393.58 116.69 1382.31C113.58 1394.05 112.31 1400.52 112.87 1401.73C113.72 1403.55 136.52 1417.78 164.81 1419.01C193.1 1420.23 225.79 1402.81 225.1 1397.45C224.9 1396.17 224.68 1394.9 224.44 1393.63C224.2 1392.35 223.93 1391.09 223.65 1389.82C223.36 1388.56 223.05 1387.3 222.73 1386.05C222.4 1384.8 222.05 1383.55 221.68 1382.31L221.68 1382.31Z" />
			<g id="_Group_8">
				<path id="_Path_14" fill-rule="evenodd" class="shp4" d="M191.13 1356.13C191.07 1356.13 191.02 1356.12 190.97 1356.12C190.91 1356.11 190.86 1356.1 190.8 1356.09C190.75 1356.08 190.7 1356.06 190.65 1356.05C190.6 1356.03 190.55 1356.01 190.5 1355.99C190.05 1355.79 189.6 1355.53 189.08 1355.26C186.31 1353.77 181.65 1351.29 168.89 1350.65C167.3 1350.58 165.72 1350.59 164.14 1350.68C162.56 1350.77 160.98 1350.94 159.42 1351.18C157.86 1351.42 156.31 1351.75 154.77 1352.14C153.24 1352.54 151.73 1353.01 150.24 1353.56C147.61 1354.42 146.02 1354.95 144.86 1354.34C144.73 1354.27 144.62 1354.19 144.51 1354.1C144.4 1354.01 144.3 1353.91 144.22 1353.81C144.13 1353.7 144.05 1353.58 143.99 1353.45C143.93 1353.33 143.88 1353.2 143.84 1353.06C142.96 1350.12 141.06 1313.17 145.49 1308.4L147.21 1310C143.92 1313.54 145.11 1348.3 146.06 1352.27C146.35 1352.21 146.64 1352.15 146.94 1352.09C147.23 1352.02 147.52 1351.95 147.8 1351.87C148.09 1351.79 148.38 1351.71 148.66 1351.62C148.95 1351.52 149.23 1351.43 149.51 1351.32C151.07 1350.76 152.65 1350.27 154.25 1349.86C155.85 1349.45 157.47 1349.11 159.11 1348.86C160.74 1348.61 162.39 1348.44 164.04 1348.34C165.7 1348.25 167.35 1348.24 169 1348.31C182.3 1348.98 187.24 1351.61 190.19 1353.2C190.42 1353.32 190.63 1353.43 190.84 1353.53C192.33 1349.94 194.11 1330.49 195.04 1312.62L197.39 1312.74C196.59 1328.12 194.81 1354.16 191.91 1355.9C191.85 1355.94 191.79 1355.97 191.73 1356C191.67 1356.03 191.6 1356.05 191.54 1356.07C191.47 1356.09 191.4 1356.1 191.33 1356.11C191.27 1356.12 191.2 1356.13 191.13 1356.13L191.13 1356.13Z" />
			</g>
			<g id="_Group_9">
				<path id="_Path_15" fill-rule="evenodd" class="shp4" d="M139.16 1380.2C138.82 1380.21 138.47 1380.19 138.12 1380.13C137.78 1380.08 137.44 1379.99 137.11 1379.87C136.79 1379.75 136.47 1379.6 136.17 1379.42C135.87 1379.24 135.59 1379.04 135.33 1378.81C130.64 1374.77 123.69 1357.44 122.19 1351.33L124.47 1350.78C126.02 1357.11 132.89 1373.6 136.86 1377.03C138.33 1378.29 139.91 1377.99 144.24 1376.91C146.26 1376.39 148.29 1375.93 150.33 1375.55C152.37 1375.16 154.43 1374.84 156.49 1374.59C158.56 1374.34 160.63 1374.16 162.71 1374.05C164.78 1373.94 166.86 1373.9 168.94 1373.92C182.37 1373.92 188.9 1375.22 193.21 1376.08C196.4 1376.72 198 1377.04 200.24 1376.41C202.83 1375.68 204.55 1361.27 205.47 1353.53C206.86 1341.96 207.32 1338.58 209.61 1338.86L209.36 1341.2C209.42 1341.21 209.47 1341.21 209.53 1341.21C209.59 1341.2 209.64 1341.19 209.69 1341.17C209.75 1341.16 209.8 1341.13 209.85 1341.11C209.89 1341.08 209.94 1341.04 209.98 1341C209.22 1341.94 208.43 1348.52 207.8 1353.81C206.09 1368.13 204.69 1377.59 200.87 1378.66C198.1 1379.45 196.09 1379.04 192.75 1378.38C188.52 1377.54 182.15 1376.27 168.94 1376.27C166.91 1376.24 164.88 1376.28 162.85 1376.39C160.82 1376.5 158.79 1376.68 156.78 1376.92C154.76 1377.17 152.75 1377.48 150.75 1377.86C148.76 1378.24 146.77 1378.68 144.81 1379.2C144.35 1379.33 143.89 1379.45 143.42 1379.56C142.95 1379.67 142.48 1379.77 142.01 1379.85C141.54 1379.94 141.07 1380.01 140.59 1380.07C140.12 1380.12 139.64 1380.17 139.16 1380.2L139.16 1380.2Z" />
			</g>
			<g id="_Group_10">
				<path id="_Compound_Path_2" fill-rule="evenodd" class="shp4" d="M143.99 1346.37C146.29 1345.16 148.65 1344.06 151.05 1343.07C153.45 1342.07 155.89 1341.18 158.37 1340.4C160.85 1339.62 163.36 1338.96 165.9 1338.4C168.44 1337.85 171 1337.41 173.58 1337.08C172.27 1336.73 170.96 1336.42 169.63 1336.15C168.31 1335.87 166.98 1335.64 165.64 1335.44C164.3 1335.25 162.96 1335.09 161.61 1334.97C160.27 1334.86 158.92 1334.78 157.56 1334.74C152.57 1336.9 147.4 1339.04 142.1 1337.55L140.47 1337.1L141.46 1335.73C143.06 1333.54 145.88 1332.98 148.43 1332.73C149.15 1332.65 149.88 1332.59 150.6 1332.54C151.32 1332.49 152.04 1332.45 152.77 1332.42C153.49 1332.4 154.21 1332.38 154.94 1332.37C155.66 1332.37 156.38 1332.37 157.11 1332.39C157.82 1332.07 158.53 1331.77 159.23 1331.48C160.69 1330.88 162.18 1330.32 163.69 1329.83C165.19 1329.33 166.72 1328.89 168.26 1328.5C169.79 1328.12 171.35 1327.79 172.91 1327.51C174.47 1327.24 176.04 1327.02 177.62 1326.86C169.22 1325.32 160.39 1325.65 152.15 1326.14C152.03 1326.2 151.91 1326.27 151.79 1326.33L151.14 1326.68C148.76 1327.95 146.38 1329.18 143.45 1329.23L141.96 1329.21L142.32 1327.77C142.9 1325.49 145.21 1324.22 149.21 1323.96C149.96 1323.92 150.73 1323.87 151.51 1323.83C152.68 1323.24 153.87 1322.7 155.08 1322.19C156.29 1321.68 157.51 1321.21 158.74 1320.78C159.98 1320.35 161.23 1319.96 162.48 1319.6C163.74 1319.25 165.02 1318.94 166.29 1318.66C165.44 1318.78 164.37 1318.92 163.22 1319.09C147.93 1321.23 146.93 1321.01 146.26 1320.03C145 1318.19 145.82 1315.82 147.23 1314.52C147.56 1314.25 147.91 1314 148.27 1313.78C148.64 1313.56 149.02 1313.35 149.4 1313.18C149.79 1313 150.19 1312.85 150.6 1312.72C151.01 1312.59 151.42 1312.49 151.84 1312.41C155.5 1311.49 159.22 1310.85 162.97 1310.47C166.72 1310.09 170.5 1309.99 174.26 1310.16C178.03 1310.33 181.78 1310.77 185.48 1311.48C189.18 1312.19 192.83 1313.17 196.39 1314.41L195.61 1316.63C192.16 1315.43 188.62 1314.48 185.03 1313.79C181.44 1313.09 177.81 1312.67 174.16 1312.5C170.5 1312.34 166.85 1312.44 163.21 1312.8C159.57 1313.17 155.96 1313.8 152.42 1314.68C152.09 1314.74 151.77 1314.82 151.45 1314.91C151.14 1315 150.83 1315.12 150.52 1315.25C150.22 1315.38 149.93 1315.53 149.64 1315.7C149.36 1315.87 149.08 1316.05 148.82 1316.25C148.67 1316.38 148.53 1316.53 148.42 1316.69C148.3 1316.86 148.21 1317.03 148.15 1317.22C148.08 1317.41 148.04 1317.61 148.02 1317.8C148 1318 148.01 1318.2 148.05 1318.4C150.11 1318.55 158.66 1317.36 162.89 1316.77C165.38 1316.41 167.18 1316.16 167.83 1316.12C168.75 1316.05 169.67 1316.01 170.59 1315.99C171.5 1315.97 172.42 1315.98 173.34 1316.01C174.26 1316.05 175.18 1316.11 176.09 1316.2C177.01 1316.29 177.92 1316.4 178.83 1316.54C180.12 1316.37 181.42 1316.2 182.72 1316.03C183.34 1315.92 183.96 1315.84 184.58 1315.77C185.21 1315.7 185.84 1315.66 186.46 1315.63C187.09 1315.6 187.72 1315.59 188.35 1315.6C188.97 1315.61 189.6 1315.64 190.23 1315.69C190.9 1315.73 191.56 1315.84 192.21 1316.01C192.86 1316.18 193.49 1316.41 194.1 1316.7C194.71 1316.98 195.29 1317.32 195.83 1317.71C196.38 1318.1 196.89 1318.54 197.36 1319.02L198.31 1320.1L197.07 1320.81C194.27 1322.45 190.57 1322.42 185.74 1320.74C185.18 1320.54 184.61 1320.36 184.04 1320.18C183.47 1320 182.89 1319.84 182.31 1319.68C181.74 1319.53 181.15 1319.39 180.57 1319.26C179.99 1319.13 179.4 1319.01 178.81 1318.9C171.65 1319.88 164.75 1321.03 158.11 1323.5C167.06 1323.18 176.78 1323.5 185.62 1326.53C186.59 1326.55 187.56 1326.59 188.53 1326.65C189.5 1326.71 190.47 1326.79 191.44 1326.89C192.41 1327 193.37 1327.12 194.34 1327.27C195.3 1327.42 196.26 1327.58 197.21 1327.77L198.65 1328.07L198.06 1329.41C197.21 1331.31 194.94 1331.99 193.19 1331.82C192.84 1331.77 192.49 1331.7 192.14 1331.62C191.8 1331.54 191.46 1331.44 191.12 1331.33C190.78 1331.22 190.45 1331.09 190.12 1330.95C189.79 1330.81 189.47 1330.66 189.16 1330.49L188.72 1330.28C187.57 1329.76 186.41 1329.28 185.22 1328.86C183.3 1328.84 181.37 1328.9 179.44 1329.05C177.52 1329.19 175.61 1329.43 173.71 1329.75C171.8 1330.07 169.92 1330.48 168.05 1330.97C166.19 1331.47 164.35 1332.05 162.54 1332.71C164 1332.85 165.45 1333.03 166.9 1333.26C168.35 1333.49 169.79 1333.77 171.22 1334.09C172.65 1334.41 174.07 1334.77 175.48 1335.18C176.89 1335.58 178.29 1336.04 179.67 1336.53C181.01 1336.45 182.34 1336.4 183.69 1336.39C187.13 1336.35 190.99 1336.65 193.72 1339.03C194.82 1339.99 195.13 1341.27 194.5 1342.22C194.34 1342.41 194.17 1342.58 193.97 1342.72C193.77 1342.86 193.55 1342.98 193.31 1343.05C193.08 1343.13 192.84 1343.18 192.6 1343.19C192.35 1343.2 192.11 1343.17 191.87 1343.11C191.11 1342.99 190.35 1342.84 189.6 1342.66C188.85 1342.48 188.11 1342.28 187.37 1342.05C186.64 1341.82 185.91 1341.57 185.19 1341.29C184.47 1341.01 183.76 1340.71 183.07 1340.38C182.44 1340.12 181.81 1339.85 181.18 1339.6C180.57 1339.36 179.95 1339.13 179.33 1338.89C176.35 1339.08 173.38 1339.42 170.44 1339.91C167.5 1340.41 164.58 1341.06 161.7 1341.86C158.83 1342.67 156 1343.62 153.22 1344.72C150.45 1345.82 147.73 1347.07 145.09 1348.45L143.99 1346.37ZM185.27 1338.76C185.82 1339 186.37 1339.23 186.93 1339.43C187.5 1339.64 188.06 1339.83 188.64 1340C189.21 1340.17 189.79 1340.32 190.38 1340.45C190.96 1340.58 191.55 1340.7 192.14 1340.79C190.4 1339.25 187.81 1338.83 185.27 1338.76ZM145.45 1335.68C145.89 1335.68 146.33 1335.67 146.77 1335.64C147.2 1335.61 147.64 1335.56 148.07 1335.49C148.5 1335.43 148.93 1335.34 149.35 1335.24C149.78 1335.14 150.2 1335.03 150.62 1334.89C149.97 1334.93 149.32 1334.99 148.67 1335.06C148.4 1335.08 148.13 1335.11 147.86 1335.14C147.58 1335.18 147.31 1335.22 147.04 1335.28C146.78 1335.33 146.51 1335.39 146.24 1335.46C145.98 1335.52 145.72 1335.6 145.45 1335.68ZM185.21 1318.1C185.64 1318.23 186.08 1318.38 186.52 1318.53C189.71 1319.63 192.27 1319.95 194.27 1319.44C193.94 1319.24 193.6 1319.06 193.26 1318.9C192.91 1318.74 192.56 1318.6 192.2 1318.48C191.84 1318.36 191.47 1318.26 191.1 1318.18C190.72 1318.1 190.35 1318.05 189.97 1318.01C189.57 1317.97 189.18 1317.95 188.78 1317.94C188.38 1317.92 187.98 1317.92 187.59 1317.93C187.19 1317.93 186.79 1317.95 186.4 1317.98C186 1318.01 185.61 1318.05 185.21 1318.1L185.21 1318.1Z" />
			</g>
		</g>
		<g id="_Group_11">
			<path id="_Path_16" fill-rule="evenodd" class="shp5" d="M182.95 1098.6C140.27 1098.6 104.36 1084.69 103.87 1084.5C103.58 1084.38 103.34 1084.16 103.22 1083.87C103.09 1083.59 103.09 1083.26 103.2 1082.97C103.32 1082.68 103.54 1082.45 103.83 1082.33C104.11 1082.2 104.44 1082.2 104.73 1082.31C105.41 1082.58 173.18 1108.82 232.79 1088.65C233.08 1088.55 233.4 1088.58 233.68 1088.71C233.96 1088.85 234.17 1089.09 234.27 1089.38C234.37 1089.68 234.35 1090 234.21 1090.28C234.07 1090.55 233.83 1090.77 233.54 1090.86C216.76 1096.55 199.36 1098.6 182.95 1098.6Z" />
		</g>
		<g id="_Group_12">
			<path id="_Path_17" fill-rule="evenodd" class="shp5" d="M313.35 1092.03C296.63 1092.03 284.37 1091.03 283.07 1090.93C282.92 1090.91 282.77 1090.87 282.64 1090.8C282.5 1090.73 282.38 1090.63 282.28 1090.52C282.18 1090.4 282.1 1090.26 282.06 1090.12C282.01 1089.97 281.99 1089.82 282 1089.66C282.02 1089.51 282.07 1089.36 282.14 1089.23C282.21 1089.09 282.31 1088.97 282.42 1088.88C282.54 1088.78 282.67 1088.7 282.82 1088.65C282.96 1088.6 283.12 1088.58 283.27 1088.59C284.1 1088.66 367.36 1095.39 402.56 1073.1C402.82 1072.93 403.14 1072.88 403.44 1072.95C403.74 1073.01 404.01 1073.2 404.17 1073.46C404.34 1073.72 404.4 1074.04 404.33 1074.34C404.26 1074.64 404.08 1074.91 403.81 1075.07C381.41 1089.27 341.2 1092.03 313.35 1092.03Z" />
		</g>
		<g id="_Group_13">
			<path id="_Path_18" fill-rule="evenodd" class="shp5" d="M267.28 776.76C267.12 776.75 266.96 776.72 266.82 776.66C266.67 776.59 266.54 776.5 266.43 776.38C266.32 776.27 266.23 776.13 266.18 775.98C266.12 775.83 266.1 775.67 266.11 775.51C266.22 773.73 269.01 731.73 280.64 721.93C281.06 721.55 281.52 721.21 282.01 720.92C282.5 720.63 283.02 720.39 283.56 720.21C284.1 720.03 284.65 719.91 285.22 719.84C285.78 719.78 286.35 719.78 286.92 719.83C287.62 719.89 288.33 719.88 289.04 719.79C289.74 719.71 290.43 719.54 291.1 719.31C291.77 719.07 292.41 718.76 293.01 718.39C293.62 718.02 294.18 717.58 294.69 717.08C314.07 700.19 316.75 616.13 316.78 615.28C316.79 615.13 316.84 614.98 316.9 614.85C316.97 614.71 317.06 614.59 317.17 614.49C317.28 614.38 317.41 614.3 317.55 614.24C317.69 614.18 317.84 614.15 317.99 614.14C318.14 614.14 318.29 614.18 318.43 614.24C318.57 614.31 318.7 614.4 318.81 614.51C318.91 614.62 318.99 614.75 319.05 614.9C319.1 615.04 319.13 615.19 319.13 615.35C319.02 618.85 316.38 701.29 296.23 718.85C295.6 719.45 294.9 719.98 294.16 720.43C293.42 720.89 292.63 721.26 291.81 721.54C290.98 721.83 290.13 722.02 289.27 722.13C288.4 722.23 287.53 722.24 286.66 722.16C286.26 722.12 285.85 722.13 285.44 722.18C285.03 722.23 284.63 722.32 284.24 722.46C283.86 722.59 283.48 722.77 283.13 722.98C282.78 723.19 282.46 723.44 282.16 723.72C271.28 732.88 268.48 775.23 268.45 775.66C268.44 775.8 268.4 775.95 268.34 776.08C268.28 776.22 268.19 776.34 268.08 776.44C267.97 776.54 267.85 776.62 267.71 776.67C267.57 776.73 267.43 776.76 267.28 776.76Z" />
		</g>
		<g id="_Group_14">
			<path id="_Path_19" fill-rule="evenodd" class="shp5" d="M277.34 722.02C277.3 722.02 277.27 722.02 277.24 722.02C277.21 722.01 277.17 722.01 277.14 722C277.11 722 277.08 721.99 277.04 721.98C277.01 721.98 276.98 721.97 276.95 721.95C276.8 721.9 276.67 721.82 276.55 721.72C276.44 721.62 276.35 721.49 276.28 721.36C276.21 721.22 276.17 721.07 276.17 720.91C276.16 720.76 276.18 720.61 276.23 720.46C276.39 719.99 292.76 672.78 296.09 615.25C296.11 614.94 296.25 614.65 296.48 614.44C296.71 614.24 297.02 614.13 297.33 614.15C297.64 614.17 297.93 614.31 298.13 614.54C298.34 614.77 298.44 615.07 298.43 615.38C295.08 673.26 278.61 720.76 278.44 721.24C278.4 721.35 278.35 721.46 278.27 721.55C278.2 721.65 278.11 721.73 278.02 721.8C277.92 721.87 277.81 721.93 277.69 721.97C277.58 722 277.46 722.02 277.34 722.02L277.34 722.02Z" />
		</g>
		<g id="_Group_15">
			<path id="_Path_20" fill-rule="evenodd" class="shp5" d="M124.77 1090.94C124.62 1090.94 124.47 1090.91 124.33 1090.85C124.19 1090.79 124.06 1090.71 123.96 1090.61C123.85 1090.5 123.76 1090.38 123.7 1090.24C123.64 1090.1 123.6 1089.96 123.6 1089.81C121.7 1045.55 130.54 992.46 137.1 982.58C141.67 975.68 139.13 848.09 137.77 779.54C137.28 755.18 136.9 735.93 136.9 727.33C136.9 692.5 177.95 617.91 179.7 614.75C179.85 614.48 180.1 614.29 180.4 614.2C180.69 614.12 181.01 614.16 181.28 614.31C181.55 614.45 181.75 614.7 181.84 615C181.93 615.29 181.89 615.61 181.75 615.88C181.32 616.65 139.25 693.11 139.25 727.33C139.25 735.91 139.63 755.14 140.12 779.5C142.1 879.11 143.65 976.95 139.05 983.87C132.66 993.51 124.06 1045.86 125.94 1089.71C125.95 1089.86 125.92 1090.02 125.87 1090.16C125.82 1090.31 125.74 1090.44 125.63 1090.55C125.53 1090.67 125.4 1090.76 125.26 1090.82C125.12 1090.89 124.97 1090.93 124.82 1090.94L124.77 1090.94L124.77 1090.94Z" />
		</g>
		<g id="_Group_16">
			<path id="_Path_21" fill-rule="evenodd" class="shp5" d="M257.15 731.7C257.1 731.7 257.05 731.7 256.99 731.69C256.94 731.68 256.89 731.67 256.84 731.66C256.79 731.64 256.74 731.63 256.69 731.61C256.64 731.59 256.59 731.56 256.55 731.53C254.72 730.43 252.84 729.42 250.92 728.48C249 727.55 247.05 726.7 245.05 725.94C243.06 725.18 241.03 724.5 238.98 723.92C236.93 723.34 234.85 722.85 232.75 722.45C232.45 722.39 232.18 722.21 232 721.95C231.83 721.69 231.76 721.38 231.82 721.07C231.88 720.77 232.06 720.5 232.31 720.32C232.57 720.15 232.89 720.08 233.19 720.14C235.36 720.55 237.5 721.06 239.62 721.66C241.74 722.27 243.83 722.96 245.89 723.75C247.95 724.53 249.97 725.41 251.95 726.37C253.93 727.34 255.87 728.39 257.76 729.52C257.98 729.66 258.15 729.86 258.24 730.1C258.34 730.33 258.35 730.6 258.28 730.84C258.21 731.09 258.07 731.31 257.86 731.46C257.66 731.62 257.41 731.7 257.15 731.7L257.15 731.7Z" />
		</g>
		<g id="_Group_17">
			<path id="_Path_22" fill-rule="evenodd" class="shp5" d="M290.13 757.37C289.89 757.37 289.65 757.3 289.45 757.16C289.25 757.02 289.1 756.82 289.02 756.59C288.94 756.36 288.93 756.12 289 755.88C289.06 755.65 289.2 755.44 289.39 755.29C291.5 753.58 293.68 751.96 295.92 750.43C298.16 748.9 300.46 747.46 302.83 746.12C305.19 744.78 307.6 743.54 310.06 742.4C312.52 741.26 315.03 740.22 317.58 739.28C317.87 739.17 318.2 739.18 318.48 739.32C318.76 739.45 318.98 739.68 319.09 739.97C319.2 740.27 319.18 740.59 319.05 740.87C318.92 741.15 318.68 741.37 318.39 741.48C315.9 742.39 313.46 743.41 311.05 744.52C308.65 745.64 306.29 746.85 303.98 748.16C301.68 749.47 299.43 750.87 297.24 752.37C295.05 753.86 292.93 755.44 290.87 757.11C290.81 757.15 290.76 757.19 290.7 757.22C290.64 757.25 290.58 757.28 290.52 757.3C290.46 757.33 290.39 757.34 290.33 757.36C290.26 757.37 290.2 757.37 290.13 757.37Z" />
		</g>
		<g id="_Group_18">
			<path id="_Path_23" fill-rule="evenodd" class="shp5" d="M282.83 996.73C282.6 996.73 282.37 996.66 282.18 996.53C281.98 996.4 281.83 996.21 281.75 995.99C281.66 995.77 281.64 995.53 281.69 995.31C281.74 995.08 281.86 994.87 282.03 994.71C283.78 993.06 285.49 991.38 287.18 989.67C288.86 987.96 290.52 986.22 292.14 984.45C293.76 982.68 295.36 980.88 296.91 979.06C298.47 977.23 300 975.38 301.49 973.49C301.68 973.25 301.96 973.09 302.27 973.06C302.58 973.02 302.89 973.11 303.14 973.3C303.38 973.5 303.54 973.78 303.58 974.09C303.61 974.4 303.52 974.71 303.33 974.95C301.82 976.86 300.28 978.73 298.7 980.58C297.12 982.43 295.51 984.25 293.87 986.04C292.23 987.82 290.55 989.58 288.85 991.31C287.14 993.04 285.41 994.74 283.64 996.41C283.59 996.46 283.53 996.51 283.47 996.55C283.4 996.59 283.34 996.62 283.27 996.65C283.2 996.67 283.13 996.7 283.06 996.71C282.98 996.72 282.91 996.73 282.83 996.73Z" />
		</g>
		<g id="_Group_19">
			<path id="_Path_24" fill-rule="evenodd" class="shp5" d="M216.34 1046.49C216.22 1046.49 216.1 1046.47 215.98 1046.43C215.87 1046.4 215.76 1046.34 215.66 1046.27C215.56 1046.2 215.48 1046.12 215.41 1046.02C215.33 1045.93 215.27 1045.82 215.23 1045.71C212.62 1038.57 209.66 1031.44 206.42 1024.55C206.28 1024.26 206.27 1023.94 206.37 1023.64C206.47 1023.35 206.69 1023.1 206.98 1022.97C207.26 1022.84 207.59 1022.82 207.88 1022.93C208.18 1023.04 208.42 1023.26 208.55 1023.54C211.81 1030.51 214.81 1037.7 217.44 1044.91C217.49 1045.06 217.51 1045.21 217.51 1045.37C217.5 1045.52 217.46 1045.67 217.4 1045.81C217.33 1045.95 217.24 1046.08 217.13 1046.18C217.02 1046.29 216.88 1046.37 216.74 1046.42C216.71 1046.43 216.67 1046.44 216.64 1046.45C216.61 1046.46 216.57 1046.46 216.54 1046.47C216.51 1046.47 216.47 1046.48 216.44 1046.48C216.4 1046.49 216.37 1046.49 216.34 1046.49L216.34 1046.49Z" />
		</g>
		<g id="_Group_20">
			<path id="_Path_25" fill-rule="evenodd" class="shp5" d="M378.72 1056.18C378.63 1056.18 378.54 1056.16 378.45 1056.14C378.36 1056.12 378.28 1056.09 378.2 1056.05C378.11 1056.01 378.04 1055.96 377.97 1055.9C377.9 1055.85 377.84 1055.78 377.78 1055.71C376.33 1053.76 374.97 1051.74 373.72 1049.66C372.47 1047.58 371.32 1045.44 370.28 1043.24C369.25 1041.04 368.32 1038.79 367.51 1036.51C366.7 1034.22 366 1031.89 365.43 1029.53C365.39 1029.38 365.38 1029.22 365.41 1029.07C365.43 1028.92 365.49 1028.77 365.57 1028.64C365.65 1028.51 365.75 1028.4 365.88 1028.31C366 1028.22 366.14 1028.15 366.29 1028.12C366.44 1028.08 366.6 1028.08 366.75 1028.1C366.9 1028.13 367.05 1028.18 367.18 1028.26C367.31 1028.34 367.42 1028.45 367.51 1028.57C367.6 1028.69 367.67 1028.83 367.71 1028.98C368.27 1031.26 368.94 1033.52 369.72 1035.73C370.51 1037.94 371.4 1040.12 372.41 1042.24C373.41 1044.37 374.52 1046.44 375.73 1048.45C376.94 1050.47 378.25 1052.42 379.66 1054.3C379.79 1054.47 379.87 1054.68 379.89 1054.9C379.91 1055.11 379.87 1055.33 379.77 1055.53C379.67 1055.72 379.52 1055.89 379.34 1056C379.15 1056.11 378.94 1056.18 378.72 1056.18L378.72 1056.18Z" />
		</g>
		<g id="_Group_21">
			<path id="_Path_26" fill-rule="evenodd" class="shp5" d="M123.76 983.96C123.55 983.96 123.34 983.91 123.16 983.8C122.98 983.69 122.83 983.54 122.73 983.35C122.63 983.17 122.58 982.96 122.58 982.75C122.59 982.54 122.66 982.34 122.77 982.16C123.5 981.01 124.28 979.89 125.1 978.8C125.92 977.72 126.79 976.66 127.69 975.64C128.59 974.62 129.54 973.63 130.52 972.69C131.5 971.74 132.51 970.83 133.57 969.96C133.81 969.77 134.11 969.67 134.42 969.7C134.73 969.73 135.01 969.88 135.21 970.12C135.41 970.36 135.51 970.66 135.48 970.97C135.45 971.28 135.3 971.56 135.06 971.76C134.06 972.59 133.09 973.46 132.15 974.37C131.21 975.27 130.31 976.21 129.45 977.19C128.59 978.16 127.76 979.17 126.98 980.21C126.19 981.25 125.45 982.32 124.75 983.42C124.69 983.5 124.63 983.58 124.56 983.64C124.49 983.71 124.41 983.77 124.32 983.82C124.24 983.86 124.14 983.9 124.05 983.92C123.95 983.95 123.86 983.96 123.76 983.96Z" />
		</g>
		<g id="_Group_22">
			<path id="_Path_27" fill-rule="evenodd" class="shp5" d="M145.25 699.56C144.95 699.55 144.66 699.43 144.44 699.23C144.23 699.02 144.1 698.73 144.09 698.43C144.07 698.13 144.18 697.84 144.38 697.61C144.57 697.38 144.85 697.24 145.15 697.21C145.43 697.19 172.84 694.55 193.79 671.61C212.24 651.4 226.08 623.51 229.41 616.49L220.29 616.49C217.95 621.15 203.46 649.39 188.74 664.67C172.66 681.39 148.83 687.95 147.83 688.22C147.52 688.31 147.2 688.27 146.92 688.12C146.65 687.96 146.44 687.71 146.36 687.4C146.28 687.1 146.32 686.77 146.48 686.5C146.65 686.23 146.91 686.03 147.22 685.96C147.46 685.89 171.43 679.28 187.05 663.05C202.79 646.7 218.36 615.11 218.51 614.8C218.56 614.7 218.62 614.61 218.7 614.53C218.77 614.45 218.85 614.38 218.95 614.32C219.04 614.26 219.14 614.22 219.24 614.19C219.35 614.16 219.46 614.14 219.57 614.14L231.26 614.14C231.45 614.14 231.64 614.19 231.82 614.28C231.99 614.38 232.13 614.51 232.24 614.68C232.35 614.84 232.41 615.03 232.43 615.22C232.44 615.42 232.41 615.62 232.33 615.79C232.17 616.13 216.94 649.74 195.52 673.19C173.93 696.83 145.64 699.53 145.35 699.55C145.32 699.55 145.28 699.56 145.25 699.56Z" />
		</g>
	</g>
	<path id="_Path_28" fill-rule="evenodd" class="shp6" d="M381.72 629.25C381.72 639.73 359.43 653.48 314.84 670.5C270.26 687.53 209.92 681.11 133.82 651.23C145.5 643.64 149.85 622.7 146.86 588.42C143.47 549.39 138.66 516.26 130.12 481.26C127.41 470.11 124.32 458.81 120.77 447.1C106.1 398.41 83.27 318.33 80.01 286.52C76.74 254.7 183.8 216.9 237.11 214.7C344.2 210.29 358.56 258.34 363.45 298.76C366.06 320.28 364.59 360.07 362.21 401.8C360.14 438.49 357.37 476.6 356.06 505.21C354.16 546.03 362.72 587.38 381.72 629.25Z" />
	<path id="_Path_29" fill-rule="evenodd" class="shp1" d="M362.21 401.8C337.8 298.2 343.56 249.91 248.05 260.34C167.68 269.12 128.37 342.76 130.12 481.26C127.41 470.11 124.32 458.81 120.77 447.1C106.1 398.41 83.27 318.33 80.01 286.52C76.74 254.7 183.8 216.9 237.11 214.7C344.2 210.29 358.56 258.34 363.45 298.76C366.06 320.28 364.59 360.07 362.21 401.8Z" />
	<path id="_Path_30" fill-rule="evenodd" class="shp0" d="M51.19 368.07C19.3 462.98 2.27 513.23 0.1 518.81C-3.16 527.18 88.16 726.08 92.51 723.99C95.41 722.59 104.51 717.32 119.8 708.18C109.58 609.86 102.3 555.81 97.95 546.04C93.6 536.26 91.42 524.04 91.43 509.39L105.85 407.85L51.19 368.07Z" />
	<path id="_Path_31" fill-rule="evenodd" class="shp1" d="M131.55 241.99C127.52 243.81 79.18 257.1 57.03 297.93C42.27 325.14 24.74 374.16 4.44 444.98C16.24 473.45 50.04 489.08 105.85 491.87C108.17 488.17 110.39 484.41 112.51 480.6C114.64 476.78 116.67 472.92 118.61 469C120.54 465.09 122.38 461.13 124.12 457.12C125.86 453.12 127.5 449.07 129.04 444.98C141.23 413.34 142.07 345.67 131.55 241.99Z" />
	<path id="_Path_32" fill-rule="evenodd" class="shp0" d="M151.6 772.82C152.27 774.18 153 775.51 153.77 776.81C154.54 778.11 155.37 779.39 156.24 780.63C157.11 781.86 158.02 783.07 158.99 784.24C159.95 785.41 160.96 786.54 162.01 787.63C163.09 788.82 168.19 792.7 168.22 794.19C168.26 796.5 163.67 797.12 162 796.88C161.94 796.86 161.88 796.85 161.81 796.84C161.75 796.83 161.68 796.83 161.62 796.83C161.55 796.83 161.48 796.83 161.42 796.84C161.35 796.85 161.29 796.86 161.23 796.88C160.48 797.12 160.56 798.18 160.43 798.95C160.05 801.09 157.21 801.77 155.1 801.26C152.99 800.76 150.97 799.56 148.81 799.79C149.43 801.63 151.53 802.96 151.39 804.89C151.27 806.46 149.58 807.53 148.01 807.55C147.62 807.52 147.23 807.46 146.84 807.38C146.46 807.3 146.07 807.2 145.7 807.08C145.33 806.95 144.96 806.81 144.61 806.64C144.25 806.47 143.91 806.27 143.58 806.06C143.62 807.7 141.38 808.44 139.82 807.93C122.94 802.44 108.47 792.04 99.88 775.99C95.19 767.24 93.98 757.86 92.19 748.2C91.1 742.32 90.13 736.42 89.27 730.5C88.84 727.54 88.44 724.58 88.07 721.61C87.86 719.89 86.57 715.77 87.21 714.19C87.16 714.32 87.11 714.44 87.06 714.57C94.83 706.44 103.33 703.11 113.71 698.39C117.47 699.73 119.13 703.42 122.34 705.74C131.92 712.64 143.07 716.92 152.2 724.41C154.66 726.39 156.95 728.56 159.07 730.89C161.19 733.23 163.12 735.72 164.86 738.35C166.59 740.98 168.13 743.74 169.44 746.6C170.75 749.46 171.84 752.43 172.7 755.46C173.12 755.8 172.11 756.49 171.61 756.69C171.47 756.73 171.34 756.75 171.21 756.77C171.07 756.78 170.93 756.78 170.8 756.77C170.66 756.76 170.53 756.73 170.4 756.7C170.27 756.67 170.14 756.62 170.02 756.56C159.6 752.98 152.46 737.88 141.31 737.13C142.54 744.82 145.42 752.86 147.51 760.53C147.76 761.58 148.04 762.63 148.34 763.66C148.64 764.7 148.96 765.73 149.3 766.76C149.64 767.78 150.01 768.8 150.39 769.81C150.77 770.82 151.18 771.82 151.6 772.82L151.6 772.82Z" />
	<path id="_Path_33" fill-rule="evenodd" class="shp0" d="M498.56 785.7C498.3 785.61 498.04 785.51 497.78 785.4C497.52 785.3 497.27 785.19 497.01 785.08C496.76 784.97 496.51 784.85 496.26 784.73C496.01 784.61 495.76 784.49 495.51 784.36C493.85 783.63 492.23 782.82 490.64 781.95C489.05 781.07 487.5 780.13 485.99 779.12C484.48 778.12 483.01 777.05 481.59 775.92C480.17 774.79 478.8 773.6 477.48 772.35C466.94 762.3 460.23 748.78 457.12 734.92C456.19 730.75 455.31 726.57 454.49 722.38C453.68 718.18 452.92 713.98 452.22 709.76C451.52 705.55 450.88 701.32 450.3 697.09C449.72 692.86 449.2 688.62 448.74 684.37C448.69 684.5 448.65 684.62 448.59 684.75C456.37 676.62 454.22 668.49 464.6 663.76C468.36 665.1 480.67 673.6 483.88 675.92C493.45 682.82 504.61 687.1 513.74 694.59C515.33 695.89 516.86 697.26 518.31 698.71C519.77 700.16 521.15 701.68 522.46 703.26C523.77 704.84 525 706.48 526.15 708.18C527.3 709.88 528.37 711.64 529.35 713.44C529.93 714.51 530.48 715.59 531 716.69C531.51 717.79 532 718.9 532.45 720.03C532.9 721.16 533.31 722.3 533.7 723.46C534.08 724.61 534.43 725.77 534.74 726.95C535 727.98 535.11 729.33 534.19 729.86C534.1 729.91 534 729.95 533.91 729.98C533.81 730.01 533.72 730.04 533.62 730.05C533.52 730.07 533.42 730.08 533.32 730.09C533.22 730.09 533.12 730.09 533.02 730.08C530.17 730.02 527.62 728.36 525.39 726.58C520.26 722.48 513.89 717.38 507.02 717.46C506.95 717.77 506.89 718.1 506.87 718.42C506.84 718.75 506.84 719.07 506.86 719.4C506.88 719.72 506.93 720.05 507 720.36C507.08 720.68 507.17 720.99 507.29 721.3C509.81 730.13 512.4 739.14 517.69 746.65C521.23 751.67 525.9 755.91 528.73 761.36C529.94 763.68 529.71 767.06 526.26 766.58C525.92 766.5 525.58 766.4 525.26 766.29C524.93 766.17 524.61 766.03 524.3 765.88C523.98 765.73 523.68 765.55 523.39 765.36C523.1 765.17 522.82 764.97 522.55 764.75C522.28 764.52 522 764.32 521.7 764.14C521.41 763.96 521.1 763.79 520.78 763.65C520.46 763.51 520.14 763.4 519.8 763.3C519.47 763.21 519.12 763.14 518.78 763.09C520.26 763.16 521.48 768.41 521.39 769.53C521.16 772.27 519.25 771.5 517.57 772.64C516.01 773.71 515.81 775.2 514.34 776.47C511.64 778.8 507.2 778.1 504.27 776.64C500.25 774.64 496.93 771.49 492.96 769.42C492.02 768.93 491.14 768.34 490.32 767.66C489.5 766.99 488.75 766.23 488.08 765.41C487.42 764.58 486.83 763.69 486.35 762.75C485.86 761.8 485.47 760.81 485.19 759.79C487.32 767.63 493.94 773.26 499.68 779.02C499.9 779.22 500.12 779.43 500.32 779.65C500.53 779.87 500.72 780.1 500.9 780.34C501.09 780.58 501.26 780.83 501.42 781.08C501.58 781.34 501.72 781.6 501.86 781.87C501.99 782.14 502.08 782.43 502.14 782.73C502.19 783.02 502.21 783.32 502.19 783.62C502.16 783.92 502.1 784.22 502 784.5C501.9 784.79 501.76 785.06 501.59 785.3C500.9 786.17 499.74 786.08 498.56 785.7Z" />
	<g id="_Group_23">
		<path id="_Path_34" fill-rule="evenodd" class="shp7" d="M189.18 24.73C206.38 8.81 222.16 2.59 236.53 6.06C258.09 11.26 286.19 46.42 301.17 50.31L316.14 54.21C305.05 70.6 293.84 78.81 282.52 78.85C282.4 96.37 279.19 110.96 272.88 122.61C263.42 140.08 207.14 184.76 204.35 179.13C198.32 166.99 201.81 164.03 197.55 162.34C193.29 160.66 160.21 137.2 151.79 86.07C147.45 59.71 149.53 25.7 189.18 24.73Z" />
		<path id="_Path_35" fill-rule="evenodd" class="shp0" d="M225.72 56.37C249.9 70.96 265.64 77.91 272.96 77.24C283.94 76.22 277.74 164.97 258.24 171.99C250.84 174.65 218.18 160.27 211.62 149.41C207.24 142.18 204.83 133.53 204.4 123.46C197.36 122.56 193.24 116.9 192.06 106.48C190.27 90.86 195.41 86.57 202.49 95.75C207.22 101.86 214.96 88.74 225.72 56.37Z" />
		<path id="_Path_36" fill-rule="evenodd" class="shp0" d="M242.59 135.51C253.22 182.53 259.17 206.73 260.46 208.11C261.18 208.79 261.9 209.47 262.64 210.14C263.38 210.81 264.12 211.47 264.88 212.11C265.63 212.76 266.4 213.4 267.17 214.02C267.94 214.65 268.72 215.26 269.51 215.86C278.15 233.28 265.94 241.59 232.88 240.79C202.99 240.07 180.65 225.93 182.72 224C184.79 222.07 194.19 214.96 194.98 210.06C195.5 206.79 198.15 177.19 202.92 121.26L242.59 135.51Z" />
		<g id="_Group_24">
			<path id="_Path_37" fill-rule="evenodd" class="shp7" d="M194.22 156.42C185.55 156.35 176.72 152.42 169.34 145.36C162.12 138.45 157.36 129.68 154.02 122.82C152.24 119.19 150.64 115.47 149.24 111.68C147.83 107.89 146.63 104.02 145.63 100.11C144.63 96.19 143.83 92.22 143.24 88.22C142.65 84.22 142.27 80.2 142.1 76.16C141.59 61.07 142.67 44.07 154.55 32.29C163.27 23.66 177.71 18.22 190.72 25.07C196.19 16.5 205.06 8.97 215.22 4.3C217.73 3.13 220.34 2.18 223.01 1.49C225.69 0.79 228.43 0.34 231.19 0.15C233.95 -0.05 236.72 0.01 239.47 0.32C242.22 0.64 244.93 1.2 247.58 2.01C258.2 5.46 265.53 12.84 272.61 19.97C273.61 21.04 274.64 22.08 275.68 23.1C276.72 24.13 277.79 25.13 278.87 26.11C279.95 27.09 281.06 28.05 282.18 28.99C283.3 29.93 284.44 30.84 285.59 31.74C288.88 34.15 292.3 36.37 295.85 38.38C299.39 40.39 303.05 42.19 306.81 43.78C310.57 45.36 314.41 46.72 318.33 47.85C322.25 48.98 326.23 49.88 330.25 50.55C330.42 50.58 330.59 50.64 330.74 50.75C330.88 50.85 331.01 50.98 331.09 51.14C331.18 51.29 331.23 51.47 331.24 51.65C331.24 51.83 331.21 52 331.14 52.17C328.51 58.34 324.59 63.87 319.63 68.39C314.67 72.92 308.8 76.32 302.41 78.37C296.02 80.43 289.26 81.09 282.6 80.3C275.93 79.52 269.51 77.31 263.78 73.82C256.55 69.43 250.61 63.08 245.77 57.45C245.57 57.21 245.48 56.9 245.5 56.6C245.53 56.29 245.67 56 245.91 55.8C246.14 55.6 246.45 55.5 246.75 55.52C247.06 55.54 247.35 55.69 247.55 55.92C252.28 61.41 258.05 67.6 265 71.82C270.34 75.06 276.31 77.14 282.51 77.93C288.71 78.71 295 78.18 300.98 76.36C306.96 74.55 312.49 71.5 317.21 67.41C321.93 63.31 325.74 58.27 328.38 52.61C324.4 51.89 320.46 50.95 316.59 49.79C312.72 48.62 308.92 47.24 305.21 45.64C301.5 44.05 297.88 42.24 294.37 40.23C290.86 38.23 287.47 36.02 284.21 33.63C283.03 32.72 281.87 31.78 280.72 30.83C279.57 29.87 278.45 28.89 277.34 27.89C276.23 26.89 275.15 25.87 274.08 24.82C273.01 23.78 271.97 22.71 270.94 21.63C263.74 14.37 256.93 7.52 246.85 4.24C244.35 3.48 241.77 2.94 239.17 2.65C236.57 2.35 233.94 2.3 231.33 2.48C228.71 2.67 226.12 3.1 223.58 3.76C221.05 4.42 218.58 5.31 216.21 6.43C206.09 11.08 197.31 18.67 192.13 27.24C192.05 27.37 191.95 27.49 191.83 27.58C191.71 27.67 191.57 27.74 191.42 27.77C191.27 27.81 191.12 27.82 190.97 27.8C190.82 27.78 190.67 27.73 190.54 27.65C178.34 20.59 164.51 25.73 156.21 33.96C144.97 45.1 143.95 61.51 144.44 76.08C144.61 80.04 144.99 83.98 145.57 87.9C146.14 91.82 146.93 95.71 147.91 99.55C148.89 103.38 150.07 107.17 151.44 110.88C152.82 114.6 154.38 118.24 156.13 121.79C159.39 128.48 164.02 137.01 170.96 143.67C177.91 150.33 186.17 154.02 194.22 154.08C194.54 154.08 194.83 154.2 195.05 154.42C195.27 154.64 195.39 154.94 195.39 155.25C195.39 155.56 195.27 155.86 195.05 156.08C194.83 156.3 194.53 156.42 194.22 156.42L194.22 156.42Z" />
		</g>
		<path id="_Path_38" fill-rule="evenodd" class="shp7" d="M263.36 104.12C263.25 107.98 264.81 111.15 266.86 111.22C268.91 111.29 270.66 108.21 270.78 104.36C270.9 100.5 269.34 97.32 267.29 97.26C265.24 97.2 263.48 100.27 263.36 104.12Z" />
		<path id="_Path_39" fill-rule="evenodd" class="shp7" d="M231.13 102.45C231.01 106.31 232.57 109.48 234.62 109.55C236.67 109.61 238.43 106.53 238.55 102.68C238.66 98.83 237.1 95.65 235.05 95.58C233 95.51 231.25 98.59 231.13 102.45Z" />
		<path id="_Path_40" fill-rule="evenodd" class="shp8" d="M250.81 171.61L251.65 175.19C246.54 183.28 240.39 186.15 233.21 183.78C226.38 181.54 201.65 150.06 201.47 144.93C201.36 141.5 201.8 134.2 202.81 123.03C206.84 139.17 210.48 148.84 213.72 152.03C219.81 158.04 232.17 164.56 250.81 171.61Z" />
		<g id="_Group_25">
			<path id="_Path_41" fill-rule="evenodd" class="shp7" d="M202.91 114.09C202.78 114.09 202.65 114.07 202.53 114.03C202.4 113.98 202.29 113.92 202.19 113.84C202.08 113.76 201.99 113.66 201.92 113.55C201.85 113.44 201.8 113.31 201.77 113.19C201.57 112.35 201.3 111.53 200.96 110.74C200.62 109.94 200.22 109.18 199.75 108.46C199.29 107.73 198.76 107.05 198.18 106.41C197.6 105.77 196.96 105.19 196.28 104.65C196.04 104.46 195.88 104.18 195.84 103.88C195.8 103.57 195.88 103.26 196.07 103.01C196.26 102.76 196.54 102.6 196.85 102.57C197.16 102.53 197.47 102.61 197.72 102.8C198.51 103.41 199.24 104.09 199.92 104.82C200.59 105.55 201.2 106.34 201.74 107.18C202.28 108.02 202.74 108.9 203.13 109.82C203.52 110.73 203.83 111.68 204.06 112.65C204.09 112.8 204.1 112.96 204.08 113.11C204.05 113.26 204 113.41 203.91 113.54C203.83 113.67 203.73 113.78 203.6 113.87C203.48 113.96 203.33 114.03 203.18 114.06C203.16 114.07 203.14 114.07 203.12 114.07C203.09 114.08 203.07 114.08 203.05 114.08C203.03 114.09 203 114.09 202.98 114.09C202.96 114.09 202.94 114.09 202.91 114.09L202.91 114.09Z" />
		</g>
		<g id="_Group_26">
			<path id="_Path_42" fill-rule="evenodd" class="shp7" d="M243.99 90.84C243.94 90.84 243.9 90.84 243.85 90.83C243.81 90.83 243.77 90.82 243.73 90.81C243.68 90.8 243.64 90.79 243.6 90.77C243.56 90.76 243.52 90.74 243.48 90.72C242.37 90.2 241.21 89.8 240.02 89.51C238.83 89.22 237.62 89.06 236.39 89.02C235.17 88.97 233.94 89.06 232.74 89.26C231.53 89.46 230.34 89.79 229.2 90.23C228.91 90.35 228.58 90.35 228.29 90.23C228 90.11 227.77 89.88 227.66 89.58C227.54 89.29 227.55 88.96 227.68 88.67C227.8 88.38 228.04 88.16 228.34 88.05C229.63 87.55 230.97 87.18 232.34 86.95C233.7 86.72 235.09 86.63 236.47 86.68C237.86 86.72 239.24 86.91 240.58 87.23C241.93 87.56 243.24 88.02 244.5 88.61C244.74 88.72 244.93 88.92 245.05 89.15C245.16 89.39 245.19 89.67 245.13 89.93C245.07 90.19 244.93 90.42 244.72 90.58C244.51 90.75 244.25 90.84 243.99 90.84L243.99 90.84Z" />
		</g>
		<g id="_Group_27">
			<path id="_Path_43" fill-rule="evenodd" class="shp7" d="M254.02 146.1C253.75 146.1 253.49 146.1 253.22 146.09C252.95 146.08 252.68 146.07 252.42 146.06C252.15 146.05 251.88 146.03 251.62 146.01C251.35 145.99 251.08 145.96 250.82 145.94C249.77 145.81 248.73 145.65 247.7 145.46C246.66 145.27 245.63 145.06 244.61 144.82C243.58 144.58 242.56 144.32 241.55 144.02C240.54 143.73 239.54 143.41 238.54 143.06C238.25 142.97 238 142.76 237.86 142.48C237.72 142.21 237.69 141.88 237.78 141.59C237.88 141.29 238.09 141.04 238.37 140.9C238.64 140.76 238.96 140.73 239.26 140.83C240.22 141.16 241.18 141.47 242.15 141.75C243.12 142.04 244.1 142.3 245.08 142.53C246.07 142.76 247.06 142.96 248.05 143.14C249.05 143.32 250.05 143.47 251.05 143.6C252.03 143.72 253.01 143.79 253.99 143.79C254.97 143.78 255.95 143.72 256.93 143.59C257.9 143.46 258.86 143.27 259.81 143.02C260.76 142.77 261.69 142.46 262.6 142.09C262.89 141.96 263.21 141.95 263.5 142.07C263.79 142.18 264.02 142.4 264.15 142.69C264.27 142.97 264.28 143.29 264.17 143.58C264.05 143.87 263.83 144.11 263.55 144.23C262.8 144.55 262.03 144.83 261.25 145.07C260.47 145.31 259.68 145.51 258.88 145.66C258.08 145.82 257.27 145.94 256.46 146.01C255.65 146.08 254.84 146.11 254.02 146.1Z" />
		</g>
		<g id="_Group_28">
			<path id="_Path_44" fill-rule="evenodd" class="shp7" d="M252.51 154.66C252.19 154.66 251.88 154.65 251.56 154.63C251.25 154.62 250.93 154.6 250.62 154.57C250.3 154.54 249.99 154.51 249.68 154.47C249.37 154.43 249.06 154.38 248.75 154.32C248.59 154.29 248.45 154.24 248.32 154.16C248.19 154.07 248.08 153.96 247.99 153.84C247.9 153.71 247.84 153.57 247.8 153.42C247.77 153.27 247.77 153.11 247.8 152.96C247.82 152.81 247.88 152.66 247.96 152.53C248.04 152.4 248.15 152.29 248.28 152.2C248.4 152.11 248.55 152.05 248.7 152.02C248.85 151.98 249.01 151.98 249.16 152.01C249.7 152.11 250.24 152.18 250.79 152.23C251.33 152.28 251.88 152.31 252.43 152.31C252.98 152.31 253.52 152.29 254.07 152.24C254.62 152.2 255.16 152.13 255.7 152.04C256.01 151.98 256.33 152.05 256.59 152.23C256.85 152.41 257.03 152.69 257.08 153C257.13 153.31 257.06 153.63 256.87 153.88C256.68 154.14 256.4 154.31 256.09 154.35C255.79 154.4 255.5 154.45 255.2 154.48C254.9 154.52 254.6 154.55 254.3 154.58C254.01 154.6 253.71 154.62 253.41 154.64C253.11 154.65 252.81 154.66 252.51 154.66L252.51 154.66Z" />
		</g>
		<g id="_Group_29">
			<path id="_Path_45" fill-rule="evenodd" class="shp7" d="M274.37 92.88C274.34 92.88 274.31 92.88 274.28 92.87C274.24 92.87 274.21 92.87 274.18 92.86C274.15 92.86 274.12 92.85 274.09 92.84C274.06 92.83 274.03 92.83 274 92.82C273.04 92.5 272.05 92.25 271.05 92.06C270.06 91.88 269.05 91.77 268.03 91.72C267.02 91.68 266 91.7 264.99 91.79C263.98 91.88 262.98 92.04 261.99 92.27C261.69 92.34 261.37 92.29 261.11 92.13C260.84 91.96 260.65 91.7 260.58 91.4C260.51 91.09 260.56 90.78 260.73 90.51C260.89 90.25 261.15 90.06 261.46 89.99C262.55 89.73 263.66 89.55 264.78 89.44C265.9 89.34 267.02 89.31 268.14 89.36C269.26 89.42 270.38 89.54 271.48 89.75C272.59 89.95 273.68 90.24 274.74 90.59C275.01 90.68 275.23 90.86 275.37 91.1C275.52 91.34 275.57 91.62 275.53 91.89C275.48 92.17 275.34 92.42 275.13 92.6C274.92 92.78 274.65 92.88 274.37 92.88L274.37 92.88Z" />
		</g>
		<g id="_Group_30">
			<path id="_Path_46" fill-rule="evenodd" class="shp7" d="M256.19 131.37C255.8 131.37 255.41 131.35 255.02 131.31C254.63 131.27 254.24 131.2 253.86 131.11C253.48 131.02 253.1 130.91 252.73 130.78C252.37 130.65 252.01 130.49 251.66 130.32C251.38 130.17 251.18 129.93 251.09 129.63C251 129.34 251.02 129.03 251.16 128.75C251.3 128.48 251.54 128.27 251.83 128.17C252.12 128.07 252.44 128.09 252.72 128.23C253.54 128.62 254.42 128.87 255.32 128.98C256.22 129.08 257.13 129.04 258.02 128.85C258.91 128.66 259.76 128.32 260.53 127.85C261.31 127.39 262.01 126.79 262.59 126.1C262.66 126.03 262.72 125.96 262.77 125.88C262.82 125.8 262.87 125.73 262.92 125.64C262.96 125.56 263 125.47 263.03 125.39C263.07 125.3 263.09 125.21 263.12 125.12C263.1 124.98 263.08 124.85 263.05 124.71C263.02 124.58 262.98 124.45 262.93 124.32C262.89 124.19 262.83 124.06 262.77 123.94C262.7 123.82 262.63 123.7 262.55 123.59C256.7 113.04 254.35 103.2 255.57 94.34C255.58 94.1 255.62 93.87 255.69 93.64C255.76 93.42 255.86 93.2 255.99 93C256.12 92.81 256.27 92.63 256.45 92.47C256.63 92.31 256.83 92.18 257.04 92.07C257.32 91.97 257.63 91.97 257.91 92.08C258.19 92.2 258.41 92.42 258.53 92.69C258.66 92.96 258.67 93.28 258.57 93.56C258.47 93.84 258.26 94.08 257.99 94.21C257.98 94.25 257.97 94.29 257.96 94.32C257.95 94.36 257.94 94.4 257.93 94.43C257.92 94.47 257.92 94.51 257.91 94.55C257.9 94.58 257.9 94.62 257.9 94.66C256.75 103 259.01 112.36 264.61 122.46C264.75 122.67 264.88 122.89 264.99 123.12C265.1 123.36 265.19 123.6 265.26 123.84C265.33 124.09 265.39 124.34 265.42 124.6C265.45 124.85 265.46 125.11 265.46 125.36C265.43 125.57 265.38 125.77 265.32 125.96C265.26 126.16 265.19 126.35 265.1 126.54C265.01 126.73 264.91 126.91 264.8 127.08C264.69 127.25 264.57 127.41 264.43 127.57C263.93 128.17 263.36 128.71 262.74 129.18C262.12 129.66 261.45 130.06 260.74 130.39C260.03 130.72 259.28 130.97 258.52 131.13C257.75 131.3 256.97 131.38 256.19 131.37Z" />
		</g>
	</g>
	<path id="_Path_47" fill-rule="evenodd" class="shp6" d="M175.91 226.07L182.96 221.32C198.43 236.97 219.99 242.56 247.65 238.09C275.3 233.61 280.14 224.27 262.15 210.06L274.35 215.51C286.07 228.38 278.86 237.98 252.7 244.33C228.4 250.22 202.8 244.14 175.91 226.07Z" />
	<g id="_Group_31">
		<path id="_Path_48" fill-rule="evenodd" class="shp4" d="M229.13 505.52L227.09 504.36C232.51 494.94 238.47 485.84 244.95 477.11C251.42 468.38 258.4 460.03 265.85 452.11C273.3 444.19 281.21 436.72 289.52 429.72C297.84 422.72 306.56 416.21 315.64 410.22L316.94 412.18C307.94 418.11 299.29 424.57 291.04 431.51C282.79 438.45 274.95 445.86 267.57 453.72C260.18 461.57 253.26 469.84 246.83 478.5C240.41 487.16 234.5 496.18 229.13 505.52L229.13 505.52Z" />
	</g>
	<g id="_Group_32">
		<path id="_Path_49" fill-rule="evenodd" class="shp4" d="M225.44 576.41L224.31 574.36C264.67 552.15 290.42 511.98 313.14 476.54L315.11 477.81C292.25 513.49 266.33 553.92 225.44 576.41Z" />
	</g>
	<g id="_Group_33">
		<path id="_Path_50" fill-rule="evenodd" class="shp4" d="M230.06 596.74L229.06 594.62C232.25 593.11 235.37 591.43 238.39 589.6C241.42 587.77 244.34 585.78 247.16 583.65C249.98 581.52 252.69 579.24 255.28 576.83C257.86 574.42 260.32 571.88 262.65 569.22L264.42 570.76C262.05 573.48 259.53 576.08 256.88 578.55C254.24 581.01 251.47 583.34 248.58 585.52C245.7 587.7 242.7 589.73 239.61 591.61C236.52 593.48 233.33 595.2 230.06 596.74L230.06 596.74Z" />
	</g>
	<g id="_Group_34">
		<path id="_Path_51" fill-rule="evenodd" class="shp4" d="M301.78 639.74L300.38 637.86C324.21 620.18 338.81 592.35 339.43 563.4L341.78 563.45C341.14 593.12 326.19 621.64 301.78 639.74Z" />
	</g>
	<g id="_Group_35">
		<path id="_Path_52" fill-rule="evenodd" class="shp9" d="M238.95 247.55C236.61 247.55 234.15 247.46 231.58 247.27C201.91 245.02 175.51 227.21 175.25 227.04L176.57 225.1C176.83 225.28 202.73 242.73 231.75 244.93C259.57 247.04 273.44 236.88 277.27 230.54C279.7 226.52 275.29 218.82 273.39 216.2L275.29 214.82C275.61 215.26 283 225.6 279.28 231.75C275.54 237.94 263.03 247.55 238.95 247.55Z" />
	</g>
	<g id="_Group_36">
		<path id="_Path_53" fill-rule="evenodd" class="shp9" d="M135.65 316.54C122.96 277.22 93.49 260.96 93.2 260.8L94.31 258.73C94.61 258.9 124.9 275.57 137.88 315.82L135.65 316.54Z" />
	</g>
	<g id="_Group_37">
		<path id="_Path_54" fill-rule="evenodd" class="shp9" d="M125.13 458.33L122.84 457.81C122.96 457.27 135.26 402.96 136.7 357.47L139.05 357.54C137.6 403.26 125.26 457.79 125.13 458.33Z" />
	</g>
	<g id="_Group_38">
		<path id="_Path_55" fill-rule="evenodd" class="shp9" d="M138.97 388.18L136.78 387.34L148.3 357.09L150.5 357.92L138.97 388.18Z" />
	</g>
	<g id="_Group_39">
		<path id="_Path_56" fill-rule="evenodd" class="shp9" d="M358.36 483.94L356.01 483.79L360.5 411.13C360.53 410.42 363.59 337.81 362.87 304.75C362.15 272.07 343.89 247.33 343.7 247.09L345.58 245.68C345.77 245.93 364.48 271.24 365.21 304.7C365.94 337.83 362.88 410.52 362.85 411.25L358.36 483.94Z" />
	</g>
	<g id="_Group_40">
		<path id="_Path_57" fill-rule="evenodd" class="shp9" d="M364.19 372.96L361.94 372.3L372.99 334.62L375.24 335.28L364.19 372.96Z" />
	</g>
	<g id="_Group_41">
		<path id="_Path_58" fill-rule="evenodd" class="shp7" d="M92.04 522.32C91.96 522.32 91.87 522.31 91.79 522.3C91.71 522.28 91.63 522.25 91.56 522.22C91.48 522.18 91.41 522.14 91.34 522.09C91.27 522.04 91.21 521.99 91.16 521.92C89.22 519.73 87.08 517.71 84.77 515.9C82.46 514.1 79.99 512.5 77.39 511.15C74.79 509.79 72.07 508.67 69.27 507.81C66.47 506.95 63.59 506.34 60.68 506C51.67 505 42.53 506.57 33.69 508.1L24.69 509.65C24.38 509.71 24.06 509.63 23.81 509.45C23.56 509.28 23.38 509 23.33 508.7C23.28 508.39 23.35 508.07 23.53 507.82C23.71 507.57 23.98 507.39 24.29 507.34L33.29 505.78C42.29 504.23 51.59 502.63 60.93 503.67C63.99 504.03 67.01 504.66 69.95 505.57C72.89 506.47 75.75 507.65 78.47 509.07C81.2 510.49 83.79 512.17 86.22 514.06C88.64 515.96 90.89 518.07 92.92 520.38C93.02 520.49 93.1 520.63 93.15 520.77C93.2 520.92 93.22 521.07 93.21 521.23C93.2 521.38 93.16 521.53 93.09 521.67C93.02 521.81 92.93 521.93 92.81 522.03C92.76 522.08 92.7 522.12 92.64 522.16C92.58 522.19 92.52 522.22 92.45 522.25C92.39 522.27 92.32 522.29 92.25 522.31C92.18 522.32 92.11 522.32 92.04 522.32L92.04 522.32Z" />
	</g>
	<g id="_Group_42">
		<path id="_Path_59" fill-rule="evenodd" class="shp7" d="M373.67 524.96C373.44 524.96 373.22 524.9 373.03 524.77C372.83 524.64 372.68 524.46 372.59 524.25C372.5 524.04 372.48 523.81 372.52 523.58C372.56 523.36 372.66 523.15 372.82 522.98C375.83 519.83 378.94 516.58 382.83 514.26C387.25 511.62 392.12 510.76 396.19 511.89C396.5 511.97 396.76 512.17 396.92 512.44C397.08 512.72 397.12 513.04 397.03 513.35C396.95 513.65 396.74 513.91 396.47 514.06C396.19 514.21 395.86 514.24 395.56 514.15C392.11 513.19 387.91 513.96 384.03 516.27C380.42 518.43 377.42 521.57 374.52 524.6C374.47 524.66 374.41 524.71 374.34 524.76C374.28 524.8 374.21 524.84 374.14 524.87C374.06 524.9 373.99 524.93 373.91 524.94C373.83 524.96 373.75 524.96 373.67 524.96L373.67 524.96Z" />
	</g>
	<g id="_Group_43">
		<path id="_Path_60" fill-rule="evenodd" class="shp7" d="M532.8 731.63C530.17 731.63 526.95 729.2 522.18 725.59C520.66 724.45 518.95 723.15 516.99 721.73C510.47 716.97 506.7 717.8 501.94 718.84C501.07 719.08 500.19 719.28 499.31 719.42C498.42 719.57 497.53 719.67 496.63 719.73C495.74 719.78 494.84 719.79 493.94 719.75C493.05 719.71 492.15 719.63 491.26 719.5C480 717.56 474.37 697.55 474.14 696.7C474.06 696.4 474.1 696.08 474.25 695.81C474.41 695.54 474.66 695.34 474.96 695.26C475.26 695.17 475.58 695.21 475.85 695.37C476.12 695.52 476.32 695.78 476.4 696.08C476.46 696.27 481.86 715.5 491.66 717.18C492.48 717.3 493.29 717.37 494.12 717.41C494.94 717.44 495.76 717.43 496.58 717.38C497.4 717.32 498.22 717.23 499.03 717.09C499.84 716.95 500.64 716.77 501.43 716.55C506.35 715.47 511 714.45 518.38 719.83C520.34 721.26 522.07 722.56 523.59 723.72C531.33 729.57 532.86 730.41 534.77 727.98C534.96 727.75 535.24 727.6 535.55 727.56C535.85 727.53 536.16 727.62 536.4 727.81C536.64 728 536.79 728.27 536.83 728.58C536.87 728.88 536.79 729.19 536.61 729.43C536.41 729.75 536.16 730.05 535.89 730.31C535.61 730.58 535.31 730.81 534.98 731C534.65 731.19 534.29 731.34 533.93 731.45C533.56 731.55 533.18 731.62 532.8 731.63L532.8 731.63Z" />
	</g>
	<g id="_Group_44">
		<path id="_Path_61" fill-rule="evenodd" class="shp7" d="M526.89 768.32C523.33 768.32 513.85 758.69 509.73 753.19C508.81 751.92 507.92 750.62 507.07 749.29C506.22 747.96 505.4 746.62 504.63 745.24C503.85 743.87 503.11 742.48 502.41 741.07C501.71 739.66 501.05 738.23 500.43 736.78C500.3 736.49 500.3 736.17 500.42 735.87C500.54 735.58 500.77 735.35 501.06 735.23C501.35 735.11 501.68 735.11 501.96 735.23C502.25 735.36 502.48 735.59 502.6 735.88C503.2 737.28 503.84 738.67 504.52 740.04C505.2 741.4 505.92 742.75 506.67 744.08C507.42 745.41 508.21 746.71 509.04 748C509.86 749.29 510.72 750.55 511.61 751.79C517.21 759.26 525.22 765.9 526.78 766C527.07 765.88 527.35 765.75 527.63 765.62C527.91 765.48 528.18 765.34 528.45 765.19C528.72 765.04 528.99 764.89 529.25 764.73C529.52 764.56 529.77 764.4 530.03 764.22C530.28 764.05 530.6 763.99 530.9 764.05C531.2 764.1 531.46 764.28 531.64 764.53C531.81 764.78 531.89 765.09 531.84 765.39C531.79 765.69 531.62 765.96 531.37 766.14C531.06 766.36 530.75 766.56 530.43 766.76C530.1 766.95 529.78 767.13 529.45 767.31C529.11 767.49 528.78 767.65 528.43 767.81C528.09 767.96 527.75 768.11 527.4 768.25C527.36 768.26 527.31 768.27 527.27 768.28C527.23 768.29 527.19 768.3 527.15 768.31C527.11 768.31 527.06 768.32 527.02 768.32C526.98 768.32 526.94 768.32 526.89 768.32Z" />
	</g>
	<g id="_Group_45">
		<path id="_Path_62" fill-rule="evenodd" class="shp7" d="M519.24 774.58C514.45 774.58 503.91 767.48 500.57 762.9C496.66 757.54 490.64 743.49 490.39 742.89C490.26 742.6 490.26 742.28 490.38 741.99C490.49 741.7 490.72 741.47 491.01 741.35C491.29 741.23 491.62 741.22 491.9 741.34C492.19 741.46 492.42 741.68 492.55 741.97C492.61 742.11 498.72 756.37 502.47 761.52C506.5 767.05 517.94 773 519.51 772.24C519.7 772.13 519.88 772.01 520.04 771.87C520.2 771.73 520.35 771.56 520.47 771.39C520.6 771.21 520.7 771.02 520.78 770.82C520.86 770.62 520.92 770.41 520.95 770.2C521.03 769.06 520.16 767.65 518.49 766.23C515.6 763.79 513.49 759.9 511.8 756.77C511.64 756.46 511.48 756.16 511.32 755.85C511.15 755.55 510.98 755.24 510.8 754.94C510.63 754.64 510.45 754.34 510.27 754.05C510.09 753.75 509.9 753.46 509.71 753.17C509.53 752.91 509.47 752.6 509.52 752.29C509.58 751.99 509.75 751.72 510 751.54C510.26 751.37 510.57 751.3 510.88 751.35C511.18 751.4 511.45 751.57 511.63 751.82C511.84 752.13 512.04 752.44 512.23 752.76C512.43 753.07 512.62 753.39 512.8 753.71C512.99 754.03 513.17 754.35 513.35 754.68C513.53 755 513.7 755.33 513.87 755.66C515.47 758.61 517.46 762.28 520.01 764.45C522.9 766.9 523.39 769.02 523.3 770.36C523.26 770.76 523.17 771.15 523.03 771.53C522.9 771.91 522.72 772.27 522.5 772.6C522.28 772.93 522.02 773.24 521.73 773.52C521.43 773.79 521.11 774.03 520.76 774.22C520.65 774.29 520.53 774.34 520.4 774.39C520.28 774.44 520.15 774.48 520.02 774.51C519.89 774.54 519.76 774.56 519.63 774.57C519.5 774.59 519.37 774.59 519.24 774.58Z" />
	</g>
	<g id="_Group_46">
		<path id="_Path_63" fill-rule="evenodd" class="shp7" d="M509.84 779.16C509.57 779.16 509.29 779.16 509.02 779.14C508.74 779.13 508.47 779.11 508.2 779.09C507.92 779.06 507.65 779.03 507.38 778.99C507.11 778.95 506.84 778.91 506.57 778.86C502.83 778.11 493.48 771.17 489.31 766.04C485.25 761.04 481.33 748.79 481.17 748.27C481.08 747.98 481.11 747.66 481.25 747.38C481.39 747.1 481.64 746.89 481.94 746.8C482.23 746.71 482.55 746.73 482.83 746.88C483.11 747.02 483.32 747.27 483.41 747.56C483.45 747.69 487.36 759.91 491.14 764.56C495.11 769.45 504.14 775.98 507.03 776.56C509.32 777.01 513.19 776.99 514.59 775.5C514.79 775.29 515.41 774.64 514.97 773C514.89 772.7 514.93 772.38 515.08 772.1C515.24 771.83 515.5 771.63 515.8 771.55C516.11 771.47 516.43 771.51 516.7 771.67C516.97 771.83 517.17 772.1 517.24 772.4C517.38 772.8 517.47 773.21 517.5 773.63C517.53 774.05 517.5 774.47 517.42 774.89C517.34 775.3 517.2 775.7 517.01 776.07C516.82 776.45 516.58 776.8 516.3 777.11C514.81 778.7 512.16 779.16 509.84 779.16Z" />
	</g>
	<g id="_Group_47">
		<path id="_Compound_Path_3" fill-rule="evenodd" class="shp7" d="M164.23 798.3C158.1 798.3 145.17 788.73 141.04 781.1C137.1 773.85 128.95 756.88 128.87 756.71C128.73 756.43 128.71 756.11 128.82 755.81C128.92 755.52 129.14 755.28 129.42 755.14C129.7 755.01 130.02 754.99 130.31 755.09C130.61 755.2 130.85 755.41 130.98 755.69C131.06 755.86 139.19 772.78 143.1 779.98C147.09 787.35 159.42 796.01 164.3 795.95C167.16 795.89 167.87 795.31 168 795.17C167.96 794.88 168.02 794.58 168.19 794.34C168.35 794.09 168.6 793.92 168.89 793.85C169.17 793.78 169.48 793.83 169.73 793.97C169.99 794.11 170.18 794.35 170.28 794.63C170.32 794.78 170.35 794.95 170.36 795.11C170.36 795.27 170.35 795.44 170.33 795.6C170.3 795.76 170.25 795.92 170.18 796.07C170.12 796.22 170.04 796.36 169.94 796.49C169.13 797.65 167.3 798.24 164.35 798.3L164.23 798.3L164.23 798.3Z" />
	</g>
	<g id="_Group_48">
		<path id="_Path_64" fill-rule="evenodd" class="shp7" d="M157.61 802.99C153.41 802.99 142.04 797.19 136.73 790.57C131.26 783.76 121.6 764.8 121.19 764C121.06 763.72 121.04 763.41 121.14 763.12C121.23 762.83 121.44 762.58 121.72 762.45C121.99 762.31 122.31 762.28 122.6 762.37C122.89 762.46 123.14 762.67 123.28 762.94C123.38 763.13 133.24 782.48 138.56 789.1C144.05 795.94 155.31 800.89 157.76 800.63C160.09 800.38 160.98 796.89 160.98 796.85C161.01 796.7 161.07 796.56 161.16 796.43C161.25 796.31 161.36 796.2 161.5 796.12C161.63 796.04 161.77 795.98 161.93 795.96C162.08 795.93 162.24 795.94 162.39 795.98C162.54 796.01 162.68 796.08 162.8 796.17C162.93 796.26 163.04 796.37 163.12 796.5C163.2 796.63 163.25 796.78 163.28 796.93C163.3 797.08 163.3 797.24 163.26 797.39C163.21 797.6 162.01 802.53 158.01 802.96C157.98 802.97 157.95 802.97 157.91 802.97C157.88 802.98 157.85 802.98 157.81 802.98C157.78 802.98 157.75 802.98 157.71 802.99C157.68 802.99 157.65 802.99 157.61 802.99Z" />
	</g>
	<g id="_Group_49">
		<path id="_Path_65" fill-rule="evenodd" class="shp7" d="M148.48 808.41C142.84 808.41 133.31 803.13 129.02 797.87C123.9 791.59 114.9 776.82 114.52 776.19C114.36 775.93 114.31 775.61 114.38 775.31C114.46 775 114.65 774.74 114.91 774.58C115.18 774.42 115.5 774.37 115.8 774.44C116.11 774.52 116.37 774.71 116.53 774.97C116.63 775.13 125.82 790.23 130.83 796.39C135.76 802.42 147.16 807.46 150.05 805.76C150.1 805.74 150.15 805.71 150.2 805.67C150.24 805.63 150.28 805.59 150.32 805.54C150.35 805.49 150.38 805.44 150.39 805.39C150.41 805.33 150.43 805.28 150.43 805.22C150.62 803.58 147.78 800.05 145.7 798.06C145.47 797.85 145.34 797.55 145.33 797.24C145.33 796.93 145.44 796.63 145.66 796.4C145.87 796.18 146.17 796.05 146.48 796.04C146.79 796.03 147.09 796.15 147.32 796.37C148.29 797.3 153.15 802.13 152.76 805.49C152.74 805.72 152.69 805.96 152.6 806.18C152.52 806.41 152.42 806.62 152.29 806.82C152.15 807.02 152 807.2 151.82 807.36C151.65 807.52 151.45 807.66 151.24 807.78C151.03 807.89 150.82 807.99 150.59 808.07C150.37 808.16 150.14 808.23 149.91 808.28C149.67 808.33 149.44 808.37 149.2 808.39C148.96 808.41 148.72 808.42 148.48 808.41L148.48 808.41Z" />
	</g>
</svg>