<svg id="_3" data-name="3" xmlns="http://www.w3.org/2000/svg" width="560.5" height="1459.027" viewBox="0 0 560.5 1459.027">
  <defs>
    <style>
      .cls-1 {
        fill: #f9a485;
      }

      .cls-1, .cls-10, .cls-2, .cls-3, .cls-4, .cls-5, .cls-6, .cls-7, .cls-8, .cls-9 {
        fill-rule: evenodd;
      }

      .cls-2 {
        fill: #3b344a;
      }

      .cls-3 {
        fill: #65a6ce;
      }

      .cls-4 {
        fill: #d5d1d8;
      }

      .cls-5 {
        fill: #a5b1c7;
      }

      .cls-6 {
        fill: #4c7d9b;
      }

      .cls-7 {
        fill: #e8e6e9;
      }

      .cls-8 {
        fill: #85504c;
      }

      .cls-9 {
        fill: #e07560;
      }

      .cls-10 {
        fill: #1e1a25;
      }
    </style>
  </defs>
  <path id="_Path_" data-name="&lt;Path&gt;" class="cls-1" d="M487.915,393.3q1.954,141.806,6.423,141.806c4.468,0,36.864,27.984,42.45,39.824q5.584,11.84,41.332,129.608l-24.609,21.036Q461.705,606.142,452.328,592.15c-9.376-13.992-29.352-147.457-24.95-158.22Q431.78,423.166,487.915,393.3Z" transform="translate(-86.5 -7.063)"/>
  <path id="_Path_2" data-name="&lt;Path&gt;" class="cls-2" d="M422.574,244.718q56.124,17.482,67.3,84.808,7.956,47.958,20.107,156.161-54.24,21.774-96.756,18.544T422.574,244.718Z" transform="translate(-86.5 -7.063)"/>
  <g id="_Group_" data-name="&lt;Group&gt;">
    <path id="_Path_3" data-name="&lt;Path&gt;" class="cls-1" d="M261.794,972.093c-15.429,20.988-62.421,80.727-66.278,109.787s36.766,306.75,52.2,303.52a83.708,83.708,0,0,1,32.787.03q42.431-263.19,48.216-297.09c5.786-33.91-7.715-101.716-13.5-106.56Q309.428,976.937,261.794,972.093Z" transform="translate(-86.5 -7.063)"/>
    <path id="_Path_4" data-name="&lt;Path&gt;" class="cls-1" d="M415.024,997.108C410,1015.68,371.458,1088.34,371.458,1106.1s118.132,316.53,123.159,308.43,36.864-24.26,38.54-29.1S485.4,992.543,475.347,986.624Q465.294,980.7,415.024,997.108Z" transform="translate(-86.5 -7.063)"/>
    <path id="_Path_5" data-name="&lt;Path&gt;" class="cls-3" d="M262.692,639.71c-14.114,0-38.691,61.149-45.393,102.049s2.9,255.821-8.456,278.521q-23.429,46.815-13.584,119.55,64.544,32.07,128.988,6.69,36.041-381.082,47.211-398.3C382.629,731,402.736,731.164,393.8,672.959l-8.937-33.249H262.692Z" transform="translate(-86.5 -7.063)"/>
    <path id="_Path_6" data-name="&lt;Path&gt;" class="cls-3" d="M353.584,743.912q33.2,249.61,21.858,287.228-15.628,51.825,5.206,117.05,75.84,1.515,120.524-15.47-2.365-102.51-.131-177.848c2.234-75.343-24.576-217.418-29.045-245.4q-4.468-27.984-8.937-69.759h-91.6Z" transform="translate(-86.5 -7.063)"/>
    <g id="_Group_2" data-name="&lt;Group&gt;">
      <path id="_Path_7" data-name="&lt;Path&gt;" class="cls-2" d="M642.961,1418.95c-1.89-8.26-102.38-72.29-112.125-73.04s-27.86,11.25-29.393,13.9q-1.534,2.64,2.754,12.19,2.16,10.215-15.133,9.57c-19.068-.71-19.487-33.45-24.274-31.23s-13.148,10.81-13.569,14.46,4.864,20.28,2.842,24.5-7.409,37.69-3.446,43.29,43.465,8.05,52.114,8.31,136.933,9.37,140.977.93Q647.754,1433.37,642.961,1418.95Z" transform="translate(-86.5 -7.063)"/>
      <path id="_Path_8" data-name="&lt;Path&gt;" class="cls-4" d="M645.116,1429.37a381.01,381.01,0,0,1-53.573,4.88c-24.737.35-103.47-8.58-107.739-10.88s-25.362-38.05-29.741-34.07-12.333,43.03-9.307,45.76,23.3,6.98,35.045,7.02,162.888,8,165.843.23Q648.6,1434.54,645.116,1429.37Z" transform="translate(-86.5 -7.063)"/>
      <g id="_Group_3" data-name="&lt;Group&gt;">
        <path id="_Path_9" data-name="&lt;Path&gt;" class="cls-5" d="M476.562,1417.46l-2.339-.6c2.182-8.6,4.783-23.42,2.475-26.53-3.668-4.96-5.541-24.38-5.618-25.2l2.4-.23c0.514,5.43,2.442,20.32,5.157,23.99C482.379,1393.95,477.168,1415.07,476.562,1417.46Z" transform="translate(-86.5 -7.063)"/>
      </g>
      <g id="_Group_4" data-name="&lt;Group&gt;">
        <path id="_Path_10" data-name="&lt;Path&gt;" class="cls-5" d="M584.793,1410.07l-0.845-.36c-0.154-.06-15.512-6.5-30.289-13.66-14.73-7.13-49.606-22.79-49.955-22.95l0.987-2.2c0.351,0.16,35.258,15.83,50.02,22.98,12.765,6.19,25.968,11.83,29.344,13.26,2.8-3.27,14.839-16.19,27.95-12.14l-0.711,2.3c-13.061-4.02-25.807,11.88-25.934,12.05Z" transform="translate(-86.5 -7.063)"/>
      </g>
      <g id="_Group_5" data-name="&lt;Group&gt;">
        <path id="_Path_11" data-name="&lt;Path&gt;" class="cls-5" d="M594.64,1424.99c-17.456,0-49.47-18.73-69.41-30.39-7.841-4.58-14.034-8.21-16.186-8.84a45.439,45.439,0,0,0-10.793-1.42c-4.794-.23-9.752-0.48-15.263-2.74-6.16-2.52-8.691-8.6-11.62-15.64a80.463,80.463,0,0,0-7.576-14.94l2-1.36a81.967,81.967,0,0,1,7.808,15.38c2.835,6.81,5.074,12.19,10.307,14.33,5.128,2.1,9.877,2.34,14.469,2.56a48.071,48.071,0,0,1,11.352,1.52c2.435,0.71,8.428,4.22,16.725,9.07,21.834,12.77,58.386,34.15,72.745,29.43,20.346-6.68,43.669-4.22,43.9-4.19l-0.264,2.39c-0.226-.02-23.043-2.42-42.884,4.09A17.1,17.1,0,0,1,594.64,1424.99Z" transform="translate(-86.5 -7.063)"/>
      </g>
      <g id="_Group_6" data-name="&lt;Group&gt;">
        <path id="_Compound_Path_" data-name="&lt;Compound Path&gt;" class="cls-5" d="M565.23,1401.65a4.694,4.694,0,0,1-.643-0.04l-0.968-.11-0.091-.98c-0.4-4.32,3.279-7.29,6.537-9.06l0.018-.18c0.042-.46.083-0.91,0.134-1.36a39.154,39.154,0,0,1,3-10.96,14.7,14.7,0,0,1-1.471.01c-5.585-.37-12.895-0.43-18.831,2.12a19.727,19.727,0,0,1-1.624,6.36,6.307,6.307,0,0,1-3.653,3.3,3.3,3.3,0,0,1-2.76-.43,3.136,3.136,0,0,1-1.38-2.31,6.289,6.289,0,0,1,1.832-4.59,19.062,19.062,0,0,1,5.324-3.94c0.029-.32.059-0.65,0.087-0.98a42.059,42.059,0,0,1,.683-5.24,36.658,36.658,0,0,1,1.861-5.9,62.128,62.128,0,0,1-12.093,1.39,36.936,36.936,0,0,0-7.05.67c-0.051.22-.1,0.45-0.152,0.67-0.351,1.56-.712,3.16-1.181,4.73-0.583,1.95-1.641,4.71-4.07,6.12a5.743,5.743,0,0,1-4.958.28,3.946,3.946,0,0,1-2.409-2.67,5.2,5.2,0,0,1,.51-3.49c1.98-4.3,6.129-6.51,10.246-7.62a37.866,37.866,0,0,1,1.43-4.78,26.35,26.35,0,0,1,1.806-3.68,32.066,32.066,0,0,0-22.589,16.25l-2.139-1.11a34.568,34.568,0,0,1,26.488-17.83c1.863-2.55,4.153-4.81,6.439-5.58l0.774-.27,0.53,0.63c1.417,1.66,1.288,3.03.931,3.88-1.26,3.03-7.026,3.61-7.345,3.64a26.551,26.551,0,0,0-2.646,4.94,30.507,30.507,0,0,0-1.049,3.33,38.42,38.42,0,0,1,6.449-.52,54.862,54.862,0,0,0,13.4-1.81c1.818-3.37,4.328-6.12,7.445-5.59l0.638,0.11,0.261,0.58a3.27,3.27,0,0,1-.272,3.25c-1.042,1.59-3.466,2.8-6.363,3.69a33.534,33.534,0,0,0-2.537,7.19,38.243,38.243,0,0,0-.61,4.63c6.141-2.26,13.235-2.2,18.737-1.83a13.921,13.921,0,0,0,2.569-.11c1.775-3.13,4.091-5.68,6.961-6.6l0.792-.26,0.52,0.65c1.59,1.99,1.312,3.58.8,4.56-1.166,2.24-4.569,3.35-7.5,3.84a36.384,36.384,0,0,0-3.437,11.54,12.484,12.484,0,0,0,1.979-.78c6.829-2.96,15.329-6.64,22.515-7.27l0.212,2.4c-6.8.6-15.1,4.19-21.769,7.08l-2.353,1.02c-0.257.11-.549,0.24-0.868,0.39a14.275,14.275,0,0,1-1.045,4.25C570.308,1399.46,568.037,1401.65,565.23,1401.65Zm4.417-7.11c-1.7,1.15-3.309,2.71-3.664,4.6a5.1,5.1,0,0,0,3.1-2.86A8.888,8.888,0,0,0,569.647,1394.54Zm-19.35-12.09a16.749,16.749,0,0,0-3.208,2.62,3.985,3.985,0,0,0-1.188,2.67,0.726,0.726,0,0,0,.333.58,0.87,0.87,0,0,0,.776.1,3.941,3.941,0,0,0,2.11-2.01A14.669,14.669,0,0,0,550.3,1382.45Zm-18.782-12.32c-3.111,1.04-6.011,2.84-7.438,5.94a2.983,2.983,0,0,0-.362,1.9,1.613,1.613,0,0,0,1.009,1.03,3.352,3.352,0,0,0,2.808-.14c1.671-.98,2.466-3.04,2.971-4.73C530.893,1372.82,531.212,1371.46,531.515,1370.13Zm49.838,2.35a10.346,10.346,0,0,0-3.591,3.31c1.712-.49,3.184-1.21,3.653-2.1A1.2,1.2,0,0,0,581.353,1372.48Zm-20.572-11.12a5.046,5.046,0,0,0-2.414,1.86,5.569,5.569,0,0,0,2.3-1.66A1.926,1.926,0,0,0,560.781,1361.36Zm-17.262-8a11.354,11.354,0,0,0-2.822,2.35c1.347-.4,2.6-1.01,2.879-1.68A0.837,0.837,0,0,0,543.519,1353.36Z" transform="translate(-86.5 -7.063)"/>
      </g>
    </g>
    <g id="_Group_7" data-name="&lt;Group&gt;">
      <path id="_Path_12" data-name="&lt;Path&gt;" class="cls-2" d="M292.484,1355.59c1.214,0.47,1.9,2.05,2.8,4.38a98.4,98.4,0,0,1,3.249,11.12c1.852,7.23,2.954,15.06,5.989,21.95,3.351,7.61,13.854,43.48,9.72,48.66s-18.1,20.99-54.4,20.99-51.386-11.7-54.179-21.07a8.747,8.747,0,0,1-.266-1.72c-1.467-15.89,5.434-34.66,9.548-49.81a240.461,240.461,0,0,1,7.8-24.91c2.147-5.47,4.855-10.21,11.44-11.4a11.059,11.059,0,0,0,2.693-.64c1.8-.84,2.613-2.85,3.971-4.27,2.677-2.8,7.114-3.02,11.065-2.99,9.252,0.08,18.38,1.65,27.4,3.57,6.954,1.49,5.479,2.8,8.791,7.27C289.146,1356.03,291.169,1355.09,292.484,1355.59Z" transform="translate(-86.5 -7.063)"/>
      <path id="_Path_13" data-name="&lt;Path&gt;" class="cls-4" d="M314.268,1428.31q-10.194,13.485-40.819,15.99c-30.626,2.51-59.663-4.4-67.054-15.99q-4.788,18.105-3.92,19.97c0.867,1.87,24.3,16.5,53.363,17.76s62.66-16.65,61.951-22.16A118.963,118.963,0,0,0,314.268,1428.31Z" transform="translate(-86.5 -7.063)"/>
      <g id="_Group_8" data-name="&lt;Group&gt;">
        <path id="_Path_14" data-name="&lt;Path&gt;" class="cls-5" d="M282.879,1401.39a1.649,1.649,0,0,1-.65-0.14c-0.453-.21-0.925-0.47-1.45-0.75-2.855-1.53-7.634-4.08-20.754-4.74a49.321,49.321,0,0,0-19.153,2.99c-2.707.89-4.342,1.43-5.535,0.8a2.1,2.1,0,0,1-1.045-1.31c-0.9-3.03-2.857-41.02,1.7-45.92l1.766,1.64c-3.382,3.64-2.162,39.38-1.189,43.46a20.317,20.317,0,0,0,3.549-.97,52.309,52.309,0,0,1,20.029-3.1c13.661,0.69,18.739,3.4,21.773,5.03,0.229,0.12.447,0.24,0.658,0.34,1.536-3.69,3.369-23.69,4.323-42.06l2.41,0.12c-0.822,15.81-2.644,42.59-5.625,44.38A1.577,1.577,0,0,1,282.879,1401.39Z" transform="translate(-86.5 -7.063)"/>
      </g>
      <g id="_Group_9" data-name="&lt;Group&gt;">
        <path id="_Path_15" data-name="&lt;Path&gt;" class="cls-5" d="M229.488,1426.14a5.679,5.679,0,0,1-3.939-1.43c-4.817-4.15-11.964-21.97-13.506-28.25l2.343-.57c1.6,6.51,8.652,23.47,12.737,26.99,1.508,1.3,3.128.99,7.583-.12a95.965,95.965,0,0,1,25.379-3.07c13.8,0,20.5,1.33,24.929,2.22,3.279,0.65,4.925.98,7.223,0.33,2.663-.75,4.43-15.56,5.38-23.52,1.421-11.9,1.9-15.37,4.256-15.08l-0.259,2.4a0.722,0.722,0,0,0,.632-0.2c-0.777.96-1.585,7.73-2.234,13.17-1.757,14.72-3.2,24.45-7.12,25.55-2.851.81-4.92,0.39-8.351-.29-4.337-.86-10.892-2.17-24.456-2.17a93.306,93.306,0,0,0-24.8,3.01A26.551,26.551,0,0,1,229.488,1426.14Z" transform="translate(-86.5 -7.063)"/>
      </g>
      <g id="_Group_10" data-name="&lt;Group&gt;">
        <path id="_Compound_Path_2" data-name="&lt;Compound Path&gt;" class="cls-5" d="M235.574,1393.5l-1.126-2.14a89.622,89.622,0,0,1,30.4-9.55,71.415,71.415,0,0,0-16.455-2.41c-5.132,2.22-10.44,4.42-15.89,2.89l-1.675-.46,1.021-1.41c1.639-2.25,4.541-2.83,7.163-3.09a73.689,73.689,0,0,1,8.911-.35q1.1-.48,2.178-0.93a67.367,67.367,0,0,1,18.9-4.75c-8.637-1.58-17.7-1.24-26.173-.74-0.122.06-.246,0.13-0.369,0.19l-0.671.36c-2.442,1.31-4.891,2.57-7.9,2.63l-1.525-.02,0.371-1.48c0.587-2.35,2.967-3.66,7.071-3.92,0.779-.04,1.569-0.09,2.37-0.14a64.4,64.4,0,0,1,15.188-5.31c-0.873.12-1.975,0.27-3.16,0.44-15.711,2.2-16.734,1.97-17.42.97-1.3-1.89-.461-4.33.989-5.67a10.659,10.659,0,0,1,4.742-2.17,80.114,80.114,0,0,1,45.77,2.06l-0.8,2.28a77.583,77.583,0,0,0-44.378-2,8.5,8.5,0,0,0-3.7,1.61,2.342,2.342,0,0,0-.788,2.21c2.12,0.16,10.9-1.07,15.25-1.68,2.552-.36,4.4-0.62,5.076-0.66a48.884,48.884,0,0,1,11.295.43c1.326-.18,2.661-0.35,4-0.53a31.932,31.932,0,0,1,7.713-.35,11.336,11.336,0,0,1,7.327,3.43l0.976,1.11-1.271.73c-2.874,1.68-6.682,1.65-11.638-.07a45.691,45.691,0,0,0-7.122-1.89c-7.36,1-14.447,2.18-21.274,4.72,9.2-.32,19.183,0,28.267,3.12a67,67,0,0,1,11.911,1.28l1.481,0.3L290,1373.92c-0.875,1.95-3.208,2.65-5,2.48a12.665,12.665,0,0,1-4.143-1.37l-0.454-.21c-1.178-.54-2.376-1.03-3.59-1.46a65.3,65.3,0,0,0-23.31,3.95,73.141,73.141,0,0,1,17.6,3.93c1.375-.08,2.751-0.13,4.129-0.14,3.537-.04,7.51.26,10.307,2.71,1.132,0.99,1.451,2.31.8,3.28a2.617,2.617,0,0,1-2.7.92,34.639,34.639,0,0,1-9.043-2.81c-0.646-.27-1.291-0.54-1.938-0.8-0.63-.25-1.264-0.49-1.9-0.73A87.339,87.339,0,0,0,235.574,1393.5Zm41.287-9.97a27.794,27.794,0,0,0,7.057,2.09C282.132,1384.04,279.467,1383.61,276.861,1383.53Zm-40.91-3.16a17.158,17.158,0,0,0,5.305-.81c-0.67.04-1.338,0.1-2,.17A14.249,14.249,0,0,0,235.951,1380.37Zm40.852-18.08c0.442,0.14.888,0.29,1.338,0.44,3.282,1.14,5.911,1.46,7.961.94a10.461,10.461,0,0,0-4.416-1.47A22.836,22.836,0,0,0,276.8,1362.29Z" transform="translate(-86.5 -7.063)"/>
      </g>
    </g>
    <g id="_Group_11" data-name="&lt;Group&gt;">
      <path id="_Path_16" data-name="&lt;Path&gt;" class="cls-6" d="M274.48,1136.61c-43.857,0-80.752-14.3-81.261-14.5a1.209,1.209,0,0,1,.886-2.25c0.7,0.28,70.329,27.26,131.576,6.52a1.2,1.2,0,1,1,.774,2.28C309.219,1134.5,291.332,1136.61,274.48,1136.61Z" transform="translate(-86.5 -7.063)"/>
    </g>
    <g id="_Group_12" data-name="&lt;Group&gt;">
      <path id="_Path_17" data-name="&lt;Path&gt;" class="cls-6" d="M408.457,1129.85c-17.178,0-29.776-1.02-31.106-1.13a1.207,1.207,0,0,1-1.1-1.3,1.239,1.239,0,0,1,1.3-1.1c0.858,0.07,86.4,6.99,122.569-15.93a1.2,1.2,0,1,1,1.29,2.03C478.385,1127.02,437.072,1129.85,408.457,1129.85Z" transform="translate(-86.5 -7.063)"/>
    </g>
    <g id="_Group_13" data-name="&lt;Group&gt;">
      <path id="_Path_18" data-name="&lt;Path&gt;" class="cls-6" d="M361.122,805.7a1.222,1.222,0,0,1-1.205-1.281c0.117-1.835,2.985-45.018,14.938-55.089a8.336,8.336,0,0,1,6.444-2.16,10.13,10.13,0,0,0,7.982-2.823c19.916-17.368,22.675-103.8,22.7-104.673a1.306,1.306,0,0,1,1.241-1.171,1.208,1.208,0,0,1,1.171,1.241c-0.106,3.6-2.822,88.365-23.527,106.42a12.545,12.545,0,0,1-9.826,3.4,6,6,0,0,0-4.631,1.606c-11.175,9.414-14.056,52.957-14.084,53.4A1.206,1.206,0,0,1,361.122,805.7Z" transform="translate(-86.5 -7.063)"/>
    </g>
    <g id="_Group_14" data-name="&lt;Group&gt;">
      <path id="_Path_19" data-name="&lt;Path&gt;" class="cls-6" d="M371.457,749.423a1.189,1.189,0,0,1-.4-0.069,1.206,1.206,0,0,1-.739-1.536c0.17-.483,16.986-49.026,20.406-108.177a1.2,1.2,0,1,1,2.406.138c-3.439,59.506-20.365,108.351-20.536,108.837A1.208,1.208,0,0,1,371.457,749.423Z" transform="translate(-86.5 -7.063)"/>
    </g>
    <g id="_Group_15" data-name="&lt;Group&gt;">
      <path id="_Path_20" data-name="&lt;Path&gt;" class="cls-6" d="M214.693,1128.73a1.209,1.209,0,0,1-1.2-1.16c-1.948-45.51,7.134-100.09,13.871-110.25,4.7-7.09,2.09-138.278.69-208.757-0.5-25.051-.891-44.839-0.891-53.686,0-35.806,42.173-112.5,43.969-115.75a1.206,1.206,0,0,1,2.111,1.166c-0.437.79-43.668,79.4-43.668,114.584,0,8.822.393,28.6,0.89,53.639,2.036,102.421,3.628,203.014-1.092,210.134-6.569,9.91-15.4,63.73-13.471,108.82a1.219,1.219,0,0,1-1.153,1.26h-0.053Z" transform="translate(-86.5 -7.063)"/>
    </g>
    <g id="_Group_16" data-name="&lt;Group&gt;">
      <path id="_Path_21" data-name="&lt;Path&gt;" class="cls-6" d="M350.716,759.376a1.19,1.19,0,0,1-.62-0.173,74.584,74.584,0,0,0-24.45-9.344,1.206,1.206,0,1,1,.454-2.369,76.99,76.99,0,0,1,25.239,9.647A1.206,1.206,0,0,1,350.716,759.376Z" transform="translate(-86.5 -7.063)"/>
    </g>
    <g id="_Group_17" data-name="&lt;Group&gt;">
      <path id="_Path_22" data-name="&lt;Path&gt;" class="cls-6" d="M384.6,785.77a1.206,1.206,0,0,1-.76-2.143,101.731,101.731,0,0,1,28.966-16.46,1.206,1.206,0,0,1,.834,2.264A99.254,99.254,0,0,0,385.357,785.5,1.2,1.2,0,0,1,384.6,785.77Z" transform="translate(-86.5 -7.063)"/>
    </g>
    <g id="_Group_18" data-name="&lt;Group&gt;">
      <path id="_Path_23" data-name="&lt;Path&gt;" class="cls-6" d="M377.105,1031.87a1.205,1.205,0,0,1-.828-2.08,205.643,205.643,0,0,0,19.994-21.81,1.207,1.207,0,0,1,1.892,1.5,208.377,208.377,0,0,1-20.23,22.06A1.2,1.2,0,0,1,377.105,1031.87Z" transform="translate(-86.5 -7.063)"/>
    </g>
    <g id="_Group_19" data-name="&lt;Group&gt;">
      <path id="_Path_24" data-name="&lt;Path&gt;" class="cls-6" d="M308.78,1083.03a1.212,1.212,0,0,1-1.133-.8c-2.682-7.34-5.727-14.67-9.054-21.76a1.207,1.207,0,1,1,2.183-1.03c3.358,7.16,6.432,14.55,9.136,21.97a1.213,1.213,0,0,1-.719,1.55A1.49,1.49,0,0,1,308.78,1083.03Z" transform="translate(-86.5 -7.063)"/>
    </g>
    <g id="_Group_20" data-name="&lt;Group&gt;">
      <path id="_Path_25" data-name="&lt;Path&gt;" class="cls-6" d="M475.625,1092.99a1.217,1.217,0,0,1-.966-0.48,74.553,74.553,0,0,1-12.693-26.92,1.2,1.2,0,0,1,.889-1.45,1.218,1.218,0,0,1,1.454.89,72.139,72.139,0,0,0,12.281,26.03A1.207,1.207,0,0,1,475.625,1092.99Z" transform="translate(-86.5 -7.063)"/>
    </g>
    <g id="_Group_21" data-name="&lt;Group&gt;">
      <path id="_Path_26" data-name="&lt;Path&gt;" class="cls-6" d="M213.657,1018.74a1.2,1.2,0,0,1-1.015-1.85,53.667,53.667,0,0,1,11.093-12.54,1.2,1.2,0,1,1,1.538,1.85,51.7,51.7,0,0,0-10.6,11.98A1.183,1.183,0,0,1,213.657,1018.74Z" transform="translate(-86.5 -7.063)"/>
    </g>
    <g id="_Group_22" data-name="&lt;Group&gt;">
      <path id="_Path_27" data-name="&lt;Path&gt;" class="cls-6" d="M235.74,726.324a1.206,1.206,0,0,1-.1-2.407c0.283-.025,28.445-2.735,49.976-26.327,18.958-20.774,33.175-49.451,36.6-56.674h-9.37c-2.407,4.793-17.3,33.83-32.417,49.543-16.528,17.183-41.007,23.932-42.04,24.212a1.207,1.207,0,1,1-.629-2.33c0.247-.066,24.877-6.864,40.931-23.554,16.169-16.807,32.166-49.282,32.325-49.607a1.208,1.208,0,0,1,1.083-.676h12.01a1.206,1.206,0,0,1,1.1,1.7c-0.156.346-15.814,34.9-37.817,59.01-22.186,24.313-51.256,27.08-51.547,27.105C235.81,726.323,235.774,726.324,235.74,726.324Z" transform="translate(-86.5 -7.063)"/>
    </g>
  </g>
  <path id="_Path_28" data-name="&lt;Path&gt;" class="cls-7" d="M478.707,654.042q0,16.152-68.722,42.412-68.7,26.261-185.992-19.814,18.014-11.713,13.406-64.584c-3.489-40.13-8.434-74.19-17.207-110.181-2.785-11.462-5.961-23.075-9.605-35.113-15.072-50.063-38.526-132.4-41.884-165.11s106.649-71.581,161.419-73.838c110.033-4.54,124.793,44.87,129.817,86.429,2.68,22.122,1.171,63.029-1.276,105.943-2.134,37.722-4.972,76.9-6.326,106.319Q449.423,589.459,478.707,654.042Z" transform="translate(-86.5 -7.063)"/>
  <path id="_Path_29" data-name="&lt;Path&gt;" class="cls-2" d="M458.663,420.186c-25.085-106.519-19.168-156.17-117.3-145.445Q217.5,288.279,220.192,501.875c-2.785-11.462-5.961-23.075-9.605-35.113-15.072-50.063-38.526-132.4-41.884-165.11s106.649-71.581,161.419-73.838c110.033-4.54,124.793,44.87,129.817,86.429C462.619,336.365,461.11,377.272,458.663,420.186Z" transform="translate(-86.5 -7.063)"/>
  <path id="_Path_30" data-name="&lt;Path&gt;" class="cls-1" d="M139.1,385.5Q89.95,531.876,86.6,540.486c-3.351,8.611,90.484,213.113,94.953,210.96q4.469-2.153,28.034-16.258-15.746-151.63-22.449-166.708t-6.7-37.681l14.824-104.4Z" transform="translate(-86.5 -7.063)"/>
  <path id="_Path_31" data-name="&lt;Path&gt;" class="cls-2" d="M221.663,255.866c-4.14,1.88-53.811,15.539-76.564,57.516q-22.753,41.976-54.032,151.2,18.175,43.906,104.192,48.211a271.267,271.267,0,0,0,23.822-48.211Q237.882,415.778,221.663,255.866Z" transform="translate(-86.5 -7.063)"/>
  <path id="_Path_32" data-name="&lt;Path&gt;" class="cls-1" d="M242.269,801.65a60.851,60.851,0,0,0,10.69,15.233c1.108,1.217,6.347,5.207,6.378,6.737,0.049,2.383-4.669,3.012-6.382,2.766a1.758,1.758,0,0,0-.8,0c-0.769.255-.682,1.339-0.821,2.137-0.385,2.2-3.3,2.89-5.468,2.372s-4.25-1.745-6.469-1.51c0.637,1.889,2.8,3.252,2.65,5.24-0.119,1.614-1.853,2.718-3.471,2.731a9.835,9.835,0,0,1-4.555-1.525c0.046,1.687-2.258,2.445-3.863,1.923-17.343-5.643-32.209-16.335-41.034-32.839-4.814-9-6.058-18.646-7.9-28.577q-1.681-9.069-3-18.2-0.661-4.563-1.232-9.137c-0.221-1.773-1.543-6.01-.888-7.63-0.053.129-.1,0.258-0.157,0.388,7.989-8.358,16.725-11.779,27.385-16.638,3.866,1.383,5.572,5.175,8.872,7.558,9.837,7.1,21.3,11.5,30.682,19.2A63.242,63.242,0,0,1,263.947,783.8c0.424,0.351-.611,1.066-1.127,1.272a2.388,2.388,0,0,1-1.632-.135c-10.7-3.686-18.043-19.208-29.5-19.982,1.27,7.909,4.222,16.177,6.371,24.064A80.46,80.46,0,0,0,242.269,801.65Z" transform="translate(-86.5 -7.063)"/>
  <path id="_Path_33" data-name="&lt;Path&gt;" class="cls-1" d="M598.753,814.9a29.337,29.337,0,0,1-3.128-1.38A65.879,65.879,0,0,1,577.1,801.172c-10.832-10.336-17.723-24.232-20.919-38.487a466.888,466.888,0,0,1-8.609-51.973c-0.052.129-.1,0.259-0.157,0.388,7.989-8.358,5.785-16.721,16.445-21.581,3.866,1.383,16.512,10.119,19.812,12.5,9.837,7.1,21.3,11.5,30.682,19.2A65.258,65.258,0,0,1,630.394,740.6a63.041,63.041,0,0,1,5.535,13.887c0.271,1.062.38,2.446-.567,3a2.257,2.257,0,0,1-1.2.225c-2.925-.069-5.548-1.769-7.834-3.6-5.278-4.219-11.818-9.465-18.875-9.383a6.533,6.533,0,0,0,.276,3.95c2.582,9.077,5.253,18.347,10.684,26.066,3.632,5.164,8.432,9.525,11.347,15.126,1.242,2.387,1,5.859-2.546,5.366a9.175,9.175,0,0,1-3.807-1.886,7.68,7.68,0,0,0-3.875-1.7c1.521,0.069,2.772,5.47,2.677,6.616-0.233,2.817-2.193,2.025-3.919,3.205-1.608,1.1-1.812,2.628-3.319,3.933-2.771,2.4-7.334,1.675-10.346.177-4.135-2.055-7.545-5.3-11.62-7.425a16.064,16.064,0,0,1-7.986-9.9c2.191,8.061,8.992,13.847,14.886,19.767a9.818,9.818,0,0,1,2.24,2.937,3.518,3.518,0,0,1-.275,3.527C601.166,815.374,599.966,815.286,598.753,814.9Z" transform="translate(-86.5 -7.063)"/>
  <g id="_Group_23" data-name="&lt;Group&gt;">
    <path id="_Path_34" data-name="&lt;Path&gt;" class="cls-8" d="M280.881,32.492q26.5-24.55,48.65-19.2c22.153,5.347,51.021,41.494,66.409,45.5L411.327,62.8q-17.1,25.272-34.548,25.332-0.18,27.028-9.9,44.994c-9.719,17.966-67.544,63.9-70.415,58.111-6.193-12.48-2.605-15.526-6.982-17.259s-38.367-25.854-47.021-78.424C238,68.458,240.137,33.483,280.881,32.492Z" transform="translate(-86.5 -7.063)"/>
    <path id="_Path_35" data-name="&lt;Path&gt;" class="cls-1" d="M318.426,65.026q37.254,22.492,48.535,21.45c11.282-1.042,4.911,90.2-15.125,97.417-7.6,2.735-41.158-12.048-47.907-23.207q-6.75-11.16-7.411-26.686-10.855-1.392-12.685-17.453c-1.831-16.061,3.441-20.476,10.724-11.041Q301.839,114.941,318.426,65.026Z" transform="translate(-86.5 -7.063)"/>
    <path id="_Path_36" data-name="&lt;Path&gt;" class="cls-1" d="M335.759,146.391q16.37,72.515,18.357,74.641a109.025,109.025,0,0,0,9.3,7.976q13.31,26.859-37.641,25.626c-30.709-.742-53.66-15.273-51.533-17.26s11.788-9.3,12.593-14.337q0.805-5.042,8.157-91.3Z" transform="translate(-86.5 -7.063)"/>
    <g id="_Group_24" data-name="&lt;Group&gt;">
      <path id="_Path_37" data-name="&lt;Path&gt;" class="cls-8" d="M286.051,167.891c-8.908-.071-17.981-4.11-25.561-11.375-7.415-7.108-12.305-16.121-15.735-23.178A120.1,120.1,0,0,1,232.5,85.365c-0.524-15.507.587-32.993,12.8-45.1,8.952-8.877,23.788-14.468,37.157-7.426,5.623-8.811,14.737-16.553,25.18-21.354A46.3,46.3,0,0,1,340.88,9.132C351.792,12.678,359.32,20.264,366.6,27.6A114.7,114.7,0,0,0,379.94,39.693a106.938,106.938,0,0,0,45.88,19.343,1.2,1.2,0,0,1,.918,1.663,48.087,48.087,0,0,1-69.213,22.268c-7.431-4.515-13.525-11.046-18.5-16.84a1.206,1.206,0,0,1,1.83-1.571c4.856,5.649,10.784,12.01,17.928,16.35a45.675,45.675,0,0,0,65.115-19.75,109.493,109.493,0,0,1-45.378-19.517A116.668,116.668,0,0,1,364.888,29.3c-7.4-7.462-14.4-14.509-24.754-17.874a43.844,43.844,0,0,0-31.487,2.246c-10.4,4.784-19.419,12.582-24.736,21.4a1.2,1.2,0,0,1-1.637.42c-12.533-7.255-26.748-1.973-35.275,6.485-11.551,11.457-12.592,28.324-12.087,43.31a117.682,117.682,0,0,0,12.012,47c3.343,6.877,8.1,15.648,15.236,22.492s15.621,10.639,23.9,10.7A1.206,1.206,0,0,1,286.051,167.891Z" transform="translate(-86.5 -7.063)"/>
    </g>
    <path id="_Path_38" data-name="&lt;Path&gt;" class="cls-8" d="M357.1,114.119c-0.121,3.965,1.486,7.23,3.591,7.3s3.908-3.1,4.03-7.061-1.486-7.23-3.591-7.295S357.217,110.155,357.1,114.119Z" transform="translate(-86.5 -7.063)"/>
    <path id="_Path_39" data-name="&lt;Path&gt;" class="cls-8" d="M323.978,112.4c-0.121,3.964,1.486,7.23,3.591,7.294s3.908-3.1,4.03-7.061-1.487-7.23-3.591-7.3S324.1,108.435,323.978,112.4Z" transform="translate(-86.5 -7.063)"/>
    <path id="_Path_40" data-name="&lt;Path&gt;" class="cls-9" d="M344.2,183.51l0.86,3.681q-7.872,12.478-18.942,8.834c-7.018-2.311-32.431-34.671-32.61-39.953q-0.179-5.283,1.372-22.51,6.221,24.892,11.213,29.818Q315.475,172.638,344.2,183.51Z" transform="translate(-86.5 -7.063)"/>
    <g id="_Group_25" data-name="&lt;Group&gt;">
      <path id="_Path_41" data-name="&lt;Path&gt;" class="cls-8" d="M294.989,124.369a1.207,1.207,0,0,1-1.173-.932,15.82,15.82,0,0,0-5.639-8.771,1.205,1.205,0,1,1,1.474-1.907,18.016,18.016,0,0,1,6.514,10.13,1.2,1.2,0,0,1-.9,1.448A1.244,1.244,0,0,1,294.989,124.369Z" transform="translate(-86.5 -7.063)"/>
    </g>
    <g id="_Group_26" data-name="&lt;Group&gt;">
      <path id="_Path_42" data-name="&lt;Path&gt;" class="cls-8" d="M337.188,100.46a1.211,1.211,0,0,1-.52-0.117A18.658,18.658,0,0,0,322,99.836a1.206,1.206,0,1,1-.888-2.242,21.123,21.123,0,0,1,16.6.572A1.206,1.206,0,0,1,337.188,100.46Z" transform="translate(-86.5 -7.063)"/>
    </g>
    <g id="_Group_27" data-name="&lt;Group&gt;">
      <path id="_Path_43" data-name="&lt;Path&gt;" class="cls-8" d="M347.5,157.28a32.932,32.932,0,0,1-3.292-.169,62.045,62.045,0,0,1-12.611-2.954,1.206,1.206,0,1,1,.737-2.3,58.516,58.516,0,0,0,12.114,2.85,23.434,23.434,0,0,0,11.869-1.556,1.205,1.205,0,0,1,.97,2.207A24.111,24.111,0,0,1,347.5,157.28Z" transform="translate(-86.5 -7.063)"/>
    </g>
    <g id="_Group_28" data-name="&lt;Group&gt;">
      <path id="_Path_44" data-name="&lt;Path&gt;" class="cls-8" d="M345.944,166.075a21.943,21.943,0,0,1-3.865-.343,1.205,1.205,0,0,1-.975-1.4,1.192,1.192,0,0,1,1.4-.975,19.6,19.6,0,0,0,6.721.029,1.206,1.206,0,1,1,.4,2.378A22.164,22.164,0,0,1,345.944,166.075Z" transform="translate(-86.5 -7.063)"/>
    </g>
    <g id="_Group_29" data-name="&lt;Group&gt;">
      <path id="_Path_45" data-name="&lt;Path&gt;" class="cls-8" d="M368.407,102.556a1.212,1.212,0,0,1-.381-0.063,22.938,22.938,0,0,0-12.335-.559,1.206,1.206,0,1,1-.551-2.349,24.994,24.994,0,0,1,13.649.621A1.206,1.206,0,0,1,368.407,102.556Z" transform="translate(-86.5 -7.063)"/>
    </g>
    <g id="_Group_30" data-name="&lt;Group&gt;">
      <path id="_Path_46" data-name="&lt;Path&gt;" class="cls-8" d="M349.727,142.135a10.272,10.272,0,0,1-4.658-1.084,1.206,1.206,0,0,1,1.092-2.15,8.476,8.476,0,0,0,10.146-2.187,2.263,2.263,0,0,0,.538-1.007,3.274,3.274,0,0,0-.579-1.572c-6.015-10.848-8.429-20.967-7.177-30.073a2.706,2.706,0,0,1,1.511-2.332,1.206,1.206,0,0,1,.981,2.2,2.035,2.035,0,0,0-.1.46c-1.179,8.579,1.142,18.193,6.9,28.578a5.108,5.108,0,0,1,.868,2.991,4.438,4.438,0,0,1-1.055,2.265A10.921,10.921,0,0,1,349.727,142.135Z" transform="translate(-86.5 -7.063)"/>
    </g>
  </g>
  <path id="_Path_47" data-name="&lt;Path&gt;" class="cls-7" d="M267.243,239.5l7.244-4.885q23.836,24.14,66.463,17.242t14.906-28.817l12.526,5.608q18.078,19.84-22.237,29.625Q308.687,267.363,267.243,239.5Z" transform="translate(-86.5 -7.063)"/>
  <g id="_Group_31" data-name="&lt;Group&gt;">
    <path id="_Path_48" data-name="&lt;Path&gt;" class="cls-5" d="M321.92,526.827l-2.094-1.194a287.673,287.673,0,0,1,90.987-96.794l1.33,2.012A285.27,285.27,0,0,0,321.92,526.827Z" transform="translate(-86.5 -7.063)"/>
  </g>
  <g id="_Group_32" data-name="&lt;Group&gt;">
    <path id="_Path_49" data-name="&lt;Path&gt;" class="cls-5" d="M318.133,599.715L316.97,597.6c41.474-22.833,67.93-64.131,91.271-100.569l2.03,1.3C386.775,535.014,360.144,576.587,318.133,599.715Z" transform="translate(-86.5 -7.063)"/>
  </g>
  <g id="_Group_33" data-name="&lt;Group&gt;">
    <path id="_Path_50" data-name="&lt;Path&gt;" class="cls-5" d="M322.881,620.616l-1.032-2.181a106.051,106.051,0,0,0,34.515-26.118l1.824,1.58A108.492,108.492,0,0,1,322.881,620.616Z" transform="translate(-86.5 -7.063)"/>
  </g>
  <g id="_Group_34" data-name="&lt;Group&gt;">
    <path id="_Path_51" data-name="&lt;Path&gt;" class="cls-5" d="M396.57,664.824l-1.436-1.936c24.483-18.172,39.483-46.79,40.125-76.552l2.412,0.052C437.013,616.89,421.648,646.212,396.57,664.824Z" transform="translate(-86.5 -7.063)"/>
  </g>
  <g id="_Group_35" data-name="&lt;Group&gt;">
    <path id="_Path_52" data-name="&lt;Path&gt;" class="cls-10" d="M332.019,261.591q-3.618,0-7.575-.294c-30.485-2.313-57.612-20.62-57.882-20.8l1.359-1.993c0.267,0.182,26.879,18.128,56.7,20.391,28.582,2.168,42.834-8.282,46.765-14.8,2.493-4.13-2.031-12.043-3.986-14.743l1.955-1.413c0.325,0.448,7.917,11.074,4.1,17.4C369.613,251.707,356.757,261.591,332.019,261.591Z" transform="translate(-86.5 -7.063)"/>
  </g>
  <g id="_Group_36" data-name="&lt;Group&gt;">
    <path id="_Path_53" data-name="&lt;Path&gt;" class="cls-10" d="M225.873,332.517c-13.03-40.42-43.311-57.145-43.616-57.31l1.144-2.123c0.313,0.168,31.426,17.31,44.768,58.693Z" transform="translate(-86.5 -7.063)"/>
  </g>
  <g id="_Group_37" data-name="&lt;Group&gt;">
    <path id="_Path_54" data-name="&lt;Path&gt;" class="cls-10" d="M215.067,478.306l-2.351-.537c0.127-.558,12.757-56.4,14.242-103.169l2.41,0.075C227.877,421.685,215.2,477.746,215.067,478.306Z" transform="translate(-86.5 -7.063)"/>
  </g>
  <g id="_Group_38" data-name="&lt;Group&gt;">
    <path id="_Path_55" data-name="&lt;Path&gt;" class="cls-10" d="M229.29,406.175l-2.254-.858,11.841-31.108,2.254,0.857Z" transform="translate(-86.5 -7.063)"/>
  </g>
  <g id="_Group_39" data-name="&lt;Group&gt;">
    <path id="_Path_56" data-name="&lt;Path&gt;" class="cls-10" d="M454.7,504.632l-2.407-.148,4.612-74.713c0.031-.726,3.174-75.387,2.429-109.369-0.739-33.6-19.5-59.038-19.689-59.291l1.93-1.447c0.194,0.26,19.414,26.284,20.171,60.685,0.746,34.06-2.4,108.8-2.432,109.547Z" transform="translate(-86.5 -7.063)"/>
  </g>
  <g id="_Group_40" data-name="&lt;Group&gt;">
    <path id="_Path_57" data-name="&lt;Path&gt;" class="cls-10" d="M460.7,390.531l-2.315-.678,11.35-38.745,2.315,0.679Z" transform="translate(-86.5 -7.063)"/>
  </g>
  <g id="_Group_41" data-name="&lt;Group&gt;">
    <path id="_Path_58" data-name="&lt;Path&gt;" class="cls-8" d="M181.069,544.1a1.2,1.2,0,0,1-.906-0.412,49.407,49.407,0,0,0-31.321-16.367c-9.257-1.035-18.647.585-27.724,2.151l-9.254,1.6a1.206,1.206,0,0,1-.41-2.377l9.254-1.6c9.245-1.594,18.8-3.239,28.4-2.171A51.847,51.847,0,0,1,181.976,542.1a1.205,1.205,0,0,1-.113,1.7A1.19,1.19,0,0,1,181.069,544.1Z" transform="translate(-86.5 -7.063)"/>
  </g>
  <g id="_Group_42" data-name="&lt;Group&gt;">
    <path id="_Path_59" data-name="&lt;Path&gt;" class="cls-8" d="M470.439,546.815a1.205,1.205,0,0,1-.873-2.038c3.092-3.237,6.288-6.585,10.279-8.969,4.545-2.713,9.549-3.6,13.731-2.433a1.206,1.206,0,1,1-.65,2.322c-3.548-.99-7.864-0.2-11.845,2.182-3.709,2.214-6.79,5.442-9.769,8.563A1.2,1.2,0,0,1,470.439,546.815Z" transform="translate(-86.5 -7.063)"/>
  </g>
  <g id="_Group_43" data-name="&lt;Group&gt;">
    <path id="_Path_60" data-name="&lt;Path&gt;" class="cls-8" d="M633.94,759.306c-2.7,0-6.011-2.5-10.919-6.213-1.559-1.178-3.318-2.51-5.324-3.973-6.7-4.891-10.574-4.039-15.472-2.964a26.5,26.5,0,0,1-10.964.67c-11.578-1.988-17.355-22.567-17.594-23.442a1.205,1.205,0,1,1,2.325-.638c0.055,0.2,5.606,19.975,15.677,21.7a24.33,24.33,0,0,0,10.039-.649c5.053-1.112,9.831-2.162,17.412,3.372,2.016,1.472,3.788,2.811,5.355,4,7.949,6.012,9.521,6.88,11.483,4.383a1.206,1.206,0,0,1,1.895,1.491A4.911,4.911,0,0,1,633.94,759.306Z" transform="translate(-86.5 -7.063)"/>
  </g>
  <g id="_Group_44" data-name="&lt;Group&gt;">
    <path id="_Path_61" data-name="&lt;Path&gt;" class="cls-8" d="M627.868,797.029c-3.663,0-13.4-9.907-17.635-15.555a87.852,87.852,0,0,1-9.555-16.876,1.206,1.206,0,1,1,2.228-.923,87.066,87.066,0,0,0,9.256,16.353c5.761,7.681,13.989,14.511,15.592,14.612a18.6,18.6,0,0,0,3.336-1.83,1.207,1.207,0,0,1,1.381,1.979,20.022,20.022,0,0,1-4.086,2.16A1.567,1.567,0,0,1,627.868,797.029Z" transform="translate(-86.5 -7.063)"/>
  </g>
  <g id="_Group_45" data-name="&lt;Group&gt;">
    <path id="_Path_62" data-name="&lt;Path&gt;" class="cls-8" d="M620,803.466c-4.918,0-15.742-7.3-19.18-12.017-4.011-5.509-10.2-19.957-10.461-20.57a1.206,1.206,0,1,1,2.219-.947c0.062,0.148,6.341,14.809,10.192,20.1,4.149,5.69,15.9,11.807,17.511,11.02a2.867,2.867,0,0,0,1.484-2.094c0.083-1.17-.818-2.619-2.535-4.077-2.967-2.517-5.129-6.517-6.866-9.729a41.261,41.261,0,0,0-2.152-3.705,1.207,1.207,0,0,1,1.977-1.385,42.746,42.746,0,0,1,2.3,3.943c1.641,3.036,3.684,6.813,6.305,9.039,2.969,2.52,3.478,4.7,3.38,6.081a5.172,5.172,0,0,1-2.607,3.969A2.9,2.9,0,0,1,620,803.466Z" transform="translate(-86.5 -7.063)"/>
  </g>
  <g id="_Group_46" data-name="&lt;Group&gt;">
    <path id="_Path_63" data-name="&lt;Path&gt;" class="cls-8" d="M610.347,808.172a17.759,17.759,0,0,1-3.364-.314c-3.836-.763-13.445-7.906-17.727-13.178-4.173-5.137-8.2-17.732-8.365-18.265a1.206,1.206,0,0,1,2.3-.73c0.04,0.127,4.054,12.693,7.938,17.474,4.081,5.024,13.356,11.743,16.327,12.334,2.361,0.469,6.335.448,7.774-1.08,0.207-.219.837-0.888,0.392-2.572a1.206,1.206,0,1,1,2.331-.618,4.845,4.845,0,0,1-.967,4.843C615.45,807.7,612.731,808.172,610.347,808.172Z" transform="translate(-86.5 -7.063)"/>
  </g>
  <g id="_Group_47" data-name="&lt;Group&gt;">
    <path id="_Compound_Path_3" data-name="&lt;Compound Path&gt;" class="cls-8" d="M255.242,827.848c-6.3,0-19.582-9.836-23.829-17.679-4.044-7.462-12.423-24.907-12.506-25.081a1.206,1.206,0,1,1,2.174-1.046c0.083,0.176,8.438,17.568,12.452,24.977,4.1,7.573,16.768,16.476,21.782,16.417,2.938-.062,3.666-0.66,3.8-0.808a1.206,1.206,0,0,1,2.338-.556,2.206,2.206,0,0,1-.345,1.922c-0.834,1.185-2.712,1.79-5.745,1.854h-0.122Z" transform="translate(-86.5 -7.063)"/>
  </g>
  <g id="_Group_48" data-name="&lt;Group&gt;">
    <path id="_Path_64" data-name="&lt;Path&gt;" class="cls-8" d="M248.442,832.671c-4.321,0-16-5.963-21.455-12.768-5.618-7-15.547-26.492-15.968-27.319a1.206,1.206,0,0,1,2.15-1.092c0.1,0.2,10.236,20.092,15.7,26.9,5.64,7.028,17.209,12.118,19.729,11.856,2.391-.261,3.3-3.846,3.3-3.884a1.19,1.19,0,0,1,1.45-.9,1.206,1.206,0,0,1,.9,1.449c-0.05.214-1.285,5.282-5.392,5.73A3.9,3.9,0,0,1,248.442,832.671Z" transform="translate(-86.5 -7.063)"/>
  </g>
  <g id="_Group_49" data-name="&lt;Group&gt;">
    <path id="_Path_65" data-name="&lt;Path&gt;" class="cls-8" d="M239.061,838.244c-5.792,0-15.592-5.424-20-10.839-5.26-6.454-14.5-21.641-14.893-22.284a1.206,1.206,0,1,1,2.061-1.253c0.1,0.156,9.547,15.689,14.7,22.015,5.058,6.207,16.772,11.383,19.745,9.638a0.671,0.671,0,0,0,.39-0.558c0.194-1.682-2.729-5.314-4.866-7.358a1.206,1.206,0,1,1,1.668-1.743c1,0.959,5.993,5.924,5.595,9.376a3.069,3.069,0,0,1-1.561,2.36A5.574,5.574,0,0,1,239.061,838.244Z" transform="translate(-86.5 -7.063)"/>
  </g>
</svg>
