<svg version="1.2" baseProfile="tiny-ps" xmlns="http://www.w3.org/2000/svg" viewBox="0 0 563 1420" width="563" height="1420">
	<title>obeseWeight-svg</title>
	<style>
		tspan { white-space:pre }
		.shp0 { fill: #f9a485 } 
		.shp1 { fill: #3b344a } 
		.shp2 { fill: #d5d1d8 } 
		.shp3 { fill: #a5b1c7 } 
		.shp4 { fill: #65a6ce } 
		.shp5 { fill: #4c7d9b } 
		.shp6 { fill: #85504c } 
		.shp7 { fill: #e8e6e9 } 
		.shp8 { fill: #e07560 } 
		.shp9 { fill: #1e1a25 } 
	</style>
	<path id="_Path_" fill-rule="evenodd" class="shp0" d="M441.98 350.38C441.98 377.52 454.64 495.81 464.14 496.22C473.64 496.62 491.57 532.7 502.28 576.42C509.42 605.57 515.08 644.74 519.26 693.93L481.18 701.14C436.96 629.12 409.83 583.06 399.78 562.96C384.71 532.8 348.53 404.42 357.58 385.69C363.61 373.21 391.74 361.44 441.98 350.38Z" />
	<path id="_Path_2" fill-rule="evenodd" class="shp1" d="M391.26 228.03C408.5 227.68 426.16 247.36 444.25 287.06C471.38 346.61 500.77 466.44 502.28 469.09C503.79 471.75 460.83 501.9 435.96 498.88C419.38 496.87 404.48 407.55 391.26 230.9L391.26 228.03L391.26 228.03Z" />
	<g id="_Group_">
		<path id="_Path_3" fill-rule="evenodd" class="shp0" d="M238.5 1027.31C228.27 1041.13 197.8 1090.63 196.29 1099.68C195.29 1105.71 204.83 1191.14 224.93 1355.97C258.09 1357.37 276.68 1355.53 280.7 1350.45C286.73 1342.83 350.04 1043.9 350.04 1034.85C350.04 1025.8 258.71 1000 238.5 1027.31Z" />
		<g id="_Group_2">
			<path id="_Path_4" fill-rule="evenodd" class="shp1" d="M382.82 1394.43C381.12 1386.71 290.72 1326.92 281.96 1326.22C273.19 1325.51 256.89 1336.73 255.51 1339.2C254.59 1340.85 255.42 1344.64 257.99 1350.59C259.29 1356.94 254.75 1359.92 244.38 1359.52C227.23 1358.85 226.85 1328.28 222.54 1330.35C218.24 1332.43 210.72 1340.45 210.34 1343.86C209.96 1347.28 214.71 1362.79 212.89 1366.74C211.07 1370.68 206.23 1401.93 209.79 1407.16C213.36 1412.39 248.89 1414.68 256.67 1414.92C264.45 1415.16 379.85 1423.67 383.49 1415.79C385.91 1410.53 385.69 1403.41 382.82 1394.43Z" />
			<path id="_Path_5" fill-rule="evenodd" class="shp2" d="M384.76 1404.16C380.77 1404.83 376.78 1405.43 372.78 1405.96C368.78 1406.48 364.76 1406.94 360.74 1407.32C356.72 1407.7 352.7 1408 348.67 1408.24C344.64 1408.47 340.6 1408.63 336.56 1408.71C314.31 1409.04 243.49 1400.69 239.65 1398.55C235.81 1396.42 216.84 1363.02 212.89 1366.74C208.95 1370.46 201.8 1406.92 204.52 1409.47C207.25 1412.03 225.48 1415.98 236.05 1416.02C246.61 1416.06 382.57 1423.49 385.23 1416.24C387 1411.4 386.84 1407.37 384.76 1404.16Z" />
			<g id="_Group_3">
				<path id="_Path_6" fill-rule="evenodd" class="shp3" d="M233.22 1393.03L230.94 1392.47C232.9 1384.44 235.24 1370.61 233.17 1367.7C229.92 1363.15 228.29 1346.1 228.11 1344.16L230.45 1343.95C230.91 1349.01 232.64 1362.92 235.08 1366.34C238.46 1371.07 233.77 1390.79 233.22 1393.03Z" />
			</g>
			<g id="_Group_4">
				<path id="_Path_7" fill-rule="evenodd" class="shp3" d="M330.53 1386.21L329.68 1385.84C329.54 1385.78 315.73 1379.77 302.43 1373.08C289.18 1366.42 257.81 1351.8 257.5 1351.65L258.49 1349.51C258.81 1349.66 290.2 1364.3 303.49 1370.97C314.87 1376.7 326.63 1381.92 329.8 1383.32C332.41 1380.16 343.23 1368.25 355.01 1372.01L354.29 1374.25C342.59 1370.5 331.2 1385.32 331.09 1385.47L330.53 1386.21Z" />
			</g>
			<g id="_Group_5">
				<path id="_Path_8" fill-rule="evenodd" class="shp3" d="M339.36 1400.12C323.61 1400.12 294.79 1382.62 276.84 1371.72C269.8 1367.44 264.24 1364.06 262.32 1363.48C261.53 1363.27 260.73 1363.08 259.93 1362.92C259.13 1362.76 258.33 1362.62 257.52 1362.51C256.71 1362.4 255.9 1362.32 255.09 1362.26C254.27 1362.2 253.46 1362.17 252.64 1362.16C248.32 1361.94 243.84 1361.7 238.86 1359.59C233.29 1357.22 231.01 1351.54 228.37 1344.94C227.93 1343.73 227.45 1342.53 226.94 1341.33C226.43 1340.14 225.89 1338.97 225.32 1337.8C224.75 1336.64 224.16 1335.49 223.53 1334.36C222.9 1333.22 222.24 1332.11 221.56 1331.01L223.53 1329.71C224.23 1330.84 224.91 1331.99 225.56 1333.16C226.21 1334.33 226.82 1335.51 227.41 1336.71C228 1337.91 228.55 1339.13 229.08 1340.35C229.6 1341.58 230.1 1342.82 230.56 1344.08C233.1 1350.43 235.11 1355.44 239.78 1357.43C244.38 1359.37 248.64 1359.59 252.76 1359.81C253.62 1359.82 254.49 1359.86 255.35 1359.92C256.21 1359.99 257.07 1360.08 257.93 1360.2C258.78 1360.31 259.64 1360.46 260.48 1360.63C261.33 1360.8 262.17 1361 263.01 1361.22C265.21 1361.9 270.6 1365.17 278.07 1369.7C297.69 1381.62 330.56 1401.58 343.41 1397.18C361.74 1390.93 382.1 1393.16 382.95 1393.25L382.69 1395.6C382.49 1395.57 361.99 1393.33 344.17 1399.41C343.78 1399.54 343.39 1399.64 342.99 1399.73C342.59 1399.83 342.19 1399.9 341.79 1399.96C341.39 1400.02 340.98 1400.06 340.58 1400.09C340.17 1400.11 339.77 1400.12 339.36 1400.12L339.36 1400.12Z" />
			</g>
			<g id="_Group_6">
				<path id="_Compound_Path_" fill-rule="evenodd" class="shp3" d="M312.89 1378.32C312.7 1378.32 312.5 1378.3 312.3 1378.28L311.36 1378.17L311.27 1377.22C310.91 1373.18 314.22 1370.4 317.15 1368.74C317.15 1368.68 317.16 1368.63 317.17 1368.57L317.29 1367.31C317.39 1366.44 317.52 1365.57 317.69 1364.71C317.85 1363.84 318.05 1362.99 318.27 1362.14C318.49 1361.28 318.75 1360.44 319.03 1359.61C319.31 1358.78 319.63 1357.95 319.97 1357.14C319.5 1357.16 319.08 1357.16 318.75 1357.14C313.76 1356.79 307.22 1356.74 301.91 1359.09C301.87 1359.6 301.81 1360.1 301.73 1360.61C301.64 1361.11 301.54 1361.62 301.42 1362.11C301.3 1362.61 301.15 1363.1 300.99 1363.59C300.83 1364.07 300.65 1364.55 300.45 1365.02C300.29 1365.38 300.09 1365.72 299.86 1366.04C299.63 1366.36 299.37 1366.66 299.08 1366.93C298.79 1367.2 298.47 1367.43 298.14 1367.64C297.8 1367.84 297.44 1368.01 297.07 1368.14C296.65 1368.26 296.2 1368.29 295.77 1368.22C295.33 1368.15 294.92 1367.99 294.56 1367.74C294.19 1367.49 293.89 1367.17 293.66 1366.79C293.44 1366.41 293.3 1365.99 293.26 1365.55C293.25 1365.15 293.27 1364.75 293.34 1364.36C293.41 1363.97 293.51 1363.59 293.65 1363.22C293.8 1362.85 293.97 1362.49 294.19 1362.16C294.4 1361.82 294.64 1361.51 294.92 1361.22C295.26 1360.85 295.61 1360.49 295.99 1360.15C296.36 1359.81 296.75 1359.48 297.15 1359.18C297.55 1358.87 297.96 1358.58 298.39 1358.3C298.81 1358.03 299.25 1357.78 299.7 1357.54C299.73 1357.25 299.75 1356.95 299.78 1356.65C299.8 1356.24 299.83 1355.83 299.87 1355.42C299.91 1355.01 299.96 1354.6 300.01 1354.19C300.06 1353.78 300.12 1353.37 300.18 1352.96C300.24 1352.56 300.31 1352.15 300.39 1351.75C300.49 1351.29 300.6 1350.83 300.72 1350.37C300.84 1349.91 300.97 1349.46 301.1 1349.01C301.24 1348.55 301.39 1348.1 301.54 1347.66C301.7 1347.21 301.86 1346.77 302.04 1346.33C301.16 1346.52 300.28 1346.69 299.4 1346.84C298.52 1346.99 297.64 1347.12 296.75 1347.22C295.86 1347.33 294.97 1347.41 294.08 1347.48C293.19 1347.54 292.29 1347.58 291.4 1347.6L291.07 1347.6C290.57 1347.6 290.06 1347.61 289.55 1347.63C289.04 1347.66 288.53 1347.7 288.03 1347.75C287.52 1347.8 287.02 1347.86 286.52 1347.94C286.01 1348.01 285.51 1348.1 285.02 1348.2C284.97 1348.4 284.93 1348.59 284.89 1348.79C284.56 1350.27 284.24 1351.76 283.82 1353.21C283.3 1355.05 282.34 1357.62 280.13 1358.96C279.8 1359.15 279.44 1359.31 279.07 1359.42C278.69 1359.53 278.31 1359.6 277.92 1359.63C277.53 1359.65 277.14 1359.64 276.76 1359.57C276.37 1359.51 276 1359.41 275.64 1359.26C275.36 1359.16 275.09 1359.02 274.85 1358.85C274.6 1358.68 274.38 1358.49 274.18 1358.26C273.98 1358.04 273.81 1357.8 273.67 1357.53C273.53 1357.27 273.43 1356.99 273.35 1356.71C273.3 1356.43 273.27 1356.15 273.26 1355.87C273.25 1355.59 273.27 1355.31 273.31 1355.03C273.35 1354.75 273.41 1354.48 273.49 1354.21C273.58 1353.95 273.68 1353.69 273.81 1353.44C275.6 1349.41 279.33 1347.34 283.04 1346.28C283.12 1345.91 283.21 1345.53 283.3 1345.16C283.4 1344.79 283.5 1344.42 283.61 1344.05C283.71 1343.68 283.82 1343.31 283.94 1342.94C284.06 1342.58 284.19 1342.21 284.31 1341.85C284.43 1341.56 284.54 1341.28 284.67 1340.99C284.79 1340.71 284.91 1340.43 285.05 1340.15C285.18 1339.87 285.32 1339.59 285.46 1339.32C285.6 1339.04 285.74 1338.77 285.9 1338.5C283.77 1338.92 281.69 1339.58 279.71 1340.46C277.73 1341.34 275.85 1342.45 274.12 1343.75C272.38 1345.05 270.8 1346.55 269.4 1348.2C268 1349.86 266.8 1351.67 265.8 1353.6L263.7 1352.55C264.85 1350.3 266.28 1348.21 267.94 1346.3C269.6 1344.4 271.49 1342.71 273.55 1341.26C275.62 1339.81 277.86 1338.62 280.22 1337.71C282.57 1336.81 285.03 1336.19 287.53 1335.87C289.15 1333.56 291.18 1331.41 293.36 1330.66L294.15 1330.38L294.67 1331.02C294.91 1331.25 295.11 1331.52 295.28 1331.81C295.44 1332.11 295.56 1332.42 295.63 1332.75C295.7 1333.08 295.73 1333.41 295.7 1333.75C295.68 1334.08 295.61 1334.41 295.49 1334.73C294.34 1337.43 289.49 1338.04 288.88 1338.1C288.64 1338.46 288.42 1338.83 288.2 1339.2C287.99 1339.57 287.78 1339.95 287.58 1340.33C287.39 1340.71 287.2 1341.1 287.02 1341.49C286.85 1341.88 286.68 1342.28 286.53 1342.68C286.43 1342.93 286.35 1343.18 286.26 1343.43C286.18 1343.68 286.1 1343.93 286.02 1344.18C285.94 1344.43 285.87 1344.69 285.8 1344.94C285.73 1345.19 285.66 1345.45 285.6 1345.71C286.07 1345.63 286.54 1345.56 287.02 1345.5C287.49 1345.44 287.96 1345.39 288.44 1345.36C288.91 1345.32 289.39 1345.29 289.86 1345.27C290.34 1345.25 290.82 1345.25 291.29 1345.25C292.3 1345.23 293.31 1345.18 294.32 1345.1C295.33 1345.03 296.34 1344.92 297.34 1344.78C298.34 1344.64 299.34 1344.47 300.33 1344.26C301.32 1344.06 302.31 1343.83 303.28 1343.57C304.94 1340.41 307.2 1337.82 310.07 1338.34L310.69 1338.45L310.94 1339.03C311.06 1339.28 311.14 1339.55 311.18 1339.82C311.23 1340.09 311.24 1340.36 311.21 1340.64C311.18 1340.91 311.12 1341.18 311.03 1341.44C310.93 1341.69 310.8 1341.94 310.65 1342.16C309.67 1343.62 307.51 1344.73 304.94 1345.55C304.69 1346.08 304.45 1346.62 304.24 1347.17C304.02 1347.72 303.81 1348.27 303.63 1348.83C303.44 1349.38 303.27 1349.95 303.11 1350.51C302.96 1351.08 302.82 1351.65 302.69 1352.23C302.63 1352.57 302.57 1352.92 302.51 1353.28C302.45 1353.63 302.4 1353.98 302.36 1354.33C302.32 1354.68 302.28 1355.04 302.24 1355.39C302.21 1355.74 302.18 1356.1 302.15 1356.45C307.66 1354.39 314 1354.45 318.91 1354.79C319.1 1354.8 319.29 1354.8 319.48 1354.8C319.66 1354.8 319.85 1354.8 320.04 1354.79C320.23 1354.78 320.41 1354.77 320.6 1354.75C320.79 1354.74 320.97 1354.72 321.16 1354.69C322.76 1351.77 324.85 1349.4 327.44 1348.53L328.24 1348.26L328.75 1348.92C330.22 1350.83 329.93 1352.35 329.43 1353.29C328.37 1355.27 325.38 1356.35 322.7 1356.84C322.3 1357.68 321.94 1358.54 321.61 1359.41C321.29 1360.28 320.99 1361.16 320.74 1362.06C320.48 1362.95 320.26 1363.85 320.08 1364.77C319.89 1365.68 319.75 1366.6 319.64 1367.52L321.27 1366.79C327.42 1364.02 335.08 1360.58 341.56 1359.98L341.78 1362.33C335.69 1362.89 328.23 1366.24 322.24 1368.93L320.12 1369.88C319.9 1369.98 319.65 1370.1 319.38 1370.23C319.35 1370.57 319.3 1370.91 319.25 1371.24C319.2 1371.58 319.13 1371.91 319.05 1372.24C318.97 1372.57 318.88 1372.9 318.78 1373.23C318.68 1373.55 318.56 1373.87 318.44 1374.18C317.54 1376.24 315.47 1378.32 312.89 1378.32ZM316.74 1371.8C316.37 1372.03 316.03 1372.29 315.71 1372.59C315.39 1372.88 315.1 1373.2 314.84 1373.54C314.58 1373.88 314.35 1374.25 314.16 1374.63C313.96 1375.02 313.8 1375.42 313.68 1375.83C313.97 1375.72 314.25 1375.57 314.51 1375.4C314.78 1375.23 315.02 1375.03 315.24 1374.81C315.46 1374.58 315.66 1374.34 315.84 1374.08C316.01 1373.82 316.16 1373.54 316.27 1373.25C316.32 1373.13 316.37 1373.01 316.41 1372.89C316.46 1372.78 316.5 1372.66 316.54 1372.54C316.58 1372.42 316.61 1372.29 316.65 1372.17C316.68 1372.05 316.71 1371.93 316.74 1371.8ZM298.62 1361.01C298.38 1361.19 298.15 1361.38 297.93 1361.57C297.7 1361.76 297.49 1361.96 297.27 1362.17C297.06 1362.37 296.86 1362.59 296.66 1362.8C296.5 1362.97 296.35 1363.15 296.23 1363.34C296.1 1363.53 295.99 1363.73 295.9 1363.95C295.81 1364.16 295.74 1364.38 295.69 1364.6C295.64 1364.83 295.61 1365.05 295.6 1365.28C295.6 1365.33 295.61 1365.38 295.62 1365.43C295.63 1365.48 295.65 1365.53 295.68 1365.57C295.7 1365.62 295.73 1365.66 295.76 1365.69C295.8 1365.73 295.83 1365.76 295.88 1365.79C295.92 1365.82 295.96 1365.84 296.01 1365.86C296.06 1365.88 296.11 1365.89 296.16 1365.9C296.21 1365.91 296.26 1365.91 296.31 1365.9C296.36 1365.9 296.41 1365.89 296.46 1365.87C296.67 1365.78 296.87 1365.68 297.05 1365.55C297.24 1365.43 297.41 1365.29 297.57 1365.13C297.73 1364.98 297.87 1364.8 298 1364.62C298.12 1364.44 298.23 1364.24 298.32 1364.03C298.44 1363.75 298.55 1363.47 298.66 1363.18C298.77 1362.89 298.86 1362.6 298.95 1362.3C299.03 1362.01 299.11 1361.71 299.18 1361.41C299.24 1361.11 299.3 1360.81 299.34 1360.5C299.1 1360.66 298.86 1360.83 298.62 1361.01ZM282.45 1348.93C281.75 1349.13 281.08 1349.41 280.44 1349.76C279.8 1350.1 279.19 1350.51 278.64 1350.98C278.08 1351.45 277.57 1351.98 277.12 1352.55C276.68 1353.12 276.29 1353.74 275.96 1354.39C275.89 1354.53 275.83 1354.66 275.78 1354.81C275.73 1354.95 275.69 1355.1 275.66 1355.24C275.63 1355.39 275.62 1355.54 275.62 1355.7C275.61 1355.85 275.62 1356 275.64 1356.15C275.67 1356.26 275.72 1356.36 275.78 1356.46C275.83 1356.56 275.9 1356.65 275.98 1356.73C276.06 1356.81 276.14 1356.88 276.24 1356.95C276.33 1357.01 276.44 1357.06 276.54 1357.1C276.73 1357.17 276.93 1357.22 277.13 1357.25C277.34 1357.29 277.54 1357.3 277.75 1357.28C277.95 1357.27 278.15 1357.24 278.35 1357.18C278.55 1357.12 278.74 1357.05 278.92 1356.95C280.4 1356.05 281.11 1354.13 281.56 1352.57C281.91 1351.37 282.18 1350.15 282.45 1348.93ZM327.34 1351.12C327.04 1351.3 326.75 1351.5 326.47 1351.71C326.19 1351.93 325.93 1352.16 325.67 1352.4C325.42 1352.64 325.18 1352.9 324.96 1353.17C324.73 1353.44 324.52 1353.72 324.33 1354.01C324.62 1353.95 324.91 1353.86 325.19 1353.75C325.47 1353.64 325.74 1353.51 326 1353.35C326.25 1353.2 326.5 1353.02 326.72 1352.82C326.95 1352.63 327.16 1352.41 327.35 1352.18C327.39 1352.1 327.42 1352.01 327.45 1351.92C327.47 1351.83 327.48 1351.74 327.48 1351.65C327.48 1351.56 327.47 1351.47 327.45 1351.38C327.42 1351.29 327.39 1351.2 327.34 1351.12L327.34 1351.12ZM308.75 1340.75C308.57 1340.83 308.4 1340.92 308.23 1341.02C308.06 1341.12 307.9 1341.24 307.75 1341.36C307.6 1341.48 307.45 1341.62 307.32 1341.76C307.18 1341.9 307.06 1342.05 306.94 1342.21C307.11 1342.14 307.28 1342.05 307.44 1341.95C307.59 1341.86 307.75 1341.75 307.89 1341.64C308.04 1341.52 308.18 1341.4 308.31 1341.27C308.44 1341.14 308.57 1341 308.68 1340.86C308.71 1340.82 308.73 1340.78 308.75 1340.75L308.75 1340.75ZM293.31 1333.27C293.09 1333.41 292.89 1333.55 292.68 1333.7C292.48 1333.85 292.29 1334.01 292.09 1334.17C291.9 1334.34 291.72 1334.51 291.54 1334.69C291.36 1334.87 291.19 1335.05 291.03 1335.24C291.25 1335.2 291.47 1335.13 291.69 1335.04C291.9 1334.95 292.1 1334.85 292.3 1334.73C292.49 1334.61 292.68 1334.47 292.85 1334.31C293.02 1334.16 293.18 1333.99 293.32 1333.81C293.34 1333.77 293.35 1333.72 293.35 1333.68C293.36 1333.63 293.37 1333.59 293.36 1333.54C293.36 1333.49 293.36 1333.45 293.35 1333.4C293.34 1333.36 293.33 1333.32 293.31 1333.27L293.31 1333.27Z" />
			</g>
		</g>
		<path id="_Path_9" fill-rule="evenodd" class="shp4" d="M179.71 626.28C160.67 667.49 153.14 711.71 157.1 758.95C163.05 829.81 222.87 1002.44 218.34 1022.03C215.33 1035.1 208.78 1055.09 198.69 1082C250.8 1132.92 298.46 1143.81 341.67 1114.66C352.27 1062.46 357.07 1022.79 356.07 995.65C355.06 968.52 350.04 892.13 341 766.49C358.08 734.33 365.62 708.7 363.61 689.6C361.6 670.5 300.3 649.4 179.71 626.28Z" />
		<path id="_Path_10" fill-rule="evenodd" class="shp4" d="M447.47 688.2L363.85 670C337.56 711.21 323.75 737.34 322.42 748.4C320.56 763.96 351.81 967.98 355.67 993.11C398.72 1000.04 440.1 1015.94 480.21 1035.48C479.6 977.19 468.69 861.43 447.47 688.2Z" />
		<g id="_Group_7">
			<path id="_Path_11" fill-rule="evenodd" class="shp5" d="M304.08 1107.13C253.15 1107.13 208.25 1062.58 207.68 1062.01C207.46 1061.79 207.34 1061.49 207.34 1061.17C207.34 1060.86 207.47 1060.56 207.69 1060.34C207.91 1060.12 208.21 1060 208.52 1060C208.83 1060 209.13 1060.13 209.35 1060.35C210.05 1061.06 280.19 1130.62 343.59 1094.27C343.72 1094.19 343.87 1094.14 344.02 1094.12C344.18 1094.1 344.33 1094.11 344.48 1094.15C344.63 1094.19 344.77 1094.26 344.89 1094.36C345.02 1094.45 345.12 1094.57 345.19 1094.7C345.27 1094.84 345.32 1094.99 345.34 1095.14C345.36 1095.29 345.35 1095.45 345.31 1095.6C345.27 1095.75 345.2 1095.89 345.11 1096.01C345.01 1096.13 344.89 1096.24 344.76 1096.31C341.69 1098.09 338.5 1099.66 335.22 1101.02C331.94 1102.37 328.57 1103.51 325.14 1104.42C321.71 1105.33 318.22 1106.02 314.7 1106.47C311.18 1106.92 307.63 1107.14 304.08 1107.13L304.08 1107.13Z" />
		</g>
		<g id="_Group_8">
			<path id="_Path_12" fill-rule="evenodd" class="shp5" d="M218.35 1023.21C218.29 1023.22 218.23 1023.21 218.18 1023.2C218.12 1023.2 218.07 1023.18 218.02 1023.17C217.96 1023.15 217.91 1023.13 217.86 1023.11C217.81 1023.09 217.76 1023.06 217.71 1023.03C217.58 1022.95 217.47 1022.84 217.38 1022.71C217.29 1022.58 217.23 1022.44 217.2 1022.29C217.16 1022.14 217.16 1021.98 217.19 1021.83C217.21 1021.68 217.27 1021.53 217.35 1021.4L234.15 995.02C234.24 994.89 234.35 994.78 234.47 994.69C234.6 994.6 234.74 994.54 234.89 994.51C235.04 994.47 235.2 994.47 235.35 994.5C235.5 994.52 235.65 994.58 235.78 994.66C235.91 994.74 236.02 994.85 236.11 994.97C236.2 995.1 236.26 995.24 236.3 995.39C236.33 995.54 236.33 995.7 236.31 995.85C236.28 996 236.22 996.15 236.14 996.28L219.34 1022.67C219.28 1022.75 219.22 1022.83 219.15 1022.9C219.08 1022.96 219 1023.02 218.91 1023.07C218.83 1023.12 218.73 1023.15 218.64 1023.18C218.54 1023.2 218.44 1023.21 218.35 1023.21Z" />
		</g>
		<g id="_Group_9">
			<path id="_Path_13" fill-rule="evenodd" class="shp5" d="M307.81 1049.77C307.71 1049.77 307.6 1049.76 307.51 1049.73C307.41 1049.7 307.31 1049.67 307.22 1049.61C307.13 1049.56 307.05 1049.5 306.98 1049.43C306.91 1049.36 306.84 1049.27 306.79 1049.18C305.8 1047.48 304.89 1045.73 304.07 1043.93C303.25 1042.14 302.52 1040.3 301.88 1038.43C301.25 1036.56 300.71 1034.66 300.26 1032.74C299.82 1030.82 299.47 1028.87 299.22 1026.91C299.18 1026.6 299.26 1026.29 299.45 1026.04C299.64 1025.8 299.92 1025.64 300.23 1025.6C300.54 1025.56 300.86 1025.64 301.1 1025.83C301.35 1026.02 301.51 1026.3 301.55 1026.61C301.79 1028.49 302.13 1030.36 302.55 1032.2C302.98 1034.05 303.5 1035.88 304.11 1037.67C304.72 1039.46 305.42 1041.23 306.21 1042.95C306.99 1044.67 307.87 1046.36 308.82 1047.99C308.9 1048.13 308.96 1048.27 308.98 1048.43C309 1048.58 308.99 1048.74 308.95 1048.89C308.91 1049.04 308.84 1049.18 308.75 1049.3C308.66 1049.42 308.54 1049.53 308.4 1049.6C308.36 1049.63 308.31 1049.65 308.26 1049.67C308.22 1049.7 308.17 1049.71 308.12 1049.73C308.07 1049.74 308.02 1049.75 307.96 1049.76C307.91 1049.77 307.86 1049.77 307.81 1049.77Z" />
		</g>
		<g id="_Group_10">
			<path id="_Path_14" fill-rule="evenodd" class="shp5" d="M324.26 773.92C324.16 773.92 324.06 773.91 323.97 773.88C323.87 773.86 323.78 773.82 323.7 773.78C323.61 773.73 323.53 773.67 323.46 773.61C323.39 773.54 323.32 773.46 323.27 773.38C309.69 752.23 283.32 738.22 254.47 736.81C254.31 736.81 254.16 736.77 254.02 736.7C253.88 736.64 253.76 736.54 253.65 736.43C253.55 736.31 253.47 736.18 253.42 736.04C253.36 735.89 253.34 735.74 253.35 735.58C253.35 735.43 253.39 735.27 253.45 735.13C253.52 734.99 253.61 734.86 253.72 734.76C253.84 734.65 253.98 734.57 254.12 734.52C254.27 734.47 254.43 734.45 254.58 734.46C284.18 735.9 311.26 750.33 325.25 772.11C325.37 772.29 325.43 772.49 325.44 772.7C325.45 772.91 325.4 773.12 325.29 773.31C325.19 773.49 325.04 773.65 324.86 773.76C324.68 773.86 324.47 773.92 324.26 773.92L324.26 773.92Z" />
		</g>
		<g id="_Group_11">
			<path id="_Path_15" fill-rule="evenodd" class="shp5" d="M316.81 750.21C316.74 750.21 316.66 750.21 316.59 750.19C316.52 750.18 316.44 750.16 316.38 750.13C316.31 750.1 316.24 750.07 316.18 750.03C316.12 749.99 316.06 749.94 316 749.89C307.01 741.4 297.98 737.56 289.24 733.84C286.93 732.86 284.64 731.88 282.35 730.83C282.07 730.7 281.85 730.46 281.74 730.17C281.64 729.87 281.65 729.55 281.78 729.27C281.91 728.98 282.15 728.76 282.44 728.66C282.74 728.55 283.06 728.56 283.34 728.69C285.6 729.73 287.88 730.7 290.16 731.67C299.09 735.47 308.31 739.4 317.62 748.18C317.79 748.34 317.91 748.55 317.96 748.78C318.01 749.01 317.99 749.25 317.9 749.47C317.81 749.69 317.66 749.88 317.47 750.01C317.28 750.14 317.05 750.21 316.81 750.21Z" />
		</g>
		<g id="_Group_12">
			<path id="_Path_16" fill-rule="evenodd" class="shp5" d="M222.54 1077.03C222.37 1077.02 222.21 1076.98 222.06 1076.91C221.9 1076.84 221.77 1076.74 221.66 1076.61C221.55 1076.48 221.47 1076.33 221.42 1076.17C221.37 1076.01 221.36 1075.84 221.38 1075.67C221.72 1073.47 229.84 1021.61 234.02 1008.49C236.21 1001.6 220.97 940.16 206.24 880.74C193.73 830.3 180.79 778.14 177.52 755.46C170.38 705.86 202.52 635.1 202.85 634.39C202.98 634.11 203.21 633.89 203.51 633.78C203.8 633.67 204.12 633.68 204.41 633.81C204.69 633.94 204.91 634.18 205.02 634.47C205.13 634.76 205.11 635.09 204.98 635.37C204.66 636.07 172.8 706.22 179.85 755.12C183.11 777.69 196.03 829.79 208.52 880.18C224.02 942.66 238.66 1001.68 236.26 1009.2C232.14 1022.15 223.79 1075.49 223.7 1076.03C223.68 1076.17 223.64 1076.3 223.57 1076.42C223.5 1076.54 223.41 1076.65 223.31 1076.74C223.2 1076.83 223.08 1076.9 222.95 1076.95C222.82 1077 222.68 1077.03 222.54 1077.03Z" />
		</g>
		<g id="_Group_13">
			<path id="_Path_17" fill-rule="evenodd" class="shp5" d="M182.22 702.31C181.93 702.31 181.65 702.21 181.43 702.01C181.22 701.82 181.08 701.55 181.05 701.27C181.02 700.98 181.09 700.69 181.26 700.45C181.43 700.22 181.68 700.05 181.96 699.99C182.38 699.9 223.64 690.28 252.68 643.78L244.2 641.68C240.16 646.23 211.43 677.91 185.96 688.43C185.67 688.55 185.35 688.54 185.06 688.42C184.78 688.3 184.55 688.07 184.43 687.79C184.31 687.5 184.31 687.18 184.43 686.89C184.55 686.6 184.78 686.37 185.07 686.25C211.88 675.18 242.59 639.95 242.9 639.6C242.97 639.52 243.06 639.45 243.15 639.39C243.24 639.33 243.33 639.29 243.44 639.25C243.54 639.22 243.65 639.2 243.75 639.2C243.86 639.19 243.97 639.21 244.07 639.23L254.81 641.89C254.99 641.94 255.15 642.02 255.3 642.14C255.44 642.26 255.55 642.42 255.62 642.59C255.69 642.76 255.72 642.94 255.7 643.13C255.68 643.31 255.63 643.49 255.53 643.65C225.91 692.23 182.9 702.2 182.47 702.29C182.45 702.3 182.43 702.3 182.41 702.3C182.38 702.31 182.36 702.31 182.34 702.31C182.32 702.31 182.3 702.31 182.28 702.31C182.26 702.32 182.24 702.32 182.22 702.31L182.22 702.31Z" />
		</g>
		<path id="_Path_18" fill-rule="evenodd" class="shp0" d="M157.1 1271.05C161.62 1268.03 237.99 1080.08 257.59 1061.99C270.65 1049.93 301.47 1040.88 350.04 1034.85C393.37 1062.04 421.06 1086.19 433.12 1107.29C265.02 1256 178.97 1326.77 174.95 1319.61C170.93 1312.45 164.98 1296.26 157.1 1271.05Z" />
		<path id="_Path_19" fill-rule="evenodd" class="shp4" d="M355.68 993.11C351.92 994.81 348.08 1007.02 344.17 1029.75C322.52 1031.73 309.16 1035.49 304.1 1041.02C296.5 1049.31 385.38 1148.99 390.77 1155.82C396.15 1162.64 467.97 1094.49 478.52 1061.18C479.84 1057.01 480.35 1048.01 480.21 1035.48C440.11 1015.94 398.73 1000.04 355.68 993.11Z" />
		<g id="_Group_14">
			<path id="_Path_20" fill-rule="evenodd" class="shp1" d="M256.2 1399.11C259.55 1391.95 224.19 1289.48 217.66 1283.6C211.13 1277.71 191.38 1276.68 188.79 1277.8C187.05 1278.55 185.4 1282.06 183.83 1288.34C180.99 1294.18 175.57 1293.78 167.59 1287.15C154.38 1276.18 172.68 1251.69 168 1250.72C163.32 1249.74 152.47 1251.53 150.1 1254.01C147.72 1256.49 142.05 1271.69 138.21 1273.71C134.37 1275.73 111.51 1297.58 111.16 1303.91C110.8 1310.23 137.61 1333.67 143.64 1338.59C149.67 1343.51 236.06 1420.51 243.75 1416.46C248.87 1413.77 253.02 1407.98 256.2 1399.11Z" />
			<path id="_Path_21" fill-rule="evenodd" class="shp2" d="M251.83 1408C248.26 1406.11 244.73 1404.16 241.23 1402.14C237.73 1400.12 234.27 1398.04 230.85 1395.9C227.43 1393.75 224.05 1391.55 220.71 1389.28C217.37 1387.01 214.07 1384.68 210.81 1382.29C192.96 1369 141.83 1319.29 140.08 1315.25C138.34 1311.21 143.6 1273.15 138.21 1273.71C132.82 1274.27 104.96 1298.84 105.57 1302.53C106.17 1306.22 118.24 1320.45 126.6 1326.92C134.95 1333.39 238.33 1422.03 244.86 1417.89C249.2 1415.13 251.53 1411.83 251.83 1408Z" />
			<g id="_Group_15">
				<path id="_Path_22" fill-rule="evenodd" class="shp3" d="M138.35 1306.95L136.87 1305.12C143.31 1299.93 153.59 1290.39 153.71 1286.83C153.9 1281.23 162.98 1266.7 164.01 1265.06L166 1266.32C163.29 1270.62 156.2 1282.71 156.06 1286.91C155.86 1292.71 140.14 1305.52 138.35 1306.95Z" />
			</g>
			<g id="_Group_16">
				<path id="_Path_23" fill-rule="evenodd" class="shp3" d="M245.84 1365.74C238.86 1355.67 220.79 1360.46 220.61 1360.51L219.72 1360.76L219.27 1359.95C219.19 1359.82 211.89 1346.64 205.4 1333.24C198.94 1319.89 182.94 1289.2 182.78 1288.89L184.87 1287.79C185.03 1288.11 201.04 1318.83 207.52 1332.22C213.07 1343.68 219.22 1354.99 220.89 1358.02C224.88 1357.1 240.72 1354.23 247.78 1364.4L245.84 1365.74Z" />
			</g>
			<g id="_Group_17">
				<path id="_Path_24" fill-rule="evenodd" class="shp3" d="M255.39 1399.95C255.24 1399.81 240.34 1385.55 222.51 1379.53C208.59 1374.83 194.4 1338.38 185.93 1316.59C182.94 1308.91 180.58 1302.84 179.42 1301.2C178.92 1300.56 178.4 1299.93 177.86 1299.31C177.33 1298.7 176.77 1298.1 176.19 1297.52C175.62 1296.94 175.03 1296.38 174.42 1295.84C173.81 1295.3 173.18 1294.78 172.54 1294.27C169.24 1291.46 165.83 1288.55 163.17 1283.85C160.19 1278.58 161.84 1272.68 163.76 1265.84C164.14 1264.61 164.5 1263.36 164.82 1262.11C165.14 1260.85 165.43 1259.59 165.69 1258.32C165.94 1257.05 166.17 1255.77 166.36 1254.49C166.55 1253.21 166.71 1251.92 166.83 1250.63L169.18 1250.81C169.05 1252.13 168.89 1253.46 168.7 1254.78C168.5 1256.1 168.27 1257.42 168.01 1258.72C167.74 1260.03 167.44 1261.33 167.11 1262.63C166.78 1263.92 166.42 1265.2 166.02 1266.48C164.18 1273.07 162.72 1278.27 165.22 1282.69C167.68 1287.03 170.93 1289.8 174.07 1292.48C174.75 1293.01 175.41 1293.57 176.06 1294.14C176.7 1294.72 177.33 1295.31 177.93 1295.93C178.54 1296.54 179.13 1297.18 179.69 1297.83C180.26 1298.48 180.81 1299.15 181.33 1299.84C182.68 1301.71 184.97 1307.6 188.13 1315.73C196.46 1337.14 210.39 1372.95 223.27 1377.31C241.62 1383.5 256.41 1397.67 257.04 1398.26L255.39 1399.95Z" />
			</g>
			<g id="_Group_18">
				<path id="_Compound_Path_2" fill-rule="evenodd" class="shp3" d="M243.16 1348.65C237.98 1345.38 230.02 1343.51 223.62 1342L221.37 1341.47C221.14 1341.41 220.87 1341.35 220.58 1341.29C220.35 1341.54 220.11 1341.79 219.86 1342.02C219.61 1342.25 219.36 1342.47 219.09 1342.69C218.83 1342.9 218.56 1343.11 218.28 1343.3C218 1343.49 217.72 1343.68 217.43 1343.85C215.31 1345.03 212.11 1345.38 210.07 1343.37L209.39 1342.71L209.89 1341.91C212.07 1338.48 216.39 1338.29 219.72 1338.76L219.83 1338.64C220.12 1338.33 220.41 1338.02 220.7 1337.7C221.31 1337.07 221.95 1336.47 222.6 1335.88C223.26 1335.3 223.93 1334.73 224.63 1334.2C225.32 1333.66 226.04 1333.15 226.77 1332.66C227.5 1332.17 228.24 1331.71 229.01 1331.27C228.92 1331.21 228.84 1331.15 228.76 1331.09C228.68 1331.03 228.6 1330.97 228.52 1330.91C228.44 1330.85 228.36 1330.78 228.28 1330.72C228.2 1330.65 228.12 1330.59 228.05 1330.52C224.29 1327.2 219.14 1323.18 213.5 1321.82C213.15 1322.2 212.8 1322.57 212.42 1322.92C212.05 1323.27 211.67 1323.61 211.27 1323.92C210.87 1324.24 210.46 1324.55 210.03 1324.83C209.61 1325.12 209.18 1325.39 208.73 1325.64C208.38 1325.83 208.02 1325.98 207.64 1326.1C207.26 1326.21 206.88 1326.29 206.48 1326.32C206.09 1326.36 205.69 1326.36 205.3 1326.31C204.91 1326.27 204.52 1326.18 204.15 1326.06C203.74 1325.9 203.37 1325.65 203.06 1325.33C202.76 1325.01 202.53 1324.63 202.39 1324.21C202.26 1323.79 202.21 1323.35 202.26 1322.91C202.32 1322.47 202.47 1322.05 202.7 1321.68C202.93 1321.36 203.2 1321.06 203.49 1320.79C203.78 1320.52 204.09 1320.28 204.43 1320.07C204.77 1319.87 205.13 1319.69 205.5 1319.56C205.87 1319.42 206.25 1319.32 206.65 1319.26C207.14 1319.17 207.64 1319.1 208.15 1319.06C208.65 1319.01 209.15 1318.99 209.66 1318.99C210.16 1318.99 210.67 1319.01 211.17 1319.05C211.68 1319.1 212.18 1319.16 212.67 1319.25C212.87 1319.03 213.08 1318.81 213.28 1318.58C213.55 1318.27 213.83 1317.97 214.11 1317.67C214.39 1317.37 214.67 1317.07 214.96 1316.78C215.25 1316.48 215.54 1316.19 215.84 1315.91C216.14 1315.63 216.44 1315.35 216.75 1315.07C217.11 1314.77 217.48 1314.47 217.85 1314.18C218.22 1313.89 218.6 1313.6 218.99 1313.33C219.37 1313.05 219.76 1312.79 220.16 1312.53C220.55 1312.27 220.95 1312.02 221.36 1311.77C220.54 1311.39 219.73 1310.99 218.93 1310.56C218.13 1310.14 217.34 1309.7 216.56 1309.23C215.78 1308.77 215.02 1308.29 214.26 1307.79C213.51 1307.29 212.77 1306.77 212.04 1306.23C211.63 1305.91 211.21 1305.6 210.77 1305.29C210.34 1304.99 209.91 1304.7 209.46 1304.43C209.01 1304.15 208.56 1303.88 208.1 1303.63C207.64 1303.37 207.18 1303.13 206.71 1302.9C206.55 1303.04 206.4 1303.16 206.25 1303.29C205.09 1304.28 203.93 1305.25 202.71 1306.15C201.06 1307.38 198.79 1308.75 196.29 1308.47C195.91 1308.42 195.53 1308.32 195.16 1308.19C194.8 1308.05 194.45 1307.87 194.13 1307.66C193.8 1307.44 193.5 1307.19 193.24 1306.91C192.97 1306.62 192.73 1306.31 192.54 1305.98C192.38 1305.72 192.25 1305.45 192.16 1305.17C192.07 1304.88 192.01 1304.59 191.99 1304.29C191.97 1304 191.98 1303.7 192.03 1303.4C192.08 1303.11 192.17 1302.82 192.28 1302.55C192.41 1302.3 192.55 1302.06 192.72 1301.83C192.88 1301.6 193.06 1301.39 193.26 1301.19C193.46 1301 193.68 1300.82 193.91 1300.66C194.14 1300.5 194.38 1300.36 194.64 1300.24C198.51 1298.12 202.72 1298.75 206.31 1300.18C206.6 1299.93 206.9 1299.69 207.2 1299.45C207.5 1299.21 207.81 1298.98 208.12 1298.75C208.42 1298.52 208.74 1298.29 209.05 1298.08C209.37 1297.86 209.69 1297.64 210.01 1297.44C210.28 1297.28 210.54 1297.12 210.81 1296.97C211.08 1296.82 211.35 1296.67 211.63 1296.53C211.9 1296.39 212.18 1296.25 212.46 1296.12C212.74 1295.99 213.02 1295.86 213.3 1295.74C211.36 1294.77 209.31 1294.03 207.2 1293.53C205.09 1293.02 202.93 1292.76 200.76 1292.74C198.6 1292.71 196.43 1292.94 194.31 1293.4C192.19 1293.87 190.13 1294.57 188.17 1295.49L187.14 1293.38C189.43 1292.3 191.83 1291.5 194.31 1291C196.79 1290.5 199.32 1290.31 201.84 1290.42C204.36 1290.53 206.86 1290.95 209.29 1291.66C211.71 1292.37 214.04 1293.38 216.22 1294.65C219.01 1293.8 221.93 1293.37 224.01 1294.06L224.79 1294.31L224.82 1295.13C224.86 1295.47 224.86 1295.8 224.81 1296.13C224.76 1296.47 224.67 1296.79 224.53 1297.09C224.38 1297.4 224.2 1297.68 223.98 1297.93C223.75 1298.18 223.49 1298.4 223.21 1298.58C220.65 1300.03 216.43 1297.55 215.91 1297.23C215.5 1297.37 215.1 1297.53 214.7 1297.69C214.31 1297.85 213.92 1298.03 213.53 1298.21C213.14 1298.4 212.76 1298.59 212.38 1298.8C212 1299 211.63 1299.21 211.26 1299.44C211.04 1299.58 210.82 1299.72 210.6 1299.87C210.38 1300.02 210.16 1300.17 209.95 1300.32C209.73 1300.47 209.52 1300.63 209.31 1300.79C209.1 1300.95 208.89 1301.11 208.68 1301.27C209.1 1301.49 209.52 1301.73 209.93 1301.97C210.34 1302.21 210.75 1302.46 211.15 1302.72C211.55 1302.98 211.94 1303.24 212.33 1303.52C212.72 1303.8 213.1 1304.08 213.48 1304.37C214.29 1304.98 215.12 1305.56 215.97 1306.11C216.82 1306.66 217.68 1307.19 218.56 1307.69C219.44 1308.19 220.34 1308.66 221.25 1309.1C222.16 1309.54 223.08 1309.95 224.02 1310.34C227.25 1308.83 230.64 1308.18 232.59 1310.32L233.02 1310.79L232.86 1311.4C232.8 1311.67 232.7 1311.93 232.57 1312.17C232.44 1312.41 232.28 1312.64 232.09 1312.84C231.9 1313.04 231.69 1313.21 231.46 1313.36C231.23 1313.51 230.97 1313.62 230.71 1313.7C229.06 1314.27 226.67 1313.83 224.12 1312.91C223.6 1313.19 223.09 1313.47 222.58 1313.78C222.07 1314.08 221.58 1314.39 221.09 1314.72C220.6 1315.05 220.12 1315.39 219.65 1315.75C219.18 1316.11 218.72 1316.48 218.28 1316.86C218.01 1317.09 217.75 1317.33 217.49 1317.58C217.24 1317.82 216.98 1318.07 216.74 1318.32C216.49 1318.57 216.24 1318.83 216 1319.09C215.76 1319.35 215.52 1319.61 215.28 1319.87C220.91 1321.59 225.9 1325.49 229.59 1328.75C229.74 1328.88 229.88 1328.99 230.03 1329.11C230.18 1329.22 230.33 1329.33 230.48 1329.44C230.63 1329.55 230.79 1329.65 230.95 1329.75C231.11 1329.85 231.27 1329.95 231.43 1330.04C234.48 1328.71 237.59 1328.09 240.17 1328.98L240.96 1329.25L240.96 1330.09C240.97 1332.49 239.81 1333.53 238.84 1333.97C236.79 1334.88 233.76 1333.93 231.34 1332.69C230.52 1333.11 229.71 1333.57 228.92 1334.07C228.13 1334.56 227.36 1335.08 226.61 1335.64C225.87 1336.19 225.14 1336.77 224.44 1337.39C223.74 1338 223.07 1338.64 222.42 1339.3L224.14 1339.7C230.71 1341.26 238.89 1343.19 244.4 1346.66L243.16 1348.65ZM212.66 1342.28C212.96 1342.36 213.27 1342.42 213.58 1342.44C213.89 1342.46 214.21 1342.45 214.52 1342.41C214.83 1342.37 215.13 1342.3 215.43 1342.2C215.73 1342.09 216.01 1341.96 216.28 1341.8C216.39 1341.74 216.5 1341.67 216.61 1341.61C216.72 1341.54 216.82 1341.47 216.93 1341.4C217.03 1341.32 217.13 1341.25 217.23 1341.17C217.34 1341.09 217.44 1341.02 217.53 1340.93C217.1 1340.89 216.67 1340.89 216.24 1340.93C215.81 1340.97 215.39 1341.05 214.97 1341.16C214.56 1341.28 214.15 1341.43 213.76 1341.62C213.38 1341.8 213 1342.03 212.66 1342.28ZM235.22 1331.76C235.51 1331.84 235.81 1331.9 236.1 1331.93C236.4 1331.97 236.7 1331.97 237 1331.95C237.3 1331.93 237.6 1331.89 237.89 1331.82C237.98 1331.78 238.06 1331.73 238.13 1331.68C238.2 1331.62 238.26 1331.55 238.32 1331.48C238.37 1331.41 238.42 1331.33 238.46 1331.24C238.49 1331.16 238.52 1331.07 238.53 1330.98C238.18 1330.94 237.83 1330.92 237.48 1330.92C237.13 1330.92 236.78 1330.94 236.43 1330.98C236.08 1331.01 235.73 1331.07 235.39 1331.15C235.05 1331.23 234.71 1331.32 234.38 1331.44C234.65 1331.57 234.93 1331.68 235.22 1331.76ZM208.99 1321.36C208.78 1321.37 208.56 1321.38 208.35 1321.4C208.14 1321.42 207.92 1321.44 207.71 1321.47C207.5 1321.5 207.28 1321.53 207.07 1321.57C206.84 1321.61 206.62 1321.66 206.4 1321.74C206.19 1321.81 205.97 1321.91 205.77 1322.02C205.57 1322.13 205.38 1322.26 205.21 1322.41C205.03 1322.56 204.87 1322.72 204.72 1322.9C204.69 1322.94 204.67 1322.98 204.65 1323.03C204.63 1323.07 204.62 1323.12 204.61 1323.17C204.6 1323.22 204.6 1323.27 204.6 1323.32C204.61 1323.37 204.62 1323.42 204.63 1323.46C204.65 1323.51 204.67 1323.56 204.69 1323.6C204.72 1323.65 204.75 1323.69 204.79 1323.73C204.82 1323.76 204.86 1323.79 204.91 1323.82C204.95 1323.85 205 1323.87 205.05 1323.88C205.26 1323.94 205.48 1323.98 205.71 1323.99C205.93 1324.01 206.15 1324 206.38 1323.97C206.6 1323.94 206.81 1323.89 207.03 1323.82C207.24 1323.75 207.44 1323.66 207.64 1323.55C207.91 1323.41 208.17 1323.25 208.43 1323.09C208.7 1322.92 208.95 1322.75 209.2 1322.57C209.45 1322.38 209.69 1322.19 209.92 1322C210.16 1321.8 210.39 1321.59 210.61 1321.38C210.29 1321.36 209.96 1321.35 209.64 1321.35C209.42 1321.35 209.21 1321.35 208.99 1321.36ZM228.31 1311.59C228.5 1311.61 228.68 1311.62 228.87 1311.62C229.05 1311.61 229.24 1311.6 229.42 1311.58C229.61 1311.56 229.79 1311.52 229.97 1311.48C229.98 1311.47 229.99 1311.47 230 1311.47C230.01 1311.46 230.02 1311.46 230.03 1311.45C230.04 1311.45 230.05 1311.44 230.06 1311.44C230.07 1311.44 230.08 1311.43 230.09 1311.43C229.9 1311.39 229.7 1311.35 229.51 1311.33C229.31 1311.31 229.12 1311.3 228.92 1311.31C228.73 1311.31 228.53 1311.33 228.34 1311.36C228.15 1311.39 227.95 1311.43 227.77 1311.49C227.95 1311.53 228.13 1311.56 228.31 1311.59ZM200.15 1301.22C199.77 1301.22 199.39 1301.24 199.01 1301.28C198.63 1301.33 198.26 1301.39 197.89 1301.48C197.52 1301.58 197.16 1301.69 196.8 1301.83C196.45 1301.97 196.11 1302.12 195.77 1302.31C195.63 1302.37 195.5 1302.44 195.37 1302.52C195.25 1302.6 195.12 1302.69 195.01 1302.79C194.9 1302.9 194.79 1303.01 194.7 1303.12C194.6 1303.24 194.52 1303.37 194.44 1303.5C194.4 1303.6 194.38 1303.71 194.36 1303.83C194.35 1303.94 194.35 1304.05 194.36 1304.17C194.37 1304.28 194.4 1304.39 194.43 1304.5C194.47 1304.61 194.52 1304.71 194.59 1304.8C194.69 1304.98 194.82 1305.14 194.96 1305.29C195.1 1305.44 195.26 1305.57 195.42 1305.69C195.59 1305.8 195.78 1305.9 195.97 1305.97C196.16 1306.05 196.36 1306.1 196.56 1306.13C198.27 1306.35 200.01 1305.23 201.32 1304.26C202.33 1303.52 203.28 1302.73 204.24 1301.92C203.91 1301.81 203.57 1301.71 203.24 1301.63C202.9 1301.54 202.56 1301.47 202.22 1301.41C201.88 1301.35 201.53 1301.31 201.19 1301.28C200.84 1301.25 200.49 1301.23 200.15 1301.22ZM220.02 1296.51C220.24 1296.58 220.47 1296.62 220.7 1296.64C220.93 1296.66 221.16 1296.66 221.39 1296.64C221.62 1296.63 221.84 1296.59 222.06 1296.53C222.1 1296.5 222.14 1296.48 222.17 1296.45C222.21 1296.41 222.24 1296.38 222.26 1296.34C222.29 1296.31 222.31 1296.27 222.33 1296.23C222.35 1296.19 222.37 1296.14 222.38 1296.1C222.13 1296.08 221.88 1296.06 221.63 1296.06C221.38 1296.05 221.12 1296.06 220.87 1296.07C220.62 1296.09 220.37 1296.11 220.12 1296.15C219.87 1296.18 219.62 1296.22 219.37 1296.27C219.58 1296.37 219.8 1296.45 220.02 1296.51Z" />
			</g>
		</g>
		<g id="_Group_19">
			<path id="_Path_25" fill-rule="evenodd" class="shp5" d="M406.71 1148.64C406.63 1148.64 406.55 1148.64 406.48 1148.62C406.4 1148.61 406.33 1148.58 406.26 1148.55C406.19 1148.52 406.12 1148.49 406.06 1148.45C405.99 1148.4 405.93 1148.36 405.88 1148.3C405.18 1147.61 335.71 1078.51 320.45 1035.87C320.35 1035.58 320.36 1035.26 320.5 1034.97C320.63 1034.69 320.87 1034.47 321.16 1034.37C321.46 1034.27 321.78 1034.28 322.06 1034.41C322.34 1034.55 322.56 1034.79 322.67 1035.08C337.75 1077.21 406.84 1145.94 407.53 1146.62C407.64 1146.73 407.73 1146.86 407.79 1147C407.85 1147.15 407.88 1147.3 407.88 1147.46C407.88 1147.61 407.85 1147.76 407.8 1147.91C407.74 1148.05 407.65 1148.18 407.54 1148.29C407.49 1148.35 407.43 1148.4 407.36 1148.44C407.3 1148.48 407.23 1148.52 407.16 1148.55C407.09 1148.58 407.01 1148.6 406.94 1148.62C406.86 1148.64 406.78 1148.64 406.71 1148.64Z" />
		</g>
		<g id="_Group_20">
			<path id="_Path_26" fill-rule="evenodd" class="shp5" d="M450.9 1085.88C450.77 1085.88 450.64 1085.86 450.52 1085.82C450.4 1085.78 450.28 1085.72 450.18 1085.64C450.08 1085.56 449.99 1085.47 449.92 1085.36C449.85 1085.25 449.8 1085.14 449.76 1085.01C448.74 1081.23 448.48 1076.21 448.24 1071.34C448 1066.61 447.75 1061.71 446.79 1058.17C446.71 1057.87 446.75 1057.55 446.91 1057.28C447.07 1057.01 447.32 1056.81 447.62 1056.73C447.92 1056.65 448.24 1056.69 448.52 1056.85C448.79 1057 448.98 1057.26 449.06 1057.56C450.09 1061.34 450.34 1066.36 450.59 1071.22C450.83 1075.96 451.08 1080.85 452.03 1084.4C452.07 1084.55 452.08 1084.7 452.06 1084.85C452.04 1085.01 451.99 1085.16 451.92 1085.29C451.84 1085.42 451.74 1085.54 451.62 1085.64C451.49 1085.73 451.35 1085.8 451.2 1085.84C451.18 1085.85 451.15 1085.85 451.13 1085.86C451.1 1085.86 451.08 1085.86 451.05 1085.87C451.03 1085.87 451 1085.87 450.97 1085.88C450.95 1085.88 450.92 1085.88 450.9 1085.88Z" />
		</g>
		<g id="_Group_21">
			<path id="_Path_27" fill-rule="evenodd" class="shp6" d="M222.54 1287.04C222.3 1287.04 222.06 1286.97 221.86 1286.83C221.66 1286.69 221.51 1286.49 221.43 1286.26C221.35 1286.03 221.34 1285.78 221.41 1285.55C221.47 1285.32 221.61 1285.11 221.79 1284.95L313 1210.21C313.24 1210.01 313.55 1209.92 313.86 1209.95C314.17 1209.98 314.45 1210.13 314.65 1210.37C314.85 1210.61 314.94 1210.92 314.91 1211.23C314.88 1211.54 314.73 1211.82 314.49 1212.02L223.29 1286.78C223.24 1286.82 223.18 1286.86 223.12 1286.89C223.06 1286.92 223 1286.95 222.94 1286.97C222.87 1287 222.81 1287.01 222.74 1287.02C222.68 1287.04 222.61 1287.04 222.54 1287.04L222.54 1287.04Z" />
		</g>
		<g id="_Group_22">
			<path id="_Path_28" fill-rule="evenodd" class="shp6" d="M202.96 1170.51C202.91 1170.51 202.87 1170.51 202.83 1170.51C202.79 1170.5 202.74 1170.49 202.7 1170.49C202.66 1170.48 202.62 1170.47 202.58 1170.45C202.54 1170.44 202.5 1170.42 202.46 1170.41C202.32 1170.34 202.19 1170.25 202.09 1170.13C201.98 1170.02 201.9 1169.88 201.85 1169.74C201.8 1169.59 201.78 1169.44 201.78 1169.28C201.79 1169.13 201.83 1168.98 201.89 1168.84C202.92 1166.68 226.96 1116.01 235.55 1108.73C235.78 1108.52 236.09 1108.42 236.41 1108.44C236.72 1108.46 237.02 1108.61 237.22 1108.85C237.42 1109.09 237.52 1109.4 237.49 1109.72C237.46 1110.03 237.31 1110.32 237.07 1110.52C228.87 1117.48 204.27 1169.32 204.02 1169.84C203.98 1169.94 203.91 1170.03 203.84 1170.12C203.77 1170.2 203.68 1170.27 203.59 1170.33C203.49 1170.39 203.39 1170.44 203.29 1170.47C203.18 1170.5 203.07 1170.51 202.96 1170.51L202.96 1170.51Z" />
		</g>
		<g id="_Group_23">
			<path id="_Path_29" fill-rule="evenodd" class="shp5" d="M304.1 1042.2C303.81 1042.2 303.54 1042.09 303.32 1041.91C303.11 1041.72 302.97 1041.46 302.93 1041.18C302.89 1040.9 302.95 1040.61 303.11 1040.37C303.27 1040.13 303.51 1039.96 303.78 1039.88C319.66 1035.42 344.08 1026.86 346.22 1021.59C365.35 974.43 323.53 775 323.11 772.99C323.07 772.82 323.08 772.66 323.11 772.49C323.15 772.33 323.22 772.18 323.32 772.04C323.42 771.91 323.54 771.8 323.69 771.72C323.83 771.63 324 771.59 324.16 771.57C324.4 771.55 347.66 769.14 362.76 732.08C376.07 699.41 380.49 682.92 381.45 679L364.92 671.75C364.17 681.82 358.65 733.71 323.64 760.65C323.39 760.84 323.08 760.92 322.77 760.88C322.46 760.84 322.18 760.68 321.99 760.43C321.8 760.18 321.72 759.87 321.76 759.56C321.8 759.26 321.96 758.98 322.2 758.78C360.02 729.68 362.65 670.55 362.67 669.96C362.68 669.76 362.74 669.58 362.83 669.41C362.93 669.24 363.06 669.1 363.23 669C363.39 668.9 363.57 668.84 363.76 668.83C363.96 668.81 364.15 668.85 364.32 668.92L383.29 677.24C383.41 677.3 383.53 677.37 383.62 677.46C383.72 677.56 383.8 677.66 383.86 677.78C383.93 677.9 383.97 678.03 383.98 678.17C384 678.3 384 678.43 383.97 678.56C383.93 678.72 380.4 695.04 364.94 732.97C351.15 766.82 331.02 772.74 325.67 773.73C329.53 792.2 367.22 976.08 348.4 1022.48C345.14 1030.51 308.58 1040.98 304.42 1042.15C304.39 1042.16 304.36 1042.16 304.34 1042.17C304.31 1042.17 304.28 1042.18 304.26 1042.18C304.23 1042.19 304.2 1042.19 304.18 1042.19C304.15 1042.2 304.12 1042.2 304.1 1042.2Z" />
		</g>
		<g id="_Group_24">
			<path id="_Path_30" fill-rule="evenodd" class="shp5" d="M348.87 1019.96C348.77 1019.96 348.68 1019.94 348.59 1019.92C348.5 1019.9 348.41 1019.87 348.32 1019.82C348.24 1019.78 348.16 1019.73 348.09 1019.67C348.02 1019.6 347.96 1019.53 347.9 1019.46C347.83 1019.35 347.78 1019.24 347.74 1019.12C347.7 1019 347.69 1018.87 347.69 1018.75C347.69 1018.62 347.72 1018.5 347.76 1018.38C347.8 1018.26 347.86 1018.15 347.94 1018.05L348.91 1016.8C349.01 1016.68 349.13 1016.58 349.26 1016.5C349.39 1016.43 349.54 1016.38 349.7 1016.36C349.85 1016.34 350 1016.35 350.15 1016.39C350.3 1016.43 350.44 1016.49 350.57 1016.59C350.6 1016.61 350.63 1016.64 350.66 1016.67C350.69 1016.7 350.72 1016.73 350.74 1016.76C350.77 1016.79 350.8 1016.83 350.82 1016.86C350.84 1016.9 350.86 1016.93 350.88 1016.97C358.6 1015.03 366.81 1015.63 374.15 1016.17L391.44 1017.44C391.59 1017.45 391.74 1017.49 391.88 1017.56C392.02 1017.63 392.14 1017.73 392.24 1017.84C392.35 1017.96 392.42 1018.09 392.47 1018.24C392.52 1018.39 392.54 1018.54 392.53 1018.7C392.51 1018.85 392.47 1019 392.4 1019.13C392.33 1019.27 392.23 1019.39 392.11 1019.49C392 1019.59 391.87 1019.67 391.72 1019.72C391.58 1019.77 391.42 1019.79 391.27 1019.79L373.98 1018.51C366.1 1017.94 357.17 1017.27 349.23 1019.9C349.2 1019.91 349.17 1019.91 349.14 1019.92C349.11 1019.93 349.08 1019.94 349.05 1019.94C349.02 1019.95 348.99 1019.95 348.96 1019.95C348.93 1019.95 348.9 1019.96 348.87 1019.96Z" />
		</g>
		<g id="_Group_25">
			<path id="_Path_31" fill-rule="evenodd" class="shp5" d="M349.84 1014.69C349.56 1014.69 349.29 1014.6 349.08 1014.42C348.86 1014.23 348.72 1013.98 348.68 1013.71C348.63 1013.43 348.68 1013.15 348.83 1012.91C348.97 1012.67 349.2 1012.49 349.46 1012.4C352.45 1011.39 355.49 1010.53 358.57 1009.84C361.65 1009.14 364.76 1008.61 367.89 1008.24C371.03 1007.87 374.18 1007.66 377.33 1007.62C380.49 1007.57 383.64 1007.69 386.79 1007.98C387.1 1008.01 387.39 1008.16 387.59 1008.4C387.79 1008.64 387.88 1008.95 387.85 1009.27C387.82 1009.58 387.67 1009.87 387.43 1010.07C387.19 1010.27 386.88 1010.36 386.57 1010.33C383.51 1010.05 380.43 1009.93 377.36 1009.97C374.29 1010.01 371.22 1010.21 368.17 1010.57C365.12 1010.93 362.08 1011.45 359.09 1012.13C356.09 1012.81 353.13 1013.64 350.22 1014.63C350.19 1014.64 350.16 1014.65 350.13 1014.65C350.09 1014.66 350.06 1014.67 350.03 1014.67C350 1014.68 349.97 1014.69 349.94 1014.69C349.9 1014.69 349.87 1014.69 349.84 1014.69Z" />
		</g>
	</g>
	<path id="_Path_32" fill-rule="evenodd" class="shp7" d="M461.58 657.95C460.58 666.99 460.58 683.07 461.58 706.19L380.18 724.27C298.79 742.35 160.56 691.69 148.05 680.55C135.55 669.42 152.57 629.3 164.63 584.05C174.61 546.67 166.01 510.32 159.74 479.24C158.43 472.73 157.21 466.46 156.27 460.43C150.96 425.77 105.86 288.57 129.98 261.42C154.1 234.28 227.39 211.56 286.73 210.18C372.64 208.14 398.98 224.35 418.58 245.45C438.18 266.58 425.4 326.26 425.4 351.88C425.4 352.88 425.42 353.88 425.46 354.88C425.51 355.89 425.57 356.89 425.64 357.89C425.72 358.89 425.82 359.89 425.93 360.88C426.05 361.88 426.18 362.88 426.33 363.87C426.89 367.54 427.67 371.38 428.7 375.53C434.01 397.15 445.51 427.13 461.57 486.06C484.2 568.99 463.1 644.36 461.58 657.95Z" />
	<path id="_Path_33" fill-rule="evenodd" class="shp1" d="M425.4 351.88C425.4 352.88 425.42 353.89 425.47 354.89C425.51 355.89 425.57 356.89 425.64 357.89C425.72 358.89 425.82 359.89 425.93 360.89C426.05 361.88 426.18 362.88 426.33 363.87C420.41 339.93 413.63 292.38 356.14 267.2C281.28 234.41 213.25 295.6 201.47 350.38C190.98 399.1 169.62 467.72 159.74 479.24C158.43 472.73 157.21 466.46 156.27 460.44C150.96 425.77 102.69 283.46 126.81 256.32C150.92 229.17 217.94 193.07 276.21 193.07C334.49 193.07 398.99 224.36 418.59 245.46C438.18 266.58 425.4 326.26 425.4 351.88Z" />
	<path id="_Path_34" fill-rule="evenodd" class="shp0" d="M84.75 348.35C72.04 364.61 -5.68 500.57 0.34 502.37C6.37 504.16 155.04 617.29 157.1 610.33C158.48 605.7 166.02 594.39 179.71 576.42C144.54 514.4 123.94 481 117.91 476.24C108.87 469.09 158.49 421.56 156.29 416.88C154.09 412.19 92.32 338.68 84.75 348.35Z" />
	<path id="_Path_35" fill-rule="evenodd" class="shp1" d="M199.9 302.14C201.59 281.2 230.64 234.96 210.15 221.72C188.44 227.29 176.25 230.58 173.59 231.58C153.22 239.26 134.87 245.63 118.63 261.71C111.18 269.1 104.89 277.56 98.64 285.99C85.06 304.28 71.18 322.36 57.37 340.47C43.79 358.27 35.26 377.02 24 396.35C23.2 397.72 22.38 399.2 22.57 400.77C22.65 401.12 22.75 401.46 22.88 401.79C23 402.12 23.16 402.44 23.33 402.75C23.5 403.06 23.7 403.36 23.92 403.64C24.14 403.93 24.37 404.19 24.63 404.44C35.25 416.85 46.2 428.95 57.5 440.76C79.86 464.12 119.61 501.48 151.4 472.4C171.64 453.89 179.37 419.55 185.44 393.89C187.23 386.35 188.87 378.78 190.36 371.18C191.86 363.57 193.21 355.94 194.42 348.29C195.62 340.64 196.68 332.96 197.6 325.27C198.51 317.57 199.28 309.86 199.9 302.14L199.9 302.14Z" />
	<path id="_Path_36" fill-rule="evenodd" class="shp0" d="M214.72 634.97C214.78 634.83 214.83 634.7 214.87 634.56C214.91 634.42 214.95 634.28 214.97 634.14C215 633.99 215.01 633.85 215.02 633.7C215.02 633.56 215.02 633.41 215.01 633.27C214.89 632.12 214.67 630.97 214.38 629.85C214.09 628.73 213.71 627.63 213.26 626.56C212.81 625.49 212.27 624.46 211.67 623.47C211.06 622.48 210.39 621.54 209.64 620.65C208.9 619.76 208.13 618.89 207.35 618.04C206.56 617.18 205.75 616.35 204.92 615.54C204.09 614.73 203.24 613.94 202.38 613.17C201.51 612.4 200.62 611.65 199.72 610.92C201.37 611.06 203.01 611.31 204.62 611.66C206.24 612.02 207.83 612.49 209.38 613.06C210.94 613.64 212.45 614.32 213.91 615.1C215.37 615.88 216.77 616.76 218.11 617.73C220.19 619.24 222.33 619.89 224.17 621.66C226.36 623.75 227.96 626.85 231.17 627.53C233.68 628.06 236.74 625.42 235.45 623.21C237.17 626.16 241.36 622.3 241.99 620.43C242.69 618.36 242.39 616.1 242.05 613.94C242.42 616.28 250.2 614.8 250.33 611.43C250.44 608.54 246.96 604.3 245.44 602.02C244.37 600.47 243.24 598.95 242.07 597.47C240.9 596 239.68 594.56 238.42 593.16C237.15 591.76 235.85 590.4 234.49 589.09C233.14 587.78 231.75 586.51 230.31 585.28C229.64 584.64 228.94 584.02 228.21 583.44C227.49 582.85 226.75 582.29 225.98 581.76C225.21 581.23 224.43 580.73 223.62 580.26C222.82 579.79 221.99 579.35 221.16 578.94C220.31 578.61 219.45 578.31 218.59 578.04C217.72 577.76 216.85 577.52 215.97 577.3C215.09 577.08 214.2 576.9 213.31 576.74C212.42 576.58 211.52 576.45 210.62 576.35C194.65 573.87 178.81 570.9 162.7 570.16C157.58 569.92 149.52 573.46 145.76 576.94C141.25 581.12 139.78 587.71 139.94 593.85C140.08 599.43 141.49 605.21 145.18 609.41C149.17 613.95 155.22 616.02 161.05 617.6C162.77 618.08 164.51 618.49 166.26 618.83C168.02 619.16 169.78 619.42 171.56 619.61C173.33 619.8 175.11 619.92 176.9 619.96C178.68 620 180.47 619.97 182.25 619.86C189.05 619.43 194.94 620.48 200.59 624.58C204.93 627.73 208.55 631.75 212.65 635.21C212.71 635.27 212.78 635.33 212.85 635.38C212.91 635.44 212.99 635.49 213.06 635.53C213.14 635.57 213.22 635.61 213.3 635.64C213.38 635.67 213.46 635.7 213.55 635.72C213.67 635.73 213.8 635.73 213.92 635.7C214.04 635.67 214.16 635.62 214.27 635.55C214.37 635.48 214.47 635.4 214.54 635.3C214.62 635.2 214.68 635.09 214.72 634.97L214.72 634.97Z" />
	<path id="_Path_37" fill-rule="evenodd" class="shp0" d="M554.76 751.78C554.69 751.92 554.61 752.05 554.51 752.17C554.41 752.29 554.29 752.39 554.17 752.48C554.04 752.57 553.9 752.64 553.76 752.7C553.61 752.75 553.46 752.79 553.31 752.8C552.44 752.8 551.86 751.9 551.53 751.1C549.04 745.11 552.21 735.66 547.47 730.56C544.56 727.42 538.97 731.09 535.7 732.08C535.64 732.09 535.58 732.11 535.53 732.13C535.47 732.15 535.42 732.17 535.37 732.2C535.31 732.22 535.26 732.25 535.21 732.28C535.16 732.31 535.11 732.35 535.07 732.38C534.07 733.34 536.69 740.14 537.09 741.38C537.36 742.21 537.66 743.04 537.98 743.85C538.31 744.66 538.66 745.47 539.03 746.26C539.41 747.05 539.81 747.83 540.23 748.6C540.66 749.37 541.1 750.12 541.58 750.86C542.53 752.32 543.54 753.74 544.59 755.12C545.64 756.51 546.75 757.86 547.89 759.17C549.04 760.47 550.23 761.74 551.46 762.97C552.7 764.2 553.97 765.38 555.29 766.52C558.22 769.16 561.36 771.88 562.61 775.62C562.99 776.76 563.11 778.2 562.22 779.01C561.35 779.81 559.99 779.61 558.86 779.3C556.86 778.76 554.92 778.05 553.04 777.18C551.16 776.31 549.36 775.28 547.65 774.11C545.95 772.94 544.34 771.63 542.86 770.19C541.37 768.75 540.01 767.19 538.78 765.52L545.03 774.41C546.47 776.46 549.26 778.96 550.2 781.2C552.31 786.25 547.25 787.54 543.41 786.39C543.31 786.34 543.21 786.31 543.1 786.29C542.99 786.27 542.88 786.27 542.77 786.28C542.66 786.3 542.56 786.33 542.46 786.37C542.36 786.42 542.27 786.48 542.18 786.55C542.16 786.59 542.14 786.63 542.12 786.68C542.1 786.72 542.09 786.77 542.08 786.81C542.06 786.86 542.05 786.9 542.05 786.95C542.04 787 542.04 787.04 542.04 787.09C542.05 787.4 542.03 787.71 541.98 788.02C541.94 788.33 541.87 788.63 541.77 788.93C541.67 789.22 541.55 789.51 541.41 789.78C541.26 790.06 541.09 790.32 540.91 790.57C539.25 792.25 536.86 790.49 535.18 791.81C533.73 792.95 534.27 794.95 533.93 796.54C533.26 799.76 532.01 801.03 528.58 799.96C528.32 799.87 528.06 799.78 527.8 799.68C527.54 799.59 527.28 799.49 527.02 799.39C526.76 799.28 526.5 799.18 526.25 799.07C525.99 798.96 525.74 798.84 525.49 798.72C523.82 797.95 522.19 797.11 520.59 796.2C519 795.28 517.44 794.3 515.93 793.26C514.41 792.21 512.95 791.1 511.53 789.93C510.12 788.76 508.75 787.53 507.44 786.24C496.89 775.79 490.17 761.73 487.06 747.32C486.12 742.98 485.25 738.63 484.43 734.27C483.61 729.91 482.85 725.54 482.15 721.15C481.45 716.77 480.81 712.38 480.23 707.98C479.65 703.58 479.14 699.17 478.68 694.76L478.52 695.15C479.99 691.4 487.21 687.57 490.52 685.62C494.23 683.45 500.62 678.89 504.9 678.47C508.91 678.08 545.75 705.35 551.69 711.36C560.93 720.71 560.19 740.04 555.12 751.11C555.1 751.17 555.07 751.22 555.04 751.28C555.01 751.34 554.98 751.39 554.95 751.45C554.92 751.51 554.89 751.56 554.86 751.62C554.83 751.67 554.79 751.73 554.76 751.78L554.76 751.78Z" />
	<path id="_Path_38" fill-rule="evenodd" class="shp6" d="M238 24.71C254.17 9.08 269.18 2.78 283.04 5.81C303.82 10.37 331.48 43.54 345.92 46.98L360.36 50.42C350.05 66.37 339.47 74.48 328.62 74.75C328.86 91.58 326.08 105.64 320.27 116.95C311.55 133.92 258.49 177.95 255.7 172.6C249.67 161.07 252.96 158.16 248.84 156.63C244.72 155.1 212.51 133.25 203.39 84.34C198.69 59.13 199.99 26.44 238 24.71Z" />
	<path id="_Path_39" fill-rule="evenodd" class="shp0" d="M306.32 168.35C308.9 182.65 310.82 190.45 312.08 191.75C313.35 193.04 316.65 195.06 321.98 197.8C322.95 219.87 310.36 231.94 284.23 234.02C255.64 236.3 232.18 200.41 234.13 198.52C236.07 196.62 243.82 187.73 244.48 183C244.91 179.85 248.21 155.13 254.36 108.82L306.32 168.35Z" />
	<path id="_Path_40" fill-rule="evenodd" class="shp8" d="M306.63 170L307.13 172.62C302.35 184.15 296 189.59 288.07 188.94C267.71 187.28 251.84 144.17 251.57 139.25C251.39 135.96 251.98 129.32 253.33 119.31C257.27 134.47 260.87 143.5 264.13 146.41C269.14 150.88 308.94 170.76 306.63 170Z" />
	<path id="_Path_41" fill-rule="evenodd" class="shp0" d="M273.69 54.34C297.46 69.19 312.7 75.54 319.42 73.4C334.49 68.6 339.49 165.4 304.6 170.41C278.73 174.12 266.64 166.78 258.99 146.67C256.1 139.08 254.64 129.91 254.61 119.17C247.84 118.45 243.78 113.1 242.42 103.13C240.4 88.17 245.23 83.94 252.22 92.61C256.87 98.38 264.03 85.62 273.69 54.34Z" />
	<g id="_Group_26">
		<path id="_Path_42" fill-rule="evenodd" class="shp6" d="M245.13 151.07C236.93 151.07 228.51 147.48 221.39 140.94C214.32 134.44 209.58 126.12 206.24 119.6C204.45 116.15 202.84 112.61 201.41 109C199.99 105.39 198.76 101.7 197.72 97.96C196.68 94.22 195.83 90.43 195.19 86.6C194.54 82.77 194.09 78.91 193.84 75.03C193.05 60.55 193.74 44.19 204.91 32.63C213.09 24.16 226.82 18.64 239.46 24.93C244.54 16.6 252.89 9.2 262.54 4.51C264.92 3.33 267.41 2.38 269.96 1.65C272.52 0.93 275.14 0.44 277.78 0.2C280.43 -0.04 283.09 -0.04 285.74 0.2C288.38 0.45 291 0.94 293.56 1.66C303.83 4.76 311.01 11.7 317.95 18.41C318.93 19.41 319.94 20.39 320.96 21.35C321.98 22.31 323.02 23.25 324.08 24.16C325.13 25.08 326.21 25.98 327.3 26.86C328.4 27.74 329.51 28.59 330.64 29.42C333.83 31.67 337.16 33.73 340.6 35.59C344.04 37.45 347.58 39.1 351.22 40.54C354.85 41.99 358.56 43.21 362.34 44.22C366.12 45.23 369.95 46.01 373.82 46.57C374 46.59 374.17 46.65 374.32 46.75C374.46 46.85 374.59 46.99 374.68 47.14C374.77 47.3 374.82 47.47 374.83 47.65C374.84 47.82 374.82 48 374.75 48.17C372.35 54.15 368.7 59.55 364.03 64C359.36 68.44 353.79 71.83 347.7 73.94C341.61 76.04 335.13 76.81 328.72 76.19C322.3 75.57 316.1 73.58 310.52 70.35C303.49 66.29 297.66 60.3 292.9 54.99C292.7 54.76 292.6 54.45 292.63 54.15C292.65 53.85 292.79 53.56 293.01 53.36C293.24 53.16 293.54 53.05 293.84 53.06C294.15 53.07 294.44 53.2 294.65 53.42C299.29 58.59 304.95 64.41 311.69 68.32C316.87 71.32 322.62 73.19 328.57 73.81C334.52 74.44 340.53 73.81 346.22 71.95C351.91 70.1 357.14 67.07 361.58 63.06C366.02 59.05 369.56 54.15 371.98 48.67C368.16 48.06 364.37 47.24 360.64 46.2C356.91 45.16 353.24 43.9 349.65 42.45C346.06 40.99 342.55 39.33 339.15 37.48C335.75 35.63 332.46 33.58 329.29 31.35C328.13 30.5 327 29.63 325.88 28.73C324.76 27.84 323.66 26.92 322.58 25.98C321.5 25.04 320.44 24.08 319.39 23.1C318.35 22.12 317.33 21.12 316.32 20.1C309.27 13.28 302.6 6.85 292.88 3.91C290.46 3.23 287.99 2.77 285.49 2.54C282.99 2.31 280.47 2.31 277.97 2.54C275.47 2.77 273 3.24 270.58 3.92C268.17 4.61 265.82 5.51 263.57 6.63C253.96 11.3 245.71 18.75 240.93 27.08C240.86 27.21 240.75 27.32 240.63 27.42C240.51 27.51 240.38 27.58 240.23 27.62C240.08 27.66 239.93 27.67 239.78 27.66C239.62 27.64 239.48 27.59 239.34 27.52C227.53 21.01 214.39 26.21 206.61 34.26C196.07 45.18 195.43 60.93 196.2 74.9C196.44 78.69 196.88 82.47 197.51 86.22C198.15 89.97 198.97 93.68 199.99 97.35C201.01 101.01 202.22 104.62 203.61 108.15C205.01 111.69 206.58 115.15 208.34 118.53C211.59 124.87 216.19 132.96 222.99 139.21C229.79 145.45 237.79 148.79 245.48 148.71C245.79 148.71 246.09 148.83 246.31 149.05C246.54 149.27 246.66 149.56 246.67 149.88C246.67 150.19 246.55 150.49 246.33 150.71C246.12 150.94 245.82 151.06 245.51 151.07L245.13 151.07Z" />
	</g>
	<path id="_Path_43" fill-rule="evenodd" class="shp6" d="M310.76 99.4C310.73 103.11 312.29 106.13 314.26 106.14C316.22 106.16 317.84 103.17 317.88 99.47C317.91 95.77 316.35 92.75 314.38 92.73C312.42 92.71 310.8 95.7 310.76 99.4Z" />
	<path id="_Path_44" fill-rule="evenodd" class="shp6" d="M279.82 98.46C279.78 102.16 281.35 105.18 283.31 105.19C285.28 105.21 286.9 102.23 286.93 98.52C286.97 94.82 285.4 91.8 283.44 91.78C281.47 91.76 279.85 94.75 279.82 98.46Z" />
	<g id="_Group_27">
		<path id="_Path_45" fill-rule="evenodd" class="shp6" d="M252.97 110.26C252.84 110.26 252.71 110.23 252.59 110.19C252.47 110.15 252.35 110.09 252.25 110.01C252.15 109.93 252.06 109.83 251.99 109.73C251.92 109.62 251.86 109.5 251.83 109.37C251.62 108.57 251.34 107.8 251.01 107.04C250.67 106.29 250.26 105.57 249.8 104.89C249.34 104.2 248.82 103.56 248.26 102.96C247.69 102.37 247.07 101.82 246.41 101.32C246.15 101.14 245.98 100.86 245.93 100.55C245.87 100.24 245.95 99.91 246.14 99.66C246.33 99.4 246.61 99.24 246.93 99.19C247.24 99.15 247.56 99.23 247.81 99.43C248.58 100 249.3 100.64 249.96 101.33C250.63 102.02 251.23 102.77 251.76 103.57C252.3 104.36 252.77 105.2 253.16 106.08C253.55 106.95 253.87 107.86 254.11 108.79C254.15 108.94 254.16 109.09 254.13 109.24C254.11 109.4 254.06 109.54 253.98 109.68C253.9 109.81 253.8 109.93 253.68 110.02C253.55 110.11 253.41 110.18 253.26 110.22C253.24 110.22 253.21 110.23 253.19 110.23C253.17 110.24 253.14 110.24 253.12 110.25C253.09 110.25 253.07 110.25 253.04 110.25C253.02 110.25 253 110.26 252.97 110.26L252.97 110.26Z" />
	</g>
	<g id="_Group_28">
		<path id="_Path_46" fill-rule="evenodd" class="shp6" d="M291.88 87.1C291.84 87.1 291.8 87.1 291.76 87.09C291.72 87.09 291.68 87.08 291.64 87.07C291.59 87.06 291.55 87.05 291.51 87.04C291.47 87.03 291.44 87.01 291.4 86.99C290.33 86.52 289.21 86.15 288.07 85.9C286.92 85.65 285.76 85.52 284.59 85.5C283.41 85.49 282.24 85.59 281.09 85.81C279.94 86.03 278.82 86.37 277.74 86.81C277.45 86.93 277.12 86.94 276.84 86.82C276.55 86.7 276.32 86.47 276.2 86.18C276.07 85.9 276.07 85.57 276.19 85.28C276.31 84.99 276.53 84.76 276.82 84.64C278.05 84.13 279.34 83.75 280.64 83.5C281.95 83.25 283.29 83.14 284.62 83.15C285.95 83.17 287.28 83.32 288.58 83.61C289.88 83.89 291.15 84.31 292.37 84.85C292.62 84.96 292.82 85.15 292.94 85.39C293.06 85.63 293.09 85.91 293.04 86.17C292.98 86.43 292.83 86.67 292.62 86.84C292.41 87.01 292.15 87.1 291.88 87.1Z" />
	</g>
	<g id="_Group_29">
		<path id="_Path_47" fill-rule="evenodd" class="shp6" d="M302.04 139.95C301.24 139.95 300.41 139.92 299.57 139.85C298.57 139.74 297.57 139.61 296.57 139.46C295.57 139.3 294.58 139.11 293.59 138.9C292.6 138.7 291.62 138.46 290.64 138.2C289.66 137.94 288.69 137.65 287.73 137.34C287.43 137.25 287.18 137.05 287.03 136.77C286.88 136.5 286.85 136.18 286.94 135.88C287.03 135.58 287.23 135.33 287.51 135.18C287.78 135.03 288.1 135 288.4 135.08C289.32 135.39 290.25 135.66 291.19 135.92C292.12 136.17 293.07 136.39 294.02 136.6C294.96 136.8 295.92 136.98 296.87 137.13C297.83 137.28 298.79 137.4 299.76 137.5C300.69 137.6 301.63 137.64 302.57 137.62C303.51 137.6 304.45 137.52 305.38 137.38C306.31 137.24 307.23 137.04 308.13 136.78C309.04 136.52 309.92 136.2 310.78 135.82C311.07 135.7 311.38 135.69 311.67 135.8C311.96 135.91 312.19 136.12 312.32 136.4C312.45 136.68 312.47 137 312.37 137.29C312.26 137.58 312.05 137.82 311.78 137.95C311.02 138.3 310.23 138.59 309.44 138.85C308.65 139.11 307.84 139.32 307.02 139.49C306.2 139.65 305.37 139.78 304.54 139.85C303.71 139.93 302.88 139.96 302.04 139.95Z" />
	</g>
	<g id="_Group_30">
		<path id="_Path_48" fill-rule="evenodd" class="shp6" d="M300.95 148.19C300.68 148.19 300.41 148.18 300.15 148.17C299.88 148.16 299.61 148.15 299.35 148.13C299.08 148.1 298.82 148.08 298.55 148.05C298.29 148.02 298.02 147.98 297.76 147.94C297.61 147.91 297.46 147.86 297.33 147.78C297.2 147.7 297.08 147.59 296.99 147.47C296.9 147.34 296.83 147.2 296.8 147.05C296.76 146.9 296.75 146.75 296.78 146.59C296.8 146.44 296.86 146.3 296.94 146.17C297.02 146.03 297.12 145.92 297.25 145.83C297.37 145.74 297.51 145.67 297.66 145.64C297.81 145.6 297.97 145.59 298.12 145.61C298.64 145.69 299.16 145.75 299.68 145.79C300.21 145.83 300.73 145.84 301.26 145.83C301.78 145.82 302.3 145.79 302.82 145.74C303.35 145.68 303.87 145.61 304.38 145.51C304.68 145.45 305 145.52 305.25 145.7C305.51 145.87 305.68 146.14 305.74 146.45C305.8 146.75 305.73 147.06 305.56 147.32C305.39 147.58 305.12 147.76 304.82 147.82C304.5 147.88 304.18 147.93 303.86 147.98C303.54 148.03 303.22 148.06 302.89 148.09C302.57 148.13 302.24 148.15 301.92 148.16C301.6 148.18 301.27 148.19 300.95 148.19L300.95 148.19Z" />
	</g>
	<g id="_Group_31">
		<path id="_Path_49" fill-rule="evenodd" class="shp6" d="M321.07 88.44C321.04 88.44 321.01 88.43 320.98 88.43C320.95 88.43 320.92 88.43 320.89 88.42C320.86 88.42 320.83 88.41 320.8 88.41C320.77 88.4 320.75 88.39 320.72 88.38C319.79 88.1 318.84 87.88 317.88 87.72C316.93 87.57 315.96 87.48 314.99 87.45C314.02 87.43 313.05 87.47 312.08 87.58C311.12 87.69 310.16 87.87 309.22 88.11C308.92 88.17 308.61 88.12 308.35 87.96C308.09 87.8 307.9 87.55 307.82 87.25C307.75 86.95 307.79 86.64 307.94 86.37C308.09 86.11 308.34 85.91 308.64 85.83C309.68 85.56 310.74 85.36 311.82 85.24C312.89 85.11 313.97 85.07 315.05 85.09C316.13 85.12 317.2 85.22 318.27 85.39C319.33 85.57 320.39 85.82 321.42 86.13C321.69 86.22 321.92 86.4 322.07 86.63C322.22 86.87 322.28 87.16 322.23 87.44C322.19 87.72 322.05 87.97 321.84 88.15C321.62 88.34 321.35 88.44 321.07 88.44L321.07 88.44Z" />
	</g>
	<g id="_Group_32">
		<path id="_Path_50" fill-rule="evenodd" class="shp6" d="M304.22 125.76C303.86 125.76 303.5 125.74 303.14 125.71C302.78 125.67 302.43 125.61 302.08 125.53C301.73 125.45 301.38 125.36 301.04 125.24C300.7 125.12 300.37 124.99 300.05 124.83C299.76 124.7 299.55 124.46 299.45 124.16C299.34 123.87 299.36 123.54 299.5 123.26C299.63 122.98 299.87 122.77 300.17 122.66C300.46 122.56 300.78 122.58 301.07 122.71C301.85 123.07 302.7 123.29 303.56 123.38C304.42 123.46 305.29 123.4 306.13 123.2C306.97 123 307.78 122.66 308.51 122.2C309.24 121.74 309.89 121.16 310.43 120.48C310.49 120.42 310.54 120.35 310.59 120.28C310.64 120.2 310.69 120.13 310.73 120.05C310.77 119.97 310.8 119.89 310.83 119.81C310.86 119.73 310.88 119.64 310.9 119.56C310.89 119.43 310.86 119.3 310.83 119.18C310.8 119.05 310.76 118.93 310.71 118.81C310.66 118.69 310.61 118.57 310.55 118.46C310.48 118.35 310.42 118.24 310.34 118.13C304.5 108.12 302.05 98.71 303.04 90.17C303.04 89.94 303.08 89.71 303.14 89.48C303.21 89.26 303.3 89.05 303.43 88.85C303.55 88.66 303.7 88.48 303.87 88.32C304.04 88.16 304.23 88.03 304.43 87.92C304.71 87.81 305.02 87.81 305.3 87.92C305.58 88.03 305.8 88.24 305.93 88.5C306.06 88.77 306.09 89.08 306 89.37C305.91 89.65 305.71 89.89 305.45 90.04C305.44 90.07 305.43 90.11 305.43 90.14C305.42 90.17 305.41 90.21 305.4 90.24C305.4 90.27 305.39 90.31 305.39 90.34C305.38 90.38 305.38 90.41 305.37 90.44C304.44 98.47 306.8 107.39 312.37 116.95C312.51 117.16 312.64 117.37 312.75 117.6C312.86 117.82 312.96 118.05 313.03 118.29C313.1 118.53 313.16 118.77 313.2 119.02C313.23 119.26 313.25 119.51 313.25 119.76C313.22 119.96 313.18 120.16 313.13 120.35C313.08 120.54 313.01 120.73 312.93 120.91C312.85 121.09 312.76 121.27 312.65 121.44C312.55 121.61 312.43 121.77 312.3 121.92C311.82 122.52 311.27 123.07 310.66 123.55C310.05 124.03 309.4 124.44 308.7 124.77C308 125.1 307.27 125.35 306.51 125.52C305.76 125.68 304.99 125.77 304.22 125.76Z" />
	</g>
	<path id="_Path_51" fill-rule="evenodd" class="shp7" d="M237.08 195.24C241.8 208.02 251.53 217.02 266.27 222.24C288.37 230.05 315.44 220.96 320.37 195.07L327.04 198.75C327.11 216.26 316.09 227.6 293.98 232.79C260.8 240.57 237.27 213.61 229.77 198.55L237.08 195.24Z" />
	<g id="_Group_33">
		<path id="_Path_52" fill-rule="evenodd" class="shp3" d="M432.26 454.75C423.16 452.2 414.26 449.03 405.6 445.26C396.93 441.5 388.54 437.15 380.47 432.24C372.4 427.34 364.67 421.89 357.34 415.93C350.01 409.98 343.1 403.53 336.65 396.63L338.36 395.02C344.74 401.84 351.58 408.22 358.83 414.11C366.07 419.99 373.71 425.38 381.69 430.23C389.67 435.08 397.97 439.38 406.53 443.1C415.1 446.83 423.9 449.96 432.89 452.48L432.26 454.75Z" />
	</g>
	<g id="_Group_34">
		<path id="_Path_53" fill-rule="evenodd" class="shp3" d="M398.73 435.28C396.33 433.9 394.03 432.37 391.85 430.68C389.66 428.99 387.59 427.15 385.66 425.18C383.73 423.21 381.93 421.1 380.29 418.88C378.65 416.65 377.17 414.32 375.85 411.89L377.92 410.78C379.19 413.11 380.61 415.35 382.19 417.48C383.76 419.61 385.49 421.64 387.34 423.53C389.2 425.43 391.18 427.19 393.28 428.81C395.38 430.43 397.59 431.91 399.89 433.22L398.73 435.28Z" />
	</g>
	<g id="_Group_35">
		<path id="_Path_54" fill-rule="evenodd" class="shp3" d="M370.25 696.93L369.9 694.6C378.54 693.24 387.02 690.98 395.19 687.86C403.36 684.73 411.18 680.76 418.53 676.01C425.87 671.25 432.7 665.75 438.9 659.57C445.1 653.4 450.63 646.59 455.42 639.26L457.39 640.53C452.52 648 446.88 654.94 440.56 661.23C434.25 667.52 427.29 673.14 419.8 677.98C412.32 682.82 404.35 686.87 396.02 690.06C387.69 693.24 379.06 695.54 370.25 696.93L370.25 696.93Z" />
	</g>
	<g id="_Group_36">
		<path id="_Path_55" fill-rule="evenodd" class="shp3" d="M368.06 705.73C367.68 705.73 367.31 705.72 366.93 705.71C366.56 705.7 366.18 705.68 365.81 705.65C365.43 705.62 365.06 705.59 364.69 705.54C364.31 705.5 363.94 705.45 363.57 705.4L363.92 703.07C366.38 703.41 368.86 703.45 371.33 703.18C373.79 702.91 376.22 702.34 378.54 701.48C380.87 700.62 383.08 699.48 385.12 698.07C387.17 696.67 389.03 695.02 390.67 693.16L392.46 694.7C390.93 696.42 389.23 697.98 387.38 699.35C385.53 700.71 383.54 701.88 381.44 702.83C379.34 703.77 377.15 704.5 374.9 704.99C372.65 705.47 370.36 705.72 368.06 705.73Z" />
	</g>
	<g id="_Group_37">
		<path id="_Path_56" fill-rule="evenodd" class="shp3" d="M233.14 550.01C231.86 548.53 230.48 547.13 229 545.84C227.53 544.54 225.97 543.34 224.34 542.26C222.71 541.17 221 540.2 219.23 539.34C217.47 538.48 215.65 537.75 213.78 537.14L214.51 534.9C216.48 535.55 218.4 536.32 220.26 537.22C222.12 538.12 223.92 539.15 225.64 540.3C227.36 541.44 229.01 542.7 230.56 544.07C232.11 545.44 233.57 546.91 234.92 548.47L233.14 550.01Z" />
	</g>
	<g id="_Group_38">
		<path id="_Path_57" fill-rule="evenodd" class="shp3" d="M278.38 626.13C275.44 620.2 272.27 614.4 268.85 608.73C265.44 603.07 261.8 597.55 257.93 592.18C254.06 586.82 249.97 581.62 245.68 576.59C241.38 571.56 236.88 566.72 232.18 562.06L233.84 560.39C238.58 565.09 243.13 569.99 247.46 575.06C251.8 580.14 255.93 585.39 259.84 590.81C263.74 596.22 267.42 601.8 270.87 607.52C274.31 613.24 277.52 619.09 280.49 625.08L278.38 626.13Z" />
	</g>
	<g id="_Group_39">
		<path id="_Path_58" fill-rule="evenodd" class="shp9" d="M281.86 236.44C280.21 236.45 278.57 236.37 276.93 236.2C275.29 236.02 273.66 235.77 272.05 235.42C270.44 235.08 268.85 234.65 267.29 234.13C265.72 233.62 264.19 233.02 262.69 232.34C241.54 222.76 229.06 200.18 228.54 199.23L231 197.88C231.12 198.11 243.57 220.59 263.84 229.79C284.8 239.29 306.48 229.26 312.92 222.05L313.59 221.3C320.28 213.81 322.53 211.29 325.62 199.52L328.34 200.24C325.08 212.66 322.52 215.52 315.69 223.17L315.02 223.92C310.12 229.41 297.01 236.44 281.86 236.44Z" />
	</g>
	<g id="_Group_40">
		<path id="_Path_59" fill-rule="evenodd" class="shp9" d="M176.57 310.6C155.63 261.08 130.97 252.58 130.73 252.5L131.45 250.25C132.49 250.59 157.32 259.03 178.74 309.68L176.57 310.6Z" />
	</g>
	<g id="_Group_41">
		<path id="_Path_60" fill-rule="evenodd" class="shp9" d="M157.31 466.79L155.27 465.61C181.41 420.29 181.05 364.14 181.04 363.58L183.39 363.55C183.4 364.12 183.77 420.89 157.31 466.79Z" />
	</g>
	<g id="_Group_42">
		<path id="_Path_61" fill-rule="evenodd" class="shp9" d="M179.98 399.77L177.95 398.56C183.39 389.45 190.59 363.51 190.67 363.25L192.93 363.88C192.64 364.95 185.57 390.39 179.98 399.77Z" />
	</g>
	<g id="_Group_43">
		<path id="_Path_62" fill-rule="evenodd" class="shp9" d="M463 496.52C462.94 496.29 456.66 472.75 451.31 454.16C449.2 446.8 445.57 434.95 441.73 422.4C435.78 402.95 429.05 380.9 426.31 370.3C421.81 352.92 428.06 300.51 428.33 298.29L430.66 298.57C430.6 299.11 424.2 352.76 428.58 369.71C431.32 380.26 438.05 402.28 443.98 421.71C447.82 434.27 451.45 446.13 453.57 453.5C458.93 472.12 465.21 495.68 465.28 495.91L463 496.52Z" />
	</g>
	<g id="_Group_44">
		<path id="_Path_63" fill-rule="evenodd" class="shp9" d="M426.53 352.21L424.27 351.55L431.6 326.21L433.87 326.87L426.53 352.21Z" />
	</g>
	<g id="_Group_45">
		<path id="_Path_64" fill-rule="evenodd" class="shp9" d="M127.8 424C123.88 417.4 120.37 410.57 117.27 403.55C114.17 396.54 111.49 389.34 109.26 382C107.03 374.66 105.24 367.19 103.9 359.63C102.56 352.08 101.68 344.45 101.26 336.79L103.61 336.66C104.03 344.23 104.9 351.76 106.22 359.23C107.54 366.69 109.31 374.06 111.51 381.31C113.72 388.56 116.36 395.67 119.42 402.6C122.48 409.54 125.96 416.28 129.83 422.79L127.8 424Z" />
	</g>
	<g id="_Group_46">
		<path id="_Path_65" fill-rule="evenodd" class="shp9" d="M127 402.12C125.8 400.01 124.66 397.87 123.6 395.69C122.53 393.51 121.54 391.3 120.62 389.05C119.69 386.81 118.84 384.54 118.07 382.24C117.29 379.94 116.59 377.62 115.96 375.28L118.23 374.67C118.85 376.96 119.54 379.24 120.3 381.49C121.06 383.74 121.89 385.96 122.79 388.16C123.7 390.36 124.67 392.53 125.71 394.66C126.76 396.8 127.87 398.9 129.05 400.96L127 402.12Z" />
	</g>
	<g id="_Group_47">
		<path id="_Path_66" fill-rule="evenodd" class="shp6" d="M39.13 484.2C38.89 484.19 38.64 484.12 38.44 483.97C38.24 483.82 38.09 483.61 38.02 483.38C37.94 483.14 37.94 482.89 38.02 482.65C38.1 482.41 38.25 482.21 38.45 482.06C39.52 481.29 65.35 463.42 123.78 481.84C124.07 481.94 124.31 482.15 124.45 482.42C124.59 482.7 124.62 483.02 124.53 483.31C124.43 483.6 124.23 483.85 123.96 483.99C123.69 484.14 123.37 484.17 123.07 484.08C65.75 466.02 40.08 483.79 39.82 483.97C39.77 484.01 39.72 484.04 39.67 484.07C39.61 484.1 39.56 484.12 39.5 484.14C39.44 484.16 39.38 484.17 39.32 484.18C39.26 484.19 39.2 484.2 39.13 484.2L39.13 484.2Z" />
	</g>
	<g id="_Group_48">
		<path id="_Path_67" fill-rule="evenodd" class="shp6" d="M146.85 586.91C146.63 586.91 146.41 586.85 146.23 586.73C146.04 586.62 145.89 586.45 145.79 586.26C145.7 586.06 145.66 585.84 145.67 585.63C145.69 585.41 145.77 585.2 145.9 585.02C146.48 584.26 160.19 566.29 176.33 568.98C176.64 569.03 176.93 569.2 177.11 569.45C177.3 569.71 177.37 570.03 177.32 570.34C177.27 570.65 177.09 570.93 176.83 571.11C176.57 571.29 176.25 571.36 175.94 571.3C161.22 568.82 147.92 586.26 147.79 586.44C147.73 586.51 147.67 586.58 147.6 586.64C147.53 586.69 147.45 586.74 147.37 586.78C147.29 586.83 147.21 586.86 147.12 586.88C147.03 586.9 146.94 586.91 146.85 586.91Z" />
	</g>
	<g id="_Group_49">
		<path id="_Path_68" fill-rule="evenodd" class="shp6" d="M214.15 630.07C214.03 630.07 213.91 630.05 213.79 630.02C213.68 629.98 213.57 629.93 213.47 629.86C213.37 629.79 213.29 629.7 213.21 629.61C213.14 629.51 213.08 629.4 213.04 629.29C213.01 629.19 209.36 619.38 200.86 613.45C192.29 607.47 183.52 608.32 182.79 608.61C182.68 608.7 182.54 608.77 182.4 608.8C182.25 608.84 182.1 608.85 181.96 608.83C181.81 608.81 181.67 608.75 181.54 608.67C181.41 608.6 181.3 608.49 181.22 608.37C181.13 608.24 181.06 608.09 181.03 607.94C180.99 607.78 180.99 607.62 181.01 607.47C181.04 607.31 181.09 607.16 181.17 607.02C181.25 606.88 181.36 606.76 181.49 606.67C182.85 605.57 193.11 605.17 202.21 611.52C211.34 617.89 215.1 628.06 215.26 628.49C215.31 628.63 215.33 628.79 215.32 628.94C215.32 629.09 215.28 629.25 215.22 629.39C215.15 629.53 215.06 629.65 214.94 629.76C214.83 629.86 214.7 629.94 214.55 629.99C214.52 630.01 214.49 630.02 214.45 630.03C214.42 630.04 214.39 630.04 214.35 630.05C214.32 630.06 214.29 630.06 214.25 630.06C214.22 630.07 214.18 630.07 214.15 630.07Z" />
	</g>
	<g id="_Group_50">
		<path id="_Path_69" fill-rule="evenodd" class="shp6" d="M237.09 625.45C237.06 625.45 237.03 625.45 237 625.45C236.97 625.45 236.94 625.45 236.91 625.44C236.88 625.44 236.85 625.44 236.82 625.44C236.79 625.44 236.76 625.43 236.73 625.43C236.47 625.41 236.22 625.35 235.98 625.26C235.74 625.16 235.51 625.04 235.31 624.89C235.1 624.73 234.92 624.55 234.76 624.35C234.6 624.15 234.47 623.93 234.37 623.69C234.31 623.51 231.85 616.37 223.35 609.38C214.74 602.31 195.03 597.07 194.83 597.02C194.53 596.94 194.27 596.74 194.11 596.47C193.96 596.2 193.91 595.88 193.99 595.58C194.07 595.28 194.27 595.02 194.54 594.87C194.8 594.71 195.13 594.66 195.43 594.74C196.26 594.96 215.83 600.16 224.84 607.56C233.9 615.01 236.46 622.53 236.56 622.84C236.58 622.88 236.61 622.92 236.64 622.95C236.66 622.98 236.7 623 236.73 623.03C236.77 623.05 236.81 623.06 236.85 623.07C236.89 623.09 236.93 623.09 236.98 623.09C237.8 623.2 239.53 622.24 240.54 620.86C241.45 619.6 240.68 612.96 230.18 603.82C219.93 594.91 201.85 590.04 201.67 589.99C201.36 589.92 201.1 589.72 200.93 589.45C200.77 589.18 200.73 588.85 200.81 588.55C200.89 588.24 201.09 587.98 201.37 587.82C201.64 587.67 201.97 587.63 202.27 587.72C203.04 587.92 221.07 592.78 231.72 602.05C243.06 611.9 244.31 619.66 242.44 622.24C241.28 623.85 239.05 625.45 237.09 625.45Z" />
	</g>
	<g id="_Group_51">
		<path id="_Path_70" fill-rule="evenodd" class="shp6" d="M553.22 753.39C553.2 753.39 553.18 753.39 553.17 753.39C553.15 753.39 553.13 753.39 553.11 753.39C553.09 753.39 553.08 753.39 553.06 753.38C553.04 753.38 553.02 753.38 553.01 753.38C548.37 752.53 548.04 741.15 548.04 741.03C547.99 737.12 547.55 734.31 545.31 730.66C545.29 730.62 545.27 730.58 545.24 730.53C545.21 730.49 545.18 730.45 545.15 730.41C545.12 730.37 545.09 730.34 545.06 730.3C545.02 730.26 544.99 730.23 544.95 730.2C544.89 730.2 544.84 730.22 544.78 730.23C544.72 730.24 544.66 730.26 544.6 730.27C544.55 730.29 544.49 730.31 544.44 730.33C544.38 730.35 544.32 730.38 544.27 730.4C539.42 732.33 534.17 734.14 528.66 734.24C520.01 734.43 510.4 728.77 506.94 721.39C505.25 717.8 504.92 713.74 504.63 710.15C504.61 709.84 504.71 709.54 504.91 709.3C505.11 709.06 505.39 708.92 505.7 708.89C506.01 708.86 506.32 708.96 506.56 709.16C506.79 709.36 506.94 709.65 506.97 709.96C507.26 713.51 507.56 717.18 509.06 720.39C512.17 726.99 520.7 732.06 528.61 731.89C533.74 731.79 538.75 730.06 543.4 728.21C543.73 728.01 544.1 727.88 544.48 727.83C544.87 727.79 545.26 727.82 545.63 727.94C546 728.05 546.34 728.24 546.63 728.5C546.92 728.75 547.16 729.07 547.32 729.42C549.83 733.52 550.34 736.77 550.39 741C550.43 744.35 551.7 750.74 553.43 751.06C553.72 751.1 553.99 751.26 554.17 751.49C554.35 751.73 554.44 752.02 554.41 752.32C554.39 752.62 554.25 752.9 554.03 753.09C553.81 753.29 553.52 753.4 553.22 753.39Z" />
	</g>
	<g id="_Group_52">
		<path id="_Path_71" fill-rule="evenodd" class="shp6" d="M547.05 788.17C546.87 788.17 546.7 788.16 546.53 788.15C546.36 788.14 546.19 788.12 546.02 788.09C545.85 788.07 545.68 788.04 545.51 788C545.34 787.96 545.18 787.92 545.01 787.87C540.8 786.64 533.77 780.84 528.5 772.15C523.52 763.94 519.75 753.06 519.6 752.6C519.5 752.3 519.52 751.98 519.65 751.7C519.79 751.42 520.03 751.21 520.33 751.11C520.62 751 520.95 751.02 521.23 751.16C521.51 751.3 521.72 751.54 521.82 751.84C521.86 751.94 525.66 762.94 530.52 770.93C535.42 779.02 541.99 784.53 545.67 785.61C547.53 786.15 548.95 785.57 549.54 784.75C549.67 784.53 549.77 784.29 549.82 784.03C549.88 783.78 549.89 783.52 549.87 783.26C549.84 783 549.77 782.75 549.66 782.51C549.55 782.28 549.41 782.06 549.23 781.87C546.94 778.58 541.36 771.14 540.57 770.09C533.81 764.72 528.6 747.72 528.38 747C528.3 746.7 528.33 746.38 528.48 746.11C528.63 745.84 528.88 745.63 529.17 745.54C529.47 745.45 529.79 745.48 530.06 745.63C530.34 745.77 530.54 746.02 530.63 746.31C530.69 746.49 535.91 763.53 542.14 768.33C542.16 768.35 542.18 768.36 542.2 768.38C542.22 768.4 542.24 768.42 542.26 768.43C542.28 768.45 542.29 768.47 542.31 768.49C542.33 768.51 542.34 768.53 542.36 768.55C542.42 768.64 548.68 776.96 551.16 780.52C551.48 780.91 551.74 781.35 551.92 781.82C552.1 782.29 552.2 782.78 552.23 783.28C552.26 783.78 552.2 784.29 552.07 784.77C551.93 785.25 551.73 785.71 551.45 786.13C551.19 786.46 550.89 786.76 550.56 787.02C550.23 787.28 549.87 787.51 549.49 787.68C549.11 787.86 548.71 787.99 548.3 788.07C547.89 788.15 547.47 788.19 547.05 788.17Z" />
	</g>
	<g id="_Group_53">
		<path id="_Path_72" fill-rule="evenodd" class="shp6" d="M535.15 792.98C531.52 792.98 520.16 781.01 517.15 776.92C512.95 771.23 510.32 759.7 510.21 759.21C510.15 758.91 510.21 758.59 510.38 758.33C510.55 758.08 510.81 757.89 511.11 757.83C511.41 757.76 511.72 757.81 511.99 757.97C512.25 758.14 512.44 758.39 512.51 758.69C512.53 758.81 515.14 770.23 519.04 775.52C523.31 781.32 533.19 790.4 535.05 790.65C535.19 790.62 535.33 790.59 535.47 790.57C535.61 790.54 535.75 790.52 535.9 790.5C536.04 790.49 536.18 790.47 536.32 790.46C536.46 790.46 536.61 790.45 536.75 790.45C538.16 790.36 539.92 790.25 540.66 789.33C540.78 789.13 540.88 788.93 540.95 788.72C541.03 788.51 541.08 788.29 541.11 788.07C541.14 787.84 541.15 787.62 541.13 787.4C541.12 787.17 541.08 786.95 541.02 786.73C540.97 786.43 541.05 786.11 541.23 785.86C541.41 785.6 541.69 785.43 541.99 785.38C542.3 785.33 542.62 785.41 542.87 785.59C543.12 785.77 543.29 786.05 543.34 786.36C543.43 786.73 543.49 787.12 543.5 787.51C543.51 787.9 543.47 788.28 543.4 788.67C543.33 789.05 543.22 789.42 543.07 789.78C542.91 790.13 542.73 790.48 542.5 790.79C541.11 792.54 538.67 792.68 536.89 792.8C536.77 792.8 536.66 792.8 536.54 792.81C536.42 792.82 536.31 792.83 536.19 792.84C536.07 792.85 535.95 792.87 535.84 792.88C535.72 792.9 535.61 792.92 535.49 792.94C535.46 792.95 535.43 792.95 535.41 792.96C535.38 792.96 535.35 792.97 535.32 792.97C535.29 792.97 535.26 792.98 535.23 792.98C535.2 792.98 535.18 792.98 535.15 792.98Z" />
	</g>
</svg>