<svg id="_5" data-name="5" xmlns="http://www.w3.org/2000/svg" width="576.906" height="1454.405" viewBox="0 0 576.906 1454.405">
  <defs>
    <style>
      .cls-1 {
        fill: #f9a485;
      }

      .cls-1, .cls-10, .cls-2, .cls-3, .cls-4, .cls-5, .cls-6, .cls-7, .cls-8, .cls-9 {
        fill-rule: evenodd;
      }

      .cls-2 {
        fill: #3b344a;
      }

      .cls-3 {
        fill: #d5d1d8;
      }

      .cls-4 {
        fill: #a5b1c7;
      }

      .cls-5 {
        fill: #65a6ce;
      }

      .cls-6 {
        fill: #4c7d9b;
      }

      .cls-7 {
        fill: #85504c;
      }

      .cls-8 {
        fill: #e8e6e9;
      }

      .cls-9 {
        fill: #e07560;
      }

      .cls-10 {
        fill: #1e1a25;
      }
    </style>
  </defs>
  <path id="_Path_" data-name="&lt;Path&gt;" class="cls-1" d="M531.6,368.892c0,27.806,12.974,149.017,22.707,149.431S582.417,555.7,593.393,600.5Q604.37,645.3,610.8,720.909l-39.034,7.39Q503.8,617.605,488.347,586.709c-15.448-30.9-52.523-162.451-43.255-181.638Q454.362,385.884,531.6,368.892Z" transform="translate(-78.625 -9.875)"/>
  <path id="_Path_2" data-name="&lt;Path&gt;" class="cls-2" d="M479.612,243.524q26.5-.534,54.307,60.486c27.806,61.02,57.929,183.8,59.474,186.52s-42.481,33.614-67.971,30.525q-25.49-3.09-45.81-274.588v-2.943Z" transform="translate(-78.625 -9.875)"/>
  <g id="_Group_" data-name="&lt;Group&gt;">
    <path id="_Path_3" data-name="&lt;Path&gt;" class="cls-1" d="M323.053,1062.51c-10.477,14.16-41.709,64.88-43.254,74.15q-1.545,9.27,29.351,262.61,50.979,2.145,57.158-5.66c6.179-7.81,71.061-314.11,71.061-323.38S343.766,1034.52,323.053,1062.51Z" transform="translate(-78.625 -9.875)"/>
    <g id="_Group_2" data-name="&lt;Group&gt;">
      <path id="_Path_4" data-name="&lt;Path&gt;" class="cls-2" d="M470.963,1438.67c-1.743-7.91-94.387-69.17-103.371-69.89s-25.684,10.77-27.1,13.3q-1.415,2.535,2.539,11.67,1.992,9.765-13.951,9.15c-17.579-.68-17.965-32.01-22.379-29.88s-12.121,10.34-12.509,13.84,4.484,19.4,2.62,23.44-6.831,36.06-3.177,41.42,40.071,7.7,48.044,7.95,126.242,8.97,129.97.89Q475.38,1452.475,470.963,1438.67Z" transform="translate(-78.625 -9.875)"/>
      <path id="_Path_5" data-name="&lt;Path&gt;" class="cls-3" d="M472.948,1448.64a338.716,338.716,0,0,1-49.389,4.67c-22.806.33-95.39-8.22-99.327-10.41s-23.38-36.41-27.418-32.6-11.37,41.17-8.58,43.79,21.479,6.67,32.308,6.71,150.169,7.65,152.894.22Q476.16,1453.58,472.948,1448.64Z" transform="translate(-78.625 -9.875)"/>
      <g id="_Group_3" data-name="&lt;Group&gt;">
        <path id="_Path_6" data-name="&lt;Path&gt;" class="cls-4" d="M317.649,1437.24l-2.341-.57c2.009-8.23,4.407-22.4,2.285-25.38-3.33-4.67-5-22.14-5.187-24.12l2.4-.22c0.473,5.19,2.249,19.44,4.748,22.94C323.015,1414.74,318.21,1434.95,317.649,1437.24Z" transform="translate(-78.625 -9.875)"/>
      </g>
      <g id="_Group_4" data-name="&lt;Group&gt;">
        <path id="_Path_7" data-name="&lt;Path&gt;" class="cls-4" d="M417.374,1430.25l-0.869-.38c-0.141-.06-14.3-6.22-27.929-13.07-13.578-6.83-45.727-21.81-46.05-21.96l1.017-2.19c0.325,0.15,32.5,15.15,46.117,21.99,11.661,5.87,23.717,11.22,26.961,12.65,2.68-3.24,13.769-15.44,25.842-11.59l-0.735,2.3c-11.989-3.84-23.666,11.34-23.781,11.49Z" transform="translate(-78.625 -9.875)"/>
      </g>
      <g id="_Group_5" data-name="&lt;Group&gt;">
        <path id="_Path_8" data-name="&lt;Path&gt;" class="cls-4" d="M426.423,1444.5c-16.145,0-45.676-17.93-64.073-29.1-7.217-4.38-12.918-7.84-14.885-8.44a39.766,39.766,0,0,0-9.916-1.35c-4.433-.23-9.016-0.47-14.12-2.63-5.711-2.43-8.048-8.25-10.752-15.01a77.73,77.73,0,0,0-6.983-14.28l2.016-1.33a79.834,79.834,0,0,1,7.205,14.72c2.607,6.51,4.668,11.64,9.456,13.68,4.711,1.99,9.078,2.22,13.3,2.44a42.523,42.523,0,0,1,10.5,1.45c2.258,0.69,7.784,4.04,15.434,8.69,20.116,12.21,53.8,32.66,66.968,28.15,18.792-6.4,39.653-4.12,40.529-4.02l-0.273,2.4c-0.207-.03-21.217-2.32-39.479,3.91A15.367,15.367,0,0,1,426.423,1444.5Z" transform="translate(-78.625 -9.875)"/>
      </g>
      <g id="_Group_6" data-name="&lt;Group&gt;">
        <path id="_Compound_Path_" data-name="&lt;Compound Path&gt;" class="cls-4" d="M399.3,1422.17c-0.2,0-.4-0.02-0.61-0.04l-0.966-.12-0.087-.97c-0.37-4.14,3.017-6.99,6.027-8.69,0-.06.012-0.11,0.016-0.17l0.123-1.29a38.6,38.6,0,0,1,2.744-10.42c-0.478.02-.905,0.02-1.244,0-5.118-.36-11.821-0.41-17.261,1.99a19.365,19.365,0,0,1-1.5,6.08,5.981,5.981,0,0,1-3.46,3.2,3.077,3.077,0,0,1-3.907-2.66,6.147,6.147,0,0,1,1.7-4.43,17.878,17.878,0,0,1,4.9-3.77c0.029-.3.055-0.61,0.08-0.92a42.291,42.291,0,0,1,.629-5.02,36.106,36.106,0,0,1,1.687-5.55,56.382,56.382,0,0,1-10.9,1.3h-0.334a30.457,30.457,0,0,0-6.209.62c-0.042.2-.087,0.4-0.129,0.6-0.333,1.52-.662,3.04-1.093,4.53-0.537,1.88-1.515,4.52-3.78,5.89a5.29,5.29,0,0,1-4.61.31,3.8,3.8,0,0,1-2.341-2.62,5.2,5.2,0,0,1,.471-3.35c1.83-4.13,5.653-6.25,9.454-7.33a37.161,37.161,0,0,1,1.31-4.54,26.968,26.968,0,0,1,1.62-3.43,29.567,29.567,0,0,0-20.594,15.47l-2.158-1.08a32,32,0,0,1,24.432-17.09c1.656-2.37,3.74-4.57,5.975-5.34l0.8-.28,0.534,0.65a3.549,3.549,0,0,1,.842,3.8c-1.181,2.77-6.145,3.39-6.774,3.46a25.67,25.67,0,0,0-2.412,4.69,29.728,29.728,0,0,0-.947,3.1,34.526,34.526,0,0,1,5.832-.47,50.722,50.722,0,0,0,12.29-1.72c1.693-3.24,4.013-5.89,6.955-5.36l0.64,0.11,0.257,0.6a3.265,3.265,0,0,1-.306,3.21c-1,1.49-3.213,2.63-5.853,3.47a32.4,32.4,0,0,0-2.3,6.84,37.174,37.174,0,0,0-.551,4.33c5.643-2.11,12.139-2.05,17.177-1.7a13.651,13.651,0,0,0,2.3-.1c1.641-3,3.787-5.43,6.441-6.32l0.813-.27,0.523,0.67c1.51,1.96,1.213,3.52.7,4.48-1.088,2.03-4.154,3.14-6.9,3.64a35.707,35.707,0,0,0-3.137,10.94l1.679-.75c6.3-2.83,14.148-6.36,20.792-6.97l0.222,2.4c-6.244.58-13.885,4.01-20.025,6.77l-2.174.97c-0.226.1-.483,0.22-0.761,0.36a14.063,14.063,0,0,1-.963,4.05C404.065,1420.04,401.938,1422.17,399.3,1422.17Zm3.938-6.68a7.332,7.332,0,0,0-3.13,4.13,4.77,4.77,0,0,0,2.654-2.65A8.492,8.492,0,0,0,403.238,1415.49Zm-17.825-11.58a14.436,14.436,0,0,0-2.753,2.36,3.856,3.856,0,0,0-1.084,2.54,0.639,0.639,0,0,0,.283.52,0.67,0.67,0,0,0,.6.08,3.543,3.543,0,0,0,1.9-1.88A14.333,14.333,0,0,0,385.413,1403.91ZM368.1,1392.05a10.875,10.875,0,0,0-6.649,5.6,2.921,2.921,0,0,0-.33,1.8,1.482,1.482,0,0,0,.923.97,2.906,2.906,0,0,0,2.433-.15c1.524-.92,2.25-2.89,2.711-4.49C367.544,1394.55,367.826,1393.3,368.1,1392.05Zm46.008,2.25a9.656,9.656,0,0,0-3.088,2.96,5.411,5.411,0,0,0,3.093-1.88A1.13,1.13,0,0,0,414.11,1394.3Zm-19.054-10.63a4.547,4.547,0,0,0-1.852,1.5,4.821,4.821,0,0,0,1.781-1.39C395.011,1383.74,395.035,1383.7,395.056,1383.67Zm-15.828-7.66a10.517,10.517,0,0,0-2.336,2.02,4.074,4.074,0,0,0,2.348-1.47A0.754,0.754,0,0,0,379.228,1376.01Z" transform="translate(-78.625 -9.875)"/>
      </g>
    </g>
    <path id="_Path_9" data-name="&lt;Path&gt;" class="cls-5" d="M262.806,651.59q-29.268,63.337-23.172,135.943c6.1,72.606,67.4,249.487,62.764,269.567q-4.635,20.085-20.138,61.44,80.1,78.27,146.528,33.47,16.305-80.235,14.76-121.94T428.1,795.257q26.262-49.434,23.173-78.785T262.806,651.59Z" transform="translate(-78.625 -9.875)"/>
    <path id="_Path_10" data-name="&lt;Path&gt;" class="cls-5" d="M537.22,715.038l-85.7-18.648q-40.419,63.336-42.455,80.329c-1.91,15.944,30.114,224.991,34.077,250.741,44.121,7.1,86.531,23.4,127.634,43.42Q569.838,981.285,537.22,715.038Z" transform="translate(-78.625 -9.875)"/>
    <g id="_Group_7" data-name="&lt;Group&gt;">
      <path id="_Path_11" data-name="&lt;Path&gt;" class="cls-6" d="M390.27,1144.29c-52.2,0-98.22-45.64-98.8-46.23a1.207,1.207,0,0,1,1.715-1.7c0.714,0.73,72.6,72,137.572,34.76a1.194,1.194,0,0,1,1.646.44,1.209,1.209,0,0,1-.445,1.65A82.637,82.637,0,0,1,390.27,1144.29Z" transform="translate(-78.625 -9.875)"/>
    </g>
    <g id="_Group_8" data-name="&lt;Group&gt;">
      <path id="_Path_12" data-name="&lt;Path&gt;" class="cls-6" d="M302.4,1058.31a1.18,1.18,0,0,1-.648-0.19,1.212,1.212,0,0,1-.37-1.67l17.22-27.03a1.217,1.217,0,0,1,1.665-.37,1.2,1.2,0,0,1,.37,1.66l-17.22,27.04A1.208,1.208,0,0,1,302.4,1058.31Z" transform="translate(-78.625 -9.875)"/>
    </g>
    <g id="_Group_9" data-name="&lt;Group&gt;">
      <path id="_Path_13" data-name="&lt;Path&gt;" class="cls-6" d="M394.088,1085.52a1.2,1.2,0,0,1-1.041-.6,60.437,60.437,0,0,1-7.763-22.82,1.206,1.206,0,0,1,2.392-.31,57.945,57.945,0,0,0,7.453,21.91,1.2,1.2,0,0,1-.431,1.65A1.233,1.233,0,0,1,394.088,1085.52Z" transform="translate(-78.625 -9.875)"/>
    </g>
    <g id="_Group_10" data-name="&lt;Group&gt;">
      <path id="_Path_14" data-name="&lt;Path&gt;" class="cls-6" d="M410.949,802.872a1.207,1.207,0,0,1-1.015-.554c-13.92-21.673-40.94-36.031-70.515-37.468a1.206,1.206,0,0,1-1.145-1.263,1.173,1.173,0,0,1,1.263-1.146c30.338,1.474,58.091,16.254,72.427,38.572A1.206,1.206,0,0,1,410.949,802.872Z" transform="translate(-78.625 -9.875)"/>
    </g>
    <g id="_Group_11" data-name="&lt;Group&gt;">
      <path id="_Path_15" data-name="&lt;Path&gt;" class="cls-6" d="M403.313,778.579a1.19,1.19,0,0,1-.827-0.33c-9.22-8.7-18.474-12.638-27.427-16.445-2.364-1.007-4.717-2.008-7.058-3.087a1.206,1.206,0,0,1,1.012-2.19c2.316,1.069,4.647,2.061,6.991,3.057,9.148,3.891,18.6,7.914,28.136,16.913A1.206,1.206,0,0,1,403.313,778.579Z" transform="translate(-78.625 -9.875)"/>
    </g>
    <g id="_Group_12" data-name="&lt;Group&gt;">
      <path id="_Path_16" data-name="&lt;Path&gt;" class="cls-6" d="M306.7,1113.45a1.24,1.24,0,0,1-1.194-1.39c0.353-2.26,8.675-55.39,12.959-68.84,2.247-7.06-13.371-70.01-28.473-130.894-12.82-51.684-26.078-105.128-29.429-128.375-7.325-50.817,25.618-123.324,25.953-124.051a1.205,1.205,0,1,1,2.19,1.006c-0.33.721-32.981,72.592-25.755,122.7,3.333,23.126,16.577,76.511,29.382,128.139,15.882,64.026,30.885,124.5,28.431,132.2-4.228,13.27-12.789,67.93-12.874,68.48A1.211,1.211,0,0,1,306.7,1113.45Z" transform="translate(-78.625 -9.875)"/>
    </g>
    <g id="_Group_13" data-name="&lt;Group&gt;">
      <path id="_Path_17" data-name="&lt;Path&gt;" class="cls-6" d="M265.372,729.5a1.206,1.206,0,0,1-.26-2.383c0.427-.094,42.718-9.944,72.473-57.591l-8.684-2.153c-4.143,4.662-33.587,37.123-59.69,47.9a1.206,1.206,0,0,1-.919-2.23c27.477-11.342,58.96-47.44,59.276-47.8a1.208,1.208,0,0,1,1.2-.381l11,2.727a1.2,1.2,0,0,1,.739,1.8c-30.352,49.776-74.434,59.994-74.876,60.091A1.222,1.222,0,0,1,265.372,729.5Z" transform="translate(-78.625 -9.875)"/>
    </g>
    <path id="_Path_18" data-name="&lt;Path&gt;" class="cls-1" d="M239.634,1312.25c4.634-3.09,82.9-195.67,102.987-214.21q20.082-18.54,94.748-27.81,66.607,41.79,85.145,74.23Q264.1,1373.015,257.922,1362.01T239.634,1312.25Z" transform="translate(-78.625 -9.875)"/>
    <path id="_Path_19" data-name="&lt;Path&gt;" class="cls-5" d="M443.147,1027.46q-5.78,2.61-11.789,37.55-33.285,3.045-41.073,11.54c-7.788,8.5,83.3,110.64,88.823,117.63s79.124-62.84,89.938-96.97c1.356-4.27,1.871-13.49,1.735-26.33C529.678,1050.86,487.268,1034.56,443.147,1027.46Z" transform="translate(-78.625 -9.875)"/>
    <g id="_Group_14" data-name="&lt;Group&gt;">
      <path id="_Path_20" data-name="&lt;Path&gt;" class="cls-2" d="M341.2,1443.47c3.431-7.34-32.809-112.33-39.5-118.36s-26.931-7.09-29.594-5.94q-2.664,1.155-5.084,10.8-4.367,8.97-16.643-1.22c-13.536-11.24,5.22-36.33.422-37.33s-15.91.83-18.346,3.37-8.245,18.12-12.184,20.19-27.363,24.46-27.726,30.94,27.113,30.5,33.291,35.54,94.721,83.94,102.6,79.79Q336.311,1457.11,341.2,1443.47Z" transform="translate(-78.625 -9.875)"/>
      <path id="_Path_21" data-name="&lt;Path&gt;" class="cls-3" d="M336.716,1452.58a339.34,339.34,0,0,1-42.036-26.34c-18.3-13.62-70.7-64.56-72.488-68.7s3.6-43.13-1.922-42.56-34.072,25.75-33.453,29.53,12.986,18.36,21.552,24.99,114.514,97.45,121.2,93.21Q336.254,1458.465,336.716,1452.58Z" transform="translate(-78.625 -9.875)"/>
      <g id="_Group_15" data-name="&lt;Group&gt;">
        <path id="_Path_22" data-name="&lt;Path&gt;" class="cls-4" d="M220.412,1349.04l-1.513-1.88c6.6-5.31,17.131-15.09,17.255-18.74,0.2-5.74,9.5-20.62,10.564-22.3l2.039,1.29c-2.784,4.4-10.043,16.79-10.191,21.09C238.359,1334.45,222.246,1347.57,220.412,1349.04Z" transform="translate(-78.625 -9.875)"/>
      </g>
      <g id="_Group_16" data-name="&lt;Group&gt;">
        <path id="_Path_23" data-name="&lt;Path&gt;" class="cls-4" d="M330.58,1409.28c-7.155-10.32-25.675-5.41-25.864-5.36l-0.911.25-0.462-.82c-0.073-.14-7.562-13.64-14.207-27.37-6.623-13.68-23.02-45.13-23.185-45.45l2.139-1.12c0.164,0.32,16.578,31.8,23.218,45.52,5.685,11.74,11.993,23.33,13.7,26.44,4.094-.95,20.324-3.89,27.555,6.53Z" transform="translate(-78.625 -9.875)"/>
      </g>
      <g id="_Group_17" data-name="&lt;Group&gt;">
        <path id="_Path_24" data-name="&lt;Path&gt;" class="cls-4" d="M340.364,1444.33c-0.151-.14-15.423-14.75-33.7-20.92-14.266-4.82-28.8-42.17-37.482-64.49-3.064-7.87-5.483-14.09-6.68-15.77a39.883,39.883,0,0,0-7.049-7.1c-3.378-2.88-6.871-5.86-9.6-10.68-3.057-5.4-1.364-11.45.6-18.45a77.63,77.63,0,0,0,3.154-15.59l2.407,0.18a79.7,79.7,0,0,1-3.239,16.06c-1.891,6.75-3.382,12.08-.819,16.61,2.522,4.45,5.85,7.29,9.067,10.03a42.422,42.422,0,0,1,7.446,7.54c1.375,1.92,3.721,7.95,6.966,16.29,8.531,21.93,22.807,58.63,36.008,63.09,18.807,6.35,33.973,20.86,34.609,21.47Z" transform="translate(-78.625 -9.875)"/>
      </g>
      <g id="_Group_18" data-name="&lt;Group&gt;">
        <path id="_Compound_Path_2" data-name="&lt;Compound Path&gt;" class="cls-4" d="M327.836,1391.77c-5.311-3.35-13.472-5.27-20.032-6.82l-2.3-.54c-0.238-.06-0.513-0.12-0.817-0.18a14.283,14.283,0,0,1-3.23,2.62c-2.164,1.21-5.445,1.57-7.543-.49l-0.695-.68,0.52-.82c2.226-3.51,6.656-3.71,10.074-3.23l0.106-.12c0.3-.32.593-0.64,0.895-0.96a38.535,38.535,0,0,1,8.512-6.59,12.256,12.256,0,0,1-.982-0.77c-3.847-3.4-9.127-7.52-14.914-8.91a19.557,19.557,0,0,1-4.883,3.91,5.952,5.952,0,0,1-4.7.43,3.071,3.071,0,0,1-1.481-4.49,6.176,6.176,0,0,1,4.043-2.48,17.812,17.812,0,0,1,6.179-.01c0.2-.22.412-0.45,0.619-0.68a42.181,42.181,0,0,1,3.556-3.6,36.065,36.065,0,0,1,4.723-3.38,55.641,55.641,0,0,1-9.546-5.68,31.19,31.19,0,0,0-5.469-3.41c-0.156.14-.314,0.27-0.471,0.4-1.187,1.01-2.372,2.01-3.62,2.93-1.7,1.26-4.021,2.66-6.583,2.38a5.3,5.3,0,0,1-3.847-2.56,3.809,3.809,0,0,1-.259-3.51,5.11,5.11,0,0,1,2.412-2.37c3.964-2.17,8.288-1.52,11.958-.06a36.4,36.4,0,0,1,3.8-2.81,26.628,26.628,0,0,1,3.37-1.74,29.572,29.572,0,0,0-25.755-.25l-1.055-2.17a31.988,31.988,0,0,1,29.8,1.31c2.857-.88,5.853-1.32,7.982-0.61l0.8,0.26,0.028,0.84a3.557,3.557,0,0,1-1.646,3.53c-2.621,1.49-6.943-1.05-7.483-1.38a25.343,25.343,0,0,0-4.762,2.26,30.486,30.486,0,0,0-2.643,1.88,32.975,32.975,0,0,1,4.916,3.18,49.388,49.388,0,0,0,10.8,6.11c3.318-1.54,6.783-2.21,8.783-.02l0.44,0.48-0.162.63a3.256,3.256,0,0,1-2.2,2.36c-1.691.58-4.143,0.13-6.752-.81a32.262,32.262,0,0,0-5.994,4.04,37.758,37.758,0,0,0-3.067,3.09c5.766,1.76,10.877,5.76,14.666,9.1a12.555,12.555,0,0,0,1.882,1.32c3.128-1.37,6.31-2,8.958-1.09l0.81,0.28,0,0.86c0.007,2.46-1.175,3.52-2.169,3.97-2.1.94-5.208-.04-7.688-1.31a35.58,35.58,0,0,0-9.145,6.78l1.764,0.41c6.733,1.59,15.114,3.57,20.764,7.13Zm-31.266-6.53a4.794,4.794,0,0,0,3.714-.49,8.976,8.976,0,0,0,1.284-.89A7.311,7.311,0,0,0,296.57,1385.24Zm22.264-11.11a5.38,5.38,0,0,0,3.6.39,1.125,1.125,0,0,0,.652-0.86A9.663,9.663,0,0,0,318.834,1374.13Zm-25.359-10.34a14.69,14.69,0,0,0-2.629.23,3.883,3.883,0,0,0-2.409,1.36,0.653,0.653,0,0,0-.09.58,0.639,0.639,0,0,0,.424.43,3.535,3.535,0,0,0,2.655-.34,13.787,13.787,0,0,0,3.045-2.23Q293.976,1363.79,293.475,1363.79Zm18.581-10.1a4.818,4.818,0,0,0,2.256-.01,0.787,0.787,0,0,1,.122-0.05A4.61,4.61,0,0,0,312.056,1353.69Zm-28.309-10.52a9.175,9.175,0,0,0-4.482,1.11,2.912,2.912,0,0,0-1.361,1.22,1.485,1.485,0,0,0,.146,1.34,2.878,2.878,0,0,0,2.021,1.36c1.752,0.22,3.54-.92,4.885-1.92,1.027-.76,2.009-1.57,2.986-2.4A13.99,13.99,0,0,0,283.747,1343.17Zm19.707-5.07a4.046,4.046,0,0,0,2.758.26,0.746,0.746,0,0,0,.325-0.44A10.408,10.408,0,0,0,303.454,1338.1Z" transform="translate(-78.625 -9.875)"/>
      </g>
    </g>
    <g id="_Group_19" data-name="&lt;Group&gt;">
      <path id="_Path_25" data-name="&lt;Path&gt;" class="cls-6" d="M495.445,1186.83a1.213,1.213,0,0,1-.848-0.35c-0.719-.71-71.909-71.51-87.553-115.2a1.205,1.205,0,1,1,2.27-.81c15.46,43.17,86.265,113.59,86.979,114.29a1.211,1.211,0,0,1,.009,1.71A1.2,1.2,0,0,1,495.445,1186.83Z" transform="translate(-78.625 -9.875)"/>
    </g>
    <g id="_Group_20" data-name="&lt;Group&gt;">
      <path id="_Path_26" data-name="&lt;Path&gt;" class="cls-6" d="M540.734,1122.52a1.2,1.2,0,0,1-1.163-.89c-1.048-3.87-1.31-9.02-1.562-14.01-0.244-4.85-.5-9.87-1.479-13.49a1.205,1.205,0,1,1,2.327-.63c1.049,3.87,1.31,9.02,1.562,14,0.245,4.86.5,9.87,1.479,13.5a1.21,1.21,0,0,1-.848,1.48A1.73,1.73,0,0,1,540.734,1122.52Z" transform="translate(-78.625 -9.875)"/>
    </g>
    <g id="_Group_21" data-name="&lt;Group&gt;">
      <path id="_Path_27" data-name="&lt;Path&gt;" class="cls-7" d="M306.7,1328.64a1.206,1.206,0,0,1-.765-2.14l93.471-76.59a1.2,1.2,0,1,1,1.531,1.86l-93.471,76.6A1.233,1.233,0,0,1,306.7,1328.64Z" transform="translate(-78.625 -9.875)"/>
    </g>
    <g id="_Group_22" data-name="&lt;Group&gt;">
      <path id="_Path_28" data-name="&lt;Path&gt;" class="cls-7" d="M286.63,1209.24a1.335,1.335,0,0,1-.515-0.11,1.212,1.212,0,0,1-.575-1.61c1.046-2.21,25.691-54.13,34.488-61.59a1.206,1.206,0,1,1,1.559,1.84c-8.4,7.13-33.614,60.25-33.866,60.78A1.2,1.2,0,0,1,286.63,1209.24Z" transform="translate(-78.625 -9.875)"/>
    </g>
    <g id="_Group_23" data-name="&lt;Group&gt;">
      <path id="_Path_29" data-name="&lt;Path&gt;" class="cls-6" d="M390.284,1077.76a1.207,1.207,0,0,1-.325-2.37c16.28-4.57,41.3-13.34,43.492-18.74,19.611-48.33-23.246-252.676-23.682-254.735a1.207,1.207,0,0,1,1.079-1.451c0.24-.021,24.085-2.494,39.559-40.463,13.644-33.473,18.166-50.37,19.151-54.385l-16.939-7.43c-0.768,10.315-6.428,63.484-42.311,91.089a1.206,1.206,0,0,1-1.469-1.913c38.763-29.821,41.457-90.409,41.479-91.017a1.206,1.206,0,0,1,1.691-1.06l19.438,8.526a1.207,1.207,0,0,1,.695,1.354c-0.036.164-3.658,16.877-19.5,55.746-14.134,34.683-34.764,40.747-40.247,41.763,3.957,18.927,42.586,207.336,23.291,254.886-3.335,8.22-40.812,18.95-45.075,20.15A1.227,1.227,0,0,1,390.284,1077.76Z" transform="translate(-78.625 -9.875)"/>
    </g>
    <g id="_Group_24" data-name="&lt;Group&gt;">
      <path id="_Path_30" data-name="&lt;Path&gt;" class="cls-6" d="M436.167,1054.97a1.2,1.2,0,0,1-.987-0.51,1.219,1.219,0,0,1,.035-1.44l1-1.28a1.213,1.213,0,0,1,1.693-.22,1.2,1.2,0,0,1,.325.39c7.906-1.99,16.327-1.37,23.845-.82l17.721,1.3a1.21,1.21,0,0,1,1.116,1.29,1.253,1.253,0,0,1-1.29,1.12l-17.724-1.31c-8.074-.59-17.222-1.27-25.359,1.42A1.237,1.237,0,0,1,436.167,1054.97Z" transform="translate(-78.625 -9.875)"/>
    </g>
    <g id="_Group_25" data-name="&lt;Group&gt;">
      <path id="_Path_31" data-name="&lt;Path&gt;" class="cls-6" d="M437.163,1049.58a1.207,1.207,0,0,1-.388-2.35,93.019,93.019,0,0,1,38.256-4.53,1.21,1.21,0,0,1-.226,2.41,90.244,90.244,0,0,0-37.253,4.4A1.33,1.33,0,0,1,437.163,1049.58Z" transform="translate(-78.625 -9.875)"/>
    </g>
  </g>
  <path id="_Path_32" data-name="&lt;Path&gt;" class="cls-8" d="M551.68,684.039q-1.536,13.9,0,49.437L468.261,752c-83.419,18.527-225.082-33.382-237.9-44.805-12.815-11.4,4.632-52.508,16.991-98.874,10.223-38.3,1.416-75.547-5.016-107.393-1.343-6.671-2.591-13.1-3.551-19.271-5.448-35.518-51.669-176.1-26.951-203.915s99.834-51.093,160.646-52.509c88.051-2.088,115.049,14.52,135.136,36.142,20.087,21.647,6.983,82.8,6.983,109.049a83.73,83.73,0,0,0,.96,12.287c0.576,3.768,1.368,7.7,2.424,11.952,5.448,22.15,17.231,52.868,33.694,113.249C574.863,592.893,553.24,670.12,551.68,684.039Z" transform="translate(-78.625 -9.875)"/>
  <path id="_Path_33" data-name="&lt;Path&gt;" class="cls-2" d="M514.6,370.427a83.73,83.73,0,0,0,.96,12.287c-6.072-24.526-13.02-73.251-71.937-99.049-76.723-33.6-146.448,29.094-158.52,85.227-10.751,49.916-32.638,120.232-42.766,132.039-1.343-6.671-2.591-13.1-3.551-19.271-5.448-35.518-54.916-181.334-30.2-209.148S301.984,207.7,361.708,207.7s125.824,32.061,145.911,53.683C527.706,283.025,514.6,344.173,514.6,370.427Z" transform="translate(-78.625 -9.875)"/>
  <path id="_Path_34" data-name="&lt;Path&gt;" class="cls-1" d="M165.483,366.812C152.456,383.467,72.8,522.786,78.975,524.624S237.517,642.376,239.634,635.253q2.117-7.124,23.172-34.753-54.067-95.323-63.337-102.647c-9.269-7.323,41.584-56.028,39.33-60.826S173.238,356.9,165.483,366.812Z" transform="translate(-78.625 -9.875)"/>
  <path id="_Path_35" data-name="&lt;Path&gt;" class="cls-2" d="M283.5,319.459c1.727-21.454,31.5-68.831,10.5-82.394q-33.378,8.558-37.466,10.1c-20.88,7.869-39.69,14.395-56.326,30.875-7.638,7.567-14.08,16.237-20.491,24.871-13.919,18.745-28.139,37.266-42.3,55.827-13.918,18.24-22.652,37.451-34.2,57.257-0.814,1.4-1.657,2.923-1.463,4.527a7.525,7.525,0,0,0,2.112,3.76q16.323,19.071,33.692,37.214c22.915,23.938,63.656,62.216,96.234,32.423,20.739-18.966,28.66-54.148,34.885-80.442A626.345,626.345,0,0,0,283.5,319.459Z" transform="translate(-78.625 -9.875)"/>
  <path id="_Path_36" data-name="&lt;Path&gt;" class="cls-1" d="M298.683,660.492a3.6,3.6,0,0,0,.3-1.74,24.324,24.324,0,0,0-5.5-12.933,72.479,72.479,0,0,0-10.172-9.962,37.3,37.3,0,0,1,18.851,6.974c2.125,1.545,4.318,2.214,6.212,4.027,2.241,2.146,3.881,5.318,7.173,6.016,2.566,0.544,5.7-2.16,4.38-4.426,1.763,3.024,6.058-.939,6.706-2.847,0.72-2.122.413-4.439,0.063-6.653,0.378,2.393,8.347.885,8.481-2.57,0.114-2.966-3.446-7.312-5.01-9.649a89.562,89.562,0,0,0-15.5-17.146,37.358,37.358,0,0,0-9.387-6.5,42.957,42.957,0,0,0-10.8-2.653c-16.362-2.542-32.6-5.582-49.111-6.343-5.242-.242-13.51,3.383-17.36,6.949-4.621,4.28-6.123,11.03-5.963,17.326,0.145,5.721,1.588,11.642,5.366,15.94,4.091,4.653,10.291,6.779,16.271,8.4a66.388,66.388,0,0,0,21.722,2.314c6.976-.443,13.006.63,18.8,4.837,4.446,3.226,8.161,7.343,12.356,10.89a1.974,1.974,0,0,0,.924.523A1.142,1.142,0,0,0,298.683,660.492Z" transform="translate(-78.625 -9.875)"/>
  <path id="_Path_37" data-name="&lt;Path&gt;" class="cls-1" d="M647.18,780.184a1.86,1.86,0,0,1-1.487,1.047c-0.894,0-1.48-.919-1.824-1.745-2.551-6.131.7-15.822-4.156-21.045-2.989-3.212-8.716.541-12.07,1.559a1.52,1.52,0,0,0-.643.311c-1.023.977,1.665,7.943,2.068,9.215a42.755,42.755,0,0,0,4.6,9.717,77.694,77.694,0,0,0,14.055,16.049c3,2.7,6.224,5.491,7.5,9.318,0.393,1.172.513,2.642-.4,3.478-0.887.814-2.279,0.608-3.442,0.3a37.879,37.879,0,0,1-20.574-14.127l6.4,9.107c1.474,2.1,4.337,4.67,5.3,6.962,2.166,5.178-3.027,6.5-6.961,5.322a1.126,1.126,0,0,0-1.255.16,1.113,1.113,0,0,0-.149.555,5.612,5.612,0,0,1-1.161,3.56c-1.7,1.728-4.15-.073-5.864,1.273-1.487,1.168-.941,3.216-1.283,4.848-0.688,3.3-1.971,4.6-5.48,3.5a26.986,26.986,0,0,1-3.171-1.265,65.671,65.671,0,0,1-18.5-12.791c-10.814-10.71-17.694-25.108-20.885-39.879a500.612,500.612,0,0,1-8.594-53.853l-0.157.4c1.5-3.847,8.906-7.772,12.3-9.763,3.8-2.231,10.349-6.9,14.732-7.331,4.116-.4,41.872,27.549,47.953,33.7,9.476,9.578,8.71,29.392,3.521,40.731A6.138,6.138,0,0,1,647.18,780.184Z" transform="translate(-78.625 -9.875)"/>
  <path id="_Path_38" data-name="&lt;Path&gt;" class="cls-7" d="M322.547,35.191Q347.395,11.168,368.7,15.833C390,20.5,418.347,54.49,433.148,58.012l14.8,3.521Q432.1,86.057,415.415,86.469q0.376,25.859-8.556,43.243c-8.932,17.384-63.316,62.495-66.18,57.02-6.178-11.813-2.807-14.8-7.029-16.368s-37.229-23.954-46.574-74.068C282.26,70.467,283.591,36.966,322.547,35.191Z" transform="translate(-78.625 -9.875)"/>
  <path id="_Path_39" data-name="&lt;Path&gt;" class="cls-1" d="M392.562,182.371q3.963,21.982,5.906,23.977t10.145,6.2q1.486,33.92-38.695,37.119c-29.3,2.333-53.339-34.439-51.345-36.383s9.94-11.055,10.608-15.895q0.667-4.839,10.134-76.007Z" transform="translate(-78.625 -9.875)"/>
  <path id="_Path_40" data-name="&lt;Path&gt;" class="cls-9" d="M392.875,184.065l0.513,2.687q-7.342,17.714-19.531,16.718c-20.86-1.7-37.127-45.867-37.405-50.916q-0.279-5.049,1.8-20.425,6.065,23.289,11.069,27.76C354.453,164.472,395.245,184.84,392.875,184.065Z" transform="translate(-78.625 -9.875)"/>
  <path id="_Path_41" data-name="&lt;Path&gt;" class="cls-1" d="M359.124,65.552q36.534,22.822,46.865,19.534c15.443-4.916,20.568,94.27-15.19,99.4-26.512,3.8-38.907-3.718-46.745-24.328q-4.437-11.662-4.488-28.175-10.411-1.112-12.489-16.439c-2.077-15.327,2.877-19.657,10.035-10.779Q344.27,113.639,359.124,65.552Z" transform="translate(-78.625 -9.875)"/>
  <g id="_Group_26" data-name="&lt;Group&gt;">
    <path id="_Path_42" data-name="&lt;Path&gt;" class="cls-7" d="M329.85,164.666c-8.406,0-17.032-3.675-24.326-10.378-7.249-6.661-12.111-15.186-15.535-21.869a114.933,114.933,0,0,1-12.7-45.663c-0.817-14.835-.106-31.6,11.343-43.447,8.385-8.676,22.455-14.336,35.412-7.889,5.207-8.533,13.764-16.116,23.649-20.92a44.388,44.388,0,0,1,31.789-2.924c10.524,3.175,17.887,10.284,25,17.159a109.773,109.773,0,0,0,13,11.29,102.275,102.275,0,0,0,44.26,17.563,1.205,1.205,0,0,1,.952,1.643,46.062,46.062,0,0,1-65.83,22.732c-7.207-4.169-13.173-10.3-18.058-15.743A1.206,1.206,0,0,1,380.6,64.61c4.76,5.3,10.556,11.267,17.469,15.267a43.65,43.65,0,0,0,61.788-20.128A104.853,104.853,0,0,1,416.1,42a111.546,111.546,0,0,1-13.288-11.53c-7.231-6.984-14.061-13.581-24.027-16.587a41.93,41.93,0,0,0-30.037,2.785c-9.847,4.784-18.3,12.421-23.2,20.95a1.21,1.21,0,0,1-1.627.456c-12.111-6.671-25.579-1.339-33.551,6.91-10.8,11.181-11.456,27.322-10.67,41.638a112.508,112.508,0,0,0,12.441,44.7c3.333,6.5,8.05,14.791,15.017,21.192s15.168,9.822,23.047,9.741a1.206,1.206,0,1,1,.032,2.412Z" transform="translate(-78.625 -9.875)"/>
  </g>
  <path id="_Path_43" data-name="&lt;Path&gt;" class="cls-7" d="M397.113,111.73c-0.035,3.794,1.568,6.886,3.583,6.905s3.676-3.042,3.712-6.837-1.568-6.886-3.583-6.905S397.149,107.935,397.113,111.73Z" transform="translate(-78.625 -9.875)"/>
  <path id="_Path_44" data-name="&lt;Path&gt;" class="cls-7" d="M365.4,110.757c-0.036,3.8,1.568,6.886,3.583,6.905s3.676-3.042,3.712-6.837-1.569-6.886-3.583-6.905S365.432,106.962,365.4,110.757Z" transform="translate(-78.625 -9.875)"/>
  <g id="_Group_27" data-name="&lt;Group&gt;">
    <path id="_Path_45" data-name="&lt;Path&gt;" class="cls-7" d="M337.886,122.848a1.2,1.2,0,0,1-1.168-.906,15.1,15.1,0,0,0-5.554-8.247,1.206,1.206,0,1,1,1.432-1.94,17.3,17.3,0,0,1,6.458,9.587,1.207,1.207,0,0,1-.869,1.468A1.179,1.179,0,0,1,337.886,122.848Z" transform="translate(-78.625 -9.875)"/>
  </g>
  <g id="_Group_28" data-name="&lt;Group&gt;">
    <path id="_Path_46" data-name="&lt;Path&gt;" class="cls-7" d="M377.768,99.12a1.2,1.2,0,0,1-.5-0.107,17.785,17.785,0,0,0-14-.186,1.206,1.206,0,0,1-.937-2.223,20.266,20.266,0,0,1,15.936.212A1.206,1.206,0,0,1,377.768,99.12Z" transform="translate(-78.625 -9.875)"/>
  </g>
  <g id="_Group_29" data-name="&lt;Group&gt;">
    <path id="_Path_47" data-name="&lt;Path&gt;" class="cls-7" d="M388.178,153.272q-1.24,0-2.529-.1a59.477,59.477,0,0,1-12.137-2.572,1.205,1.205,0,1,1,.687-2.311,55.892,55.892,0,0,0,11.638,2.478,22.288,22.288,0,0,0,11.3-1.724,1.206,1.206,0,0,1,1.018,2.186A23.439,23.439,0,0,1,388.178,153.272Z" transform="translate(-78.625 -9.875)"/>
  </g>
  <g id="_Group_30" data-name="&lt;Group&gt;">
    <path id="_Path_48" data-name="&lt;Path&gt;" class="cls-7" d="M387.055,161.715a21.074,21.074,0,0,1-3.267-.255,1.207,1.207,0,0,1-1.006-1.377,1.22,1.22,0,0,1,1.378-1.006,18.677,18.677,0,0,0,6.414-.108,1.206,1.206,0,0,1,.452,2.369A21.2,21.2,0,0,1,387.055,161.715Z" transform="translate(-78.625 -9.875)"/>
  </g>
  <g id="_Group_31" data-name="&lt;Group&gt;">
    <path id="_Path_49" data-name="&lt;Path&gt;" class="cls-7" d="M407.675,100.491a1.217,1.217,0,0,1-.358-0.055,21.831,21.831,0,0,0-11.781-.283,1.207,1.207,0,0,1-.6-2.337,24.042,24.042,0,0,1,13.1.317A1.206,1.206,0,0,1,407.675,100.491Z" transform="translate(-78.625 -9.875)"/>
  </g>
  <g id="_Group_32" data-name="&lt;Group&gt;">
    <path id="_Path_50" data-name="&lt;Path&gt;" class="cls-7" d="M390.406,138.734a9.829,9.829,0,0,1-4.274-.95,1.205,1.205,0,1,1,1.045-2.172,8.056,8.056,0,0,0,9.6-2.284,2.151,2.151,0,0,0,.483-0.947,3.129,3.129,0,0,0-.579-1.46c-5.98-10.263-8.5-19.9-7.485-28.656a2.647,2.647,0,0,1,1.434-2.3,1.206,1.206,0,0,1,1.043,2.169,2.2,2.2,0,0,0-.082.415c-0.952,8.219,1.463,17.359,7.172,27.163a4.921,4.921,0,0,1,.9,2.877,4.311,4.311,0,0,1-.972,2.213A10.523,10.523,0,0,1,390.406,138.734Z" transform="translate(-78.625 -9.875)"/>
  </g>
  <path id="_Path_51" data-name="&lt;Path&gt;" class="cls-8" d="M321.6,209.924q7.264,19.653,29.915,27.664c22.65,8.01,50.392-1.306,55.447-27.835l6.831,3.77q0.117,26.91-33.88,34.879c-34,7.968-58.119-19.649-65.808-35.08Z" transform="translate(-78.625 -9.875)"/>
  <g id="_Group_33" data-name="&lt;Group&gt;">
    <path id="_Path_52" data-name="&lt;Path&gt;" class="cls-4" d="M521.631,475.833a213.077,213.077,0,0,1-97.989-59.55l1.761-1.649a210.633,210.633,0,0,0,96.878,58.876Z" transform="translate(-78.625 -9.875)"/>
  </g>
  <g id="_Group_34" data-name="&lt;Group&gt;">
    <path id="_Path_53" data-name="&lt;Path&gt;" class="cls-4" d="M487.274,455.879a61.293,61.293,0,0,1-23.456-23.959l2.124-1.145a58.838,58.838,0,0,0,22.519,23Z" transform="translate(-78.625 -9.875)"/>
  </g>
  <g id="_Group_35" data-name="&lt;Group&gt;">
    <path id="_Path_54" data-name="&lt;Path&gt;" class="cls-4" d="M458.081,723.981l-0.358-2.386a128.5,128.5,0,0,0,87.642-56.7l2.025,1.3A130.939,130.939,0,0,1,458.081,723.981Z" transform="translate(-78.625 -9.875)"/>
  </g>
  <g id="_Group_36" data-name="&lt;Group&gt;">
    <path id="_Path_55" data-name="&lt;Path&gt;" class="cls-4" d="M455.836,733a30.918,30.918,0,0,1-4.6-.341l0.358-2.386a30.9,30.9,0,0,0,27.42-10.151l1.828,1.576A33.52,33.52,0,0,1,455.836,733Z" transform="translate(-78.625 -9.875)"/>
  </g>
  <g id="_Group_37" data-name="&lt;Group&gt;">
    <path id="_Path_56" data-name="&lt;Path&gt;" class="cls-4" d="M317.567,573.444a44.515,44.515,0,0,0-19.846-13.189l0.749-2.291a46.915,46.915,0,0,1,20.92,13.9Z" transform="translate(-78.625 -9.875)"/>
  </g>
  <g id="_Group_38" data-name="&lt;Group&gt;">
    <path id="_Path_57" data-name="&lt;Path&gt;" class="cls-4" d="M363.924,651.433a246.268,246.268,0,0,0-47.346-65.643l1.7-1.712a248.748,248.748,0,0,1,47.808,66.283Z" transform="translate(-78.625 -9.875)"/>
  </g>
  <g id="_Group_39" data-name="&lt;Group&gt;">
    <path id="_Path_58" data-name="&lt;Path&gt;" class="cls-10" d="M367.492,252.145a47.3,47.3,0,0,1-19.648-4.2c-21.669-9.821-34.465-32.954-35-33.934l2.524-1.377c0.128,0.231,12.888,23.273,33.662,32.69,21.48,9.737,43.7-.538,50.3-7.927l0.685-.766c6.854-7.674,9.165-10.259,12.332-22.316l2.784,0.733c-3.347,12.724-5.968,15.658-12.97,23.5l-0.683.764C396.452,244.937,383.025,252.145,367.492,252.145Z" transform="translate(-78.625 -9.875)"/>
  </g>
  <g id="_Group_40" data-name="&lt;Group&gt;">
    <path id="_Path_59" data-name="&lt;Path&gt;" class="cls-10" d="M259.585,328.132c-21.462-50.74-46.731-59.452-46.983-59.534l0.737-2.3c1.071,0.343,26.513,8.988,48.469,60.89Z" transform="translate(-78.625 -9.875)"/>
  </g>
  <g id="_Group_41" data-name="&lt;Group&gt;">
    <path id="_Path_60" data-name="&lt;Path&gt;" class="cls-10" d="M239.845,488.167l-2.092-1.206c26.789-46.441,26.42-103.973,26.413-104.549l2.411-.029C266.584,382.965,266.969,441.139,239.845,488.167Z" transform="translate(-78.625 -9.875)"/>
  </g>
  <g id="_Group_42" data-name="&lt;Group&gt;">
    <path id="_Path_61" data-name="&lt;Path&gt;" class="cls-10" d="M263.077,419.494l-2.072-1.236c5.57-9.331,12.954-35.915,13.029-36.182l2.323,0.643C276.053,383.824,268.812,409.885,263.077,419.494Z" transform="translate(-78.625 -9.875)"/>
  </g>
  <g id="_Group_43" data-name="&lt;Group&gt;">
    <path id="_Path_62" data-name="&lt;Path&gt;" class="cls-10" d="M553.142,518.634c-0.063-.241-6.5-24.36-11.981-43.41-2.169-7.534-5.884-19.681-9.817-32.542-6.1-19.929-13-42.517-15.813-53.379-4.607-17.81,1.8-71.507,2.075-73.785l2.393,0.29c-0.067.553-6.628,55.52-2.132,72.891,2.8,10.81,9.7,33.372,15.783,53.278,3.935,12.87,7.654,25.027,9.828,32.58,5.491,19.073,11.93,43.214,12,43.455Z" transform="translate(-78.625 -9.875)"/>
  </g>
  <g id="_Group_44" data-name="&lt;Group&gt;">
    <path id="_Path_63" data-name="&lt;Path&gt;" class="cls-10" d="M515.761,370.762l-2.317-.671,7.518-25.966,2.317,0.672Z" transform="translate(-78.625 -9.875)"/>
  </g>
  <g id="_Group_45" data-name="&lt;Group&gt;">
    <path id="_Path_64" data-name="&lt;Path&gt;" class="cls-10" d="M209.605,444.321a195.93,195.93,0,0,1-27.2-89.357l2.407-.129a193.483,193.483,0,0,0,26.871,88.252Z" transform="translate(-78.625 -9.875)"/>
  </g>
  <g id="_Group_46" data-name="&lt;Group&gt;">
    <path id="_Path_65" data-name="&lt;Path&gt;" class="cls-10" d="M208.783,421.908A116.167,116.167,0,0,1,197.467,394.4l2.331-.624a113.651,113.651,0,0,0,11.082,26.941Z" transform="translate(-78.625 -9.875)"/>
  </g>
  <g id="_Group_47" data-name="&lt;Group&gt;">
    <path id="_Path_66" data-name="&lt;Path&gt;" class="cls-7" d="M118.732,506.005a1.206,1.206,0,0,1-.7-2.185c1.1-.791,27.566-19.1,87.451-0.229a1.206,1.206,0,0,1-.725,2.3c-58.746-18.513-85.057-.3-85.318-0.114A1.2,1.2,0,0,1,118.732,506.005Z" transform="translate(-78.625 -9.875)"/>
  </g>
  <g id="_Group_48" data-name="&lt;Group&gt;">
    <path id="_Path_67" data-name="&lt;Path&gt;" class="cls-7" d="M229.124,611.249a1.207,1.207,0,0,1-.966-1.93c0.591-.784,14.638-19.192,31.182-16.438a1.206,1.206,0,1,1-.4,2.378c-15.088-2.539-28.715,15.329-28.852,15.509A1.2,1.2,0,0,1,229.124,611.249Z" transform="translate(-78.625 -9.875)"/>
  </g>
  <g id="_Group_49" data-name="&lt;Group&gt;">
    <path id="_Path_68" data-name="&lt;Path&gt;" class="cls-7" d="M298.1,655.475a1.2,1.2,0,0,1-1.133-.8c-0.038-.1-3.771-10.155-12.483-16.23-8.787-6.127-17.775-5.257-18.52-4.963a1.122,1.122,0,0,1-1.613-.242,1.282,1.282,0,0,1,.273-1.745c1.4-1.127,11.911-1.53,21.24,4.972,9.355,6.524,13.211,16.945,13.369,17.386a1.206,1.206,0,0,1-.721,1.544A1.218,1.218,0,0,1,298.1,655.475Z" transform="translate(-78.625 -9.875)"/>
  </g>
  <g id="_Group_50" data-name="&lt;Group&gt;">
    <path id="_Path_69" data-name="&lt;Path&gt;" class="cls-7" d="M321.609,650.739a3.485,3.485,0,0,1-.37-0.019,2.9,2.9,0,0,1-2.414-1.784c-0.066-.181-2.587-7.5-11.3-14.661C298.7,627.03,278.5,621.663,278.3,621.609a1.205,1.205,0,1,1,.612-2.332c0.85,0.223,20.908,5.554,30.14,13.135,9.294,7.633,11.914,15.334,12.019,15.658a0.462,0.462,0,0,0,.422.252c0.846,0.112,2.617-.866,3.651-2.289,0.937-1.291.146-8.094-10.618-17.45-10.5-9.131-29.029-14.123-29.215-14.173a1.206,1.206,0,1,1,.617-2.331c0.782,0.207,19.262,5.189,30.181,14.683,11.619,10.1,12.905,18.05,10.985,20.689C325.9,649.1,323.622,650.739,321.609,650.739Z" transform="translate(-78.625 -9.875)"/>
  </g>
  <g id="_Group_51" data-name="&lt;Group&gt;">
    <path id="_Path_70" data-name="&lt;Path&gt;" class="cls-7" d="M645.6,781.839a1.325,1.325,0,0,1-.217-0.019c-4.75-.862-5.092-12.53-5.094-12.648-0.045-4.011-.5-6.891-2.791-10.626a1.763,1.763,0,0,0-.368-0.478,2.6,2.6,0,0,0-.7.211c-4.975,1.981-10.357,3.828-16,3.938-8.868.187-18.708-5.611-22.262-13.169-1.732-3.681-2.068-7.844-2.365-11.515a1.2,1.2,0,1,1,2.4-.2c0.3,3.638.6,7.4,2.144,10.684,3.184,6.763,11.927,11.963,20.034,11.784,5.261-.1,10.393-1.87,15.156-3.766a2.806,2.806,0,0,1,4.013,1.241c2.575,4.2,3.1,7.528,3.151,11.866,0.038,3.427,1.348,9.98,3.112,10.3A1.206,1.206,0,0,1,645.6,781.839Z" transform="translate(-78.625 -9.875)"/>
  </g>
  <g id="_Group_52" data-name="&lt;Group&gt;">
    <path id="_Path_71" data-name="&lt;Path&gt;" class="cls-7" d="M639.274,817.472a7.384,7.384,0,0,1-2.086-.306c-4.32-1.267-11.517-7.21-16.918-16.108-5.106-8.413-8.967-19.563-9.127-20.034a1.205,1.205,0,0,1,2.28-.782c0.04,0.111,3.938,11.376,8.91,19.563,5.026,8.288,11.755,13.939,15.533,15.048,1.9,0.553,3.359-.042,3.962-0.881a2.477,2.477,0,0,0-.313-2.956c-2.349-3.373-8.067-10.994-8.875-12.071-6.927-5.506-12.266-22.919-12.493-23.661a1.206,1.206,0,0,1,2.308-.7c0.055,0.177,5.408,17.637,11.791,22.559a1.14,1.14,0,0,1,.226.229c0.066,0.087,6.48,8.618,9.021,12.266a4.831,4.831,0,0,1,.292,5.745A5.451,5.451,0,0,1,639.274,817.472Z" transform="translate(-78.625 -9.875)"/>
  </g>
  <g id="_Group_53" data-name="&lt;Group&gt;">
    <path id="_Path_72" data-name="&lt;Path&gt;" class="cls-7" d="M627.079,822.4c-3.721,0-15.361-12.263-18.449-16.453-4.3-5.837-6.993-17.649-7.106-18.15a1.207,1.207,0,0,1,2.355-.528c0.026,0.116,2.693,11.819,6.692,17.246,4.376,5.94,14.506,15.243,16.412,15.5a7.841,7.841,0,0,1,1.738-.207c1.448-.09,3.252-0.2,4.011-1.152A3.373,3.373,0,0,0,633.1,816a1.205,1.205,0,1,1,2.379-.386,5.6,5.6,0,0,1-.862,4.545c-1.428,1.788-3.926,1.939-5.749,2.052a9.11,9.11,0,0,0-1.437.148A1.346,1.346,0,0,1,627.079,822.4Z" transform="translate(-78.625 -9.875)"/>
  </g>
</svg>
