<svg id="_4" data-name="4" xmlns="http://www.w3.org/2000/svg" width="504.906" height="1457.034" viewBox="0 0 504.906 1457.034">
  <defs>
    <style>
      .cls-1 {
        fill: #3b344a;
      }

      .cls-1, .cls-10, .cls-11, .cls-2, .cls-3, .cls-4, .cls-5, .cls-6, .cls-7, .cls-8, .cls-9 {
        fill-rule: evenodd;
      }

      .cls-2 {
        fill: #f9a485;
      }

      .cls-3 {
        fill: #65a6ce;
      }

      .cls-4 {
        fill: #d5d1d8;
      }

      .cls-5 {
        fill: #a5b1c7;
      }

      .cls-6 {
        fill: #4c7d9b;
      }

      .cls-7 {
        fill: #e8e6e9;
      }

      .cls-8 {
        fill: #85504c;
      }

      .cls-9 {
        fill: #e07560;
      }

      .cls-10 {
        fill: #fff;
      }

      .cls-11 {
        fill: #1e1a25;
      }
    </style>
  </defs>
  <path id="_Path_" data-name="&lt;Path&gt;" class="cls-1" d="M235.9,261.356c-6.7,5.578-55.216,6.94-83.69,76.542s-50.077,144.9-28.993,143.635,113.424,0.888,124.2-17.567Q258.193,445.512,235.9,261.356Z" transform="translate(-114.75 -8.656)"/>
  <g id="_Group_" data-name="&lt;Group&gt;">
    <path id="_Path_2" data-name="&lt;Path&gt;" class="cls-2" d="M274.011,1073.46L330.3,1409.44q40.209,8.865,43.373-3.8c3.164-12.65,47.462-251.51,42.717-268.91s-41.135-77.62-61.7-77.51Q349.684,1059.25,274.011,1073.46Z" transform="translate(-114.75 -8.656)"/>
    <path id="_Path_3" data-name="&lt;Path&gt;" class="cls-2" d="M430.614,1059.17q115.571,360.7,121.9,357.46t41.034-17.64q11.073-265.35,0-287.57t-48.48-73.53Z" transform="translate(-114.75 -8.656)"/>
    <path id="_Path_4" data-name="&lt;Path&gt;" class="cls-3" d="M266.1,671.668q-33.219,284.948-11.073,351.172t27.194,158.01q80.142,23.16,138.308-3.72,0-90.105-37.886-148.08c-13.238-20.25,5-246.653,12.251-275.126Q402.141,725.451,266.1,671.668Z" transform="translate(-114.75 -8.656)"/>
    <path id="_Path_5" data-name="&lt;Path&gt;" class="cls-3" d="M332.078,725.45q11.535,83.838,24.19,88.584c12.655,4.745,39.546,180.387,53.782,223.856q14.238,43.485,58.459,138.28,76.161,37.71,134.689-11.33,4.878-30.135-13.464-69.63c-19.852-42.74-54.718-88.91-54.718-98.944,0-19.3,12.655-186.978-4.745-243.924q-17.4-56.946-26.892-80.674Q363.254,741.268,332.078,725.45Z" transform="translate(-114.75 -8.656)"/>
    <g id="_Group_2" data-name="&lt;Group&gt;">
      <path id="_Path_6" data-name="&lt;Path&gt;" class="cls-1" d="M214.447,1437.51c1.784-8.1,96.649-70.83,105.849-71.56s26.3,11.02,27.748,13.61q1.448,2.6-2.6,11.95-2.038,10.005,14.286,9.37c18-.69,18.4-32.77,22.916-30.59s12.412,10.59,12.809,14.17-4.592,19.86-2.683,24,7,36.92,3.254,42.41-41.032,7.89-49.2,8.14-129.269,9.19-133.087.91Q209.924,1451.64,214.447,1437.51Z" transform="translate(-114.75 -8.656)"/>
      <path id="_Path_7" data-name="&lt;Path&gt;" class="cls-4" d="M212.413,1447.72a347.371,347.371,0,0,0,50.574,4.78c23.353,0.34,97.677-8.41,101.708-10.66s23.942-37.29,28.076-33.38,11.643,42.15,8.786,44.84-21.994,6.83-33.083,6.87-153.77,7.84-156.56.22Q209.124,1452.785,212.413,1447.72Z" transform="translate(-114.75 -8.656)"/>
      <g id="_Group_3" data-name="&lt;Group&gt;">
        <path id="_Path_8" data-name="&lt;Path&gt;" class="cls-5" d="M371.465,1436.04c-0.573-2.34-5.493-23.03-1.96-27.98,2.563-3.59,4.383-18.19,4.868-23.51l2.4,0.22c-0.184,2.03-1.9,19.91-5.307,24.69-2.181,3.06.278,17.57,2.337,26.01Z" transform="translate(-114.75 -8.656)"/>
      </g>
      <g id="_Group_4" data-name="&lt;Group&gt;">
        <path id="_Path_9" data-name="&lt;Path&gt;" class="cls-5" d="M269.33,1428.85l-0.575-.75c-0.12-.16-12.113-15.72-24.381-11.78l-0.735-2.3c12.372-3.95,23.727,8.58,26.442,11.87,3.293-1.45,15.668-6.94,27.63-12.96,13.937-7,46.892-22.36,47.224-22.51l1.017,2.18c-0.33.16-33.252,15.49-47.157,22.49-13.951,7.01-28.454,13.32-28.6,13.38Z" transform="translate(-114.75 -8.656)"/>
      </g>
      <g id="_Group_5" data-name="&lt;Group&gt;">
        <path id="_Path_10" data-name="&lt;Path&gt;" class="cls-5" d="M260.055,1443.45a15.732,15.732,0,0,1-5.033-.74c-18.708-6.37-40.221-4.02-40.438-4l-0.273-2.4c0.9-.1,22.255-2.44,41.488,4.12,13.524,4.62,47.989-16.32,68.584-28.83,7.838-4.76,13.5-8.19,15.813-8.9a43.588,43.588,0,0,1,10.74-1.48c4.327-.23,8.8-0.46,13.628-2.51,4.915-2.08,7.025-7.35,9.7-14.02a81.558,81.558,0,0,1,7.374-15.06l2.016,1.32a79.528,79.528,0,0,0-7.153,14.64c-2.767,6.9-5.155,12.86-10.994,15.34-5.22,2.22-9.909,2.46-14.445,2.7a41.277,41.277,0,0,0-10.163,1.38c-2.021.62-7.864,4.16-15.262,8.66C306.8,1425.1,276.573,1443.45,260.055,1443.45Z" transform="translate(-114.75 -8.656)"/>
      </g>
      <g id="_Group_6" data-name="&lt;Group&gt;">
        <path id="_Compound_Path_" data-name="&lt;Compound Path&gt;" class="cls-5" d="M287.829,1420.58c-2.69,0-4.857-2.16-5.787-4.32a14.377,14.377,0,0,1-.985-4.16c-0.292-.14-0.558-0.27-0.794-0.37l-2.246-1c-6.284-2.83-14.1-6.34-20.5-6.93l0.221-2.4c6.793,0.63,14.817,4.23,21.264,7.13l1.783,0.79a36.645,36.645,0,0,0-3.225-11.27c-2.807-.51-5.944-1.64-7.058-3.71-0.523-.98-0.825-2.56.711-4.56l0.523-.67,0.812,0.27c2.716,0.91,4.909,3.4,6.59,6.46a12.664,12.664,0,0,0,2.37.11c5.169-.36,11.833-0.42,17.622,1.76a38.183,38.183,0,0,0-.57-4.48,32.78,32.78,0,0,0-2.367-7.03c-2.734-.89-4.991-2.06-5.983-3.54a3.313,3.313,0,0,1-.31-3.26l0.256-.6,0.641-.12c2.994-.52,5.368,2.18,7.1,5.49a51.015,51.015,0,0,0,12.6,1.77,34.778,34.778,0,0,1,6.01.49,31.006,31.006,0,0,0-.982-3.23,26.231,26.231,0,0,0-2.48-4.81c-0.586-.06-5.719-0.69-6.927-3.53-0.36-.85-0.5-2.2.857-3.86l0.535-.65,0.8,0.27c2.165,0.76,4.329,2.98,6.093,5.48a32.717,32.717,0,0,1,25.027,17.48l-2.157,1.09A30.288,30.288,0,0,0,316.1,1378.8a25.848,25.848,0,0,1,1.686,3.56,38.237,38.237,0,0,1,1.345,4.66c3.891,1.1,7.805,3.27,9.678,7.49a5.284,5.284,0,0,1,.483,3.41,3.874,3.874,0,0,1-2.382,2.67,5.4,5.4,0,0,1-4.694-.31c-2.279-1.38-3.261-3.94-3.86-6.02-0.438-1.52-.777-3.08-1.114-4.63-0.047-.21-0.094-0.42-0.141-0.64a31.154,31.154,0,0,0-6.59-.64,54.929,54.929,0,0,1-11.332-1.34,37.542,37.542,0,0,1,1.741,5.73,42.457,42.457,0,0,1,.643,5.14c0.028,0.32.054,0.64,0.082,0.95a18.376,18.376,0,0,1,5.024,3.86,6.3,6.3,0,0,1,1.729,4.52,3.1,3.1,0,0,1-1.314,2.25,3.016,3.016,0,0,1-2.645.44,6.04,6.04,0,0,1-3.531-3.26,19.843,19.843,0,0,1-1.531-6.22c-5.582-2.49-12.445-2.43-17.7-2.06a11.458,11.458,0,0,1-1.315,0,39.528,39.528,0,0,1,2.824,10.7c0.048,0.45.088,0.89,0.128,1.34,0,0.05.011,0.11,0.016,0.17,3.081,1.74,6.55,4.66,6.171,8.89l-0.087.97-0.968.11A4.318,4.318,0,0,1,287.829,1420.58Zm-4.08-6.88a9.36,9.36,0,0,0,.507,1.61,4.952,4.952,0,0,0,2.781,2.74A7.565,7.565,0,0,0,283.749,1413.7Zm18.258-11.85a14.875,14.875,0,0,0,1.1,3.79,3.71,3.71,0,0,0,1.969,1.94,0.717,0.717,0,0,0,.631-0.09,0.694,0.694,0,0,0,.3-0.55,3.968,3.968,0,0,0-1.116-2.63A15.422,15.422,0,0,0,302.007,1401.85Zm17.729-12.12c0.282,1.3.574,2.59,0.942,3.86,0.478,1.66,1.225,3.68,2.791,4.62a2.91,2.91,0,0,0,2.515.16,1.561,1.561,0,0,0,.966-1.01,3.019,3.019,0,0,0-.342-1.87A11.185,11.185,0,0,0,319.736,1389.73Zm-47.089,2.31a1.2,1.2,0,0,0-.017,1.16c0.443,0.82,1.741,1.49,3.262,1.96A9.838,9.838,0,0,0,272.647,1392.04Zm19.471-10.9a1.127,1.127,0,0,0,.106.18,5.083,5.083,0,0,0,1.943,1.48A4.781,4.781,0,0,0,292.118,1381.14Zm16.246-7.84a0.813,0.813,0,0,0-.023.61,4.26,4.26,0,0,0,2.52,1.56A11.182,11.182,0,0,0,308.364,1373.3Z" transform="translate(-114.75 -8.656)"/>
      </g>
    </g>
    <g id="_Group_7" data-name="&lt;Group&gt;">
      <path id="_Path_11" data-name="&lt;Path&gt;" class="cls-1" d="M428.607,1439.47c1.784-8.1,96.649-70.83,105.849-71.56s26.3,11.01,27.748,13.61q1.447,2.6-2.6,11.95-2.038,10.005,14.286,9.37c18-.69,18.4-32.77,22.916-30.59s12.412,10.58,12.809,14.16-4.592,19.87-2.683,24.01,7,36.92,3.254,42.41-41.032,7.89-49.2,8.14-129.269,9.19-133.087.91Q424.083,1453.6,428.607,1439.47Z" transform="translate(-114.75 -8.656)"/>
      <path id="_Path_12" data-name="&lt;Path&gt;" class="cls-4" d="M426.573,1449.67a346.085,346.085,0,0,0,50.574,4.79c23.353,0.34,97.677-8.41,101.708-10.66s23.942-37.29,28.076-33.38,11.643,42.15,8.786,44.83-21.994,6.83-33.083,6.88-153.77,7.83-156.56.22Q423.284,1454.745,426.573,1449.67Z" transform="translate(-114.75 -8.656)"/>
      <g id="_Group_8" data-name="&lt;Group&gt;">
        <path id="_Path_13" data-name="&lt;Path&gt;" class="cls-5" d="M585.625,1438c-0.572-2.34-5.492-23.03-1.959-27.98,2.563-3.6,4.381-18.19,4.866-23.51l2.4,0.22c-0.184,2.02-1.9,19.91-5.3,24.69-2.181,3.06.276,17.57,2.337,26Z" transform="translate(-114.75 -8.656)"/>
      </g>
      <g id="_Group_9" data-name="&lt;Group&gt;">
        <path id="_Path_14" data-name="&lt;Path&gt;" class="cls-5" d="M483.491,1430.81l-0.575-.75c-0.12-.16-12.11-15.71-24.384-11.78l-0.735-2.3c12.37-3.95,23.728,8.58,26.445,11.87,3.293-1.45,15.668-6.95,27.63-12.96,13.937-7.01,46.892-22.36,47.224-22.52l1.017,2.19c-0.33.15-33.252,15.49-47.157,22.48-13.95,7.02-28.454,13.33-28.6,13.39Z" transform="translate(-114.75 -8.656)"/>
      </g>
      <g id="_Group_10" data-name="&lt;Group&gt;">
        <path id="_Path_15" data-name="&lt;Path&gt;" class="cls-5" d="M474.219,1445.4a15.754,15.754,0,0,1-5.036-.73c-18.706-6.38-40.224-4.03-40.44-4l-0.274-2.4c0.9-.1,22.263-2.44,41.491,4.11,13.519,4.62,47.994-16.32,68.593-28.82,7.834-4.76,13.493-8.19,15.8-8.9a44.052,44.052,0,0,1,10.737-1.49c4.327-.22,8.8-0.45,13.631-2.5,4.915-2.09,7.026-7.35,9.7-14.02a81.558,81.558,0,0,1,7.374-15.06l2.016,1.32a79.528,79.528,0,0,0-7.153,14.64c-2.767,6.9-5.156,12.86-10.994,15.34-5.222,2.22-9.911,2.46-14.45,2.69a40.78,40.78,0,0,0-10.158,1.39c-2.019.61-7.86,4.16-15.255,8.65C520.973,1427.05,490.738,1445.4,474.219,1445.4Z" transform="translate(-114.75 -8.656)"/>
      </g>
      <g id="_Group_11" data-name="&lt;Group&gt;">
        <path id="_Compound_Path_2" data-name="&lt;Compound Path&gt;" class="cls-5" d="M501.987,1422.54c-2.692,0-4.856-2.17-5.784-4.32a14.446,14.446,0,0,1-.987-4.16c-0.29-.14-0.558-0.27-0.794-0.37l-2.221-.99c-6.289-2.83-14.117-6.35-20.519-6.94l0.221-2.4c6.8,0.63,14.834,4.24,21.287,7.14l1.76,0.78a36.868,36.868,0,0,0-3.227-11.28c-2.808-.5-5.943-1.63-7.056-3.71-0.523-.97-0.825-2.56.711-4.55l0.523-.68,0.815,0.27c2.713,0.91,4.906,3.41,6.585,6.47a12.688,12.688,0,0,0,2.372.11c5.167-.35,11.835-0.42,17.62,1.76a38.4,38.4,0,0,0-.57-4.48,32.927,32.927,0,0,0-2.365-7.04c-2.735-.88-4.993-2.05-5.985-3.54a3.294,3.294,0,0,1-.311-3.25l0.257-.6,0.641-.12c3-.52,5.37,2.18,7.1,5.49a52.526,52.526,0,0,0,12.6,1.77,34.814,34.814,0,0,1,6.01.49,30.52,30.52,0,0,0-.982-3.23,26.675,26.675,0,0,0-2.48-4.82c-0.584-.06-5.714-0.68-6.927-3.52a3.62,3.62,0,0,1,.857-3.87l0.535-.65,0.8,0.28c2.165,0.76,4.329,2.98,6.093,5.48a32.726,32.726,0,0,1,25.025,17.48l-2.157,1.08a30.328,30.328,0,0,0-21.167-15.87,26.478,26.478,0,0,1,1.686,3.57,38.237,38.237,0,0,1,1.345,4.66c3.891,1.1,7.8,3.27,9.676,7.49a5.242,5.242,0,0,1,.482,3.41,3.872,3.872,0,0,1-2.381,2.67,5.372,5.372,0,0,1-4.694-.32c-2.285-1.38-3.262-3.93-3.858-6.01-0.438-1.52-.777-3.08-1.116-4.63-0.045-.21-0.092-0.43-0.139-0.64a31.774,31.774,0,0,0-6.59-.64,53.02,53.02,0,0,1-11.332-1.34,37.142,37.142,0,0,1,1.738,5.73,42.469,42.469,0,0,1,.646,5.14c0.028,0.32.054,0.64,0.082,0.95a18.4,18.4,0,0,1,5.022,3.86,6.284,6.284,0,0,1,1.731,4.52,3.1,3.1,0,0,1-1.314,2.25,3.063,3.063,0,0,1-2.65.44,6.047,6.047,0,0,1-3.526-3.26,19.91,19.91,0,0,1-1.531-6.22c-5.579-2.49-12.45-2.43-17.7-2.06a11.5,11.5,0,0,1-1.317,0,39.481,39.481,0,0,1,2.826,10.7l0.125,1.31c0,0.07.012,0.14,0.017,0.2,3.08,1.74,6.549,4.66,6.17,8.88l-0.087.97-0.968.12A4.3,4.3,0,0,1,501.987,1422.54Zm-4.077-6.88a8.906,8.906,0,0,0,.507,1.6A4.882,4.882,0,0,0,501.2,1420,7.572,7.572,0,0,0,497.91,1415.66Zm18.258-11.85a14.686,14.686,0,0,0,1.1,3.78,3.636,3.636,0,0,0,1.964,1.94,0.69,0.69,0,0,0,.636-0.08,0.712,0.712,0,0,0,.3-0.55,3.973,3.973,0,0,0-1.119-2.63A15.4,15.4,0,0,0,516.168,1403.81Zm17.729-12.12c0.282,1.3.574,2.59,0.942,3.86,0.475,1.66,1.222,3.67,2.788,4.62a2.879,2.879,0,0,0,2.516.15,1.523,1.523,0,0,0,.965-1,3,3,0,0,0-.341-1.87C539.443,1394.46,536.775,1392.71,533.9,1391.69ZM486.808,1394a1.173,1.173,0,0,0-.017,1.15c0.443,0.83,1.738,1.49,3.26,1.97A9.843,9.843,0,0,0,486.808,1394Zm19.47-10.9c0.029,0.05.064,0.12,0.1,0.18a5.1,5.1,0,0,0,1.948,1.48A4.782,4.782,0,0,0,506.278,1383.1Zm16.247-7.84a0.8,0.8,0,0,0-.023.61,4.269,4.269,0,0,0,2.522,1.56A10.937,10.937,0,0,0,522.525,1375.26Z" transform="translate(-114.75 -8.656)"/>
      </g>
    </g>
    <g id="_Group_12" data-name="&lt;Group&gt;">
      <path id="_Path_16" data-name="&lt;Path&gt;" class="cls-6" d="M348.557,1177.15c-41.363,0-67.738-12.11-68.129-12.29a1.209,1.209,0,0,1,1.027-2.19c0.582,0.28,59.028,27.06,138.689-.05a1.222,1.222,0,0,1,1.53.76,1.207,1.207,0,0,1-.753,1.53A224.019,224.019,0,0,1,348.557,1177.15Z" transform="translate(-114.75 -8.656)"/>
    </g>
    <g id="_Group_13" data-name="&lt;Group&gt;">
      <path id="_Path_17" data-name="&lt;Path&gt;" class="cls-6" d="M528.364,1174.76c-33.612,0-63.731-9.67-64.28-9.85a1.205,1.205,0,0,1,.753-2.29c0.987,0.32,99.056,31.79,137.4-19.97a1.206,1.206,0,1,1,1.936,1.44C586.348,1168.15,556.161,1174.76,528.364,1174.76Z" transform="translate(-114.75 -8.656)"/>
    </g>
    <g id="_Group_14" data-name="&lt;Group&gt;">
      <path id="_Path_18" data-name="&lt;Path&gt;" class="cls-6" d="M380.655,903.233a1.2,1.2,0,0,1-1.161-.883l-24.255-87.517c-3.283-1.967-22.575-14.8-22.472-44.369,0.113-31.506,4.346-65.479,4.388-65.818a1.205,1.205,0,0,1,1.774-.908l21.343,11.649a1.208,1.208,0,0,1,.613,1.26c-3.411,20.113-9.063,73.674,5.544,79.906a1.206,1.206,0,1,1-.947,2.219c-18.439-7.867-8.524-73.017-7.115-81.679l-19.031-10.385c-0.859,7.358-4.06,36.5-4.157,63.765-0.106,30.64,21.433,42.379,21.652,42.494a1.211,1.211,0,0,1,.6.744l24.386,87.994A1.2,1.2,0,0,1,380.655,903.233Z" transform="translate(-114.75 -8.656)"/>
    </g>
    <g id="_Group_15" data-name="&lt;Group&gt;">
      <path id="_Path_19" data-name="&lt;Path&gt;" class="cls-6" d="M583.579,1162.15a1.2,1.2,0,0,1-1.185-1c-10.017-57.67-35.774-100.71-51.166-126.43-7.085-11.84-12.2-20.39-13.458-26.08-2.1-9.5-2.266-54.32-2.442-101.775-0.163-43.049-.33-87.567-1.988-106.317-3.418-38.613-29.757-118.674-30.023-119.479a1.205,1.205,0,1,1,2.289-.756c0.266,0.807,26.7,81.132,30.136,120.023,1.668,18.852,1.835,63.42,2,106.522,0.17,45.238.344,92.014,2.386,101.272,1.171,5.3,6.2,13.71,13.173,25.36,15.477,25.85,41.38,69.13,51.47,127.25a1.2,1.2,0,0,1-.98,1.39A0.749,0.749,0,0,1,583.579,1162.15Z" transform="translate(-114.75 -8.656)"/>
    </g>
    <g id="_Group_16" data-name="&lt;Group&gt;">
      <path id="_Path_20" data-name="&lt;Path&gt;" class="cls-6" d="M278.6,1038.98a1.087,1.087,0,0,1-.494-0.11,1.2,1.2,0,0,1-.606-1.59l12.37-27.44a1.2,1.2,0,1,1,2.2.98l-12.37,27.45A1.2,1.2,0,0,1,278.6,1038.98Z" transform="translate(-114.75 -8.656)"/>
    </g>
    <g id="_Group_17" data-name="&lt;Group&gt;">
      <path id="_Path_21" data-name="&lt;Path&gt;" class="cls-6" d="M383.293,1036.15a1.2,1.2,0,0,1-.888-0.39l-21.193-23.03a1.205,1.205,0,0,1,1.776-1.63l21.193,23.03a1.2,1.2,0,0,1-.071,1.7A1.176,1.176,0,0,1,383.293,1036.15Z" transform="translate(-114.75 -8.656)"/>
    </g>
    <g id="_Group_18" data-name="&lt;Group&gt;">
      <path id="_Path_22" data-name="&lt;Path&gt;" class="cls-6" d="M432.794,1034.16a1.246,1.246,0,0,1-.269-0.03,1.212,1.212,0,0,1-.907-1.45,42.883,42.883,0,0,1,6.8-15.15,1.206,1.206,0,0,1,1.964,1.4,40.435,40.435,0,0,0-6.409,14.29A1.206,1.206,0,0,1,432.794,1034.16Z" transform="translate(-114.75 -8.656)"/>
    </g>
    <g id="_Group_19" data-name="&lt;Group&gt;">
      <path id="_Path_23" data-name="&lt;Path&gt;" class="cls-6" d="M542.4,1009.75a1.192,1.192,0,0,1-.914-0.42l-17.387-20.2a1.206,1.206,0,0,1,1.828-1.574l17.387,20.208a1.206,1.206,0,0,1-.128,1.7A1.233,1.233,0,0,1,542.4,1009.75Z" transform="translate(-114.75 -8.656)"/>
    </g>
    <g id="_Group_20" data-name="&lt;Group&gt;">
      <path id="_Path_24" data-name="&lt;Path&gt;" class="cls-6" d="M512.091,784.348a1.262,1.262,0,0,1-.193-0.014c-42.937-6.9-75.625-78.93-77-81.993a1.2,1.2,0,0,1,.636-1.605l16.513-6.894a1.2,1.2,0,0,1,1.6.715c0.193,0.55,19.641,55.158,55.644,68.252a1.206,1.206,0,0,1-.825,2.266c-34.5-12.545-53.528-60.1-56.658-68.52l-14.191,5.924c4.39,9.308,35.857,73.235,74.658,79.472A1.206,1.206,0,0,1,512.091,784.348Z" transform="translate(-114.75 -8.656)"/>
    </g>
  </g>
  <path id="_Path_25" data-name="&lt;Path&gt;" class="cls-7" d="M408.457,746.007q-77.506,17.4-161.033-24.869-0.3-3.587,0-28.9c0.295-25.311-6.635-53.792-14.548-102.817-7.913-49.05-9.486-128.129-4.743-143.955,1.573-5.259-2.974-24.009-9.166-47.206-12.459-46.642-31.6-111.2-21.035-119.651,15.825-12.656,120.9-50.352,150.417-56.177,21.011-4.153,143.954,15.8,166.1,39.54,19.217,20.544-2.015,131.447-12.115,167.84-1.549,5.6-2.851,9.437-3.686,10.912-6.341,11.058,12.729,124.958,15.9,155.012s12.557,96.5,15.727,102.818C533.441,704.9,485.988,728.609,408.457,746.007Z" transform="translate(-114.75 -8.656)"/>
  <path id="_Path_26" data-name="&lt;Path&gt;" class="cls-1" d="M498.4,445.467c-2.605-39.023-.047-90.137-46-140.682-42.812-47.091-106.581-57.26-167.042-12.546-51.3,37.938-50.021,118.972-57.221,153.228-12.459-46.641-46.543-153.417-36.579-162.573,27.47-25.246,127.282-54.636,156.795-60.461,21.011-4.153,143.954,15.8,166.1,39.54C533.662,282.517,508.5,409.073,498.4,445.467Z" transform="translate(-114.75 -8.656)"/>
  <path id="_Path_27" data-name="&lt;Path&gt;" class="cls-2" d="M164.476,431.991l-0.568.192c-15.668,5.289-32.16,12.619-40.134,27.106-8.955,16.267-7.472,74.7,10.84,85.176,13.564,7.753,63.583,4.1,78.233,3.265,46.866-2.675,200.286-11.546,239.667-25.827-1.987.726-54.269-28.409-75.155-32.148C326.1,480.579,270.914,467.7,221.371,451.83,219.693,433.675,193.468,422.172,164.476,431.991Z" transform="translate(-114.75 -8.656)"/>
  <path id="_Path_28" data-name="&lt;Path&gt;" class="cls-2" d="M510.491,431.554c17.4-6.114,47.42,3.368,60.976,9.8,18.683,8.865,37.074,27.754,36.473,49.885-0.341,12.576-16.391,39.336-29.687,41.753-11.6,2.109-210.413-5.667-353.936-80.25A1320.576,1320.576,0,0,0,368.4,448.627c29.889-2.478,66.8.7,96.1,4.185,9.325,1.113,20.522,5.452,29.089-.475,6.069-4.2,4.877-12.451,10-16.9A21.079,21.079,0,0,1,510.491,431.554Z" transform="translate(-114.75 -8.656)"/>
  <path id="_Path_29" data-name="&lt;Path&gt;" class="cls-1" d="M502.8,253.815q49.613,19.227,70.177,68.264c20.564,49.038,48.181,141.32,46.6,156.25s-21.668,57.987-30.136,43.695c-47.682-80.48-82.47-60.133-86.641-70.72S484.829,280.462,502.8,253.815Z" transform="translate(-114.75 -8.656)"/>
  <path id="_Path_30" data-name="&lt;Path&gt;" class="cls-2" d="M524.612,441.236c-6.294-5.265-15.489-8.956-24.716-10.635-17.052-3.1-34.815,1.464-51.233,5.959l-43.925,12.028c10.394,3.353,19.615,6.283,30.955,7.273,5.206,0.455,10.545.4,15.578,1.444,11.684,2.423,19.327,10.116,26.028,17.3,1.7,1.82,1.763,3.4,4.79,2.986s5.278-2.557,5.3-4.736c0.742-.5,2.395-1.553,3.137-2.053l3.15,5.815a2.893,2.893,0,0,0,1.614,1.588,4.668,4.668,0,0,0,3.437-.678c8.442-4.474,15.35-12.657,12.813-20.3-1.34-4.034-4.874-7.594-5.992-11.661,0.2,0.725,9.214,4.641,10.59,5.848a21.526,21.526,0,0,1,6.43,10.431c1.589,4.957,4.393,11.5,8.163,2.4,2-4.842,2.091-12.652-.964-17.332A26.1,26.1,0,0,0,524.612,441.236Z" transform="translate(-114.75 -8.656)"/>
  <path id="_Path_31" data-name="&lt;Path&gt;" class="cls-8" d="M387.059,29.427q-28.083-21.537-49.208-14.3c-21.125,7.233-46,45.124-60.642,50.435l-14.646,5.311q18.987,23.1,36.009,21.567,2.635,26.35,13.753,42.992c11.117,16.642,71.709,56.183,73.983,50.279,4.906-12.739,1.128-15.384,5.24-17.472s35.075-28.715,38.731-80.788C432.163,60.609,426.9,26.684,387.059,29.427Z" transform="translate(-114.75 -8.656)"/>
  <path id="_Path_32" data-name="&lt;Path&gt;" class="cls-2" d="M343.894,145.536q-10.427,60.527-13.885,76.347-0.609,2.785-5.573,6.768,9.185,17.881,39.054,21.572c29.869,3.691,50.957-19.785,48.7-21.53s-8.383-12.33-9.627-17.175q-1.245-4.845-17.442-90.841Z" transform="translate(-114.75 -8.656)"/>
  <path id="_Path_33" data-name="&lt;Path&gt;" class="cls-9" d="M336.959,182.324l-0.37,3.811q5.889,20.646,19.027,14.329c30.692-14.758,32.025-62.9,31.719-68.066l-1.065-5.631q-4.969-2.885-9.483,2.3T336.959,182.324Z" transform="translate(-114.75 -8.656)"/>
  <path id="_Path_34" data-name="&lt;Path&gt;" class="cls-2" d="M353.4,64.584q-40.909,26.166-51.949,27.323c-5.4.566-.486,90.068,30.772,96.5,23.25,4.784,42.608-17.859,48.176-29.36q5.568-11.5.653-29.169,10.462-2.347,10.786-18.181c0.323-15.835-5.222-19.662-11.467-9.795Q374.12,111.767,353.4,64.584Z" transform="translate(-114.75 -8.656)"/>
  <g id="_Group_21" data-name="&lt;Group&gt;">
    <path id="_Path_35" data-name="&lt;Path&gt;" class="cls-8" d="M394.231,162.014a1.206,1.206,0,0,1-.12-2.406c8.064-.816,16-5.3,22.328-12.609s10.175-16.312,12.81-23.322a115.3,115.3,0,0,0,7.436-46.933c-0.872-14.662-3.42-31.014-15.724-41.134-9.08-7.465-23.419-11.329-34.974-3.113a1.209,1.209,0,0,1-1.67-.267c-5.984-8.11-15.485-14.895-26.065-18.613a42.956,42.956,0,0,0-30.9.674c-9.793,4.225-15.974,11.736-22.517,19.688a114.2,114.2,0,0,1-12.167,13.278,107.311,107.311,0,0,1-42.473,23.166,44.728,44.728,0,0,0,65.272,13.3c6.572-4.882,11.772-11.626,15.993-17.576a1.206,1.206,0,0,1,1.969,1.394c-4.332,6.106-9.681,13.034-16.525,18.118a47.136,47.136,0,0,1-69.582-15.429,1.205,1.205,0,0,1,.758-1.741,104.778,104.778,0,0,0,42.987-23.04,112.472,112.472,0,0,0,11.905-13.006c6.44-7.823,13.1-15.913,23.424-20.37a45.376,45.376,0,0,1,32.66-.735c10.623,3.732,20.216,10.451,26.5,18.53,12.417-8.078,27.4-3.97,36.936,3.874,13.02,10.708,15.7,27.672,16.6,42.853a117.675,117.675,0,0,1-7.586,47.924c-2.7,7.2-6.654,16.438-13.244,24.052-6.739,7.782-15.23,12.552-23.906,13.431C394.313,162.011,394.273,162.014,394.231,162.014Z" transform="translate(-114.75 -8.656)"/>
  </g>
  <path id="_Path_36" data-name="&lt;Path&gt;" class="cls-8" d="M320.14,116c0.479,3.856-.791,7.188-2.839,7.443s-4.095-2.666-4.574-6.522,0.791-7.188,2.839-7.443S319.661,112.14,320.14,116Z" transform="translate(-114.75 -8.656)"/>
  <path id="_Path_37" data-name="&lt;Path&gt;" class="cls-8" d="M352.292,111.3c0.479,3.856-.792,7.188-2.839,7.443s-4.095-2.666-4.575-6.522,0.792-7.189,2.839-7.443S351.812,107.447,352.292,111.3Z" transform="translate(-114.75 -8.656)"/>
  <g id="_Group_22" data-name="&lt;Group&gt;">
    <path id="_Path_38" data-name="&lt;Path&gt;" class="cls-8" d="M381.552,120.37a1.051,1.051,0,0,1-.167-0.012A1.2,1.2,0,0,1,380.356,119a17.658,17.658,0,0,1,5.441-10.49,1.206,1.206,0,0,1,1.644,1.764,15.476,15.476,0,0,0-4.7,9.054A1.2,1.2,0,0,1,381.552,120.37Z" transform="translate(-114.75 -8.656)"/>
  </g>
  <g id="_Group_23" data-name="&lt;Group&gt;">
    <path id="_Path_39" data-name="&lt;Path&gt;" class="cls-8" d="M338.208,100.888a1.206,1.206,0,0,1-.619-2.241,20.706,20.706,0,0,1,16.161-2.073,1.206,1.206,0,0,1-.673,2.315,18.253,18.253,0,0,0-14.25,1.828A1.206,1.206,0,0,1,338.208,100.888Z" transform="translate(-114.75 -8.656)"/>
  </g>
  <path id="_Path_40" data-name="&lt;Path&gt;" class="cls-10" d="M348.857,151.064a23.208,23.208,0,0,1-12.083,8.368,17.186,17.186,0,0,1-11.219-.458,6.6,6.6,0,0,1-3.941-3.659Z" transform="translate(-114.75 -8.656)"/>
  <g id="_Group_24" data-name="&lt;Group&gt;">
    <path id="_Path_41" data-name="&lt;Path&gt;" class="cls-8" d="M333.747,165.783q-0.808,0-1.618-.06a1.205,1.205,0,1,1,.179-2.4,19.264,19.264,0,0,0,6.548-.64A1.206,1.206,0,1,1,339.5,165,21.594,21.594,0,0,1,333.747,165.783Z" transform="translate(-114.75 -8.656)"/>
  </g>
  <g id="_Group_25" data-name="&lt;Group&gt;">
    <path id="_Path_42" data-name="&lt;Path&gt;" class="cls-8" d="M307.943,105.776a1.206,1.206,0,0,1-.486-2.31,24.535,24.535,0,0,1,13.27-1.85A1.205,1.205,0,1,1,320.4,104a22.468,22.468,0,0,0-11.969,1.669A1.2,1.2,0,0,1,307.943,105.776Z" transform="translate(-114.75 -8.656)"/>
  </g>
  <g id="_Group_26" data-name="&lt;Group&gt;">
    <path id="_Path_43" data-name="&lt;Path&gt;" class="cls-8" d="M328.858,142.727a10.626,10.626,0,0,1-7.608-3.1,4.373,4.373,0,0,1-1.241-2.126,5.044,5.044,0,0,1,.577-3.01c4.668-10.648,6.055-20.234,4.124-28.492a1.443,1.443,0,0,0-.165-0.477,1.106,1.106,0,0,1-.758-1.433,1.26,1.26,0,0,1,1.566-.794,2.67,2.67,0,0,1,1.7,2.154c2.054,8.778.62,18.874-4.263,30.009a3.228,3.228,0,0,0-.421,1.572,2.088,2.088,0,0,0,.61.919,8.28,8.28,0,0,0,10.068,1.207,1.205,1.205,0,1,1,1.286,2.039A10.255,10.255,0,0,1,328.858,142.727Z" transform="translate(-114.75 -8.656)"/>
  </g>
  <path id="_Path_44" data-name="&lt;Path&gt;" class="cls-7" d="M327.423,224.584q7.786,22,35.219,22.006c27.434,0.006,37.59-13.039,46.909-21.163l6.585,3.454q-9.264,24.759-53.558,24.934-35.155.139-40.964-24.8Z" transform="translate(-114.75 -8.656)"/>
  <g id="_Group_27" data-name="&lt;Group&gt;">
    <path id="_Path_45" data-name="&lt;Path&gt;" class="cls-5" d="M393.289,718.924a120.665,120.665,0,0,1-108.852-116.8l2.412-.066A118.259,118.259,0,0,0,393.524,716.525Z" transform="translate(-114.75 -8.656)"/>
  </g>
  <g id="_Group_28" data-name="&lt;Group&gt;">
    <path id="_Path_46" data-name="&lt;Path&gt;" class="cls-5" d="M311.994,638.951a118.742,118.742,0,0,1-19.719-61.385l2.412-.087a116.33,116.33,0,0,0,19.318,60.139Z" transform="translate(-114.75 -8.656)"/>
  </g>
  <g id="_Group_29" data-name="&lt;Group&gt;">
    <path id="_Path_47" data-name="&lt;Path&gt;" class="cls-5" d="M285.452,347.16l-0.3-2.393a260.388,260.388,0,0,0,119.166-46.656l1.4,1.96A262.779,262.779,0,0,1,285.452,347.16Z" transform="translate(-114.75 -8.656)"/>
  </g>
  <g id="_Group_30" data-name="&lt;Group&gt;">
    <path id="_Path_48" data-name="&lt;Path&gt;" class="cls-11" d="M366.175,255.106q-1.791,0-3.653-.086c-38.869-1.812-42.077-25.63-42.106-25.87l2.4-.282c0.11,0.9,3.106,22.032,39.823,23.743,37.067,1.749,52.3-24.068,52.454-24.329l2.094,1.2C417.03,229.744,402.114,255.106,366.175,255.106Z" transform="translate(-114.75 -8.656)"/>
  </g>
  <g id="_Group_31" data-name="&lt;Group&gt;">
    <path id="_Path_49" data-name="&lt;Path&gt;" class="cls-11" d="M237.529,389.375l-2.411-.045c0.9-48.063-11.751-73.957-11.878-74.212l2.157-1.079C225.527,314.3,238.441,340.725,237.529,389.375Z" transform="translate(-114.75 -8.656)"/>
  </g>
  <g id="_Group_32" data-name="&lt;Group&gt;">
    <path id="_Path_50" data-name="&lt;Path&gt;" class="cls-11" d="M236.889,366.1l-2.407-.118c0.676-13.886.683-47.786,0.683-48.127h2.411C237.576,318.2,237.569,352.155,236.889,366.1Z" transform="translate(-114.75 -8.656)"/>
  </g>
  <g id="_Group_33" data-name="&lt;Group&gt;">
    <path id="_Path_51" data-name="&lt;Path&gt;" class="cls-11" d="M175.359,300.2l-0.937-2.224c0.888-.374,21.944-9.077,36.24.1l-1.3,2.03C196.145,291.627,175.564,300.117,175.359,300.2Z" transform="translate(-114.75 -8.656)"/>
  </g>
  <g id="_Group_34" data-name="&lt;Group&gt;">
    <path id="_Path_52" data-name="&lt;Path&gt;" class="cls-11" d="M495.517,416.306c-0.268-3.024-6.465-74.368,4.165-102.159l2.251,0.862c-10.429,27.271-4.079,100.348-4.013,101.083Z" transform="translate(-114.75 -8.656)"/>
  </g>
  <g id="_Group_35" data-name="&lt;Group&gt;">
    <path id="_Path_53" data-name="&lt;Path&gt;" class="cls-11" d="M547.534,286.13c-17.246-10.1-30.706-.484-31.267-0.071l-1.432-1.939c0.149-.111,15.248-11,33.919-0.072Z" transform="translate(-114.75 -8.656)"/>
  </g>
  <g id="_Group_36" data-name="&lt;Group&gt;">
    <path id="_Path_54" data-name="&lt;Path&gt;" class="cls-11" d="M492.641,365.707c-2.932-10.718-.155-38.6-0.035-39.782l2.4,0.242c-0.029.285-2.85,28.617-.036,38.9Z" transform="translate(-114.75 -8.656)"/>
  </g>
  <g id="_Group_37" data-name="&lt;Group&gt;">
    <path id="_Path_55" data-name="&lt;Path&gt;" class="cls-11" d="M578.02,439.788a207.115,207.115,0,0,1-49.357-62.948l2.153-1.091a204.623,204.623,0,0,0,48.778,62.209Z" transform="translate(-114.75 -8.656)"/>
  </g>
  <g id="_Group_38" data-name="&lt;Group&gt;">
    <path id="_Path_56" data-name="&lt;Path&gt;" class="cls-11" d="M546.587,393.992a103.174,103.174,0,0,1-14.16-21.513l2.167-1.064a100.706,100.706,0,0,0,13.825,21.011Z" transform="translate(-114.75 -8.656)"/>
  </g>
  <g id="_Group_39" data-name="&lt;Group&gt;">
    <path id="_Path_57" data-name="&lt;Path&gt;" class="cls-11" d="M152.493,401.9l-1.9-1.482a141.606,141.606,0,0,1,60.68-45.059l0.867,2.249A139.221,139.221,0,0,0,152.493,401.9Z" transform="translate(-114.75 -8.656)"/>
  </g>
  <g id="_Group_40" data-name="&lt;Group&gt;">
    <path id="_Path_58" data-name="&lt;Path&gt;" class="cls-11" d="M196.13,375.3l-1.639-1.766A83.5,83.5,0,0,1,215.246,359.4l1.041,2.174A81.233,81.233,0,0,0,196.13,375.3Z" transform="translate(-114.75 -8.656)"/>
  </g>
  <g id="_Group_41" data-name="&lt;Group&gt;">
    <path id="_Path_59" data-name="&lt;Path&gt;" class="cls-8" d="M452.514,523.109a1.18,1.18,0,0,1-.268-0.031c-129.493-29.6-230.32-69.727-231.324-70.128a1.206,1.206,0,0,1,.9-2.24c1,0.4,101.666,40.459,230.966,70.018A1.206,1.206,0,0,1,452.514,523.109Z" transform="translate(-114.75 -8.656)"/>
  </g>
  <g id="_Group_42" data-name="&lt;Group&gt;">
    <path id="_Path_60" data-name="&lt;Path&gt;" class="cls-8" d="M230.423,455.308a1.173,1.173,0,0,1-.292-0.036,136.367,136.367,0,0,1-16.932-5.859c-9.056-3.588-17.608-6.977-27.251-7.308a71.656,71.656,0,0,0-41.873,12.338,1.206,1.206,0,0,1-1.345-2,73.65,73.65,0,0,1,43.3-12.746c10.056,0.344,19.2,3.969,28.053,7.476a134.6,134.6,0,0,0,16.629,5.762A1.205,1.205,0,0,1,230.423,455.308Z" transform="translate(-114.75 -8.656)"/>
  </g>
  <g id="_Group_43" data-name="&lt;Group&gt;">
    <path id="_Path_61" data-name="&lt;Path&gt;" class="cls-8" d="M482.8,478.726c-2.749,0-6.5-3.892-11.334-8.913-3.288-3.411-7.014-7.279-10.373-9.677-8.248-5.892-53.987-10.857-54.449-10.906a1.206,1.206,0,0,1,.259-2.4c1.908,0.2,46.835,5.086,55.594,11.342,3.538,2.527,7.346,6.479,10.705,9.966,3.255,3.379,8.7,9.038,9.788,8.083,2-1.74-1.4-10.933-8.938-20.628-6.051-7.777-21.463-8.914-21.619-8.924a1.207,1.207,0,0,1-1.121-1.286,1.228,1.228,0,0,1,1.286-1.122c0.676,0.048,16.652,1.231,23.357,9.85,5.86,7.535,12.992,20.125,8.618,23.93A2.623,2.623,0,0,1,482.8,478.726Z" transform="translate(-114.75 -8.656)"/>
  </g>
  <g id="_Group_44" data-name="&lt;Group&gt;">
    <path id="_Path_62" data-name="&lt;Path&gt;" class="cls-8" d="M491.431,478.725a1.648,1.648,0,0,1-.532-0.089,46.634,46.634,0,0,1-6.784-3.4,1.207,1.207,0,0,1,1.244-2.068,49.63,49.63,0,0,0,5.9,3.029c0.834-1.169,2.377-6.077,2.9-12.234,0.516-6.077-.174-10.673-1.9-12.612C487.5,446,474.963,440.077,472.8,439.941a1.206,1.206,0,0,1-1.524-1.794,1.625,1.625,0,0,1,1.3-.616c3.465,0,16.7,6.847,21.483,12.223,4.953,5.571,2.018,23.51-.775,27.731A2.266,2.266,0,0,1,491.431,478.725Z" transform="translate(-114.75 -8.656)"/>
  </g>
  <g id="_Group_45" data-name="&lt;Group&gt;">
    <path id="_Compound_Path_3" data-name="&lt;Compound Path&gt;" class="cls-8" d="M503.028,482.721a2.107,2.107,0,0,1-.876-0.19c-1.776-.805-2.066-3.58-2.546-8.179-0.662-6.334-1.66-15.907-7.386-23.043A1.2,1.2,0,1,1,494.1,449.8c6.171,7.689,7.215,17.686,7.905,24.3,0.266,2.548.6,5.712,1.154,6.232a9.989,9.989,0,0,0,2.31-2.874c3.18-5.144,5.643-12.94,5.215-14.376a137.755,137.755,0,0,0-6.218-16.987c-1.943-4-13.256-10.9-17.453-13.225a1.206,1.206,0,0,1,1.168-2.11c1.612,0.891,15.828,8.866,18.457,14.282A140.628,140.628,0,0,1,513,462.394c0.994,3.339-4.235,16.208-7.883,19.394A3.193,3.193,0,0,1,503.028,482.721Z" transform="translate(-114.75 -8.656)"/>
  </g>
  <g id="_Group_46" data-name="&lt;Group&gt;">
    <path id="_Path_63" data-name="&lt;Path&gt;" class="cls-8" d="M527.747,469.526a3.263,3.263,0,0,1-1.444-.352c-3.537-1.739-6.491-10.4-7.009-11.989-1.244-1.934-2.949-4.517-5.9-6.012-3.293-1.665-8.378-4.524-8.429-4.552a1.206,1.206,0,0,1,1.182-2.1c0.049,0.029,5.09,2.861,8.335,4.5,3.609,1.826,5.608,4.935,6.932,6.993a1.288,1.288,0,0,1,.134.286c1.147,3.6,3.745,9.689,5.825,10.711a0.615,0.615,0,0,0,.546.074,1.207,1.207,0,0,1,.824,2.268A2.91,2.91,0,0,1,527.747,469.526Z" transform="translate(-114.75 -8.656)"/>
  </g>
</svg>
