<svg id="_1" data-name="1" xmlns="http://www.w3.org/2000/svg" width="422.375" height="1449.095" viewBox="0 0 422.375 1449.095">
  <defs>
    <style>
      .cls-1 {
        fill: #f9a485;
      }

      .cls-1, .cls-10, .cls-2, .cls-3, .cls-4, .cls-5, .cls-6, .cls-7, .cls-8, .cls-9 {
        fill-rule: evenodd;
      }

      .cls-2 {
        fill: #65a6ce;
      }

      .cls-3 {
        fill: #4c7d9b;
      }

      .cls-4 {
        fill: #3b344a;
      }

      .cls-5 {
        fill: #85504c;
      }

      .cls-6 {
        fill: #e8e6e9;
      }

      .cls-7 {
        fill: #e07560;
      }

      .cls-8 {
        fill: #1e1a25;
      }

      .cls-9 {
        fill: #a5b1c7;
      }

      .cls-10 {
        fill: #d5d1d8;
      }
    </style>
  </defs>
  <path id="_Path_" data-name="&lt;Path&gt;" class="cls-1" d="M530.991,1072.22q-128.964,287.94-131.583,302.29c-2.619,14.35-28.718,12.94-29.945-2.73q-0.576-7.365,1.18-29.11,41.766-179.1,52.5-210.55c10.739-31.45,47.4-88.09,54.349-92.33Q484.446,1035.56,530.991,1072.22Z" transform="translate(-155.781 -12.375)"/>
  <path id="_Path_2" data-name="&lt;Path&gt;" class="cls-1" d="M342.956,1053.19q21.437,61.35,20.008,90.41c-1.43,29.06-29,213.59-33.287,210.36q-4.289-3.225-40.13-2.49-9.472-182.04-6.615-219.17t25.62-114.63Z" transform="translate(-155.781 -12.375)"/>
  <path id="_Path_3" data-name="&lt;Path&gt;" class="cls-2" d="M439.208,591.006q37.134,75.882,40.362,80.725c3.229,4.843,101.713,263.6,98.484,295.888q-3.228,32.29-56.041,150.451-40.731,19.7-81.093-35.19Q482.8,982.155,482.8,964.39c0-17.759-74.8-241-82.877-242.61q-8.072-1.614-31.674,9.687,8.805,236.153,7.593,250.683t-6.955,140.04q-7.469,18.18-46.069,21.41t-46.646-23.29Q314.849,975.74,306.9,966.061c-7.954-9.687-31.5-258.811-29.508-292.716q1.986-33.9,13.288-45.206Z" transform="translate(-155.781 -12.375)"/>
  <g id="_Group_" data-name="&lt;Group&gt;">
    <path id="_Path_4" data-name="&lt;Path&gt;" class="cls-3" d="M389.427,724.4a1.206,1.206,0,0,1-.767-2.137c8.345-6.857,7.394-20.194,6.767-29.02-2.048-28.764-6.9-56.424-15.257-87.045a1.206,1.206,0,0,1,2.327-.636c8.4,30.778,13.276,58.584,15.334,87.51,0.665,9.321,1.668,23.4-7.64,31.054A1.2,1.2,0,0,1,389.427,724.4Z" transform="translate(-155.781 -12.375)"/>
  </g>
  <g id="_Group_2" data-name="&lt;Group&gt;">
    <path id="_Path_5" data-name="&lt;Path&gt;" class="cls-3" d="M390.944,701.83a12.846,12.846,0,0,1-10.56-5.021c-6.226-7.979-16-83.91-16.418-87.138a1.206,1.206,0,1,1,2.393-.306c2.791,21.809,11.094,79.768,15.925,85.96,5.426,6.953,14.349,3.083,14.729,2.917a1.206,1.206,0,0,1,.987,2.2A19.287,19.287,0,0,1,390.944,701.83Z" transform="translate(-155.781 -12.375)"/>
  </g>
  <g id="_Group_3" data-name="&lt;Group&gt;">
    <path id="_Path_6" data-name="&lt;Path&gt;" class="cls-3" d="M402.984,725.68a1.206,1.206,0,0,1-1.15-1.572,57.42,57.42,0,0,1,23.437-30.461,1.205,1.205,0,1,1,1.3,2.032,54.971,54.971,0,0,0-22.435,29.161A1.206,1.206,0,0,1,402.984,725.68Z" transform="translate(-155.781 -12.375)"/>
  </g>
  <g id="_Group_4" data-name="&lt;Group&gt;">
    <path id="_Path_7" data-name="&lt;Path&gt;" class="cls-3" d="M370.146,732.431a1.2,1.2,0,0,1-.679-0.21,63.223,63.223,0,0,0-36.016-10.912,1.206,1.206,0,0,1-.028-2.412,65.773,65.773,0,0,1,37.4,11.333A1.206,1.206,0,0,1,370.146,732.431Z" transform="translate(-155.781 -12.375)"/>
  </g>
  <g id="_Group_5" data-name="&lt;Group&gt;">
    <path id="_Path_8" data-name="&lt;Path&gt;" class="cls-3" d="M549.982,988.143a1.208,1.208,0,0,1-1.123-.763,76.074,76.074,0,0,1-5.075-33.13,1.206,1.206,0,1,1,2.4.175,73.633,73.633,0,0,0,4.915,32.069,1.206,1.206,0,0,1-.68,1.564A1.172,1.172,0,0,1,549.982,988.143Z" transform="translate(-155.781 -12.375)"/>
  </g>
  <g id="_Group_6" data-name="&lt;Group&gt;">
    <path id="_Path_9" data-name="&lt;Path&gt;" class="cls-3" d="M341.958,988.068a1.208,1.208,0,0,1-1.083-.674l-13.057-26.5a1.206,1.206,0,0,1,2.165-1.065l13.057,26.5a1.206,1.206,0,0,1-.55,1.614A1.193,1.193,0,0,1,341.958,988.068Z" transform="translate(-155.781 -12.375)"/>
  </g>
  <g id="_Group_7" data-name="&lt;Group&gt;">
    <path id="_Path_10" data-name="&lt;Path&gt;" class="cls-3" d="M316.7,993.167a1.205,1.205,0,0,1-1.183-.982,92.744,92.744,0,0,0-8.923-25.661,1.206,1.206,0,0,1,2.138-1.116,95.03,95.03,0,0,1,9.154,26.329,1.2,1.2,0,0,1-.96,1.408A1.169,1.169,0,0,1,316.7,993.167Z" transform="translate(-155.781 -12.375)"/>
  </g>
  <g id="_Group_8" data-name="&lt;Group&gt;">
    <path id="_Path_11" data-name="&lt;Path&gt;" class="cls-3" d="M508.262,988.8a1.2,1.2,0,0,1-.555-0.137,61.81,61.81,0,0,1-24.757-23.739,1.206,1.206,0,0,1,2.092-1.2,59.365,59.365,0,0,0,23.779,22.8A1.207,1.207,0,0,1,508.262,988.8Z" transform="translate(-155.781 -12.375)"/>
  </g>
  <g id="_Group_9" data-name="&lt;Group&gt;">
    <path id="_Path_12" data-name="&lt;Path&gt;" class="cls-3" d="M493.844,991.56a1.2,1.2,0,0,1-1.026-.572,96.112,96.112,0,0,1-11.478-27.229,1.205,1.205,0,1,1,2.339-.584,93.784,93.784,0,0,0,11.19,26.546A1.2,1.2,0,0,1,493.844,991.56Z" transform="translate(-155.781 -12.375)"/>
  </g>
  <g id="_Group_10" data-name="&lt;Group&gt;">
    <path id="_Path_13" data-name="&lt;Path&gt;" class="cls-3" d="M324.2,1131.97c-0.472,0-.943-0.01-1.418-0.03-28.855-.84-44.744-18.05-45.4-18.78a1.206,1.206,0,0,1,1.787-1.62c0.156,0.17,15.9,17.18,43.688,17.99,27.6,0.81,44.872-23.48,45.044-23.72a1.2,1.2,0,1,1,1.981,1.37C369.7,1107.43,352.355,1131.97,324.2,1131.97Z" transform="translate(-155.781 -12.375)"/>
  </g>
  <g id="_Group_11" data-name="&lt;Group&gt;">
    <path id="_Path_14" data-name="&lt;Path&gt;" class="cls-3" d="M509.113,1110.63a60.877,60.877,0,0,1-27.138-6.4c-23.715-11.73-36.634-33.56-36.762-33.77a1.207,1.207,0,0,1,2.083-1.22c0.125,0.21,12.7,21.43,35.748,32.83,22.916,11.33,43.413,3.38,43.616,3.3a1.215,1.215,0,0,1,1.567.68,1.2,1.2,0,0,1-.673,1.56A53.239,53.239,0,0,1,509.113,1110.63Z" transform="translate(-155.781 -12.375)"/>
  </g>
  <g id="_Group_12" data-name="&lt;Group&gt;">
    <path id="_Path_15" data-name="&lt;Path&gt;" class="cls-3" d="M284.567,1119.83a1.255,1.255,0,0,1-.27-0.03,1.2,1.2,0,0,1-.906-1.44c0.166-.74,16.773-73.5,24-101,7.112-27.074,8.947-64.457,3.7-75.465-4.144-8.7-11.734-96.976-17.277-161.429-1.759-20.467-3.28-38.144-4.339-49.125-4.267-44.205-.046-102.7,0-103.29a1.206,1.206,0,0,1,2.405.177c-0.043.584-4.248,58.883,0,102.882,1.062,10.993,2.583,28.674,4.344,49.149,5.214,60.644,13.095,152.29,17.052,160.6,5.533,11.624,3.807,49.1-3.552,77.112-7.211,27.46-23.809,100.19-23.977,100.92A1.206,1.206,0,0,1,284.567,1119.83Z" transform="translate(-155.781 -12.375)"/>
  </g>
  <g id="_Group_13" data-name="&lt;Group&gt;">
    <path id="_Path_16" data-name="&lt;Path&gt;" class="cls-3" d="M289.676,719.515a1.205,1.205,0,0,1-.97-1.921l10.269-13.949c9.9-13.452,7.507-79.044,7.482-79.706a1.206,1.206,0,0,1,1.159-1.251,1.218,1.218,0,0,1,1.251,1.159c0.1,2.733,2.45,67.1-7.949,81.228l-10.27,13.949A1.2,1.2,0,0,1,289.676,719.515Z" transform="translate(-155.781 -12.375)"/>
  </g>
  <g id="_Group_14" data-name="&lt;Group&gt;">
    <path id="_Path_17" data-name="&lt;Path&gt;" class="cls-3" d="M475.7,665.739a1.182,1.182,0,0,1-.52-0.119c-0.634-.3-15.645-7.564-26.8-18.72-13.821-13.821-27.267-49.573-27.832-51.089a1.205,1.205,0,1,1,2.258-.843c0.137,0.366,13.83,36.776,27.279,50.227,10.856,10.857,25.986,18.178,26.138,18.251A1.206,1.206,0,0,1,475.7,665.739Z" transform="translate(-155.781 -12.375)"/>
  </g>
  <g id="_Group_15" data-name="&lt;Group&gt;">
    <path id="_Path_18" data-name="&lt;Path&gt;" class="cls-3" d="M290.258,727.713a1.206,1.206,0,0,1-.807-2.1c0.179-.161,17.916-16.214,21.592-26.667,3.714-10.558,4.444-80.069,4.451-80.77a1.206,1.206,0,0,1,2.412.024c-0.028,2.878-.742,70.616-4.588,81.547-3.88,11.032-21.5,26.985-22.254,27.659A1.2,1.2,0,0,1,290.258,727.713Z" transform="translate(-155.781 -12.375)"/>
  </g>
  <g id="_Group_16" data-name="&lt;Group&gt;">
    <path id="_Path_19" data-name="&lt;Path&gt;" class="cls-3" d="M479.57,672.937a1.222,1.222,0,0,1-.361-0.055c-0.926-.291-22.831-7.286-37.805-21.251-15-13.99-27.571-52.115-28.1-53.731a1.205,1.205,0,0,1,2.291-.749c0.129,0.39,12.9,39.151,27.451,52.716,14.566,13.584,36.662,20.644,36.884,20.713A1.206,1.206,0,0,1,479.57,672.937Z" transform="translate(-155.781 -12.375)"/>
  </g>
  <g id="_Group_17" data-name="&lt;Group&gt;">
    <path id="_Path_20" data-name="&lt;Path&gt;" class="cls-1" d="M487.057,333.715q46.512,143.436,48.127,149.894c1.614,6.458,9.687,25.832,0,45.2-6.458,12.916-58.122,96.87-62.965,92.027q-4.844-4.844-15.682-37.134,20.447-82.338,33.363-88.8t-49.971-83.953Q477.678,324.282,487.057,333.715Z" transform="translate(-155.781 -12.375)"/>
    <path id="_Path_21" data-name="&lt;Path&gt;" class="cls-4" d="M515.866,398.1c4.174,12.753-73.74,67.533-85.557,62.821s-20.2-207.74,6.986-200.986C471.385,268.4,487.6,311.721,515.866,398.1Z" transform="translate(-155.781 -12.375)"/>
    <g id="_Group_18" data-name="&lt;Group&gt;">
      <path id="_Path_22" data-name="&lt;Path&gt;" class="cls-5" d="M529.564,498.166a1.2,1.2,0,0,1-.612-0.167c-10.759-6.34-24.877-7.768-38.73-3.917a1.206,1.206,0,0,1-.645-2.325c14.484-4.023,29.278-2.5,40.6,4.164A1.206,1.206,0,0,1,529.564,498.166Z" transform="translate(-155.781 -12.375)"/>
    </g>
    <path id="_Path_23" data-name="&lt;Path&gt;" class="cls-6" d="M240.33,438.186c17.832,54.427,31,119.387,30.824,128.266q-0.351,19.362-3.135,89.161,47.906,13.219,100.325,6.774,52.443-6.471,90.2-54.613-19.525-56.522-24.366-72.674c-4.866-16.127.9-109.6,5.743-124.151,1.279-3.863,2.959-15.2,4.69-29.972,4.766-40.857,9.832-107.824,7.449-113.768q-3.21-8.052-113.417-45.146c-25.231-1-134.434,33.909-139.275,64.583C196.738,303.251,219.236,373.879,240.33,438.186Z" transform="translate(-155.781 -12.375)"/>
    <path id="_Path_24" data-name="&lt;Path&gt;" class="cls-4" d="M240.33,438.186c1.755-17.957.727-86.178,28.316-120.665,18.585-23.225,37.469-39.063,72.307-40.944,25.783-1.4,44.551.188,71.514,28.4q26.963,28.216,32.148,76c6.241-42.972,10.43-108.681,7.449-113.768q-4.382-7.479-113.417-45.146c-25.231-1-134.434,33.909-139.275,64.583C196.738,303.251,219.236,373.879,240.33,438.186Z" transform="translate(-155.781 -12.375)"/>
    <path id="_Path_25" data-name="&lt;Path&gt;" class="cls-1" d="M231.66,438.166l-22.6,72.111,93.1,100.609Q288.373,633.5,284.1,632.142c-4.268-1.358-128.325-87.361-128.325-100.188q0-12.826,19.374-143.6Q220.357,430.122,231.66,438.166Z" transform="translate(-155.781 -12.375)"/>
    <g id="_Group_19" data-name="&lt;Group&gt;">
      <path id="_Path_26" data-name="&lt;Path&gt;" class="cls-1" d="M338.966,655.065a3.341,3.341,0,0,0,.5-2.767c-0.652-4.352-2.69-7.343-5.8-10.209-1.4-1.292-5.122-5.4-7.327-4.868a17.955,17.955,0,0,1,13.893,2.392,43.336,43.336,0,0,1,7.5,6.289c1.8,1.9,3.379,4.956,6.14,5.573,1.967,0.44,4.371-1.745,3.358-3.577,1.32,1.672,4.424.771,4.747-1.377,0.211-1.41-.863-2.6-1.383-3.9-4.159-10.418-10.774-18.09-19.63-22.305,10.01,1.1,14.289,13.613,22.609,19.583,1.436,1.03,3.779,1.762,4.585.14a3.493,3.493,0,0,0-.452-3.006c-3.533-7-9.128-12.573-14.63-18.037-5.213-5.178-8.047-9.881-15.653-11.437-3.823-.782-7.632-1.633-11.452-2.432-10.981-2.3-22.334-4.468-33.6-3.464-3.443.307-5.523-.056-6.444,3.1-0.667,2.286-.386,4.734-1.246,7.05-1.124,3.029-3.668,5.487-4.381,8.66-1.823,8.116,5.587,15.477,12.154,18.68,7.695,3.753,16.527,4.8,24.9,6.013a26.487,26.487,0,0,1,9.2,2.612c3.2,1.783,5.6,4.7,8.565,6.838,1.093,0.79,2.66,1.457,3.7.6A1.662,1.662,0,0,0,338.966,655.065Z" transform="translate(-155.781 -12.375)"/>
      <g id="_Group_20" data-name="&lt;Group&gt;">
        <path id="_Path_27" data-name="&lt;Path&gt;" class="cls-5" d="M358.607,649.49a3.9,3.9,0,0,1-2.033-.572,1.214,1.214,0,0,1-.473-0.567c-0.042-.1-4.2-10.171-11.924-15.136-7.847-5.046-23.21-7.549-23.364-7.573a1.206,1.206,0,1,1,.381-2.381c0.65,0.1,16.02,2.609,24.288,7.926,7.511,4.829,11.742,13.714,12.666,15.817a1.207,1.207,0,0,0,1-.078c0.486-.342.809-1.584,0.259-4.044-1.974-8.812-6.541-15.182-13.576-18.935a68.157,68.157,0,0,0-18.185-6.459,1.206,1.206,0,0,1,.408-2.377,69.533,69.533,0,0,1,18.913,6.708c7.682,4.1,12.659,11.008,14.793,20.536,0.729,3.256.318,5.457-1.222,6.543A3.326,3.326,0,0,1,358.607,649.49Z" transform="translate(-155.781 -12.375)"/>
      </g>
    </g>
    <g id="_Group_21" data-name="&lt;Group&gt;">
      <path id="_Path_28" data-name="&lt;Path&gt;" class="cls-1" d="M442.574,577.557c-1.695-.583-3.414-1.115-5.142-1.612-5.359-1.54-7.966,3.59-10.8,7.036q-5.827,7.082-11.452,14.326c-0.412.531,6.57,1.121,7.251,0.973a10.5,10.5,0,0,0,6.364-4.094c0.041,1.947,0,4-.035,5.993-0.086,4.251-.023,8.415.263,12.669,0.08,1.193.4,2.679,1.561,2.943a2.817,2.817,0,0,0,2.345-1.061,78.071,78.071,0,0,0,8.262-9.076,3.14,3.14,0,0,1,1-.961c1.972-.975,6.765,2.464,8.212,3.642-1.309,2.044-3.548,3.254-5.473,4.733-1.5,1.156-4.191,3.694-4.914,5.5-0.911,2.27.77,4.488,3.114,3.046,2.531-1.557,7.314-3.626,10.208-2.068,1.676,0.9,2.467,2.818,3.481,4.428a14.342,14.342,0,0,0,6.979,5.714,7.759,7.759,0,0,0,4.159.545c3.355-.636,5.324-6.66,6.139-9.612a22.827,22.827,0,0,0-.178-11.937c-2.122-7.967-7.318-15.065-13.17-20.732C455.635,582.992,449.284,579.868,442.574,577.557Z" transform="translate(-155.781 -12.375)"/>
      <g id="_Group_22" data-name="&lt;Group&gt;">
        <path id="_Path_29" data-name="&lt;Path&gt;" class="cls-5" d="M441.994,623.393a3.479,3.479,0,0,1-2.106-.681,3.191,3.191,0,0,1-1.361-2.325c-0.227-2.4,2.025-5.021,4.35-7.5,0.258-.276.484-0.517,0.659-0.712a30.012,30.012,0,0,1,4.753-4.611c3.735-2.7,7.188-2.972,10.865-.834a48.585,48.585,0,0,1,5.266,3.714c1.2,0.927,2.437,1.887,3.7,2.726a1.206,1.206,0,0,1-1.333,2.009c-1.338-.887-2.612-1.874-3.844-2.828a45.989,45.989,0,0,0-5-3.536c-2.825-1.641-5.289-1.432-8.239.7a28.256,28.256,0,0,0-4.361,4.253c-0.186.211-.429,0.47-0.706,0.766-1.152,1.228-3.851,4.1-3.707,5.623a0.782,0.782,0,0,0,.379.6c0.953,0.7,2.972-.5,4.749-1.562a12.6,12.6,0,0,1,3.864-1.792,8.314,8.314,0,0,1,7.821,2.478,1.206,1.206,0,0,1-1.84,1.559,6,6,0,0,0-5.566-1.661,11.623,11.623,0,0,0-3.045,1.489C445.591,622.285,443.73,623.393,441.994,623.393Z" transform="translate(-155.781 -12.375)"/>
      </g>
      <g id="_Group_23" data-name="&lt;Group&gt;">
        <path id="_Path_30" data-name="&lt;Path&gt;" class="cls-5" d="M431.028,617.944a1.776,1.776,0,0,1-.191-0.011c-0.835-.092-1.74-0.784-1.789-2.452a34.581,34.581,0,0,1,2.8-14.476c1.746-4.068,4.237-8.872,8.051-9.9,2.855-.785,6.8,1.059,9.683,2.4,0.5,0.231.954,0.444,1.355,0.618a49.061,49.061,0,0,1,10.477,6.191,1.206,1.206,0,1,1-1.477,1.908,46.565,46.565,0,0,0-9.961-5.887c-0.418-.181-0.894-0.4-1.411-0.643-2.4-1.116-6.028-2.792-8.035-2.257-3.176.86-5.566,6.432-6.465,8.529a32.129,32.129,0,0,0-2.605,13.318c2.634-2,4.883-5.5,6.878-8.6,0.687-1.067,1.352-2.1,2.012-3.041a2.1,2.1,0,0,1,2.834-.882c1.085,0.436,2.132.916,3.181,1.4,1.122,0.516,2.247,1.032,3.418,1.488a1.878,1.878,0,0,1,1.429.645,1.206,1.206,0,0,1-1.635,1.765,2.521,2.521,0,0,1-.672-0.162c-1.214-.475-2.381-1.01-3.546-1.543-1-.46-2-0.917-3.027-1.333-0.65.925-1.3,1.932-1.966,2.971-2.214,3.442-4.723,7.344-8.065,9.528A2.325,2.325,0,0,1,431.028,617.944Z" transform="translate(-155.781 -12.375)"/>
      </g>
      <g id="_Group_24" data-name="&lt;Group&gt;">
        <path id="_Path_31" data-name="&lt;Path&gt;" class="cls-5" d="M429.345,612.209a1.581,1.581,0,0,1-.61-0.125,2.474,2.474,0,0,1-1.312-2.008,53.506,53.506,0,0,1,5.548-29.816,1.205,1.205,0,0,1,1.064-.638,34.249,34.249,0,0,1,22.325,8.567,1.205,1.205,0,0,1-1.6,1.8,31.821,31.821,0,0,0-20-7.942,51.284,51.284,0,0,0-4.945,27.685,1.206,1.206,0,0,1,.518,2.122A1.574,1.574,0,0,1,429.345,612.209Z" transform="translate(-155.781 -12.375)"/>
      </g>
      <g id="_Group_25" data-name="&lt;Group&gt;">
        <path id="_Path_32" data-name="&lt;Path&gt;" class="cls-5" d="M473.92,609.884a1.209,1.209,0,0,1-1.187-1c-0.008-.048-0.919-4.954-6.043-12.278a50.126,50.126,0,0,0-11.8-11.832,1.206,1.206,0,1,1,1.331-2.011,51.807,51.807,0,0,1,12.443,12.461c5.47,7.818,6.406,13.034,6.442,13.251a1.2,1.2,0,0,1-.982,1.389A1.123,1.123,0,0,1,473.92,609.884Z" transform="translate(-155.781 -12.375)"/>
      </g>
    </g>
    <path id="_Path_33" data-name="&lt;Path&gt;" class="cls-5" d="M332.3,30.475q30.138-19.912,51.126-11.032c20.988,8.88,43.591,49.242,58.121,55.7L456.074,81.6q-20.988,22.153-38.21,19.374-4.573,26.638-17.086,42.784c-12.513,16.145-77.04,52.054-78.931,45.88-4.081-13.321-.045-15.743-4.081-18.165s-33.65-31.751-33.635-85.029C284.138,58.986,291.934,24.825,332.3,30.475Z" transform="translate(-155.781 -12.375)"/>
    <path id="_Path_34" data-name="&lt;Path&gt;" class="cls-1" d="M364.048,68.685q33.1,28.254,44.4,29.061c7.063,0.5,5.251,30.28-8.892,51.063-9.982,14.669-17.476,38.558-22.157,38.558-8.072,0-38.375-14.547-43.218-26.656q-4.844-12.108-2.97-27.536-10.485-3.14-9.677-19.284c0.807-16.145,6.727-19.643,12.378-9.149Q339.562,115.236,364.048,68.685Z" transform="translate(-155.781 -12.375)"/>
    <path id="_Path_35" data-name="&lt;Path&gt;" class="cls-1" d="M358.4,150.217q3.848,70.419,5.462,72.841t17.9,14.744q-3.32,25.5-40.376,27.258c-40.973,1.943-51.392-31.9-48.97-33.512s23.013-10.912,24.628-15.755q1.614-4.844,15.946-93.552Z" transform="translate(-155.781 -12.375)"/>
    <path id="_Path_36" data-name="&lt;Path&gt;" class="cls-7" d="M360.254,181.543l0.526,8.1q-5.145,13.35-11.874,10.3c-11.5-5.21-21.74-39.907-21.057-45.148q0.682-5.241,3.361-21.616,2.411,29.188,4.667,30.547Q341.886,167.339,360.254,181.543Z" transform="translate(-155.781 -12.375)"/>
    <path id="_Path_37" data-name="&lt;Path&gt;" class="cls-4" d="M222.934,263.132q-26.241,5.427-38.805,55.684T160.571,452.6q49.959,31.76,90.943,7.1Q244.464,273.41,222.934,263.132Z" transform="translate(-155.781 -12.375)"/>
    <g id="_Group_26" data-name="&lt;Group&gt;">
      <path id="_Path_38" data-name="&lt;Path&gt;" class="cls-5" d="M315.566,164.928a1.232,1.232,0,0,1-.207-0.018c-8.766-1.516-17.063-6.979-23.36-15.38-6.16-8.221-9.517-17.908-11.755-25.43a120.1,120.1,0,0,1-4.284-49.326c2.008-15.387,5.95-32.459,19.967-42.421,10.275-7.3,25.82-10.407,37.869-1.281,6.982-7.777,17.234-13.934,28.319-16.974A46.3,46.3,0,0,1,395.3,17.188c10.19,5.275,16.383,13.986,22.374,22.409a114.723,114.723,0,0,0,11.193,14.1,106.948,106.948,0,0,0,42.123,26.55,1.206,1.206,0,0,1,.634,1.79,48.087,48.087,0,0,1-71.912,10.71c-6.6-5.663-11.548-13.1-15.518-19.626a1.206,1.206,0,0,1,2.061-1.253c3.871,6.364,8.683,13.6,15.027,19.049a45.677,45.677,0,0,0,67.462-8.891,109.533,109.533,0,0,1-41.6-26.639A116.746,116.746,0,0,1,415.705,41c-6.092-8.567-11.846-16.659-21.518-21.666a43.87,43.87,0,0,0-31.434-2.905c-11.043,3.028-21.207,9.256-27.886,17.088a1.2,1.2,0,0,1-1.683.148c-11.189-9.2-26.073-6.3-35.861.66-13.259,9.424-17.031,25.9-18.973,40.766a117.685,117.685,0,0,0,4.207,48.326c2.179,7.33,5.441,16.757,11.371,24.672s13.684,13.039,21.842,14.45A1.206,1.206,0,0,1,315.566,164.928Z" transform="translate(-155.781 -12.375)"/>
    </g>
    <path id="_Path_39" data-name="&lt;Path&gt;" class="cls-5" d="M394.215,123.415c-0.765,3.892.29,7.376,2.356,7.782s4.361-2.42,5.125-6.311-0.29-7.376-2.356-7.782S394.98,119.524,394.215,123.415Z" transform="translate(-155.781 -12.375)"/>
    <path id="_Path_40" data-name="&lt;Path&gt;" class="cls-5" d="M361.818,116.33c-0.765,3.892.29,7.376,2.356,7.782s4.361-2.42,5.126-6.312-0.291-7.375-2.357-7.781S362.583,112.438,361.818,116.33Z" transform="translate(-155.781 -12.375)"/>
    <g id="_Group_27" data-name="&lt;Group&gt;">
      <path id="_Path_41" data-name="&lt;Path&gt;" class="cls-5" d="M331.465,123.439a1.207,1.207,0,0,1-1.2-1.125,15.829,15.829,0,0,0-4.138-9.571,1.206,1.206,0,1,1,1.764-1.644,18.022,18.022,0,0,1,4.781,11.054,1.207,1.207,0,0,1-1.123,1.284Z" transform="translate(-155.781 -12.375)"/>
    </g>
    <g id="_Group_28" data-name="&lt;Group&gt;">
      <path id="_Path_42" data-name="&lt;Path&gt;" class="cls-5" d="M376.991,106.716a1.2,1.2,0,0,1-.689-0.217,18.65,18.65,0,0,0-14.4-2.888,1.206,1.206,0,1,1-.511-2.357,21.118,21.118,0,0,1,16.287,3.267A1.206,1.206,0,0,1,376.991,106.716Z" transform="translate(-155.781 -12.375)"/>
    </g>
    <g id="_Group_29" data-name="&lt;Group&gt;">
      <path id="_Path_43" data-name="&lt;Path&gt;" class="cls-5" d="M382.158,164.816a29.435,29.435,0,0,1-7.659-1.079,62.11,62.11,0,0,1-11.962-4.967,1.206,1.206,0,0,1,1.1-2.146,58.443,58.443,0,0,0,11.492,4.784,23.4,23.4,0,0,0,11.962.4,1.206,1.206,0,0,1,.6,2.336A22.236,22.236,0,0,1,382.158,164.816Z" transform="translate(-155.781 -12.375)"/>
    </g>
    <g id="_Group_30" data-name="&lt;Group&gt;">
      <path id="_Path_44" data-name="&lt;Path&gt;" class="cls-5" d="M378.344,173.157A21.983,21.983,0,0,1,371,171.9a1.205,1.205,0,0,1,.8-2.273,19.441,19.441,0,0,0,6.627,1.121,1.206,1.206,0,1,1,.012,2.412h-0.1Z" transform="translate(-155.781 -12.375)"/>
    </g>
    <g id="_Group_31" data-name="&lt;Group&gt;">
      <path id="_Path_45" data-name="&lt;Path&gt;" class="cls-5" d="M407.453,113.862a1.2,1.2,0,0,1-.561-0.139,22.966,22.966,0,0,0-12.08-2.559,1.229,1.229,0,0,1-1.285-1.122,1.207,1.207,0,0,1,1.123-1.285,25.074,25.074,0,0,1,13.366,2.832A1.206,1.206,0,0,1,407.453,113.862Z" transform="translate(-155.781 -12.375)"/>
    </g>
    <g id="_Group_32" data-name="&lt;Group&gt;">
      <path id="_Path_46" data-name="&lt;Path&gt;" class="cls-5" d="M384.223,150.008a10.578,10.578,0,0,1-6.257-1.977,1.205,1.205,0,0,1,1.427-1.943,8.481,8.481,0,0,0,10.368-.508,2.271,2.271,0,0,0,.7-0.906,3.27,3.27,0,0,0-.318-1.643c-4.169-11.686-4.905-22.062-2.188-30.843a2.707,2.707,0,0,1,1.871-2.055,1.206,1.206,0,0,1,.61,2.33,2.029,2.029,0,0,0-.178.438c-2.558,8.272-1.833,18.135,2.156,29.318a5.1,5.1,0,0,1,.373,3.093,4.456,4.456,0,0,1-1.412,2.064A10.727,10.727,0,0,1,384.223,150.008Z" transform="translate(-155.781 -12.375)"/>
    </g>
    <g id="_Group_33" data-name="&lt;Group&gt;">
      <path id="_Path_47" data-name="&lt;Path&gt;" class="cls-5" d="M175.269,520.07a1.206,1.206,0,0,1-.722-2.173,45.128,45.128,0,0,1,35.425-7.936,1.207,1.207,0,1,1-.481,2.365,42.664,42.664,0,0,0-33.5,7.5A1.2,1.2,0,0,1,175.269,520.07Z" transform="translate(-155.781 -12.375)"/>
    </g>
    <path id="_Path_48" data-name="&lt;Path&gt;" class="cls-6" d="M386.546,238.836q-0.689-.249-6.916-4.082-2.927,15.048-15.258,21.11c-12.331,6.061-33.441,6.9-48.072,1.881q-14.631-5.016-22.364-28.007l-7.416,3.66q8.67,23.833,26.854,29.734c18.184,5.9,37.622,5.69,53.3-1.416Q382.348,254.609,386.546,238.836Z" transform="translate(-155.781 -12.375)"/>
    <g id="_Group_34" data-name="&lt;Group&gt;">
      <path id="_Path_49" data-name="&lt;Path&gt;" class="cls-8" d="M435.289,461.156l-2.393-.3c0.132-1.049,13.159-104.9,13.387-107.337l2.4,0.226C448.452,356.221,435.826,456.873,435.289,461.156Z" transform="translate(-155.781 -12.375)"/>
    </g>
    <g id="_Group_35" data-name="&lt;Group&gt;">
      <path id="_Path_50" data-name="&lt;Path&gt;" class="cls-8" d="M445.8,381.185l-2.376-.418c1.783-10.125,11.352-20.648,11.758-21.091l1.778,1.63C456.868,361.41,447.462,371.758,445.8,381.185Z" transform="translate(-155.781 -12.375)"/>
    </g>
    <g id="_Group_36" data-name="&lt;Group&gt;">
      <path id="_Path_51" data-name="&lt;Path&gt;" class="cls-8" d="M250.31,459.77c-0.043-.716-4.282-71.783-4.912-86.532-0.032-.684-3.275-68.976-13.294-89.041l2.158-1.077c10.246,20.519,13.416,87.184,13.545,90.011,0.63,14.732,4.867,85.779,4.91,86.5Z" transform="translate(-155.781 -12.375)"/>
    </g>
    <g id="_Group_37" data-name="&lt;Group&gt;">
      <path id="_Path_52" data-name="&lt;Path&gt;" class="cls-8" d="M246.5,353.943l-2.331-.62c1.347-5.061,6.181-23.514,6.181-23.515l2.334,0.612Q247.844,348.881,246.5,353.943Z" transform="translate(-155.781 -12.375)"/>
    </g>
    <g id="_Group_38" data-name="&lt;Group&gt;">
      <path id="_Path_53" data-name="&lt;Path&gt;" class="cls-8" d="M227.831,271.57c-1.657-4.623-3.724-7.234-5.975-7.551-2.756-.392-5.683,2.728-6.57,3.962l-1.961-1.4c0.163-.23,4.059-5.614,8.858-4.946,3.245,0.451,5.909,3.522,7.918,9.125Z" transform="translate(-155.781 -12.375)"/>
    </g>
    <g id="_Group_39" data-name="&lt;Group&gt;">
      <path id="_Path_54" data-name="&lt;Path&gt;" class="cls-8" d="M451.547,320.4l-2.405-.2c1.551-18.973,1.715-52.662,1.716-53l2.412,0.01C453.269,267.552,453.105,301.335,451.547,320.4Z" transform="translate(-155.781 -12.375)"/>
    </g>
    <g id="_Group_40" data-name="&lt;Group&gt;">
      <path id="_Path_55" data-name="&lt;Path&gt;" class="cls-8" d="M338.844,268.361c-30.141,0-37.558-9.568-44.161-18.084-7.019-9.052-9.227-16.23-9.317-16.531l2.309-.7c0.021,0.069,2.192,7.081,8.914,15.751,6.765,8.726,14.414,18.619,49.756,16.965,33.7-1.576,38.815-26.113,39.016-27.157l2.37,0.451c-0.052.275-5.616,27.446-41.273,29.115Q342.428,268.364,338.844,268.361Z" transform="translate(-155.781 -12.375)"/>
    </g>
    <g id="_Group_41" data-name="&lt;Group&gt;">
      <path id="_Path_56" data-name="&lt;Path&gt;" class="cls-9" d="M359.314,582.284l-1.045-2.174a97.02,97.02,0,0,0,45.482-45.761l2.179,1.031A99.434,99.434,0,0,1,359.314,582.284Z" transform="translate(-155.781 -12.375)"/>
    </g>
    <g id="_Group_42" data-name="&lt;Group&gt;">
      <path id="_Path_57" data-name="&lt;Path&gt;" class="cls-9" d="M363.419,566.074l-1.529-1.865a109.506,109.506,0,0,0,31.989-43.481l2.236,0.905A111.924,111.924,0,0,1,363.419,566.074Z" transform="translate(-155.781 -12.375)"/>
    </g>
    <g id="_Group_43" data-name="&lt;Group&gt;">
      <path id="_Path_58" data-name="&lt;Path&gt;" class="cls-9" d="M323.639,500.149l-1.526-1.868c27.976-22.841,45.66-56.742,61.262-86.653l2.138,1.116C369.8,442.86,352,476.994,323.639,500.149Z" transform="translate(-155.781 -12.375)"/>
    </g>
  </g>
  <g id="_Group_44" data-name="&lt;Group&gt;">
    <path id="_Path_59" data-name="&lt;Path&gt;" class="cls-4" d="M539.845,1417.09c-1.615-8.61-108.517-76.52-118.2-77.6s-19.287,9.29-20.9,11.98q-1.614,2.7,2.348,12.7-1.035,10.71-18.234,9.33c-18.392-1.48-9.149-36.06-13.993-33.91s-13.454,10.76-13.992,14.53-2.153,22.07-4.305,26.37-8.611,38.75-4.844,44.67,43.053,9.69,51.664,10.22,136.155,14,140.461,5.39Q544.15,1432.16,539.845,1417.09Z" transform="translate(-155.781 -12.375)"/>
    <path id="_Path_60" data-name="&lt;Path&gt;" class="cls-10" d="M541.652,1427.92a365,365,0,0,1-53.546,3.37c-24.663-.41-102.833-12.12-107.013-14.63s-24.035-40.15-28.529-36.17-13.691,44.12-10.765,47.04,22.991,7.94,34.7,8.36,162.065,13.38,165.263,5.44Q544.956,1433.38,541.652,1427.92Z" transform="translate(-155.781 -12.375)"/>
    <g id="_Group_45" data-name="&lt;Group&gt;">
      <path id="_Path_61" data-name="&lt;Path&gt;" class="cls-9" d="M374.075,1410.3l-2.325-.65c2.459-8.84,5.536-24.11,3.324-27.43-3.451-5.18-3.386-22.58-3.367-24.54l2.412,0.02c-0.049,5.14.388,19.32,2.961,23.18C380.628,1386.2,374.756,1407.85,374.075,1410.3Z" transform="translate(-155.781 -12.375)"/>
    </g>
    <g id="_Group_46" data-name="&lt;Group&gt;">
      <path id="_Path_62" data-name="&lt;Path&gt;" class="cls-9" d="M482.178,1406.04l-0.857-.41c-0.15-.07-15.248-7.21-29.741-15.08-14.447-7.84-48.691-25.13-49.035-25.3l1.086-2.16c0.345,0.18,34.621,17.48,49.1,25.34,12.488,6.78,25.429,13.02,28.786,14.62,2.908-3.31,15.327-16.27,28.27-11.67l-0.809,2.27c-12.872-4.55-26.074,11.49-26.206,11.65Z" transform="translate(-155.781 -12.375)"/>
    </g>
    <g id="_Group_47" data-name="&lt;Group&gt;">
      <path id="_Path_63" data-name="&lt;Path&gt;" class="cls-9" d="M492.2,1421.78c-17.261,0-49.152-20.76-68.916-33.63-7.659-4.98-13.71-8.92-15.828-9.64a43.038,43.038,0,0,0-10.7-1.8c-4.774-.4-9.711-0.81-15.137-3.32-10.08-4.65-11.082-20.1-11.966-33.72l2.407-.16c0.841,12.96,1.793,27.64,10.571,31.69,5.038,2.33,9.759,2.73,14.325,3.11a45.384,45.384,0,0,1,11.273,1.92c2.406,0.81,8.263,4.63,16.369,9.9,21.339,13.89,57.06,37.17,71.509,32.72,20.5-6.27,43.673-2.99,43.906-2.96l-0.348,2.39c-0.227-.04-22.877-3.23-42.851,2.88A15.892,15.892,0,0,1,492.2,1421.78Z" transform="translate(-155.781 -12.375)"/>
    </g>
    <g id="_Group_48" data-name="&lt;Group&gt;">
      <path id="_Compound_Path_" data-name="&lt;Compound Path&gt;" class="cls-9" d="M463.109,1396.71a5.585,5.585,0,0,1-.808-0.06l-0.963-.15-0.055-.97c-0.258-4.46,3.5-7.41,6.8-9.13,0.01-.07.019-0.15,0.028-0.23,0.057-.47.112-0.93,0.177-1.39a24.064,24.064,0,0,1,4.41-11.15c-0.83-.02-1.675-0.09-2.522-0.18-5.549-.56-12.829-0.85-18.825,1.61a20.885,20.885,0,0,1-1.822,6.53,6.321,6.321,0,0,1-3.786,3.3,3.219,3.219,0,0,1-4.012-2.92,6.59,6.59,0,0,1,1.957-4.66,19.18,19.18,0,0,1,5.446-3.9c0.041-.35.081-0.7,0.122-1.05a45.011,45.011,0,0,1,.85-5.39,14.967,14.967,0,0,1,1.991-4.64,72.833,72.833,0,0,1-8.351-.2c-1.237-.07-2.467-0.15-3.684-0.2a32.344,32.344,0,0,0-7.036.47c-0.059.23-.119,0.47-0.179,0.71-0.4,1.6-.813,3.24-1.33,4.85-0.7,2.16-1.807,4.81-4.243,6.18a5.561,5.561,0,0,1-4.906.17,4.01,4.01,0,0,1-2.383-2.85,5.5,5.5,0,0,1,.616-3.54c2.112-4.38,6.317-6.53,10.458-7.55a40.025,40.025,0,0,1,1.583-4.91,20.771,20.771,0,0,1,2.036-3.83,32.073,32.073,0,0,0-23.134,16.12l-2.121-1.15a34.455,34.455,0,0,1,27.5-17.64,11.748,11.748,0,0,1,4.57-2.73l1.281-.41,0.262,1.32a2.728,2.728,0,0,1-.538,2.29c-1.12,1.44-3.441,1.79-4.513,1.88a17.138,17.138,0,0,0-3.113,5.06,33.239,33.239,0,0,0-1.174,3.48,37.241,37.241,0,0,1,6.453-.33c1.234,0.05,2.485.13,3.74,0.2a53.017,53.017,0,0,0,10.467-.03,7.773,7.773,0,0,1,6.793-2.01l3.187,0.67-2.856,1.57a19.173,19.173,0,0,1-6.013,2.04,12.168,12.168,0,0,0-3.022,5.57,41.147,41.147,0,0,0-.764,4.82c6.19-2.14,13.261-1.85,18.732-1.29a21.8,21.8,0,0,0,4.685.08,12.505,12.505,0,0,1,4.4-2.36l3.334-1-2,2.84a6.978,6.978,0,0,1-4.691,2.8c-3.171,2.89-4.891,7.56-5.467,11.69,0,0.04-.012.09-0.016,0.13a72.989,72.989,0,0,1,22.806-5.11l0.146,2.4a70.879,70.879,0,0,0-22.419,5.09c-0.261.11-.56,0.24-0.885,0.38a15.265,15.265,0,0,1-1.179,4.38C468.109,1394.56,465.844,1396.71,463.109,1396.71Zm4.475-7.21c-1.749,1.15-3.413,2.74-3.812,4.72a5.181,5.181,0,0,0,3.177-2.87A9.783,9.783,0,0,0,467.584,1389.5Zm-18.89-13.11a16.56,16.56,0,0,0-3.268,2.6,4.211,4.211,0,0,0-1.286,2.79,0.818,0.818,0,0,0,1.05.76,3.954,3.954,0,0,0,2.184-2.02A15.928,15.928,0,0,0,448.694,1376.39Zm-18.314-13.34c-3.13.98-6.076,2.76-7.6,5.92a3.267,3.267,0,0,0-.427,2,1.7,1.7,0,0,0,1.022,1.15,3.17,3.17,0,0,0,2.726-.08c1.7-.96,2.566-3.08,3.127-4.82C429.663,1365.86,430.031,1364.44,430.38,1363.05Z" transform="translate(-155.781 -12.375)"/>
    </g>
  </g>
  <g id="_Group_49" data-name="&lt;Group&gt;">
    <path id="_Path_64" data-name="&lt;Path&gt;" class="cls-4" d="M341.157,1350.94c1.17,0.47,1.827,2.05,2.694,4.38a101.253,101.253,0,0,1,3.13,11.12c1.785,7.24,2.847,15.06,5.771,21.95,3.229,7.61,13.349,43.48,9.365,48.67s-17.438,20.99-52.418,20.99-49.511-11.71-52.2-21.07a9.183,9.183,0,0,1-.256-1.73c-1.414-15.89,5.235-34.66,9.2-49.8a247.858,247.858,0,0,1,7.52-24.92c2.067-5.46,4.677-10.2,11.022-11.4a9.917,9.917,0,0,0,2.594-.64c1.737-.84,2.518-2.85,3.827-4.27,2.579-2.8,6.854-3.02,10.661-2.98,8.915,0.08,17.71,1.64,26.4,3.57,6.7,1.48,5.279,2.79,8.47,7.26C337.942,1351.38,339.891,1350.44,341.157,1350.94Z" transform="translate(-155.781 -12.375)"/>
    <path id="_Path_65" data-name="&lt;Path&gt;" class="cls-10" d="M362.147,1423.66q-9.822,13.485-39.33,15.99c-29.508,2.51-57.485-4.4-64.607-15.99q-4.612,18.1-3.776,19.98c0.835,1.87,23.409,16.5,51.416,17.75s60.372-16.65,59.69-22.15A122.525,122.525,0,0,0,362.147,1423.66Z" transform="translate(-155.781 -12.375)"/>
    <g id="_Group_50" data-name="&lt;Group&gt;">
      <path id="_Path_66" data-name="&lt;Path&gt;" class="cls-9" d="M331.9,1396.74a1.542,1.542,0,0,1-.659-0.15c-0.437-.21-0.894-0.46-1.4-0.74-2.923-1.63-7.341-4.08-19.963-4.74a46.271,46.271,0,0,0-18.424,2.98c-2.614.9-4.188,1.44-5.367,0.82a2.1,2.1,0,0,1-1.046-1.32c-0.867-3.04-2.751-41,1.634-45.9l1.8,1.61c-3.258,3.64-2.088,39.33-1.151,43.47a17.359,17.359,0,0,0,3.351-.96,48.849,48.849,0,0,1,19.329-3.1c13.181,0.68,18.082,3.4,21.01,5.03,0.2,0.11.386,0.21,0.567,0.31,1.479-3.82,3.236-23.74,4.152-42.04l2.41,0.12c-0.969,19.35-2.7,42.76-5.456,44.39A1.5,1.5,0,0,1,331.9,1396.74Z" transform="translate(-155.781 -12.375)"/>
    </g>
    <g id="_Group_51" data-name="&lt;Group&gt;">
      <path id="_Path_67" data-name="&lt;Path&gt;" class="cls-9" d="M280.454,1421.5a5.424,5.424,0,0,1-3.834-1.45c-4.641-4.15-11.527-21.96-13.014-28.24l2.348-.56c1.542,6.52,8.34,23.48,12.275,27,1.423,1.27,2.97.96,7.239-.13a88.918,88.918,0,0,1,24.474-3.08c13.307,0,19.763,1.34,24.035,2.22,3.146,0.65,4.726.98,6.919,0.34,2.545-.75,4.248-15.56,5.163-23.52,1.371-11.92,1.907-15.34,4.155-15.08l-0.269,2.39a0.9,0.9,0,0,0,.667-0.21c-0.753.96-1.531,7.74-2.157,13.18-1.692,14.71-3.085,24.44-6.88,25.55-2.769.81-4.771,0.39-8.088-.29-4.174-.86-10.485-2.17-23.545-2.17a86.68,86.68,0,0,0-23.876,3.01A24.484,24.484,0,0,1,280.454,1421.5Z" transform="translate(-155.781 -12.375)"/>
    </g>
    <g id="_Group_52" data-name="&lt;Group&gt;">
      <path id="_Compound_Path_2" data-name="&lt;Compound Path&gt;" class="cls-9" d="M286.362,1388.84l-1.159-2.11a84.057,84.057,0,0,1,29.314-9.57,66.752,66.752,0,0,0-15.828-2.4c-4.951,2.22-10.073,4.4-15.349,2.89l-1.623-.47,0.968-1.38c1.6-2.29,4.549-2.87,6.94-3.12a72.287,72.287,0,0,1,8.579-.35c0.7-.31,1.393-0.62,2.082-0.92a63.181,63.181,0,0,1,18.237-4.76c-8.308-1.58-17.032-1.24-25.187-.74l-0.341.18-0.648.36c-2.331,1.3-4.739,2.64-7.535,2.64-0.074,0-.615-0.01-1.623-0.02l0.356-1.47c0.568-2.35,2.872-3.67,6.853-3.92l2.264-.15a60.082,60.082,0,0,1,14.624-5.3c-0.832.11-1.877,0.27-3,.43-15.175,2.2-16.178,1.97-16.844.96-1.245-1.88-.438-4.31.953-5.64a10.1,10.1,0,0,1,4.594-2.18,74.516,74.516,0,0,1,44.15,2.06l-0.83,2.27a72.07,72.07,0,0,0-42.708-2,8.033,8.033,0,0,0-3.54,1.59,2.473,2.473,0,0,0-.76,2.24c2.066,0.12,10.476-1.08,14.638-1.69,2.459-.35,4.236-0.61,4.9-0.66a45.984,45.984,0,0,1,10.892.43c1.273-.18,2.554-0.35,3.844-0.52a29.342,29.342,0,0,1,7.452-.36,10.91,10.91,0,0,1,7.1,3.45l0.922,1.08-1.216.74c-2.789,1.69-6.479,1.67-11.28-.07a41.332,41.332,0,0,0-6.834-1.88c-7.086.99-13.909,2.17-20.48,4.72,8.855-.33,18.477,0,27.234,3.11a61.485,61.485,0,0,1,11.479,1.29l1.449,0.3-0.588,1.35a4.7,4.7,0,0,1-4.873,2.5,11.773,11.773,0,0,1-4.02-1.38l-0.434-.21c-1.129-.54-2.277-1.02-3.44-1.45a60.919,60.919,0,0,0-22.432,3.95,69.172,69.172,0,0,1,16.955,3.93c1.319-.08,2.641-0.12,3.964-0.14,3.434-.03,7.27.26,9.979,2.73a2.307,2.307,0,0,1-1.893,4.18,32.215,32.215,0,0,1-8.73-2.82c-0.623-.26-1.246-0.53-1.87-0.79q-0.9-.375-1.815-0.72A81.591,81.591,0,0,0,286.362,1388.84Zm39.762-9.96a25.908,25.908,0,0,0,6.769,2.09C331.159,1379.39,328.616,1378.97,326.124,1378.88Zm-39.418-3.15a16.431,16.431,0,0,0,5.074-.82c-0.636.05-1.27,0.11-1.9,0.17A13.7,13.7,0,0,0,286.706,1375.73Zm39.355-18.09q0.647,0.21,1.305.45c3.146,1.14,5.66,1.45,7.621.94a9.522,9.522,0,0,0-4.243-1.47A20.42,20.42,0,0,0,326.061,1357.64Z" transform="translate(-155.781 -12.375)"/>
    </g>
  </g>
</svg>
