<svg version="1.2" baseProfile="tiny-ps" xmlns="http://www.w3.org/2000/svg" viewBox="0 0 492 1420" width="492" height="1420">
	<title>overWeight-svg</title>
	<style>
		tspan { white-space:pre }
		.shp0 { fill: #3b344a } 
		.shp1 { fill: #f9a485 } 
		.shp2 { fill: #65a6ce } 
		.shp3 { fill: #d5d1d8 } 
		.shp4 { fill: #a5b1c7 } 
		.shp5 { fill: #4c7d9b } 
		.shp6 { fill: #e8e6e9 } 
		.shp7 { fill: #85504c } 
		.shp8 { fill: #e07560 } 
		.shp9 { fill: #ffffff } 
		.shp10 { fill: #1e1a25 } 
	</style>
	<path id="_Path_" fill-rule="evenodd" class="shp0" d="M118.03 246.11C111.5 251.55 64.24 252.87 36.5 320.66C8.75 388.45 -12.29 461.78 8.25 460.55C28.79 459.32 118.75 461.42 129.25 443.44C136.25 431.46 132.51 365.68 118.03 246.11Z" />
	<g id="_Group_">
		<path id="_Path_2" fill-rule="evenodd" class="shp1" d="M155.16 1037.05L210 1364.28C236.12 1370.03 250.2 1368.8 252.26 1360.57C255.34 1348.25 298.5 1115.62 293.88 1098.67C289.25 1081.73 253.8 1023.08 233.76 1023.18C230.51 1023.2 204.31 1027.83 155.16 1037.05Z" />
		<path id="_Path_3" fill-rule="evenodd" class="shp1" d="M307.73 1023.13C382.8 1257.33 422.38 1373.38 426.49 1371.28C430.61 1369.17 443.93 1363.45 466.47 1354.1C473.66 1181.81 473.66 1088.45 466.47 1074.02C459.28 1059.6 443.54 1035.72 419.24 1002.41L307.73 1023.13Z" />
		<path id="_Path_4" fill-rule="evenodd" class="shp2" d="M147.45 645.73C125.88 830.75 122.28 944.75 136.67 987.75C151.05 1030.75 159.88 1082.05 163.16 1141.64C215.21 1156.68 260.13 1155.47 297.91 1138.02C297.91 1079.52 285.6 1031.44 261 993.8C248.1 974.08 265.87 753.57 272.93 725.84C277.64 707.36 235.81 680.65 147.45 645.73Z" />
		<path id="_Path_5" fill-rule="evenodd" class="shp2" d="M211.73 698.11C219.23 752.55 227.08 781.31 235.3 784.39C247.63 789.01 273.83 960.07 287.7 1002.41C296.95 1030.64 315.93 1075.54 344.65 1137.08C394.12 1161.57 437.86 1157.89 475.87 1126.05C479.04 1106.48 474.67 1083.88 462.76 1058.24C443.42 1016.61 409.45 971.64 409.45 961.87C409.45 943.07 421.78 779.77 404.82 724.3C393.52 687.33 384.79 661.14 378.62 645.73C287.61 690.92 231.98 708.38 211.73 698.11Z" />
		<g id="_Group_2">
			<path id="_Path_6" fill-rule="evenodd" class="shp0" d="M97.13 1391.61C98.87 1383.72 191.29 1322.63 200.25 1321.92C209.22 1321.21 225.88 1332.65 227.29 1335.17C228.23 1336.86 227.38 1340.74 224.76 1346.81C223.43 1353.31 228.07 1356.35 238.67 1355.94C256.21 1355.27 256.6 1324.02 261 1326.15C265.4 1328.27 273.09 1336.46 273.48 1339.95C273.87 1343.43 269.01 1359.29 270.86 1363.32C272.72 1367.35 277.68 1399.28 274.04 1404.63C270.39 1409.97 234.06 1412.31 226.1 1412.55C218.14 1412.8 100.16 1421.5 96.44 1413.44C93.96 1408.06 94.19 1400.79 97.13 1391.61Z" />
			<path id="_Path_7" fill-rule="evenodd" class="shp3" d="M95.15 1401.56C99.22 1402.25 103.3 1402.86 107.39 1403.4C111.49 1403.94 115.59 1404.4 119.7 1404.79C123.81 1405.18 127.93 1405.49 132.05 1405.73C136.17 1405.96 140.29 1406.13 144.42 1406.21C167.17 1406.54 239.58 1398.02 243.51 1395.83C247.44 1393.64 266.84 1359.51 270.86 1363.32C274.89 1367.13 282.21 1404.37 279.42 1406.99C276.64 1409.61 258 1413.64 247.19 1413.68C236.39 1413.72 97.38 1421.32 94.66 1413.9C92.85 1408.96 93.01 1404.85 95.15 1401.56Z" />
			<g id="_Group_3">
				<path id="_Path_8" fill-rule="evenodd" class="shp4" d="M250.11 1390.18C249.55 1387.9 244.75 1367.75 248.2 1362.93C250.69 1359.43 252.47 1345.22 252.94 1340.03L255.28 1340.25C255.1 1342.23 253.43 1359.64 250.11 1364.29C247.98 1367.27 250.38 1381.41 252.38 1389.63L250.11 1390.18Z" />
			</g>
			<g id="_Group_4">
				<path id="_Path_9" fill-rule="evenodd" class="shp4" d="M150.6 1383.18L150.04 1382.45C149.92 1382.29 138.24 1367.14 126.29 1370.98L125.57 1368.74C137.62 1364.89 148.69 1377.09 151.33 1380.3C154.54 1378.88 166.6 1373.54 178.25 1367.67C191.83 1360.86 223.94 1345.9 224.26 1345.75L225.25 1347.87C224.93 1348.03 192.85 1362.96 179.31 1369.78C165.72 1376.61 151.59 1382.75 151.44 1382.81L150.6 1383.18Z" />
			</g>
			<g id="_Group_5">
				<path id="_Path_10" fill-rule="evenodd" class="shp4" d="M141.56 1397.4C141.15 1397.41 140.73 1397.4 140.32 1397.37C139.91 1397.34 139.49 1397.3 139.08 1397.24C138.67 1397.18 138.27 1397.1 137.86 1397.01C137.46 1396.91 137.06 1396.8 136.66 1396.68C118.43 1390.47 97.48 1392.76 97.26 1392.78L97 1390.44C97.87 1390.35 118.68 1388.07 137.42 1394.46C150.59 1398.96 184.17 1378.56 204.24 1366.38C211.87 1361.74 217.39 1358.4 219.64 1357.71C220.49 1357.48 221.35 1357.28 222.22 1357.11C223.08 1356.93 223.95 1356.78 224.83 1356.66C225.7 1356.54 226.58 1356.45 227.46 1356.38C228.34 1356.32 229.22 1356.28 230.11 1356.27C234.32 1356.05 238.68 1355.82 243.38 1353.82C248.17 1351.8 250.23 1346.67 252.83 1340.17C253.3 1338.89 253.81 1337.62 254.34 1336.37C254.88 1335.12 255.45 1333.88 256.05 1332.65C256.65 1331.43 257.28 1330.22 257.94 1329.03C258.6 1327.83 259.3 1326.66 260.02 1325.5L261.98 1326.79C261.28 1327.91 260.61 1329.06 259.97 1330.21C259.33 1331.37 258.71 1332.55 258.13 1333.74C257.55 1334.93 257 1336.13 256.48 1337.35C255.96 1338.57 255.47 1339.8 255.01 1341.05C252.32 1347.77 249.99 1353.57 244.3 1355.99C239.22 1358.15 234.65 1358.38 230.23 1358.62C229.39 1358.63 228.56 1358.66 227.73 1358.72C226.89 1358.78 226.06 1358.87 225.24 1358.98C224.41 1359.09 223.59 1359.23 222.77 1359.39C221.95 1359.56 221.13 1359.75 220.33 1359.96C218.36 1360.56 212.67 1364.01 205.46 1368.39C187.11 1379.53 157.66 1397.4 141.56 1397.4Z" />
			</g>
			<g id="_Group_6">
				<path id="_Compound_Path_" fill-rule="evenodd" class="shp4" d="M168.62 1375.12C166 1375.12 163.89 1373.02 162.99 1370.92C162.86 1370.59 162.74 1370.27 162.63 1369.93C162.53 1369.6 162.43 1369.27 162.35 1368.93C162.27 1368.59 162.21 1368.25 162.15 1367.9C162.1 1367.56 162.05 1367.21 162.03 1366.87C161.74 1366.73 161.48 1366.6 161.25 1366.51L159.06 1365.53C152.94 1362.78 145.33 1359.36 139.09 1358.78L139.31 1356.44C145.93 1357.06 153.74 1360.56 160.02 1363.39L161.76 1364.16C161.65 1363.21 161.5 1362.27 161.31 1361.33C161.12 1360.39 160.89 1359.46 160.63 1358.54C160.37 1357.63 160.07 1356.72 159.73 1355.82C159.4 1354.93 159.03 1354.05 158.62 1353.18C155.88 1352.69 152.83 1351.58 151.74 1349.57C151.23 1348.61 150.94 1347.08 152.44 1345.13L152.94 1344.48L153.74 1344.74C156.38 1345.62 158.52 1348.05 160.16 1351.03C160.35 1351.06 160.54 1351.08 160.73 1351.1C160.92 1351.12 161.12 1351.13 161.31 1351.14C161.5 1351.15 161.69 1351.15 161.89 1351.15C162.08 1351.15 162.27 1351.15 162.47 1351.14C167.5 1350.79 173.99 1350.73 179.63 1352.85C179.61 1352.49 179.58 1352.12 179.54 1351.75C179.51 1351.39 179.47 1351.02 179.42 1350.66C179.37 1350.3 179.32 1349.93 179.27 1349.57C179.21 1349.21 179.15 1348.85 179.08 1348.49C178.95 1347.9 178.81 1347.31 178.65 1346.73C178.49 1346.15 178.31 1345.57 178.12 1345C177.93 1344.43 177.72 1343.86 177.49 1343.3C177.27 1342.74 177.03 1342.19 176.77 1341.64C174.11 1340.77 171.91 1339.63 170.94 1338.19C170.78 1337.97 170.65 1337.72 170.56 1337.46C170.46 1337.2 170.4 1336.92 170.37 1336.65C170.35 1336.37 170.36 1336.09 170.4 1335.81C170.45 1335.54 170.53 1335.27 170.64 1335.02L170.89 1334.43L171.52 1334.32C174.43 1333.81 176.74 1336.44 178.43 1339.66C179.43 1339.93 180.44 1340.17 181.45 1340.38C182.47 1340.59 183.49 1340.77 184.52 1340.91C185.54 1341.05 186.57 1341.17 187.6 1341.25C188.64 1341.33 189.67 1341.37 190.71 1341.39C191.2 1341.39 191.69 1341.39 192.18 1341.41C192.67 1341.43 193.16 1341.46 193.65 1341.5C194.13 1341.54 194.62 1341.59 195.11 1341.65C195.59 1341.71 196.08 1341.78 196.56 1341.86C196.5 1341.6 196.43 1341.33 196.36 1341.07C196.28 1340.8 196.21 1340.54 196.13 1340.28C196.05 1340.02 195.96 1339.76 195.88 1339.5C195.79 1339.24 195.7 1338.98 195.61 1338.72C195.45 1338.31 195.28 1337.9 195.09 1337.5C194.91 1337.1 194.72 1336.71 194.52 1336.31C194.32 1335.92 194.11 1335.54 193.88 1335.16C193.66 1334.78 193.43 1334.4 193.19 1334.03C192.62 1333.98 187.62 1333.36 186.44 1330.6C186.09 1329.77 185.95 1328.45 187.28 1326.84L187.8 1326.2L188.58 1326.47C190.69 1327.21 192.79 1329.37 194.51 1331.8C197.08 1332.12 199.59 1332.75 202 1333.68C204.41 1334.61 206.7 1335.82 208.81 1337.3C210.93 1338.78 212.86 1340.51 214.56 1342.45C216.26 1344.39 217.71 1346.53 218.9 1348.83L216.79 1349.89C215.78 1347.91 214.54 1346.06 213.1 1344.36C211.66 1342.66 210.04 1341.13 208.26 1339.79C206.48 1338.46 204.55 1337.33 202.52 1336.43C200.48 1335.52 198.35 1334.86 196.17 1334.43C196.33 1334.71 196.48 1334.99 196.63 1335.28C196.77 1335.56 196.92 1335.85 197.05 1336.14C197.19 1336.43 197.32 1336.72 197.45 1337.01C197.57 1337.31 197.69 1337.6 197.81 1337.9C197.94 1338.27 198.07 1338.64 198.19 1339.02C198.31 1339.39 198.43 1339.77 198.54 1340.15C198.65 1340.53 198.75 1340.91 198.85 1341.29C198.94 1341.67 199.03 1342.05 199.12 1342.44C202.91 1343.51 206.72 1345.62 208.55 1349.73C208.68 1349.99 208.79 1350.25 208.87 1350.52C208.96 1350.8 209.02 1351.07 209.06 1351.36C209.1 1351.64 209.12 1351.92 209.11 1352.21C209.1 1352.49 209.07 1352.78 209.02 1353.06C208.94 1353.35 208.84 1353.63 208.69 1353.9C208.55 1354.17 208.38 1354.41 208.18 1354.64C207.98 1354.87 207.75 1355.07 207.5 1355.24C207.25 1355.41 206.98 1355.55 206.7 1355.66C206.33 1355.8 205.95 1355.91 205.56 1355.97C205.17 1356.04 204.77 1356.05 204.38 1356.03C203.98 1356 203.59 1355.93 203.21 1355.82C202.83 1355.71 202.47 1355.55 202.13 1355.35C199.9 1354.01 198.95 1351.52 198.36 1349.49C197.94 1348.01 197.61 1346.49 197.28 1344.98C197.23 1344.78 197.19 1344.57 197.14 1344.36C196.61 1344.25 196.08 1344.15 195.55 1344.07C195.02 1343.99 194.48 1343.93 193.95 1343.88C193.41 1343.82 192.87 1343.79 192.34 1343.76C191.8 1343.74 191.26 1343.73 190.72 1343.73C189.79 1343.72 188.87 1343.69 187.94 1343.62C187.01 1343.56 186.09 1343.48 185.17 1343.37C184.25 1343.26 183.33 1343.13 182.41 1342.97C181.5 1342.81 180.59 1342.63 179.68 1342.43C179.86 1342.88 180.03 1343.34 180.19 1343.8C180.35 1344.26 180.5 1344.72 180.64 1345.19C180.78 1345.65 180.91 1346.12 181.04 1346.59C181.16 1347.06 181.27 1347.54 181.38 1348.01C181.46 1348.42 181.53 1348.84 181.59 1349.25C181.66 1349.67 181.71 1350.09 181.77 1350.5C181.82 1350.92 181.87 1351.34 181.9 1351.76C181.94 1352.18 181.98 1352.6 182 1353.02C182.03 1353.33 182.06 1353.64 182.08 1353.94C182.54 1354.18 182.99 1354.44 183.43 1354.72C183.86 1355 184.28 1355.29 184.69 1355.61C185.1 1355.92 185.5 1356.26 185.88 1356.61C186.26 1356.95 186.63 1357.32 186.98 1357.7C187.26 1357.99 187.5 1358.31 187.72 1358.65C187.94 1359 188.12 1359.36 188.26 1359.73C188.4 1360.11 188.51 1360.5 188.58 1360.9C188.65 1361.3 188.67 1361.7 188.66 1362.1C188.64 1362.32 188.6 1362.54 188.53 1362.74C188.46 1362.95 188.37 1363.15 188.26 1363.34C188.15 1363.53 188.02 1363.7 187.88 1363.87C187.73 1364.03 187.56 1364.17 187.38 1364.29C187.2 1364.43 187 1364.54 186.79 1364.62C186.59 1364.71 186.37 1364.77 186.14 1364.81C185.92 1364.85 185.7 1364.86 185.47 1364.84C185.24 1364.83 185.02 1364.79 184.81 1364.72C184.43 1364.59 184.06 1364.42 183.72 1364.21C183.37 1364.01 183.05 1363.76 182.76 1363.49C182.46 1363.22 182.19 1362.92 181.96 1362.59C181.73 1362.27 181.53 1361.92 181.37 1361.55C181.16 1361.07 180.98 1360.58 180.81 1360.08C180.64 1359.59 180.5 1359.09 180.37 1358.58C180.25 1358.07 180.14 1357.56 180.06 1357.05C179.98 1356.53 179.92 1356.01 179.87 1355.49C174.44 1353.07 167.75 1353.12 162.63 1353.48C162.52 1353.49 162.42 1353.49 162.31 1353.5C162.2 1353.5 162.1 1353.5 161.99 1353.5C161.88 1353.5 161.78 1353.5 161.67 1353.5C161.56 1353.49 161.46 1353.49 161.35 1353.48C161.7 1354.31 162.02 1355.16 162.31 1356.01C162.6 1356.86 162.86 1357.73 163.09 1358.6C163.32 1359.47 163.52 1360.35 163.69 1361.23C163.86 1362.12 163.99 1363.01 164.1 1363.91C164.15 1364.34 164.19 1364.77 164.22 1365.21C164.22 1365.26 164.24 1365.32 164.24 1365.38C167.24 1367.07 170.62 1369.91 170.25 1374.03L170.17 1374.98L169.22 1375.09C169.17 1375.09 169.12 1375.1 169.07 1375.1C169.02 1375.11 168.97 1375.11 168.92 1375.12C168.87 1375.12 168.82 1375.12 168.77 1375.12C168.72 1375.12 168.67 1375.13 168.62 1375.12ZM164.75 1368.82C164.78 1368.96 164.82 1369.09 164.86 1369.22C164.9 1369.35 164.95 1369.48 164.99 1369.61C165.04 1369.74 165.09 1369.87 165.14 1369.99C165.27 1370.29 165.42 1370.58 165.6 1370.85C165.78 1371.12 165.99 1371.38 166.22 1371.6C166.46 1371.83 166.71 1372.04 166.98 1372.22C167.26 1372.39 167.55 1372.54 167.85 1372.66C167.73 1372.23 167.56 1371.8 167.36 1371.4C167.16 1370.99 166.92 1370.61 166.65 1370.24C166.37 1369.88 166.07 1369.55 165.73 1369.24C165.4 1368.94 165.03 1368.66 164.65 1368.42C164.68 1368.56 164.71 1368.69 164.75 1368.82ZM182.44 1356.88C182.48 1357.2 182.54 1357.52 182.61 1357.83C182.68 1358.14 182.76 1358.46 182.85 1358.76C182.94 1359.07 183.04 1359.38 183.15 1359.68C183.26 1359.98 183.38 1360.28 183.51 1360.57C183.6 1360.79 183.71 1360.99 183.84 1361.18C183.97 1361.37 184.12 1361.54 184.28 1361.7C184.45 1361.87 184.63 1362.01 184.82 1362.14C185.01 1362.27 185.21 1362.37 185.43 1362.46C185.48 1362.48 185.53 1362.49 185.58 1362.5C185.64 1362.5 185.69 1362.5 185.74 1362.49C185.8 1362.48 185.85 1362.47 185.9 1362.45C185.95 1362.43 186 1362.41 186.04 1362.38C186.08 1362.35 186.12 1362.31 186.16 1362.27C186.2 1362.23 186.23 1362.19 186.25 1362.14C186.28 1362.1 186.3 1362.05 186.31 1362C186.32 1361.95 186.33 1361.89 186.33 1361.84C186.33 1361.6 186.3 1361.37 186.24 1361.14C186.19 1360.9 186.12 1360.68 186.03 1360.46C185.94 1360.24 185.82 1360.03 185.69 1359.83C185.56 1359.63 185.41 1359.45 185.25 1359.28C185.04 1359.05 184.82 1358.83 184.6 1358.62C184.38 1358.4 184.15 1358.19 183.92 1357.99C183.68 1357.79 183.44 1357.6 183.19 1357.42C182.95 1357.23 182.69 1357.05 182.44 1356.88ZM199.71 1345.08C199.98 1346.35 200.27 1347.6 200.63 1348.84C201.09 1350.46 201.82 1352.42 203.35 1353.34C203.53 1353.44 203.73 1353.52 203.93 1353.58C204.13 1353.64 204.34 1353.68 204.55 1353.69C204.76 1353.71 204.98 1353.7 205.19 1353.66C205.4 1353.63 205.6 1353.57 205.8 1353.49C205.91 1353.45 206.01 1353.4 206.11 1353.34C206.21 1353.27 206.3 1353.2 206.38 1353.11C206.46 1353.03 206.54 1352.93 206.6 1352.83C206.66 1352.73 206.7 1352.62 206.74 1352.51C206.76 1352.35 206.77 1352.2 206.77 1352.04C206.76 1351.88 206.75 1351.73 206.72 1351.57C206.69 1351.42 206.65 1351.27 206.6 1351.12C206.54 1350.97 206.48 1350.83 206.4 1350.69C206.07 1350.02 205.67 1349.38 205.21 1348.79C204.74 1348.2 204.22 1347.67 203.64 1347.18C203.07 1346.7 202.45 1346.28 201.79 1345.93C201.12 1345.57 200.43 1345.29 199.71 1345.08ZM153.72 1347.6C153.69 1347.7 153.68 1347.79 153.68 1347.89C153.68 1347.99 153.69 1348.09 153.71 1348.18C153.73 1348.28 153.77 1348.37 153.82 1348.46C154.25 1349.26 155.51 1349.91 156.99 1350.37C156.79 1350.06 156.58 1349.76 156.34 1349.48C156.11 1349.19 155.86 1348.92 155.59 1348.66C155.32 1348.41 155.04 1348.17 154.75 1347.95C154.46 1347.72 154.15 1347.52 153.83 1347.33C153.78 1347.41 153.75 1347.51 153.72 1347.6ZM172.82 1336.76C172.83 1336.77 172.84 1336.79 172.85 1336.8C172.86 1336.82 172.87 1336.83 172.88 1336.85C172.89 1336.86 172.9 1336.87 172.91 1336.89C173.03 1337.04 173.17 1337.19 173.31 1337.33C173.45 1337.47 173.6 1337.6 173.76 1337.72C173.92 1337.85 174.09 1337.96 174.26 1338.06C174.44 1338.16 174.61 1338.25 174.8 1338.33C174.67 1338.15 174.54 1337.98 174.39 1337.82C174.24 1337.67 174.08 1337.52 173.91 1337.38C173.75 1337.24 173.57 1337.12 173.38 1337.01C173.2 1336.9 173 1336.8 172.8 1336.71C172.81 1336.73 172.82 1336.74 172.82 1336.76ZM188.63 1329.08C188.61 1329.12 188.59 1329.17 188.58 1329.22C188.57 1329.27 188.56 1329.32 188.56 1329.37C188.56 1329.42 188.56 1329.47 188.57 1329.52C188.58 1329.57 188.59 1329.62 188.61 1329.67C188.76 1329.87 188.93 1330.05 189.11 1330.21C189.29 1330.37 189.49 1330.52 189.7 1330.65C189.91 1330.78 190.13 1330.89 190.36 1330.98C190.59 1331.07 190.82 1331.14 191.06 1331.19C190.89 1330.99 190.7 1330.79 190.52 1330.6C190.33 1330.4 190.13 1330.22 189.92 1330.04C189.72 1329.87 189.51 1329.7 189.3 1329.54C189.08 1329.38 188.86 1329.22 188.63 1329.08Z" />
			</g>
		</g>
		<g id="_Group_7">
			<path id="_Path_11" fill-rule="evenodd" class="shp0" d="M305.78 1393.52C307.52 1385.63 399.94 1324.54 408.9 1323.83C417.86 1323.12 434.52 1334.55 435.94 1337.08C436.88 1338.77 436.03 1342.65 433.4 1348.72C432.08 1355.22 436.72 1358.26 447.32 1357.85C464.86 1357.18 465.25 1325.93 469.65 1328.05C474.05 1330.18 481.74 1338.36 482.13 1341.85C482.51 1345.33 477.65 1361.2 479.51 1365.23C481.37 1369.26 486.33 1401.19 482.68 1406.53C479.03 1411.88 442.71 1414.22 434.75 1414.46C426.79 1414.71 308.81 1423.41 305.09 1415.35C302.61 1409.97 302.84 1402.7 305.78 1393.52Z" />
			<path id="_Path_12" fill-rule="evenodd" class="shp3" d="M303.8 1403.46C307.87 1404.15 311.95 1404.76 316.04 1405.3C320.13 1405.84 324.24 1406.31 328.35 1406.69C332.46 1407.08 336.57 1407.4 340.69 1407.64C344.82 1407.87 348.94 1408.04 353.07 1408.12C375.82 1408.45 448.23 1399.93 452.16 1397.74C456.08 1395.55 475.48 1361.42 479.51 1365.23C483.54 1369.04 490.85 1406.28 488.07 1408.89C485.29 1411.5 466.64 1415.54 455.84 1415.59C445.04 1415.64 306.03 1423.22 303.31 1415.81C301.5 1410.87 301.66 1406.75 303.8 1403.46Z" />
			<g id="_Group_8">
				<path id="_Path_13" fill-rule="evenodd" class="shp4" d="M458.75 1392.09C458.2 1389.81 453.4 1369.66 456.84 1364.84C459.34 1361.33 461.11 1347.12 461.59 1341.94L463.92 1342.16C463.74 1344.12 462.07 1361.55 458.76 1366.2C456.64 1369.18 459.03 1383.32 461.04 1391.53L458.75 1392.09Z" />
			</g>
			<g id="_Group_9">
				<path id="_Path_14" fill-rule="evenodd" class="shp4" d="M359.25 1385.09L358.69 1384.36C358.57 1384.2 346.89 1369.06 334.93 1372.88L334.22 1370.64C346.27 1366.8 357.33 1379 359.98 1382.21C363.19 1380.79 375.24 1375.44 386.9 1369.58C400.48 1362.76 432.58 1347.81 432.91 1347.65L433.9 1349.78C433.58 1349.93 401.5 1364.87 387.96 1371.68C374.36 1378.51 360.23 1384.66 360.09 1384.72L359.25 1385.09Z" />
			</g>
			<g id="_Group_10">
				<path id="_Path_15" fill-rule="evenodd" class="shp4" d="M350.22 1399.3C349.8 1399.31 349.39 1399.3 348.97 1399.27C348.56 1399.24 348.14 1399.2 347.73 1399.14C347.32 1399.08 346.91 1399.01 346.51 1398.91C346.11 1398.82 345.7 1398.71 345.31 1398.59C327.08 1392.37 306.12 1394.66 305.91 1394.69L305.64 1392.35C306.52 1392.26 327.33 1389.98 346.07 1396.36C359.24 1400.86 392.82 1380.46 412.89 1368.29C420.53 1363.65 426.04 1360.31 428.29 1359.62C429.14 1359.39 430 1359.19 430.86 1359.02C431.73 1358.84 432.6 1358.69 433.47 1358.57C434.35 1358.45 435.22 1358.36 436.1 1358.29C436.98 1358.22 437.86 1358.18 438.75 1358.17C442.96 1357.95 447.32 1357.73 452.03 1355.73C456.82 1353.7 458.87 1348.58 461.48 1342.08C461.95 1340.8 462.45 1339.53 462.99 1338.28C463.52 1337.02 464.09 1335.78 464.69 1334.56C465.29 1333.34 465.92 1332.13 466.58 1330.93C467.25 1329.74 467.94 1328.57 468.66 1327.41L470.63 1328.7C469.93 1329.82 469.25 1330.96 468.61 1332.12C467.97 1333.28 467.36 1334.46 466.78 1335.65C466.19 1336.84 465.64 1338.04 465.12 1339.26C464.6 1340.48 464.11 1341.71 463.66 1342.96C460.96 1349.68 458.63 1355.48 452.95 1357.9C447.86 1360.06 443.29 1360.29 438.87 1360.52C438.03 1360.52 437.2 1360.56 436.37 1360.62C435.53 1360.68 434.7 1360.77 433.88 1360.88C433.05 1360.99 432.23 1361.13 431.41 1361.3C430.59 1361.46 429.78 1361.65 428.97 1361.87C427 1362.46 421.31 1365.92 414.11 1370.29C395.77 1381.43 366.31 1399.3 350.22 1399.3Z" />
			</g>
			<g id="_Group_11">
				<path id="_Compound_Path_2" fill-rule="evenodd" class="shp4" d="M377.27 1377.03C374.65 1377.03 372.54 1374.92 371.63 1372.83C371.5 1372.5 371.39 1372.18 371.28 1371.84C371.18 1371.51 371.08 1371.18 371 1370.84C370.92 1370.5 370.85 1370.16 370.8 1369.81C370.74 1369.47 370.7 1369.12 370.67 1368.77C370.39 1368.64 370.13 1368.51 369.9 1368.41L367.73 1367.45C361.61 1364.69 353.98 1361.27 347.74 1360.69L347.96 1358.35C354.58 1358.97 362.41 1362.48 368.7 1365.31L370.41 1366.07C370.3 1365.12 370.15 1364.17 369.96 1363.24C369.77 1362.3 369.54 1361.37 369.28 1360.45C369.02 1359.53 368.72 1358.62 368.38 1357.72C368.05 1356.83 367.67 1355.95 367.27 1355.08C364.53 1354.59 361.48 1353.49 360.39 1351.47C359.88 1350.52 359.59 1348.97 361.09 1347.04L361.6 1346.37L362.39 1346.64C365.03 1347.52 367.17 1349.96 368.81 1352.94C369 1352.97 369.19 1352.99 369.38 1353.01C369.57 1353.02 369.77 1353.04 369.96 1353.05C370.15 1353.06 370.35 1353.06 370.54 1353.06C370.73 1353.06 370.92 1353.05 371.12 1353.05C376.15 1352.7 382.65 1352.64 388.28 1354.76C388.26 1354.39 388.23 1354.03 388.19 1353.66C388.16 1353.3 388.12 1352.93 388.07 1352.57C388.02 1352.21 387.97 1351.84 387.92 1351.48C387.86 1351.12 387.8 1350.76 387.73 1350.4C387.6 1349.81 387.46 1349.22 387.3 1348.64C387.14 1348.05 386.96 1347.48 386.77 1346.9C386.58 1346.33 386.37 1345.76 386.14 1345.2C385.92 1344.64 385.68 1344.09 385.42 1343.54C382.76 1342.68 380.56 1341.54 379.59 1340.09C379.43 1339.87 379.3 1339.62 379.21 1339.36C379.11 1339.1 379.05 1338.83 379.02 1338.55C379 1338.27 379 1337.99 379.05 1337.72C379.1 1337.45 379.18 1337.18 379.29 1336.93L379.54 1336.34L380.16 1336.23C383.09 1335.72 385.4 1338.35 387.08 1341.57C388.08 1341.84 389.09 1342.08 390.11 1342.28C391.12 1342.49 392.14 1342.66 393.17 1342.81C394.19 1342.95 395.22 1343.06 396.26 1343.15C397.29 1343.23 398.32 1343.28 399.36 1343.3C399.85 1343.29 400.34 1343.3 400.83 1343.32C401.32 1343.34 401.81 1343.37 402.3 1343.41C402.78 1343.45 403.27 1343.5 403.76 1343.56C404.24 1343.62 404.73 1343.69 405.21 1343.77C405.15 1343.51 405.08 1343.24 405.01 1342.98C404.93 1342.71 404.86 1342.45 404.78 1342.19C404.7 1341.93 404.62 1341.66 404.53 1341.4C404.44 1341.14 404.35 1340.89 404.26 1340.63C404.1 1340.22 403.92 1339.81 403.74 1339.41C403.56 1339.01 403.37 1338.61 403.17 1338.22C402.97 1337.83 402.75 1337.44 402.53 1337.06C402.31 1336.68 402.08 1336.3 401.84 1335.93C401.27 1335.88 396.27 1335.27 395.09 1332.51C394.97 1332.19 394.9 1331.85 394.87 1331.51C394.85 1331.17 394.87 1330.83 394.95 1330.5C395.02 1330.16 395.14 1329.84 395.31 1329.54C395.47 1329.25 395.68 1328.97 395.93 1328.74L396.45 1328.1L397.23 1328.38C399.34 1329.12 401.44 1331.28 403.16 1333.71C405.72 1334.03 408.24 1334.66 410.65 1335.59C413.06 1336.52 415.34 1337.73 417.46 1339.21C419.58 1340.69 421.51 1342.42 423.21 1344.36C424.9 1346.3 426.36 1348.44 427.54 1350.74L425.44 1351.79C424.42 1349.81 423.18 1347.96 421.75 1346.26C420.31 1344.56 418.69 1343.03 416.91 1341.69C415.13 1340.36 413.2 1339.23 411.17 1338.33C409.13 1337.43 407 1336.76 404.82 1336.33C404.98 1336.61 405.13 1336.89 405.28 1337.18C405.43 1337.46 405.57 1337.75 405.71 1338.04C405.84 1338.33 405.98 1338.62 406.1 1338.92C406.23 1339.21 406.35 1339.51 406.46 1339.81C406.6 1340.18 406.72 1340.55 406.84 1340.93C406.97 1341.3 407.08 1341.68 407.19 1342.06C407.3 1342.44 407.4 1342.82 407.5 1343.2C407.6 1343.58 407.69 1343.96 407.77 1344.35C411.56 1345.42 415.37 1347.53 417.2 1351.64C417.33 1351.9 417.44 1352.16 417.53 1352.43C417.61 1352.7 417.68 1352.98 417.72 1353.26C417.76 1353.55 417.77 1353.83 417.76 1354.12C417.76 1354.4 417.73 1354.68 417.67 1354.96C417.6 1355.26 417.49 1355.54 417.34 1355.81C417.2 1356.07 417.03 1356.32 416.83 1356.55C416.63 1356.77 416.4 1356.97 416.15 1357.15C415.9 1357.32 415.63 1357.46 415.35 1357.56C414.98 1357.71 414.6 1357.82 414.21 1357.88C413.82 1357.95 413.42 1357.96 413.03 1357.94C412.63 1357.91 412.24 1357.84 411.86 1357.72C411.48 1357.61 411.12 1357.45 410.78 1357.25C408.55 1355.91 407.6 1353.43 407.02 1351.4C406.59 1349.92 406.26 1348.4 405.93 1346.89C405.89 1346.69 405.84 1346.47 405.8 1346.27C405.27 1346.16 404.74 1346.07 404.21 1345.99C403.67 1345.91 403.14 1345.84 402.6 1345.79C402.07 1345.74 401.53 1345.7 400.99 1345.67C400.45 1345.65 399.91 1345.64 399.38 1345.64C398.45 1345.63 397.52 1345.6 396.59 1345.54C395.67 1345.48 394.74 1345.4 393.82 1345.29C392.9 1345.18 391.98 1345.05 391.06 1344.89C390.15 1344.73 389.24 1344.55 388.34 1344.34C388.51 1344.79 388.68 1345.25 388.84 1345.71C389 1346.17 389.15 1346.63 389.29 1347.09C389.44 1347.56 389.57 1348.03 389.69 1348.5C389.81 1348.97 389.93 1349.44 390.03 1349.92C390.11 1350.33 390.18 1350.75 390.24 1351.16C390.31 1351.58 390.37 1352 390.42 1352.41C390.47 1352.83 390.52 1353.25 390.56 1353.67C390.6 1354.09 390.63 1354.51 390.66 1354.93C390.69 1355.24 390.71 1355.55 390.74 1355.85C391.2 1356.09 391.64 1356.35 392.08 1356.63C392.51 1356.91 392.94 1357.2 393.35 1357.52C393.76 1357.83 394.15 1358.17 394.53 1358.51C394.92 1358.86 395.28 1359.23 395.63 1359.61C395.91 1359.9 396.16 1360.22 396.37 1360.56C396.59 1360.9 396.77 1361.27 396.91 1361.64C397.06 1362.02 397.17 1362.41 397.23 1362.81C397.3 1363.21 397.33 1363.61 397.32 1364.01C397.3 1364.23 397.25 1364.44 397.18 1364.65C397.12 1364.86 397.03 1365.06 396.92 1365.25C396.81 1365.44 396.68 1365.61 396.53 1365.77C396.38 1365.93 396.22 1366.08 396.04 1366.2C395.85 1366.33 395.65 1366.44 395.45 1366.53C395.24 1366.62 395.02 1366.68 394.8 1366.72C394.57 1366.75 394.35 1366.76 394.12 1366.75C393.89 1366.74 393.67 1366.7 393.45 1366.63C393.08 1366.5 392.71 1366.33 392.37 1366.12C392.02 1365.91 391.7 1365.67 391.41 1365.4C391.11 1365.13 390.85 1364.83 390.61 1364.5C390.38 1364.17 390.18 1363.82 390.02 1363.46C389.81 1362.98 389.63 1362.49 389.46 1361.99C389.3 1361.5 389.15 1361 389.03 1360.49C388.9 1359.98 388.8 1359.47 388.72 1358.95C388.63 1358.44 388.57 1357.92 388.53 1357.4C383.09 1354.97 376.4 1355.03 371.28 1355.39C371.18 1355.4 371.07 1355.4 370.96 1355.41C370.86 1355.41 370.75 1355.41 370.64 1355.41C370.54 1355.41 370.43 1355.41 370.32 1355.41C370.21 1355.4 370.11 1355.4 370 1355.39C370.35 1356.22 370.67 1357.07 370.96 1357.92C371.25 1358.77 371.51 1359.64 371.74 1360.51C371.97 1361.38 372.17 1362.26 372.34 1363.14C372.51 1364.03 372.65 1364.92 372.75 1365.81L372.88 1367.09C372.88 1367.16 372.89 1367.23 372.89 1367.28C375.89 1368.98 379.27 1371.82 378.9 1375.93L378.82 1376.88L377.88 1376.99C377.83 1377 377.77 1377.01 377.72 1377.01C377.67 1377.02 377.62 1377.02 377.57 1377.03C377.52 1377.03 377.47 1377.03 377.42 1377.03C377.37 1377.03 377.32 1377.03 377.27 1377.03ZM373.39 1370.73C373.43 1370.86 373.47 1370.99 373.51 1371.12C373.55 1371.25 373.59 1371.38 373.64 1371.51C373.69 1371.64 373.74 1371.77 373.79 1371.89C373.91 1372.19 374.06 1372.48 374.25 1372.76C374.43 1373.03 374.63 1373.28 374.87 1373.51C375.1 1373.74 375.36 1373.94 375.63 1374.12C375.9 1374.3 376.2 1374.44 376.5 1374.56C376.38 1374.13 376.21 1373.7 376.01 1373.3C375.81 1372.89 375.57 1372.51 375.29 1372.15C375.02 1371.79 374.71 1371.45 374.38 1371.15C374.04 1370.84 373.68 1370.57 373.3 1370.33C373.33 1370.47 373.36 1370.6 373.39 1370.73ZM391.26 1359.74C391.33 1360.05 391.41 1360.36 391.5 1360.67C391.59 1360.98 391.69 1361.28 391.8 1361.58C391.91 1361.88 392.03 1362.18 392.16 1362.47C392.25 1362.69 392.36 1362.89 392.49 1363.08C392.62 1363.27 392.76 1363.45 392.93 1363.61C393.09 1363.77 393.27 1363.91 393.46 1364.04C393.65 1364.17 393.86 1364.28 394.07 1364.36C394.12 1364.38 394.17 1364.39 394.23 1364.4C394.28 1364.41 394.34 1364.41 394.39 1364.4C394.44 1364.39 394.5 1364.38 394.55 1364.36C394.6 1364.34 394.64 1364.32 394.69 1364.28C394.73 1364.25 394.77 1364.22 394.81 1364.18C394.84 1364.14 394.87 1364.1 394.9 1364.05C394.92 1364 394.94 1363.96 394.96 1363.9C394.97 1363.85 394.98 1363.8 394.98 1363.75C394.97 1363.51 394.94 1363.28 394.89 1363.04C394.84 1362.81 394.77 1362.59 394.67 1362.37C394.58 1362.15 394.47 1361.94 394.34 1361.74C394.21 1361.54 394.06 1361.36 393.89 1361.19C393.68 1360.96 393.47 1360.74 393.25 1360.53C393.02 1360.31 392.8 1360.1 392.56 1359.9C392.33 1359.7 392.09 1359.51 391.84 1359.32C391.59 1359.14 391.34 1358.96 391.08 1358.79C391.13 1359.11 391.19 1359.42 391.26 1359.74ZM408.36 1346.99C408.63 1348.25 408.92 1349.51 409.27 1350.75C409.74 1352.36 410.47 1354.32 411.99 1355.25C412.18 1355.35 412.37 1355.43 412.58 1355.49C412.78 1355.55 412.99 1355.59 413.2 1355.6C413.41 1355.61 413.62 1355.6 413.83 1355.57C414.04 1355.53 414.25 1355.47 414.44 1355.39C414.55 1355.35 414.66 1355.3 414.76 1355.24C414.86 1355.18 414.95 1355.1 415.03 1355.02C415.11 1354.94 415.18 1354.84 415.24 1354.74C415.3 1354.64 415.35 1354.53 415.38 1354.42C415.4 1354.26 415.41 1354.11 415.41 1353.95C415.41 1353.79 415.39 1353.64 415.36 1353.48C415.34 1353.33 415.3 1353.17 415.24 1353.03C415.19 1352.88 415.13 1352.74 415.05 1352.6C413.76 1349.69 411.16 1347.98 408.36 1346.99L408.36 1346.99ZM362.37 1349.51C362.34 1349.6 362.33 1349.7 362.33 1349.8C362.32 1349.89 362.33 1349.99 362.36 1350.09C362.38 1350.18 362.42 1350.27 362.46 1350.36C362.9 1351.17 364.16 1351.81 365.64 1352.28C365.44 1351.97 365.22 1351.67 364.99 1351.38C364.75 1351.1 364.5 1350.83 364.24 1350.57C363.97 1350.32 363.69 1350.08 363.4 1349.86C363.1 1349.63 362.8 1349.43 362.48 1349.24C362.43 1349.32 362.39 1349.41 362.37 1349.51ZM381.45 1338.62C381.48 1338.67 381.51 1338.74 381.55 1338.8C381.67 1338.95 381.81 1339.1 381.95 1339.24C382.1 1339.38 382.25 1339.51 382.41 1339.63C382.57 1339.75 382.73 1339.87 382.91 1339.97C383.08 1340.07 383.26 1340.16 383.44 1340.24C383.32 1340.06 383.18 1339.89 383.04 1339.73C382.89 1339.57 382.73 1339.43 382.56 1339.29C382.39 1339.15 382.21 1339.03 382.03 1338.92C381.84 1338.81 381.65 1338.71 381.45 1338.62ZM397.28 1330.99C397.26 1331.03 397.24 1331.08 397.23 1331.13C397.22 1331.18 397.21 1331.23 397.21 1331.28C397.21 1331.33 397.21 1331.38 397.22 1331.43C397.22 1331.48 397.24 1331.53 397.26 1331.58C397.41 1331.77 397.57 1331.95 397.76 1332.12C397.94 1332.28 398.14 1332.43 398.35 1332.56C398.56 1332.69 398.78 1332.8 399.01 1332.89C399.23 1332.98 399.47 1333.05 399.71 1333.1C399.54 1332.89 399.36 1332.7 399.17 1332.5C398.98 1332.31 398.78 1332.13 398.58 1331.95C398.37 1331.77 398.16 1331.6 397.95 1331.44C397.73 1331.28 397.51 1331.13 397.28 1330.99Z" />
			</g>
		</g>
		<g id="_Group_12">
			<path id="_Path_16" fill-rule="evenodd" class="shp5" d="M227.79 1138.04C187.49 1138.04 161.79 1126.25 161.41 1126.07C161.13 1125.94 160.91 1125.7 160.81 1125.4C160.7 1125.11 160.71 1124.79 160.85 1124.5C160.98 1124.22 161.22 1124 161.51 1123.9C161.81 1123.79 162.13 1123.8 162.41 1123.94C162.98 1124.21 219.92 1150.29 297.53 1123.89C297.68 1123.84 297.83 1123.82 297.99 1123.83C298.14 1123.84 298.29 1123.89 298.43 1123.95C298.57 1124.02 298.69 1124.12 298.79 1124.23C298.89 1124.35 298.97 1124.48 299.02 1124.63C299.07 1124.77 299.09 1124.93 299.08 1125.08C299.07 1125.24 299.03 1125.39 298.96 1125.53C298.9 1125.66 298.8 1125.79 298.69 1125.89C298.57 1125.99 298.44 1126.07 298.29 1126.12C292.63 1128.07 286.89 1129.79 281.09 1131.27C275.29 1132.75 269.43 1133.99 263.53 1134.98C257.63 1135.98 251.69 1136.74 245.72 1137.25C239.76 1137.76 233.77 1138.02 227.79 1138.04L227.79 1138.04Z" />
		</g>
		<g id="_Group_13">
			<path id="_Path_17" fill-rule="evenodd" class="shp5" d="M402.97 1135.71C370.22 1135.71 340.88 1126.29 340.34 1126.12C340.05 1126.02 339.8 1125.81 339.66 1125.53C339.52 1125.25 339.5 1124.93 339.59 1124.64C339.69 1124.34 339.9 1124.1 340.18 1123.96C340.46 1123.82 340.78 1123.79 341.07 1123.89C342.04 1124.2 437.58 1154.85 474.94 1104.44C475.12 1104.19 475.4 1104.02 475.71 1103.98C476.02 1103.93 476.33 1104.01 476.58 1104.2C476.83 1104.38 477 1104.66 477.04 1104.97C477.09 1105.28 477.01 1105.59 476.82 1105.84C459.46 1129.27 430.05 1135.71 402.97 1135.71Z" />
		</g>
		<g id="_Group_14">
			<path id="_Path_18" fill-rule="evenodd" class="shp5" d="M259.06 871.26C258.93 871.26 258.81 871.24 258.68 871.2C258.56 871.16 258.45 871.1 258.35 871.02C258.25 870.95 258.16 870.85 258.09 870.75C258.02 870.64 257.96 870.52 257.93 870.4L234.3 785.17C231.1 783.25 212.3 770.75 212.4 741.95C212.51 711.27 216.64 678.18 216.68 677.85C216.7 677.66 216.77 677.48 216.88 677.32C216.99 677.17 217.14 677.04 217.31 676.95C217.48 676.86 217.67 676.82 217.86 676.82C218.05 676.82 218.24 676.87 218.41 676.97L239.2 688.31C239.31 688.37 239.41 688.44 239.49 688.53C239.57 688.62 239.64 688.72 239.7 688.83C239.75 688.94 239.79 689.06 239.8 689.18C239.82 689.3 239.82 689.42 239.8 689.54C236.48 709.13 230.97 761.29 245.2 767.36C245.49 767.48 245.71 767.72 245.83 768C245.95 768.29 245.94 768.62 245.82 768.9C245.7 769.19 245.47 769.42 245.18 769.53C244.89 769.65 244.56 769.65 244.28 769.52C226.31 761.86 235.97 698.41 237.35 689.97L218.8 679.86C217.97 687.02 214.85 715.41 214.75 741.96C214.65 771.8 235.64 783.24 235.85 783.35C235.92 783.39 235.99 783.43 236.05 783.48C236.11 783.53 236.17 783.59 236.22 783.65C236.27 783.71 236.31 783.78 236.35 783.85C236.38 783.92 236.41 784 236.43 784.07L260.19 869.77C260.24 869.95 260.25 870.13 260.22 870.31C260.18 870.49 260.11 870.66 260 870.8C259.89 870.94 259.75 871.06 259.58 871.14C259.42 871.22 259.24 871.26 259.06 871.26L259.06 871.26Z" />
		</g>
		<g id="_Group_15">
			<path id="_Path_19" fill-rule="evenodd" class="shp5" d="M456.76 1123.43C456.62 1123.43 456.49 1123.41 456.36 1123.36C456.23 1123.31 456.11 1123.24 456 1123.15C455.9 1123.07 455.81 1122.96 455.74 1122.84C455.68 1122.72 455.63 1122.59 455.61 1122.46C445.85 1066.29 420.75 1024.37 405.76 999.32C398.85 987.79 393.87 979.46 392.65 973.92C390.6 964.67 390.44 921.02 390.27 874.8C390.11 832.87 389.94 789.51 388.33 771.25C385 733.65 359.34 655.67 359.08 654.89C358.98 654.59 359.01 654.27 359.15 653.99C359.29 653.71 359.53 653.5 359.83 653.41C360.12 653.31 360.44 653.33 360.72 653.47C361 653.61 361.21 653.86 361.31 654.15C361.57 654.94 387.32 733.17 390.67 771.05C392.29 789.41 392.46 832.81 392.62 874.79C392.78 918.85 392.95 964.41 394.94 973.42C396.08 978.59 400.98 986.78 407.78 998.12C422.86 1023.3 448.09 1065.45 457.92 1122.06C457.95 1122.21 457.94 1122.36 457.91 1122.51C457.88 1122.66 457.81 1122.81 457.73 1122.93C457.64 1123.06 457.52 1123.17 457.39 1123.25C457.26 1123.33 457.12 1123.38 456.97 1123.41C456.95 1123.41 456.93 1123.42 456.92 1123.42C456.9 1123.42 456.88 1123.43 456.86 1123.43C456.85 1123.43 456.83 1123.43 456.81 1123.43C456.79 1123.43 456.78 1123.43 456.76 1123.43Z" />
		</g>
		<g id="_Group_16">
			<path id="_Path_20" fill-rule="evenodd" class="shp5" d="M159.63 1003.47C159.59 1003.47 159.55 1003.47 159.51 1003.47C159.47 1003.46 159.43 1003.45 159.39 1003.45C159.34 1003.44 159.3 1003.42 159.27 1003.41C159.23 1003.4 159.19 1003.38 159.15 1003.36C159.01 1003.3 158.88 1003.21 158.78 1003.1C158.67 1002.99 158.59 1002.86 158.53 1002.71C158.48 1002.57 158.45 1002.41 158.46 1002.26C158.46 1002.11 158.5 1001.96 158.56 1001.81L170.61 975.09C170.74 974.81 170.98 974.59 171.26 974.48C171.55 974.37 171.88 974.37 172.16 974.5C172.44 974.63 172.66 974.86 172.78 975.15C172.89 975.44 172.88 975.76 172.75 976.04L160.7 1002.78C160.66 1002.88 160.6 1002.98 160.52 1003.06C160.45 1003.15 160.37 1003.22 160.27 1003.28C160.18 1003.34 160.07 1003.39 159.96 1003.42C159.86 1003.46 159.74 1003.47 159.63 1003.47Z" />
		</g>
		<g id="_Group_17">
			<path id="_Path_21" fill-rule="evenodd" class="shp5" d="M261.63 1000.71C261.55 1000.71 261.47 1000.71 261.39 1000.69C261.31 1000.67 261.23 1000.65 261.16 1000.62C261.08 1000.58 261.01 1000.54 260.95 1000.5C260.88 1000.45 260.82 1000.39 260.76 1000.33L240.12 977.9C239.91 977.68 239.8 977.37 239.81 977.06C239.82 976.75 239.96 976.46 240.19 976.25C240.42 976.04 240.72 975.93 241.03 975.94C241.34 975.95 241.64 976.09 241.85 976.32L262.5 998.75C262.6 998.86 262.68 998.99 262.73 999.14C262.79 999.28 262.81 999.44 262.8 999.59C262.8 999.74 262.76 999.89 262.7 1000.03C262.63 1000.17 262.54 1000.3 262.43 1000.4C262.37 1000.45 262.31 1000.5 262.25 1000.54C262.19 1000.58 262.13 1000.61 262.06 1000.64C261.99 1000.66 261.92 1000.68 261.85 1000.7C261.78 1000.71 261.7 1000.71 261.63 1000.71Z" />
		</g>
		<g id="_Group_18">
			<path id="_Path_22" fill-rule="evenodd" class="shp5" d="M309.86 998.78C309.83 998.78 309.81 998.78 309.79 998.77C309.77 998.77 309.75 998.77 309.72 998.77C309.7 998.77 309.68 998.76 309.66 998.76C309.64 998.76 309.62 998.75 309.59 998.75C309.44 998.71 309.3 998.65 309.18 998.56C309.05 998.47 308.94 998.35 308.86 998.22C308.78 998.09 308.72 997.95 308.7 997.79C308.67 997.64 308.68 997.49 308.71 997.33C309.02 996.01 309.39 994.71 309.82 993.42C310.25 992.14 310.75 990.87 311.3 989.63C311.86 988.4 312.47 987.19 313.15 986.01C313.82 984.83 314.55 983.69 315.34 982.58C315.52 982.33 315.79 982.16 316.1 982.11C316.4 982.06 316.72 982.13 316.97 982.31C317.22 982.49 317.39 982.77 317.44 983.07C317.5 983.38 317.43 983.69 317.25 983.94C316.51 984.99 315.82 986.07 315.19 987.18C314.55 988.29 313.97 989.43 313.45 990.6C312.92 991.76 312.46 992.96 312.05 994.17C311.64 995.38 311.29 996.61 311.01 997.86C310.98 997.99 310.93 998.11 310.85 998.23C310.78 998.34 310.7 998.44 310.59 998.52C310.49 998.6 310.37 998.67 310.25 998.71C310.12 998.75 309.99 998.78 309.86 998.78L309.86 998.78Z" />
		</g>
		<g id="_Group_19">
			<path id="_Path_23" fill-rule="evenodd" class="shp5" d="M416.64 975C416.56 975 416.47 974.99 416.39 974.98C416.31 974.96 416.23 974.93 416.15 974.9C416.07 974.86 416 974.82 415.93 974.77C415.87 974.72 415.81 974.66 415.75 974.59L398.81 954.92C398.61 954.68 398.51 954.38 398.53 954.07C398.55 953.76 398.7 953.47 398.94 953.26C399.17 953.06 399.48 952.96 399.79 952.98C400.1 953.01 400.39 953.15 400.59 953.39L417.53 973.07C417.63 973.19 417.71 973.32 417.76 973.47C417.8 973.61 417.82 973.77 417.81 973.92C417.8 974.08 417.76 974.23 417.69 974.36C417.62 974.5 417.52 974.62 417.41 974.72C417.35 974.77 417.3 974.81 417.24 974.84C417.18 974.88 417.11 974.91 417.05 974.93C416.98 974.95 416.92 974.97 416.85 974.98C416.78 975 416.71 975 416.64 975Z" />
		</g>
		<g id="_Group_20">
			<path id="_Path_24" fill-rule="evenodd" class="shp5" d="M387.11 755.48C387.1 755.48 387.08 755.47 387.07 755.47C387.05 755.47 387.03 755.47 387.02 755.47C387 755.47 386.99 755.47 386.97 755.47C386.96 755.47 386.94 755.46 386.92 755.46C345.09 748.74 313.25 678.59 311.91 675.61C311.84 675.46 311.81 675.31 311.8 675.15C311.8 674.99 311.83 674.84 311.88 674.69C311.94 674.55 312.03 674.41 312.14 674.3C312.25 674.19 312.38 674.1 312.53 674.04L328.61 667.33C328.76 667.27 328.92 667.23 329.08 667.24C329.24 667.24 329.4 667.27 329.54 667.34C329.69 667.4 329.82 667.5 329.93 667.62C330.04 667.73 330.12 667.87 330.17 668.02C330.36 668.56 349.31 721.74 384.38 734.5C384.67 734.61 384.9 734.83 385.03 735.11C385.16 735.39 385.17 735.71 385.06 735.99C384.96 736.28 384.74 736.52 384.47 736.65C384.19 736.79 383.87 736.8 383.58 736.7C349.97 724.49 331.43 678.17 328.38 669.97L314.56 675.74C318.83 684.81 349.49 747.07 387.29 753.14C387.58 753.19 387.85 753.34 388.03 753.57C388.21 753.8 388.3 754.1 388.28 754.39C388.26 754.68 388.12 754.96 387.91 755.16C387.69 755.36 387.41 755.47 387.11 755.48Z" />
		</g>
	</g>
	<path id="_Path_25" fill-rule="evenodd" class="shp6" d="M286.15 718.13C235.81 729.43 183.51 721.36 129.26 693.91C129.06 691.58 129.06 682.2 129.26 665.77C129.55 641.11 122.79 613.38 115.09 565.63C107.38 517.86 105.84 440.84 110.46 425.43C112 420.3 107.57 402.04 101.53 379.45C89.4 334.02 70.75 271.15 81.04 262.92C96.46 250.59 198.83 213.88 227.59 208.2C248.06 204.16 367.83 223.59 389.41 246.71C408.13 266.72 387.45 374.73 377.61 410.18C376.1 415.63 374.83 419.37 374.02 420.81C367.84 431.58 386.42 542.51 389.51 571.78C392.6 601.05 401.74 665.76 404.83 671.92C407.91 678.1 361.68 701.19 286.15 718.13Z" />
	<path id="_Path_26" fill-rule="evenodd" class="shp0" d="M373.77 425.43C371.24 387.42 373.73 337.64 328.96 288.41C287.25 242.55 225.12 232.64 166.22 276.19C116.24 313.14 117.48 392.06 110.47 425.43C98.33 380 65.12 276.01 74.83 267.09C101.59 242.5 198.84 213.88 227.59 208.21C248.06 204.16 367.84 223.59 389.41 246.71C408.13 266.72 383.61 389.98 373.77 425.43Z" />
	<path id="_Path_27" fill-rule="evenodd" class="shp1" d="M48.45 412.3L47.89 412.49C32.63 417.64 16.56 424.78 8.79 438.89C0.07 454.73 1.51 511.64 19.35 521.84C32.57 529.4 81.3 525.84 95.57 525.02C141.23 522.42 290.7 513.78 329.07 499.87C327.13 500.58 276.2 472.2 255.85 468.56C205.91 459.62 152.14 447.08 103.88 431.62C102.24 413.94 76.69 402.74 48.45 412.3Z" />
	<path id="_Path_28" fill-rule="evenodd" class="shp1" d="M385.55 411.88C402.51 405.92 431.75 415.16 444.96 421.42C463.16 430.05 481.08 448.45 480.49 470.01C480.16 482.25 464.52 508.32 451.57 510.67C440.27 512.72 246.57 505.15 106.75 432.51C118.45 432.82 130.16 432.96 141.87 432.95C153.58 432.93 165.28 432.76 176.99 432.42C188.69 432.09 200.39 431.6 212.08 430.94C223.77 430.29 235.45 429.48 247.12 428.5C276.24 426.09 312.2 429.19 340.75 432.58C349.83 433.66 360.74 437.89 369.09 432.12C375 428.03 373.84 419.99 378.83 415.66C379.32 415.24 379.84 414.85 380.37 414.48C380.9 414.11 381.45 413.77 382.01 413.45C382.58 413.13 383.15 412.84 383.75 412.58C384.34 412.32 384.94 412.08 385.55 411.88L385.55 411.88Z" />
	<path id="_Path_29" fill-rule="evenodd" class="shp0" d="M378.06 238.77C410.28 251.25 433.07 273.41 446.43 305.25C466.47 353.01 493.37 442.89 491.83 457.43C490.29 471.97 470.72 513.91 462.47 499.99C416.02 421.61 382.12 441.42 378.06 431.11C374 420.8 360.55 264.72 378.06 238.77Z" />
	<path id="_Path_30" fill-rule="evenodd" class="shp1" d="M399.31 421.31C393.18 416.18 384.22 412.58 375.23 410.95C358.62 407.93 341.31 412.37 325.32 416.75L282.52 428.47C292.65 431.73 301.63 434.59 312.68 435.55C317.75 435.99 322.95 435.94 327.86 436.96C339.24 439.32 346.69 446.81 353.22 453.8C354.87 455.58 354.93 457.12 357.88 456.71C360.83 456.31 363.02 454.22 363.05 452.1C363.77 451.61 365.38 450.59 366.1 450.1L369.17 455.76C369.24 455.94 369.33 456.11 369.44 456.26C369.54 456.42 369.67 456.57 369.8 456.7C369.93 456.83 370.08 456.95 370.24 457.05C370.4 457.16 370.57 457.24 370.74 457.31C371.03 457.37 371.32 457.39 371.61 457.39C371.91 457.39 372.2 457.36 372.48 457.31C372.77 457.25 373.05 457.17 373.32 457.06C373.59 456.95 373.85 456.81 374.09 456.65C382.32 452.29 389.05 444.32 386.58 436.88C385.27 432.95 381.83 429.48 380.74 425.52C380.93 426.23 389.71 430.04 391.06 431.22C391.81 431.89 392.51 432.62 393.16 433.39C393.81 434.16 394.4 434.98 394.93 435.84C395.46 436.7 395.92 437.6 396.32 438.52C396.72 439.45 397.06 440.4 397.32 441.38C398.87 446.21 401.6 452.58 405.27 443.71C407.22 439 407.31 431.39 404.33 426.83C403.99 426.32 403.62 425.81 403.23 425.32C402.85 424.83 402.45 424.35 402.03 423.88C401.61 423.42 401.17 422.98 400.72 422.55C400.26 422.11 399.79 421.7 399.31 421.31L399.31 421.31Z" />
	<path id="_Path_31" fill-rule="evenodd" class="shp7" d="M265.3 20.23C247.06 6.25 231.08 1.6 217.36 6.3C196.78 13.35 172.54 50.25 158.28 55.42L144.01 60.6C156.34 75.59 168.03 82.6 179.09 81.6C180.8 98.71 185.27 112.67 192.49 123.47C203.32 139.68 262.35 178.19 264.57 172.44C269.35 160.03 265.67 157.46 269.67 155.42C273.68 153.39 303.84 127.46 307.41 76.74C309.24 50.6 304.11 17.56 265.3 20.23Z" />
	<path id="_Path_32" fill-rule="evenodd" class="shp1" d="M223.25 133.31C216.47 172.61 211.96 197.4 209.72 207.67C209.32 209.48 207.51 211.68 204.29 214.26C210.25 225.87 222.94 232.87 242.34 235.27C271.44 238.87 291.98 216 289.78 214.3C287.58 212.6 281.62 202.29 280.4 197.57C279.6 194.43 273.93 164.94 263.41 109.1L223.25 133.31Z" />
	<path id="_Path_33" fill-rule="evenodd" class="shp8" d="M216.49 169.14L216.13 172.85C219.95 186.26 226.13 190.91 234.67 186.81C264.57 172.44 265.87 125.55 265.57 120.52L264.53 115.03C261.3 113.16 258.22 113.91 255.29 117.27C252.36 120.64 239.43 137.93 216.49 169.14Z" />
	<path id="_Path_34" fill-rule="evenodd" class="shp1" d="M232.51 54.47C205.94 71.46 189.07 80.33 181.89 81.08C176.63 81.63 181.42 168.8 211.87 175.07C234.53 179.73 253.39 157.67 258.81 146.47C262.43 139 262.64 129.53 259.45 118.06C266.24 116.54 269.74 110.64 269.96 100.36C270.27 84.93 264.87 81.21 258.78 90.82C254.72 97.22 245.96 85.11 232.51 54.47Z" />
	<g id="_Group_21">
		<path id="_Path_35" fill-rule="evenodd" class="shp7" d="M272.29 149.36C271.98 149.36 271.7 149.25 271.48 149.04C271.26 148.83 271.13 148.55 271.11 148.24C271.1 147.94 271.2 147.65 271.4 147.42C271.59 147.19 271.87 147.05 272.17 147.02C280.03 146.22 287.76 141.86 293.92 134.74C300.09 127.62 303.84 118.85 306.4 112.02C307.79 108.39 308.99 104.69 309.99 100.94C310.99 97.19 311.8 93.38 312.41 89.55C313.01 85.71 313.42 81.84 313.63 77.96C313.84 74.08 313.84 70.19 313.65 66.31C312.8 52.03 310.32 36.11 298.33 26.25C289.48 18.98 275.51 15.22 264.25 23.22C264.13 23.31 263.99 23.37 263.84 23.41C263.69 23.44 263.54 23.45 263.39 23.42C263.24 23.4 263.09 23.34 262.96 23.26C262.83 23.19 262.72 23.08 262.63 22.96C256.8 15.06 247.54 8.45 237.23 4.83C234.82 3.96 232.33 3.31 229.79 2.9C227.26 2.48 224.69 2.3 222.12 2.36C219.55 2.42 216.99 2.71 214.48 3.23C211.97 3.76 209.51 4.51 207.13 5.49C197.59 9.6 191.57 16.92 185.19 24.66C184.29 25.82 183.37 26.95 182.42 28.07C181.48 29.19 180.51 30.28 179.52 31.36C178.53 32.44 177.52 33.5 176.49 34.54C175.46 35.58 174.41 36.6 173.34 37.59C170.38 40.23 167.27 42.69 164.03 44.97C160.78 47.25 157.42 49.34 153.94 51.24C150.46 53.13 146.87 54.83 143.2 56.32C139.53 57.81 135.78 59.09 131.96 60.16C135.05 65.44 139.23 70.01 144.21 73.57C149.19 77.13 154.86 79.61 160.86 80.83C166.86 82.05 173.05 82 179.03 80.67C185.01 79.34 190.63 76.76 195.55 73.11C201.95 68.36 207.02 61.79 211.13 55.99C211.31 55.74 211.59 55.57 211.89 55.51C212.2 55.46 212.52 55.53 212.77 55.71C213.02 55.89 213.2 56.17 213.25 56.47C213.3 56.78 213.23 57.1 213.05 57.35C208.83 63.3 203.62 70.04 196.95 75C191.66 78.92 185.59 81.67 179.15 83.04C172.71 84.42 166.05 84.39 159.62 82.97C153.19 81.54 147.14 78.75 141.89 74.78C136.63 70.81 132.29 65.76 129.16 59.97C129.07 59.81 129.03 59.64 129.02 59.46C129.01 59.28 129.04 59.1 129.11 58.94C129.19 58.78 129.29 58.63 129.43 58.52C129.56 58.4 129.73 58.32 129.9 58.27C133.76 57.26 137.57 56.01 141.29 54.55C145.01 53.09 148.64 51.41 152.16 49.52C155.69 47.64 159.09 45.54 162.37 43.26C165.65 40.97 168.79 38.49 171.78 35.83C172.83 34.86 173.85 33.86 174.86 32.84C175.87 31.82 176.86 30.78 177.83 29.73C178.79 28.67 179.74 27.6 180.67 26.5C181.59 25.41 182.49 24.3 183.38 23.17C189.65 15.55 196.14 7.67 206.2 3.33C208.71 2.29 211.31 1.49 213.97 0.94C216.62 0.38 219.33 0.07 222.04 0.01C224.76 -0.05 227.47 0.14 230.15 0.57C232.83 1.01 235.46 1.69 238.02 2.61C248.37 6.25 257.71 12.79 263.83 20.66C275.93 12.79 290.53 16.79 299.82 24.43C312.5 34.86 315.12 51.38 315.99 66.17C316.19 70.13 316.19 74.1 315.98 78.06C315.77 82.02 315.35 85.97 314.73 89.89C314.11 93.81 313.29 97.69 312.26 101.53C311.24 105.36 310.02 109.14 308.6 112.84C305.97 119.86 302.12 128.85 295.7 136.27C289.13 143.85 280.86 148.49 272.41 149.35C272.37 149.36 272.33 149.36 272.29 149.36Z" />
	</g>
	<path id="_Path_36" fill-rule="evenodd" class="shp7" d="M200.1 104.55C200.57 108.3 199.33 111.55 197.34 111.8C195.34 112.04 193.35 109.2 192.88 105.44C192.41 101.69 193.65 98.44 195.65 98.19C197.64 97.95 199.64 100.79 200.1 104.55Z" />
	<path id="_Path_37" fill-rule="evenodd" class="shp7" d="M231.43 99.97C231.89 103.72 230.66 106.97 228.66 107.22C226.67 107.47 224.67 104.62 224.2 100.87C223.74 97.11 224.98 93.86 226.97 93.62C228.96 93.37 230.96 96.22 231.43 99.97Z" />
	<g id="_Group_22">
		<path id="_Path_38" fill-rule="evenodd" class="shp7" d="M259.93 108.8C259.92 108.8 259.91 108.8 259.89 108.8C259.88 108.8 259.87 108.8 259.85 108.8C259.84 108.8 259.83 108.8 259.81 108.8C259.8 108.79 259.78 108.79 259.77 108.79C259.62 108.77 259.47 108.72 259.34 108.64C259.2 108.56 259.09 108.46 258.99 108.34C258.9 108.22 258.83 108.07 258.79 107.93C258.76 107.78 258.75 107.62 258.77 107.47C258.9 106.5 259.12 105.54 259.42 104.61C259.71 103.68 260.09 102.77 260.54 101.9C260.99 101.03 261.51 100.21 262.11 99.43C262.7 98.65 263.35 97.92 264.07 97.25C264.3 97.05 264.6 96.94 264.91 96.96C265.21 96.97 265.5 97.1 265.71 97.33C265.92 97.55 266.03 97.85 266.02 98.16C266.02 98.46 265.89 98.76 265.67 98.97C265.06 99.55 264.49 100.18 263.98 100.85C263.47 101.53 263.02 102.24 262.63 102.99C262.24 103.74 261.92 104.52 261.66 105.32C261.4 106.13 261.21 106.95 261.09 107.79C261.07 107.93 261.03 108.06 260.96 108.19C260.9 108.31 260.81 108.42 260.7 108.51C260.6 108.61 260.48 108.68 260.35 108.73C260.21 108.78 260.07 108.8 259.93 108.8Z" />
	</g>
	<g id="_Group_23">
		<path id="_Path_39" fill-rule="evenodd" class="shp7" d="M217.71 89.83C217.45 89.83 217.2 89.74 216.99 89.59C216.79 89.43 216.64 89.21 216.57 88.97C216.5 88.72 216.52 88.46 216.62 88.22C216.71 87.98 216.88 87.78 217.1 87.65C218.28 86.96 219.51 86.39 220.8 85.95C222.09 85.51 223.42 85.2 224.77 85.02C226.12 84.85 227.48 84.81 228.84 84.92C230.2 85.02 231.54 85.25 232.85 85.63C233.14 85.72 233.38 85.92 233.52 86.19C233.67 86.46 233.7 86.78 233.61 87.07C233.53 87.36 233.33 87.61 233.07 87.76C232.8 87.92 232.49 87.96 232.19 87.88C231.04 87.55 229.85 87.34 228.66 87.25C227.46 87.16 226.26 87.2 225.07 87.35C223.88 87.5 222.71 87.77 221.57 88.16C220.44 88.55 219.34 89.05 218.31 89.66C218.26 89.69 218.22 89.71 218.17 89.73C218.12 89.75 218.07 89.77 218.02 89.79C217.97 89.8 217.92 89.81 217.86 89.82C217.81 89.82 217.76 89.83 217.71 89.83Z" />
	</g>
	<path id="_Path_40" fill-rule="evenodd" class="shp9" d="M228.08 138.7C227.35 139.67 226.55 140.58 225.67 141.42C224.8 142.27 223.86 143.04 222.86 143.73C221.86 144.42 220.81 145.03 219.71 145.55C218.61 146.07 217.47 146.51 216.31 146.85C215.42 147.11 214.51 147.31 213.59 147.42C212.66 147.54 211.73 147.58 210.81 147.54C209.88 147.5 208.95 147.39 208.04 147.2C207.14 147.01 206.24 146.74 205.38 146.4C204.95 146.25 204.54 146.07 204.16 145.83C203.77 145.6 203.41 145.33 203.08 145.03C202.75 144.72 202.45 144.38 202.19 144.01C201.93 143.64 201.72 143.25 201.54 142.84L228.08 138.7Z" />
	<g id="_Group_24">
		<path id="_Path_41" fill-rule="evenodd" class="shp7" d="M213.36 153.03C212.83 153.03 212.31 153.01 211.78 152.97C211.46 152.97 211.16 152.83 210.94 152.59C210.72 152.35 210.61 152.03 210.64 151.71C210.66 151.39 210.82 151.09 211.07 150.89C211.32 150.69 211.64 150.6 211.96 150.64C212.49 150.68 213.03 150.69 213.57 150.69C214.1 150.68 214.64 150.65 215.17 150.6C215.71 150.55 216.24 150.47 216.77 150.37C217.3 150.28 217.82 150.16 218.34 150.01C218.64 149.9 218.98 149.92 219.28 150.07C219.57 150.22 219.78 150.49 219.87 150.8C219.96 151.12 219.91 151.45 219.74 151.73C219.57 152.01 219.29 152.21 218.96 152.27C218.51 152.4 218.05 152.51 217.59 152.6C217.12 152.7 216.66 152.78 216.19 152.84C215.72 152.9 215.25 152.95 214.78 152.98C214.31 153.02 213.83 153.03 213.36 153.03L213.36 153.03Z" />
	</g>
	<g id="_Group_25">
		<path id="_Path_42" fill-rule="evenodd" class="shp7" d="M188.22 94.59C187.95 94.59 187.69 94.5 187.48 94.33C187.27 94.16 187.12 93.92 187.07 93.66C187.01 93.39 187.05 93.12 187.17 92.88C187.3 92.64 187.5 92.45 187.75 92.34C188.75 91.89 189.79 91.52 190.85 91.22C191.91 90.92 192.99 90.69 194.09 90.54C195.18 90.39 196.28 90.31 197.38 90.31C198.48 90.31 199.58 90.39 200.67 90.54C201 90.56 201.29 90.72 201.49 90.97C201.7 91.22 201.79 91.55 201.74 91.87C201.7 92.19 201.53 92.47 201.26 92.66C201 92.85 200.67 92.92 200.36 92.86C199.37 92.73 198.38 92.66 197.38 92.66C196.39 92.67 195.4 92.74 194.41 92.87C193.43 93.01 192.46 93.21 191.5 93.48C190.54 93.75 189.61 94.09 188.7 94.48C188.66 94.5 188.62 94.52 188.58 94.53C188.54 94.54 188.5 94.55 188.46 94.56C188.42 94.57 188.38 94.58 188.34 94.58C188.3 94.59 188.26 94.59 188.22 94.59L188.22 94.59Z" />
	</g>
	<g id="_Group_26">
		<path id="_Path_43" fill-rule="evenodd" class="shp7" d="M208.6 130.58C207.91 130.58 207.23 130.52 206.55 130.39C205.88 130.27 205.22 130.07 204.59 129.81C203.95 129.55 203.34 129.23 202.77 128.85C202.2 128.48 201.67 128.04 201.18 127.56C201.04 127.42 200.9 127.27 200.77 127.11C200.65 126.95 200.53 126.78 200.43 126.61C200.33 126.43 200.24 126.25 200.16 126.06C200.09 125.88 200.02 125.68 199.98 125.49C199.95 125.24 199.93 124.98 199.94 124.73C199.95 124.48 199.98 124.23 200.03 123.98C200.08 123.73 200.14 123.48 200.23 123.25C200.31 123.01 200.42 122.78 200.54 122.56C205.09 112.18 206.44 102.85 204.56 94.81C204.55 94.77 204.54 94.72 204.53 94.68C204.52 94.64 204.51 94.61 204.5 94.57C204.48 94.53 204.47 94.49 204.45 94.45C204.43 94.41 204.41 94.38 204.39 94.34C204.25 94.3 204.12 94.24 204 94.14C203.89 94.05 203.79 93.94 203.72 93.8C203.65 93.67 203.61 93.53 203.6 93.38C203.59 93.23 203.61 93.09 203.66 92.95C203.71 92.8 203.79 92.66 203.89 92.54C203.99 92.42 204.12 92.32 204.26 92.25C204.4 92.18 204.56 92.13 204.71 92.12C204.87 92.11 205.03 92.13 205.18 92.17C205.4 92.26 205.61 92.37 205.8 92.51C205.99 92.65 206.15 92.81 206.3 92.99C206.45 93.18 206.56 93.38 206.66 93.59C206.75 93.81 206.81 94.04 206.84 94.27C208.84 102.82 207.44 112.65 202.68 123.5C202.62 123.61 202.56 123.73 202.51 123.86C202.46 123.98 202.42 124.11 202.38 124.24C202.35 124.37 202.32 124.5 202.3 124.63C202.28 124.76 202.28 124.89 202.27 125.03C202.3 125.11 202.34 125.2 202.38 125.28C202.42 125.36 202.46 125.44 202.51 125.52C202.56 125.59 202.62 125.66 202.68 125.73C202.74 125.8 202.8 125.86 202.87 125.92C203.5 126.55 204.23 127.06 205.03 127.45C205.83 127.83 206.69 128.08 207.57 128.19C208.45 128.29 209.35 128.25 210.22 128.07C211.08 127.88 211.92 127.55 212.68 127.1C212.94 126.93 213.26 126.88 213.56 126.95C213.87 127.02 214.13 127.2 214.3 127.47C214.46 127.73 214.52 128.05 214.45 128.35C214.38 128.65 214.19 128.92 213.93 129.08C213.53 129.33 213.12 129.55 212.69 129.74C212.26 129.92 211.82 130.08 211.37 130.21C210.92 130.33 210.46 130.43 210 130.49C209.53 130.55 209.06 130.58 208.6 130.58L208.6 130.58Z" />
	</g>
	<path id="_Path_44" fill-rule="evenodd" class="shp6" d="M207.2 210.3C212.26 224.58 223.69 231.73 241.51 231.73C268.24 231.74 278.13 219.03 287.21 211.12L293.63 214.49C287.61 230.56 270.22 238.66 241.45 238.77C218.61 238.86 205.31 230.81 201.54 214.62L207.2 210.3Z" />
	<g id="_Group_27">
		<path id="_Path_45" fill-rule="evenodd" class="shp4" d="M271.37 691.76C257.23 690.37 243.47 686.44 230.73 680.15C218 673.85 206.52 665.31 196.83 654.92C187.15 644.53 179.43 632.48 174.05 619.34C168.66 606.2 165.71 592.19 165.32 578L167.67 577.94C168.05 591.85 170.95 605.57 176.22 618.45C181.5 631.32 189.06 643.14 198.55 653.32C208.04 663.5 219.3 671.87 231.78 678.04C244.25 684.21 257.75 688.06 271.6 689.42L271.37 691.76Z" />
	</g>
	<g id="_Group_28">
		<path id="_Path_46" fill-rule="evenodd" class="shp4" d="M192.17 613.87C189.23 609.45 186.61 604.84 184.31 600.06C182.01 595.28 180.05 590.35 178.42 585.3C176.8 580.26 175.53 575.1 174.61 569.88C173.7 564.66 173.15 559.38 172.96 554.08L175.3 554C175.49 559.19 176.03 564.36 176.93 569.48C177.83 574.59 179.07 579.64 180.66 584.58C182.25 589.53 184.18 594.36 186.43 599.04C188.68 603.72 191.25 608.24 194.13 612.57L192.17 613.87Z" />
	</g>
	<g id="_Group_29">
		<path id="_Path_47" fill-rule="evenodd" class="shp4" d="M166.31 329.68L166.02 327.35C176.43 326.04 186.76 324.09 196.94 321.5C207.12 318.92 217.12 315.7 226.9 311.87C236.68 308.04 246.21 303.61 255.44 298.61C264.67 293.6 273.58 288.02 282.11 281.91L283.48 283.82C274.86 289.99 265.87 295.62 256.56 300.67C247.24 305.72 237.62 310.2 227.76 314.06C217.89 317.92 207.79 321.17 197.52 323.78C187.25 326.39 176.82 328.36 166.31 329.68L166.31 329.68Z" />
	</g>
	<g id="_Group_30">
		<path id="_Path_48" fill-rule="evenodd" class="shp10" d="M244.95 240.03C243.79 240.03 242.6 240 241.39 239.94C203.53 238.18 200.4 214.98 200.37 214.75L202.71 214.47C202.82 215.35 205.74 235.93 241.51 237.6C277.62 239.3 292.46 214.16 292.61 213.9L294.65 215.07C294.5 215.33 279.97 240.03 244.95 240.03Z" />
	</g>
	<g id="_Group_31">
		<path id="_Path_49" fill-rule="evenodd" class="shp10" d="M119.62 370.8L117.27 370.75C118.15 323.94 105.82 298.72 105.7 298.47L107.8 297.42C107.93 297.68 120.51 323.41 119.62 370.8Z" />
	</g>
	<g id="_Group_32">
		<path id="_Path_50" fill-rule="evenodd" class="shp10" d="M118.99 348.13L116.65 348.01C117.31 334.49 117.32 301.47 117.32 301.14L119.66 301.14C119.66 301.48 119.66 334.55 118.99 348.13Z" />
	</g>
	<g id="_Group_33">
		<path id="_Path_51" fill-rule="evenodd" class="shp10" d="M59.05 283.95L58.14 281.78C59 281.42 79.51 272.94 93.44 281.88L92.18 283.85C79.3 275.6 59.25 283.86 59.05 283.95Z" />
	</g>
	<g id="_Group_34">
		<path id="_Path_52" fill-rule="evenodd" class="shp10" d="M370.97 397.03C370.7 394.08 364.67 324.6 375.02 297.53L377.22 298.37C367.06 324.93 373.24 396.1 373.31 396.82L370.97 397.03Z" />
	</g>
	<g id="_Group_35">
		<path id="_Path_53" fill-rule="evenodd" class="shp10" d="M421.64 270.24C404.84 260.41 391.73 269.77 391.18 270.17L389.79 268.28C389.93 268.18 404.64 257.57 422.83 268.21L421.64 270.24Z" />
	</g>
	<g id="_Group_36">
		<path id="_Path_54" fill-rule="evenodd" class="shp10" d="M368.16 347.75C365.31 337.31 368.01 310.15 368.13 309L370.47 309.24C370.44 309.51 367.69 337.11 370.43 347.12L368.16 347.75Z" />
	</g>
	<g id="_Group_37">
		<path id="_Path_55" fill-rule="evenodd" class="shp10" d="M451.34 419.9C446.39 415.63 441.65 411.12 437.14 406.4C432.63 401.67 428.35 396.73 424.31 391.58C420.28 386.44 416.5 381.11 412.98 375.6C409.47 370.09 406.22 364.41 403.26 358.59L405.36 357.53C408.28 363.28 411.49 368.89 414.97 374.34C418.44 379.78 422.18 385.05 426.16 390.14C430.15 395.22 434.38 400.1 438.84 404.77C443.3 409.44 447.98 413.9 452.88 418.11L451.34 419.9Z" />
	</g>
	<g id="_Group_38">
		<path id="_Path_56" fill-rule="evenodd" class="shp10" d="M420.72 375.29C419.36 373.7 418.05 372.06 416.79 370.39C415.53 368.71 414.32 367 413.17 365.25C412.01 363.5 410.92 361.71 409.87 359.89C408.83 358.07 407.85 356.22 406.92 354.34L409.04 353.3C409.94 355.14 410.9 356.95 411.92 358.73C412.93 360.5 414 362.25 415.13 363.96C416.25 365.67 417.43 367.34 418.66 368.98C419.89 370.61 421.18 372.21 422.51 373.77L420.72 375.29Z" />
	</g>
	<g id="_Group_39">
		<path id="_Path_57" fill-rule="evenodd" class="shp10" d="M36.77 382.99L34.92 381.55C38.74 376.65 42.89 372.02 47.33 367.67C51.77 363.33 56.51 359.3 61.5 355.59C66.49 351.89 71.72 348.53 77.16 345.53C82.6 342.53 88.24 339.9 94.04 337.67L94.88 339.86C89.19 342.06 83.64 344.64 78.29 347.59C72.94 350.53 67.8 353.84 62.9 357.48C57.99 361.12 53.34 365.09 48.97 369.35C44.6 373.62 40.53 378.18 36.77 382.99L36.77 382.99Z" />
	</g>
	<g id="_Group_40">
		<path id="_Path_58" fill-rule="evenodd" class="shp10" d="M79.29 357.09L77.69 355.37C79.19 353.98 80.74 352.64 82.34 351.36C83.94 350.09 85.59 348.87 87.28 347.72C88.97 346.57 90.7 345.48 92.48 344.46C94.25 343.44 96.06 342.49 97.91 341.6L98.92 343.72C97.13 344.58 95.37 345.51 93.65 346.5C91.93 347.49 90.24 348.54 88.6 349.66C86.96 350.78 85.36 351.96 83.8 353.2C82.25 354.44 80.74 355.74 79.29 357.09L79.29 357.09Z" />
	</g>
	<g id="_Group_41">
		<path id="_Path_59" fill-rule="evenodd" class="shp7" d="M329.07 501.04C329.05 501.04 329.03 501.04 329 501.04C328.98 501.04 328.96 501.04 328.94 501.04C328.92 501.03 328.89 501.03 328.87 501.03C328.85 501.02 328.83 501.02 328.81 501.01C202.65 472.19 104.42 433.1 103.44 432.71C103.15 432.6 102.92 432.37 102.8 432.08C102.67 431.8 102.67 431.47 102.79 431.19C102.9 430.9 103.13 430.67 103.42 430.54C103.7 430.42 104.03 430.42 104.32 430.53C105.29 430.92 203.36 469.94 329.34 498.73C329.62 498.79 329.86 498.96 330.03 499.19C330.2 499.43 330.27 499.72 330.24 500C330.21 500.29 330.07 500.56 329.85 500.75C329.64 500.94 329.36 501.05 329.07 501.04Z" />
	</g>
	<g id="_Group_42">
		<path id="_Path_60" fill-rule="evenodd" class="shp7" d="M112.7 435.01C112.67 435.01 112.65 435.01 112.62 435.01C112.6 435.01 112.58 435.01 112.55 435C112.53 435 112.5 435 112.48 434.99C112.46 434.99 112.43 434.98 112.41 434.98C111.01 434.59 109.61 434.18 108.22 433.75C106.83 433.32 105.44 432.87 104.07 432.39C102.69 431.92 101.33 431.42 99.97 430.9C98.61 430.38 97.26 429.83 95.91 429.27C87.09 425.78 78.76 422.47 69.37 422.15C65.76 422.07 62.16 422.27 58.59 422.74C55.02 423.21 51.49 423.96 48.03 424.98C44.57 426 41.2 427.28 37.94 428.82C34.69 430.36 31.55 432.15 28.57 434.17C28.31 434.33 28 434.38 27.7 434.32C27.41 434.25 27.15 434.08 26.98 433.82C26.81 433.57 26.74 433.26 26.8 432.97C26.85 432.67 27.01 432.4 27.26 432.22C30.34 430.12 33.58 428.27 36.95 426.68C40.32 425.08 43.8 423.76 47.38 422.7C50.95 421.65 54.6 420.88 58.3 420.39C61.99 419.91 65.72 419.71 69.45 419.81C79.24 420.14 88.15 423.67 96.78 427.09C98.09 427.64 99.42 428.18 100.76 428.69C102.09 429.2 103.43 429.69 104.78 430.16C106.14 430.63 107.49 431.07 108.86 431.5C110.23 431.92 111.6 432.32 112.98 432.7C113.25 432.77 113.5 432.94 113.66 433.17C113.82 433.41 113.89 433.7 113.85 433.98C113.82 434.26 113.68 434.52 113.47 434.71C113.26 434.9 112.98 435.01 112.7 435.01L112.7 435.01Z" />
	</g>
	<g id="_Group_43">
		<path id="_Path_61" fill-rule="evenodd" class="shp7" d="M358.58 457.82C355.9 457.82 352.24 454.03 347.53 449.14C344.33 445.82 340.7 442.05 337.43 439.71C329.39 433.97 284.83 429.14 284.38 429.09C284.07 429.06 283.79 428.9 283.59 428.66C283.4 428.42 283.3 428.11 283.34 427.8C283.37 427.49 283.53 427.2 283.77 427.01C284.01 426.81 284.32 426.72 284.63 426.75C286.49 426.95 330.26 431.71 338.8 437.8C342.24 440.26 345.95 444.11 349.22 447.51C352.4 450.8 357.7 456.31 358.76 455.38C360.71 453.68 357.4 444.73 350.05 435.29C344.16 427.71 329.14 426.61 328.99 426.6C328.84 426.59 328.69 426.55 328.55 426.48C328.41 426.41 328.29 426.31 328.18 426.2C328.08 426.08 328.01 425.95 327.96 425.8C327.91 425.65 327.89 425.5 327.9 425.34C327.91 425.19 327.95 425.04 328.02 424.91C328.09 424.77 328.19 424.65 328.3 424.55C328.42 424.44 328.55 424.37 328.7 424.32C328.84 424.27 329 424.24 329.15 424.25C329.81 424.3 345.37 425.45 351.91 433.85C357.62 441.18 364.56 453.45 360.3 457.15C360.19 457.26 360.06 457.35 359.93 457.44C359.79 457.52 359.65 457.59 359.5 457.65C359.35 457.7 359.2 457.75 359.05 457.78C358.89 457.8 358.73 457.82 358.58 457.82Z" />
	</g>
	<g id="_Group_44">
		<path id="_Path_62" fill-rule="evenodd" class="shp7" d="M366.98 457.82C366.94 457.82 366.9 457.82 366.85 457.81C366.81 457.81 366.76 457.8 366.72 457.8C366.68 457.79 366.64 457.78 366.59 457.77C366.55 457.76 366.51 457.75 366.47 457.73C365.89 457.5 365.33 457.26 364.76 457C364.2 456.75 363.65 456.49 363.09 456.21C362.54 455.93 362 455.65 361.46 455.35C360.92 455.05 360.38 454.74 359.86 454.42C359.6 454.26 359.41 454 359.34 453.7C359.27 453.4 359.32 453.08 359.48 452.82C359.64 452.56 359.89 452.37 360.19 452.29C360.49 452.21 360.8 452.25 361.07 452.41C361.53 452.68 362 452.95 362.47 453.21C362.94 453.48 363.41 453.73 363.89 453.98C364.37 454.22 364.86 454.46 365.34 454.69C365.83 454.92 366.32 455.14 366.82 455.36C367.63 454.22 369.13 449.44 369.64 443.44C370.14 437.52 369.47 433.05 367.79 431.16C363.15 425.95 350.94 420.18 348.83 420.04C348.6 420.17 348.32 420.21 348.06 420.16C347.8 420.11 347.56 419.97 347.39 419.77C347.22 419.56 347.12 419.31 347.11 419.04C347.1 418.77 347.19 418.51 347.35 418.3C347.42 418.2 347.51 418.12 347.6 418.04C347.7 417.97 347.8 417.9 347.91 417.85C348.02 417.8 348.14 417.76 348.25 417.73C348.37 417.71 348.49 417.7 348.61 417.7C351.99 417.7 364.88 424.37 369.54 429.6C374.37 435.03 371.51 452.5 368.79 456.61C368.7 456.78 368.6 456.94 368.47 457.08C368.35 457.22 368.2 457.35 368.05 457.45C367.89 457.56 367.72 457.64 367.54 457.7C367.36 457.76 367.17 457.8 366.98 457.82Z" />
	</g>
	<g id="_Group_45">
		<path id="_Compound_Path_3" fill-rule="evenodd" class="shp7" d="M378.28 461.71C378.21 461.71 378.14 461.71 378.06 461.7C377.99 461.69 377.92 461.68 377.85 461.66C377.77 461.65 377.7 461.63 377.63 461.6C377.56 461.58 377.5 461.55 377.43 461.52C375.7 460.74 375.42 458.04 374.95 453.56C374.3 447.39 373.33 438.07 367.75 431.12C367.56 430.87 367.47 430.56 367.51 430.25C367.54 429.95 367.7 429.66 367.94 429.47C368.18 429.28 368.49 429.19 368.8 429.22C369.1 429.25 369.39 429.41 369.58 429.65C375.6 437.14 376.61 446.87 377.29 453.31C377.55 455.79 377.87 458.88 378.41 459.38C378.64 459.19 378.86 458.98 379.07 458.76C379.28 458.55 379.48 458.32 379.67 458.09C379.85 457.85 380.03 457.61 380.2 457.36C380.36 457.11 380.52 456.85 380.66 456.58C383.76 451.57 386.16 443.98 385.74 442.58C385.33 441.17 384.89 439.77 384.43 438.37C383.97 436.98 383.49 435.59 382.98 434.21C382.48 432.83 381.95 431.46 381.4 430.1C380.85 428.73 380.28 427.38 379.68 426.04C377.79 422.14 366.77 415.42 362.68 413.16C362.41 413 362.22 412.75 362.13 412.45C362.05 412.16 362.09 411.84 362.24 411.57C362.39 411.3 362.64 411.1 362.93 411.01C363.23 410.93 363.55 410.96 363.82 411.1C365.39 411.97 379.24 419.74 381.8 425.01C382.41 426.38 382.99 427.77 383.56 429.16C384.12 430.55 384.66 431.95 385.18 433.36C385.69 434.77 386.19 436.19 386.66 437.61C387.13 439.04 387.57 440.47 388 441.91C388.97 445.16 383.87 457.7 380.32 460.8C380.18 460.94 380.04 461.06 379.88 461.16C379.72 461.27 379.56 461.37 379.38 461.44C379.21 461.52 379.03 461.58 378.85 461.63C378.66 461.67 378.47 461.7 378.28 461.71Z" />
	</g>
	<g id="_Group_46">
		<path id="_Path_63" fill-rule="evenodd" class="shp7" d="M402.37 448.86C402.24 448.86 402.12 448.85 402 448.83C401.88 448.82 401.76 448.8 401.64 448.77C401.52 448.74 401.41 448.7 401.29 448.66C401.18 448.62 401.07 448.57 400.96 448.52C397.51 446.82 394.63 438.39 394.13 436.84C392.92 434.96 391.26 432.44 388.38 430.98C385.17 429.36 380.22 426.58 380.17 426.55C379.91 426.39 379.73 426.14 379.65 425.84C379.58 425.55 379.62 425.24 379.77 424.98C379.91 424.71 380.16 424.52 380.45 424.43C380.74 424.34 381.05 424.37 381.32 424.51C381.37 424.53 386.28 427.29 389.44 428.89C392.96 430.67 394.91 433.69 396.2 435.7C396.21 435.72 396.22 435.74 396.23 435.76C396.25 435.79 396.26 435.81 396.27 435.83C396.28 435.86 396.29 435.88 396.3 435.9C396.31 435.93 396.32 435.95 396.33 435.98C397.44 439.48 399.97 445.41 402 446.41C402.04 446.44 402.08 446.46 402.12 446.47C402.17 446.49 402.21 446.5 402.26 446.51C402.3 446.51 402.35 446.51 402.4 446.51C402.44 446.51 402.49 446.5 402.53 446.48C402.82 446.38 403.14 446.41 403.42 446.54C403.69 446.67 403.9 446.91 404.01 447.2C404.11 447.48 404.1 447.8 403.98 448.08C403.85 448.36 403.62 448.58 403.34 448.69C403.26 448.72 403.18 448.74 403.1 448.76C403.02 448.78 402.94 448.8 402.86 448.82C402.78 448.83 402.69 448.84 402.61 448.85C402.53 448.86 402.45 448.86 402.37 448.86Z" />
	</g>
</svg>