<svg version="1.2" baseProfile="tiny-ps" xmlns="http://www.w3.org/2000/svg" viewBox="0 0 414 1420" width="414" height="1420">
	<title>underWeight-svg</title>
	<style>
		tspan { white-space:pre }
		.shp0 { fill: #f9a485 } 
		.shp1 { fill: #65a6ce } 
		.shp2 { fill: #4c7d9b } 
		.shp3 { fill: #3b344a } 
		.shp4 { fill: #85504c } 
		.shp5 { fill: #e8e6e9 } 
		.shp6 { fill: #e07560 } 
		.shp7 { fill: #1e1a25 } 
		.shp8 { fill: #a5b1c7 } 
		.shp9 { fill: #d5d1d8 } 
	</style>
	<path id="_Path_" fill-rule="evenodd" class="shp0" d="M367.23 1037.92C283.08 1225.91 240.15 1324.58 238.44 1333.95C235.88 1348.01 210.34 1346.63 209.14 1331.28C208.76 1326.47 209.14 1316.97 210.29 1302.77C237.54 1185.84 254.67 1117.11 261.67 1096.58C272.18 1065.78 308.06 1010.31 314.87 1006.16C319.4 1003.4 336.86 1013.98 367.23 1037.92Z" />
	<path id="_Path_2" fill-rule="evenodd" class="shp0" d="M183.19 1019.28C197.18 1059.33 203.71 1088.85 202.77 1107.82C201.38 1136.28 174.39 1316.99 170.2 1313.83C167.4 1311.72 154.31 1310.91 130.92 1311.39C124.74 1192.54 122.58 1121 124.45 1096.75C126.31 1072.51 134.67 1035.09 149.52 984.5L183.19 1019.28Z" />
	<path id="_Path_3" fill-rule="evenodd" class="shp1" d="M277.4 566.66C301.63 616.2 314.79 642.55 316.9 645.71C320.06 650.46 416.45 903.86 413.29 935.48C411.18 956.56 392.9 1005.67 358.44 1082.82C331.86 1095.68 305.41 1084.19 279.07 1048.36C306.4 982.6 320.06 943.92 320.06 932.32C320.06 914.93 246.85 696.3 238.95 694.73C233.68 693.67 223.35 696.84 207.95 704.21C213.69 858.39 216.17 940.22 215.38 949.71C214.59 959.2 212.32 1004.91 208.57 1086.85C203.7 1098.72 188.67 1105.71 163.48 1107.82C138.3 1109.93 123.08 1102.33 117.83 1085.01C143.07 990.63 153.09 940.27 147.9 933.95C140.12 924.47 117.07 680.5 119.02 647.29C120.32 625.16 124.65 610.41 132.03 603.02L277.4 566.66Z" />
	<g id="_Group_">
		<path id="_Path_4" fill-rule="evenodd" class="shp2" d="M228.67 697.29C228.43 697.29 228.19 697.22 228 697.08C227.8 696.94 227.65 696.74 227.56 696.51C227.48 696.28 227.47 696.03 227.54 695.8C227.6 695.56 227.74 695.36 227.92 695.2C236.09 688.49 235.16 675.42 234.55 666.78C232.54 638.61 227.79 611.52 219.61 581.54C219.53 581.23 219.57 580.91 219.73 580.64C219.88 580.37 220.14 580.17 220.44 580.09C220.74 580 221.07 580.04 221.34 580.2C221.61 580.36 221.81 580.61 221.89 580.91C230.11 611.06 234.89 638.29 236.9 666.61C237.55 675.74 238.53 689.53 229.42 697.03C229.37 697.07 229.31 697.11 229.26 697.14C229.2 697.17 229.14 697.2 229.07 697.22C229.01 697.25 228.94 697.26 228.88 697.28C228.81 697.29 228.74 697.29 228.67 697.29Z" />
	</g>
	<g id="_Group_2">
		<path id="_Path_5" fill-rule="evenodd" class="shp2" d="M230.16 675.19C229.17 675.22 228.18 675.13 227.21 674.93C226.24 674.72 225.3 674.4 224.4 673.98C223.51 673.55 222.66 673.02 221.89 672.4C221.12 671.77 220.43 671.06 219.82 670.27C213.73 662.46 204.16 588.1 203.76 584.94C203.72 584.63 203.8 584.31 203.99 584.07C204.18 583.82 204.47 583.66 204.78 583.62C205.09 583.58 205.4 583.66 205.65 583.85C205.9 584.05 206.06 584.33 206.1 584.64C208.83 606 216.96 662.76 221.68 668.82C226.99 675.63 235.73 671.84 236.1 671.68C236.38 671.56 236.7 671.55 236.99 671.67C237.28 671.78 237.51 672 237.63 672.28C237.76 672.56 237.77 672.88 237.66 673.17C237.56 673.46 237.34 673.7 237.07 673.83C236.52 674.05 235.96 674.25 235.39 674.41C234.83 674.58 234.26 674.72 233.68 674.84C233.1 674.95 232.51 675.04 231.93 675.1C231.34 675.15 230.75 675.19 230.16 675.19L230.16 675.19Z" />
	</g>
	<g id="_Group_3">
		<path id="_Path_6" fill-rule="evenodd" class="shp2" d="M241.94 698.55C241.76 698.55 241.57 698.5 241.41 698.42C241.24 698.34 241.1 698.21 240.99 698.06C240.88 697.91 240.81 697.74 240.78 697.56C240.75 697.37 240.76 697.18 240.82 697.01C241.81 693.96 243.05 691.01 244.55 688.18C246.04 685.35 247.77 682.65 249.72 680.11C251.67 677.58 253.83 675.21 256.18 673.05C258.54 670.88 261.07 668.91 263.76 667.18C264.02 667.01 264.34 666.95 264.65 667.02C264.95 667.09 265.22 667.27 265.39 667.54C265.55 667.8 265.61 668.12 265.54 668.42C265.48 668.73 265.29 669 265.03 669.17C262.46 670.83 260.03 672.71 257.78 674.78C255.53 676.86 253.46 679.12 251.59 681.55C249.72 683.98 248.07 686.56 246.64 689.27C245.21 691.98 244.02 694.81 243.07 697.72C243.03 697.84 242.98 697.96 242.9 698.06C242.83 698.16 242.74 698.25 242.64 698.32C242.54 698.39 242.43 698.45 242.31 698.49C242.19 698.53 242.07 698.55 241.94 698.55Z" />
	</g>
	<g id="_Group_4">
		<path id="_Path_7" fill-rule="evenodd" class="shp2" d="M209.8 705.16C209.75 705.16 209.69 705.15 209.63 705.15C209.57 705.14 209.51 705.12 209.46 705.11C209.4 705.09 209.35 705.07 209.29 705.04C209.24 705.02 209.19 704.99 209.14 704.95C206.56 703.2 203.85 701.65 201.04 700.3C198.22 698.96 195.31 697.83 192.33 696.92C189.34 696.02 186.3 695.34 183.21 694.9C180.12 694.45 177.01 694.24 173.89 694.27C173.58 694.27 173.28 694.15 173.05 693.93C172.83 693.71 172.7 693.41 172.7 693.1C172.69 692.79 172.81 692.48 173.03 692.26C173.25 692.04 173.55 691.91 173.86 691.9C177.1 691.88 180.33 692.1 183.54 692.56C186.74 693.03 189.91 693.73 193.01 694.67C196.11 695.61 199.13 696.78 202.05 698.18C204.97 699.57 207.79 701.18 210.47 703C210.67 703.15 210.83 703.35 210.91 703.59C211 703.83 211 704.08 210.93 704.32C210.85 704.57 210.7 704.78 210.5 704.93C210.3 705.08 210.06 705.16 209.8 705.16L209.8 705.16Z" />
	</g>
	<g id="_Group_5">
		<path id="_Path_8" fill-rule="evenodd" class="shp2" d="M385.81 955.58C385.7 955.58 385.58 955.56 385.47 955.53C385.35 955.49 385.25 955.44 385.15 955.38C385.05 955.31 384.96 955.23 384.89 955.14C384.82 955.04 384.76 954.94 384.71 954.83C383.71 952.26 382.84 949.64 382.13 946.98C381.41 944.32 380.84 941.61 380.42 938.89C380.01 936.16 379.74 933.41 379.63 930.66C379.51 927.9 379.55 925.14 379.75 922.39C379.75 922.06 379.89 921.75 380.13 921.53C380.37 921.3 380.69 921.19 381.01 921.22C381.34 921.24 381.64 921.4 381.85 921.65C382.05 921.91 382.14 922.24 382.1 922.56C381.91 925.22 381.87 927.9 381.98 930.56C382.09 933.23 382.35 935.89 382.75 938.53C383.16 941.17 383.71 943.78 384.4 946.36C385.09 948.94 385.93 951.48 386.91 953.96C386.96 954.11 386.99 954.26 386.99 954.42C386.99 954.57 386.95 954.73 386.89 954.87C386.83 955.01 386.74 955.14 386.63 955.25C386.52 955.35 386.39 955.44 386.24 955.5C386.21 955.51 386.17 955.52 386.14 955.53C386.1 955.54 386.07 955.55 386.03 955.56C386 955.57 385.96 955.57 385.92 955.57C385.89 955.58 385.85 955.58 385.81 955.58L385.81 955.58Z" />
	</g>
	<g id="_Group_6">
		<path id="_Path_9" fill-rule="evenodd" class="shp2" d="M182.22 955.51C182.11 955.51 182 955.49 181.89 955.46C181.79 955.43 181.68 955.39 181.59 955.33C181.5 955.27 181.41 955.2 181.34 955.12C181.27 955.04 181.2 954.94 181.16 954.85L168.38 928.89C168.24 928.61 168.22 928.29 168.32 927.99C168.42 927.7 168.63 927.45 168.92 927.31C169.2 927.17 169.52 927.15 169.82 927.25C170.11 927.36 170.36 927.57 170.5 927.85L183.27 953.8C183.34 953.94 183.38 954.09 183.39 954.25C183.4 954.4 183.38 954.56 183.33 954.71C183.28 954.85 183.2 954.99 183.1 955.1C183 955.22 182.88 955.32 182.74 955.38C182.7 955.4 182.65 955.42 182.61 955.44C182.57 955.45 182.53 955.46 182.48 955.48C182.44 955.49 182.4 955.49 182.35 955.5C182.31 955.5 182.26 955.51 182.22 955.51Z" />
	</g>
	<g id="_Group_7">
		<path id="_Path_10" fill-rule="evenodd" class="shp2" d="M157.5 960.5C157.36 960.5 157.22 960.48 157.1 960.43C156.97 960.38 156.85 960.31 156.74 960.23C156.64 960.14 156.55 960.04 156.48 959.92C156.41 959.8 156.36 959.67 156.34 959.54C155.92 957.35 155.43 955.18 154.85 953.03C154.28 950.88 153.63 948.75 152.9 946.65C152.16 944.55 151.36 942.47 150.47 940.43C149.59 938.39 148.63 936.38 147.6 934.41C147.46 934.13 147.44 933.81 147.53 933.51C147.63 933.22 147.84 932.97 148.11 932.83C148.39 932.69 148.71 932.66 149 932.75C149.3 932.84 149.55 933.04 149.7 933.32C150.75 935.34 151.74 937.4 152.64 939.5C153.55 941.59 154.38 943.72 155.13 945.88C155.88 948.03 156.55 950.22 157.13 952.42C157.72 954.63 158.23 956.86 158.66 959.1C158.69 959.25 158.68 959.41 158.65 959.56C158.62 959.71 158.56 959.86 158.47 959.98C158.39 960.11 158.27 960.22 158.14 960.31C158.01 960.39 157.87 960.45 157.72 960.48C157.7 960.48 157.68 960.48 157.66 960.49C157.64 960.49 157.62 960.49 157.61 960.49C157.59 960.5 157.57 960.5 157.55 960.5C157.53 960.5 157.51 960.5 157.5 960.5Z" />
	</g>
	<g id="_Group_8">
		<path id="_Path_11" fill-rule="evenodd" class="shp2" d="M344.98 956.22C344.93 956.22 344.89 956.22 344.84 956.21C344.79 956.21 344.75 956.2 344.7 956.19C344.66 956.18 344.61 956.16 344.57 956.15C344.52 956.13 344.48 956.11 344.44 956.09C341.93 954.77 339.51 953.28 337.21 951.62C334.91 949.96 332.73 948.14 330.68 946.18C328.63 944.22 326.73 942.11 324.97 939.88C323.22 937.65 321.63 935.3 320.21 932.84C320.06 932.57 320.02 932.25 320.1 931.95C320.19 931.65 320.38 931.4 320.65 931.24C320.92 931.09 321.24 931.05 321.54 931.13C321.84 931.21 322.1 931.4 322.26 931.67C323.62 934.02 325.15 936.28 326.83 938.43C328.52 940.57 330.35 942.59 332.31 944.48C334.28 946.36 336.38 948.11 338.59 949.7C340.8 951.29 343.12 952.73 345.53 953.99C345.76 954.12 345.95 954.31 346.06 954.56C346.17 954.8 346.19 955.07 346.13 955.32C346.06 955.58 345.92 955.81 345.71 955.97C345.5 956.13 345.25 956.22 344.98 956.22Z" />
	</g>
	<g id="_Group_9">
		<path id="_Path_12" fill-rule="evenodd" class="shp2" d="M330.87 958.93C330.77 958.93 330.67 958.91 330.57 958.89C330.48 958.86 330.38 958.83 330.29 958.78C330.21 958.73 330.13 958.67 330.05 958.6C329.98 958.53 329.92 958.45 329.87 958.37C328.59 956.31 327.4 954.2 326.29 952.05C325.18 949.89 324.16 947.7 323.22 945.47C322.28 943.24 321.43 940.97 320.66 938.67C319.89 936.38 319.22 934.05 318.63 931.7C318.56 931.4 318.6 931.08 318.77 930.81C318.93 930.54 319.19 930.35 319.49 930.27C319.79 930.19 320.12 930.24 320.38 930.4C320.65 930.56 320.85 930.82 320.92 931.13C321.49 933.42 322.15 935.69 322.9 937.93C323.65 940.16 324.48 942.37 325.39 944.55C326.31 946.73 327.31 948.86 328.39 950.96C329.47 953.06 330.63 955.12 331.87 957.13C331.99 957.3 332.05 957.51 332.05 957.72C332.06 957.93 332.01 958.14 331.91 958.32C331.8 958.51 331.65 958.66 331.47 958.77C331.29 958.87 331.08 958.93 330.87 958.93Z" />
	</g>
	<g id="_Group_10">
		<path id="_Path_13" fill-rule="evenodd" class="shp2" d="M164.84 1096.43C164.37 1096.43 163.91 1096.42 163.45 1096.4C135.21 1095.58 119.66 1078.73 119.01 1078.01C118.8 1077.78 118.69 1077.47 118.71 1077.16C118.72 1076.85 118.86 1076.55 119.1 1076.34C119.33 1076.13 119.63 1076.02 119.95 1076.04C120.26 1076.05 120.55 1076.19 120.76 1076.42C120.92 1076.59 136.32 1093.25 163.52 1094.04C190.53 1094.83 207.44 1071.05 207.61 1070.81C207.79 1070.56 208.06 1070.38 208.37 1070.33C208.67 1070.27 208.99 1070.34 209.24 1070.52C209.5 1070.69 209.68 1070.97 209.73 1071.27C209.79 1071.58 209.72 1071.9 209.54 1072.15C209.37 1072.4 192.39 1096.43 164.84 1096.43Z" />
	</g>
	<g id="_Group_11">
		<path id="_Path_14" fill-rule="evenodd" class="shp2" d="M345.81 1075.53C343.52 1075.53 341.23 1075.4 338.95 1075.13C336.67 1074.87 334.4 1074.47 332.17 1073.94C329.94 1073.41 327.74 1072.76 325.58 1071.98C323.42 1071.2 321.31 1070.29 319.25 1069.26C296.04 1057.78 283.4 1036.4 283.27 1036.19C283.12 1035.92 283.07 1035.6 283.15 1035.3C283.23 1035 283.43 1034.74 283.7 1034.58C283.97 1034.42 284.29 1034.38 284.59 1034.46C284.89 1034.53 285.15 1034.73 285.31 1035C285.43 1035.2 297.74 1055.99 320.3 1067.15C342.73 1078.25 362.79 1070.46 362.99 1070.38C363.13 1070.33 363.29 1070.3 363.44 1070.3C363.6 1070.3 363.75 1070.34 363.89 1070.4C364.03 1070.46 364.16 1070.55 364.27 1070.66C364.38 1070.77 364.46 1070.9 364.52 1071.05C364.58 1071.19 364.61 1071.34 364.6 1071.5C364.6 1071.65 364.57 1071.81 364.51 1071.95C364.45 1072.09 364.36 1072.22 364.25 1072.33C364.14 1072.43 364.01 1072.52 363.86 1072.57C362.42 1073.08 360.95 1073.53 359.47 1073.91C357.98 1074.29 356.48 1074.6 354.97 1074.85C353.46 1075.1 351.93 1075.28 350.41 1075.39C348.88 1075.51 347.35 1075.55 345.81 1075.53L345.81 1075.53Z" />
	</g>
	<g id="_Group_12">
		<path id="_Path_15" fill-rule="evenodd" class="shp2" d="M126.05 1084.54C126.02 1084.54 126 1084.54 125.98 1084.54C125.96 1084.54 125.94 1084.54 125.91 1084.53C125.89 1084.53 125.87 1084.53 125.85 1084.53C125.83 1084.52 125.8 1084.52 125.78 1084.51C125.63 1084.48 125.49 1084.42 125.36 1084.33C125.24 1084.24 125.13 1084.12 125.05 1083.99C124.96 1083.86 124.91 1083.71 124.88 1083.56C124.86 1083.41 124.86 1083.25 124.89 1083.1C125.06 1082.38 141.31 1011.12 148.38 984.19C155.34 957.68 157.14 921.07 152.01 910.29C147.95 901.77 140.52 815.32 135.1 752.2C133.37 732.16 131.89 714.84 130.85 704.09C126.67 660.8 130.8 603.52 130.85 602.94C130.88 602.63 131.03 602.35 131.26 602.15C131.5 601.95 131.8 601.85 132.11 601.87C132.42 601.89 132.71 602.04 132.91 602.27C133.11 602.5 133.22 602.8 133.2 603.11C133.16 603.68 129.05 660.78 133.2 703.86C134.24 714.63 135.73 731.95 137.45 752C142.56 811.39 150.27 901.14 154.14 909.27C159.56 920.66 157.87 957.36 150.67 984.79C143.61 1011.68 127.37 1082.91 127.2 1083.62C127.17 1083.75 127.12 1083.88 127.05 1083.99C126.98 1084.1 126.89 1084.2 126.78 1084.29C126.68 1084.37 126.56 1084.43 126.44 1084.48C126.31 1084.52 126.18 1084.54 126.05 1084.54L126.05 1084.54Z" />
	</g>
	<g id="_Group_13">
		<path id="_Path_16" fill-rule="evenodd" class="shp2" d="M131.05 692.51C130.83 692.51 130.61 692.45 130.43 692.33C130.24 692.22 130.09 692.06 129.99 691.86C129.89 691.67 129.85 691.45 129.87 691.23C129.89 691.01 129.97 690.8 130.1 690.63L140.15 676.97C149.84 663.79 147.49 599.56 147.47 598.91C147.46 598.76 147.49 598.6 147.54 598.46C147.6 598.31 147.68 598.18 147.78 598.06C147.89 597.95 148.02 597.86 148.16 597.79C148.3 597.73 148.45 597.69 148.6 597.69C148.76 597.68 148.91 597.71 149.06 597.76C149.2 597.82 149.33 597.9 149.45 598C149.56 598.11 149.65 598.23 149.72 598.37C149.78 598.51 149.82 598.67 149.83 598.82C149.93 601.5 152.23 664.53 142.05 678.37L132 692.03C131.94 692.1 131.88 692.17 131.81 692.23C131.74 692.29 131.66 692.34 131.58 692.38C131.5 692.42 131.41 692.46 131.32 692.48C131.23 692.5 131.14 692.51 131.05 692.51Z" />
	</g>
	<g id="_Group_14">
		<path id="_Path_17" fill-rule="evenodd" class="shp2" d="M313.11 639.85C313.07 639.85 313.02 639.84 312.98 639.84C312.94 639.83 312.89 639.83 312.85 639.82C312.81 639.81 312.77 639.79 312.72 639.78C312.68 639.77 312.64 639.75 312.6 639.73C311.98 639.44 297.29 632.32 286.37 621.4C272.85 607.86 259.69 572.85 259.13 571.36C259.02 571.07 259.04 570.75 259.17 570.46C259.3 570.18 259.53 569.96 259.83 569.85C260.12 569.74 260.44 569.75 260.73 569.88C261.01 570.01 261.23 570.25 261.34 570.54C261.48 570.9 274.88 606.55 288.04 619.73C298.67 630.36 313.48 637.53 313.62 637.6C313.87 637.72 314.06 637.91 314.18 638.15C314.29 638.39 314.32 638.67 314.26 638.93C314.2 639.19 314.06 639.42 313.85 639.59C313.64 639.76 313.38 639.85 313.11 639.85Z" />
	</g>
	<g id="_Group_15">
		<path id="_Path_18" fill-rule="evenodd" class="shp2" d="M131.62 700.54C131.38 700.54 131.15 700.46 130.95 700.33C130.75 700.19 130.6 700 130.52 699.78C130.43 699.56 130.41 699.31 130.47 699.08C130.53 698.85 130.65 698.64 130.83 698.48C131 698.32 148.36 682.6 151.96 672.37C155.59 662.03 156.31 593.95 156.31 593.27C156.32 592.95 156.45 592.65 156.67 592.44C156.89 592.22 157.19 592.09 157.51 592.1C157.82 592.1 158.12 592.23 158.34 592.45C158.56 592.68 158.68 592.98 158.68 593.29C158.65 596.11 157.95 662.45 154.19 673.15C150.39 683.95 133.14 699.58 132.4 700.24C132.35 700.29 132.29 700.33 132.23 700.37C132.17 700.4 132.11 700.44 132.04 700.46C131.97 700.49 131.9 700.51 131.83 700.52C131.76 700.53 131.69 700.54 131.62 700.54Z" />
	</g>
	<g id="_Group_16">
		<path id="_Path_19" fill-rule="evenodd" class="shp2" d="M316.9 646.9C316.87 646.9 316.84 646.89 316.81 646.89C316.78 646.89 316.75 646.89 316.72 646.88C316.69 646.88 316.66 646.87 316.63 646.86C316.6 646.86 316.58 646.85 316.55 646.84C315.64 646.56 294.2 639.71 279.55 626.03C264.87 612.33 252.56 574.99 252.04 573.41C251.95 573.11 251.97 572.79 252.11 572.51C252.25 572.23 252.5 572.02 252.8 571.92C253.1 571.83 253.42 571.85 253.7 571.99C253.98 572.13 254.19 572.38 254.29 572.68C254.41 573.06 266.91 611.02 281.15 624.3C295.41 637.61 317.03 644.52 317.25 644.59C317.52 644.67 317.75 644.85 317.9 645.09C318.05 645.33 318.11 645.61 318.07 645.89C318.02 646.17 317.88 646.43 317.67 646.61C317.45 646.79 317.18 646.9 316.9 646.9Z" />
	</g>
	<g id="_Group_17">
		<path id="_Path_20" fill-rule="evenodd" class="shp0" d="M324.23 314.69C354.58 408.34 370.28 457.27 371.33 461.48C372.91 467.81 380.81 486.78 371.33 505.75C365.01 518.4 314.45 600.61 309.71 595.87C306.54 592.71 301.43 580.59 294.36 559.51C307.7 505.75 318.58 476.76 327.01 472.54C335.44 468.32 319.13 440.92 278.1 390.33C302.73 333.75 318.11 308.53 324.23 314.69Z" />
		<path id="_Path_21" fill-rule="evenodd" class="shp3" d="M352.42 377.74C356.51 390.23 280.25 443.88 268.69 439.27C257.12 434.65 248.92 235.82 275.52 242.44C308.89 250.73 324.76 293.15 352.42 377.74Z" />
		<g id="_Group_18">
			<path id="_Path_22" fill-rule="evenodd" class="shp4" d="M365.83 475.74C365.78 475.74 365.73 475.74 365.67 475.73C365.62 475.72 365.57 475.71 365.52 475.7C365.47 475.68 365.42 475.67 365.37 475.65C365.32 475.63 365.28 475.6 365.23 475.58C354.7 469.37 340.88 467.97 327.33 471.74C327.02 471.82 326.7 471.78 326.43 471.63C326.16 471.48 325.96 471.22 325.87 470.92C325.79 470.62 325.83 470.29 325.98 470.02C326.14 469.75 326.39 469.55 326.69 469.46C340.87 465.52 355.35 467.02 366.43 473.54C366.65 473.67 366.83 473.87 366.92 474.11C367.02 474.35 367.04 474.62 366.97 474.87C366.9 475.12 366.75 475.34 366.55 475.5C366.34 475.66 366.09 475.74 365.83 475.74L365.83 475.74Z" />
		</g>
		<path id="_Path_23" fill-rule="evenodd" class="shp5" d="M82.75 417C100.2 470.3 113.09 533.92 112.92 542.61C112.69 555.25 111.67 584.36 109.85 629.93C141.11 638.56 173.84 640.77 208.04 636.56C242.26 632.34 271.69 614.51 296.32 583.08C283.58 546.18 275.63 522.46 272.47 511.91C267.71 496.12 273.35 404.58 278.09 390.33C279.35 386.54 280.99 375.44 282.68 360.98C287.35 320.96 292.31 255.38 289.98 249.56C287.88 244.3 250.88 229.57 178.97 205.35C154.28 204.37 47.4 238.56 42.66 268.6C40.09 284.86 62.1 354.02 82.75 417Z" />
		<path id="_Path_24" fill-rule="evenodd" class="shp3" d="M82.75 417C84.47 399.42 83.46 332.61 110.46 298.83C128.65 276.09 147.14 260.58 181.23 258.74C206.47 257.36 224.84 258.92 251.22 286.55C268.82 304.97 279.31 329.78 282.69 360.98C288.8 318.89 292.9 254.54 289.98 249.56C287.12 244.68 250.12 229.94 178.98 205.35C154.28 204.37 47.4 238.56 42.66 268.6C40.09 284.86 62.1 354.02 82.75 417Z" />
		<path id="_Path_25" fill-rule="evenodd" class="shp0" d="M74.26 416.98L52.15 487.6L143.26 586.13C134.27 600.89 128.38 607.83 125.59 606.94C121.41 605.61 -0.01 521.39 -0.01 508.83C-0.01 500.46 6.31 453.58 18.96 368.2C48.45 395.47 66.89 411.73 74.26 416.98Z" />
		<g id="_Group_19">
			<path id="_Path_26" fill-rule="evenodd" class="shp0" d="M179.29 629.39C179.42 629.2 179.54 628.99 179.63 628.77C179.72 628.55 179.79 628.33 179.83 628.09C179.87 627.86 179.89 627.62 179.88 627.38C179.87 627.15 179.84 626.91 179.78 626.68C179.14 622.42 177.14 619.49 174.1 616.69C172.73 615.42 169.09 611.4 166.93 611.92C168.08 611.65 169.26 611.49 170.44 611.45C171.62 611.41 172.8 611.5 173.97 611.7C175.13 611.9 176.27 612.22 177.38 612.65C178.48 613.08 179.53 613.62 180.53 614.26C181.19 614.7 181.85 615.16 182.49 615.64C183.13 616.12 183.76 616.62 184.37 617.13C184.98 617.65 185.58 618.18 186.17 618.73C186.75 619.27 187.32 619.84 187.87 620.42C189.63 622.28 191.17 625.27 193.88 625.88C195.8 626.31 198.15 624.17 197.16 622.37C198.45 624.01 201.49 623.13 201.81 621.03C202.02 619.64 200.96 618.48 200.46 617.21C196.38 607 189.91 599.49 181.24 595.36C191.04 596.44 195.23 608.69 203.37 614.54C204.78 615.55 207.07 616.27 207.86 614.68C207.93 614.43 207.98 614.18 208 613.92C208.02 613.67 208.01 613.41 207.97 613.16C207.94 612.9 207.87 612.65 207.78 612.41C207.68 612.17 207.56 611.95 207.42 611.73C203.96 604.88 198.48 599.42 193.1 594.07C188 589 185.22 584.39 177.78 582.87C174.04 582.1 170.31 581.27 166.57 580.49C155.82 578.24 144.71 576.11 133.68 577.1C130.31 577.4 128.28 577.04 127.38 580.13C126.72 582.37 127 584.77 126.16 587.04C125.06 590 122.57 592.41 121.87 595.52C120.09 603.46 127.34 610.67 133.77 613.81C141.3 617.49 149.94 618.51 158.14 619.7C158.92 619.77 159.69 619.88 160.46 620.03C161.24 620.17 162 620.35 162.75 620.57C163.51 620.78 164.25 621.03 164.98 621.31C165.72 621.59 166.44 621.91 167.14 622.26C170.27 624 172.62 626.86 175.52 628.95C176.59 629.73 178.13 630.38 179.14 629.54C179.16 629.53 179.17 629.52 179.18 629.51C179.19 629.49 179.21 629.48 179.22 629.47C179.23 629.46 179.24 629.44 179.25 629.43C179.26 629.42 179.28 629.41 179.29 629.39Z" />
			<g id="_Group_20">
				<path id="_Path_27" fill-rule="evenodd" class="shp4" d="M198.51 623.93C198.34 623.93 198.16 623.92 197.99 623.9C197.82 623.87 197.65 623.84 197.48 623.79C197.31 623.74 197.14 623.68 196.98 623.61C196.82 623.54 196.67 623.46 196.52 623.37C196.47 623.34 196.42 623.3 196.37 623.26C196.33 623.22 196.29 623.18 196.25 623.13C196.21 623.08 196.17 623.03 196.14 622.98C196.11 622.93 196.08 622.87 196.06 622.82C196.02 622.72 191.95 612.86 184.39 608C176.71 603.05 161.67 600.6 161.52 600.58C161.21 600.54 160.92 600.37 160.73 600.11C160.54 599.86 160.46 599.54 160.51 599.22C160.56 598.91 160.74 598.63 161 598.44C161.26 598.26 161.58 598.19 161.89 598.25C162.53 598.34 177.57 600.8 185.66 606.01C193.02 610.74 197.16 619.44 198.06 621.5C198.14 621.53 198.22 621.55 198.31 621.56C198.39 621.57 198.47 621.57 198.56 621.57C198.64 621.56 198.73 621.54 198.81 621.52C198.89 621.5 198.97 621.46 199.04 621.42C199.52 621.09 199.83 619.87 199.29 617.46C197.36 608.83 192.89 602.59 186.01 598.92C184.61 598.18 183.18 597.5 181.74 596.87C180.29 596.23 178.82 595.65 177.33 595.12C175.84 594.59 174.34 594.12 172.82 593.7C171.29 593.27 169.76 592.91 168.21 592.59C167.9 592.54 167.63 592.36 167.46 592.11C167.28 591.85 167.21 591.54 167.26 591.23C167.31 590.93 167.48 590.65 167.74 590.47C167.99 590.29 168.3 590.22 168.61 590.27C170.22 590.59 171.82 590.96 173.4 591.4C174.99 591.84 176.55 592.33 178.1 592.88C179.65 593.43 181.18 594.03 182.68 594.69C184.19 595.35 185.67 596.07 187.12 596.83C194.64 600.85 199.51 607.62 201.6 616.95C202.31 620.13 201.91 622.29 200.4 623.35C200.26 623.45 200.12 623.53 199.97 623.61C199.82 623.68 199.66 623.74 199.5 623.79C199.34 623.84 199.18 623.88 199.01 623.9C198.85 623.92 198.68 623.94 198.51 623.93L198.51 623.93Z" />
			</g>
		</g>
		<g id="_Group_21">
			<path id="_Path_28" fill-rule="evenodd" class="shp0" d="M280.69 553.49C279.03 552.92 277.35 552.4 275.66 551.91C270.41 550.4 267.86 555.43 265.09 558.8C261.29 563.42 257.55 568.1 253.88 572.83C253.48 573.35 260.31 573.93 260.98 573.78C261.6 573.66 262.2 573.47 262.79 573.23C263.37 572.99 263.93 572.7 264.46 572.36C265 572.02 265.49 571.63 265.95 571.19C266.41 570.76 266.83 570.28 267.21 569.77C267.25 571.68 267.21 573.69 267.17 575.64C267.09 579.81 267.15 583.88 267.43 588.05C267.51 589.22 267.82 590.67 268.96 590.93C269.17 590.94 269.39 590.93 269.61 590.89C269.82 590.85 270.03 590.78 270.23 590.69C270.43 590.6 270.62 590.49 270.79 590.35C270.96 590.22 271.12 590.06 271.25 589.89C271.98 589.21 272.7 588.51 273.4 587.79C274.11 587.08 274.79 586.35 275.47 585.61C276.14 584.87 276.8 584.11 277.45 583.34C278.09 582.58 278.72 581.8 279.34 581C279.4 580.91 279.47 580.82 279.54 580.73C279.61 580.64 279.69 580.56 279.77 580.48C279.86 580.4 279.94 580.33 280.03 580.26C280.12 580.19 280.22 580.12 280.32 580.06C282.25 579.11 286.94 582.48 288.35 583.63C287.07 585.63 284.88 586.82 283 588.26C281.53 589.4 278.9 591.88 278.19 593.65C277.3 595.87 278.94 598.05 281.24 596.63C283.71 595.11 288.39 593.08 291.23 594.61C292.87 595.49 293.64 597.37 294.63 598.95C295.03 599.58 295.48 600.18 295.98 600.74C296.48 601.3 297.02 601.82 297.6 602.29C298.18 602.77 298.79 603.2 299.44 603.57C300.09 603.95 300.76 604.27 301.46 604.54C301.78 604.68 302.11 604.79 302.44 604.88C302.78 604.97 303.12 605.04 303.46 605.09C303.81 605.13 304.15 605.15 304.5 605.15C304.84 605.15 305.19 605.12 305.53 605.07C308.82 604.45 310.74 598.55 311.54 595.66C311.79 594.71 311.97 593.74 312.08 592.76C312.2 591.78 312.25 590.79 312.23 589.8C312.22 588.82 312.14 587.84 311.99 586.86C311.85 585.88 311.64 584.92 311.37 583.97C309.29 576.17 304.21 569.22 298.48 563.67C293.47 558.81 287.26 555.75 280.69 553.49Z" />
			<g id="_Group_22">
				<path id="_Path_29" fill-rule="evenodd" class="shp4" d="M280.12 598.38C279.94 598.38 279.76 598.37 279.57 598.34C279.39 598.31 279.21 598.27 279.04 598.21C278.86 598.15 278.69 598.08 278.53 598C278.37 597.92 278.21 597.82 278.06 597.71C277.88 597.58 277.7 597.43 277.55 597.26C277.39 597.1 277.26 596.91 277.14 596.72C277.03 596.52 276.94 596.31 276.87 596.1C276.8 595.88 276.75 595.66 276.73 595.43C276.51 593.08 278.71 590.52 280.99 588.09C281.24 587.82 281.46 587.58 281.63 587.39C281.98 586.97 282.33 586.56 282.7 586.17C283.07 585.77 283.45 585.38 283.83 585C284.22 584.63 284.62 584.26 285.03 583.91C285.44 583.55 285.86 583.21 286.28 582.87C289.94 580.23 293.32 579.96 296.92 582.06C297.37 582.33 297.81 582.61 298.25 582.9C298.69 583.19 299.13 583.49 299.56 583.79C299.99 584.09 300.41 584.4 300.83 584.72C301.25 585.04 301.66 585.36 302.07 585.7C303.25 586.6 304.46 587.54 305.69 588.36C305.94 588.54 306.12 588.81 306.17 589.11C306.23 589.41 306.17 589.73 306 589.98C305.83 590.24 305.56 590.42 305.26 590.48C304.96 590.55 304.65 590.49 304.39 590.33C303.08 589.46 301.83 588.5 300.63 587.56C300.24 587.25 299.85 586.94 299.45 586.64C299.05 586.33 298.65 586.04 298.24 585.75C297.83 585.46 297.42 585.18 297 584.9C296.58 584.63 296.16 584.36 295.73 584.1C292.97 582.49 290.56 582.7 287.67 584.79C287.28 585.09 286.89 585.41 286.52 585.74C286.14 586.07 285.78 586.4 285.42 586.75C285.07 587.1 284.72 587.46 284.38 587.82C284.05 588.19 283.72 588.57 283.4 588.95C283.22 589.16 282.98 589.41 282.71 589.7C281.58 590.9 278.94 593.72 279.08 595.21C279.09 595.27 279.1 595.33 279.12 595.38C279.14 595.44 279.16 595.49 279.2 595.55C279.23 595.6 279.27 595.64 279.31 595.69C279.35 595.73 279.4 595.76 279.45 595.79C280.39 596.48 282.36 595.31 284.1 594.27C284.39 594.07 284.68 593.88 284.99 593.71C285.29 593.53 285.6 593.37 285.92 593.23C286.23 593.08 286.56 592.95 286.88 592.83C287.21 592.71 287.55 592.6 287.88 592.51C288.57 592.36 289.27 592.31 289.97 592.34C290.67 592.38 291.36 592.5 292.03 592.71C292.7 592.92 293.34 593.22 293.93 593.6C294.52 593.97 295.06 594.42 295.54 594.94C295.73 595.18 295.83 595.48 295.8 595.79C295.77 596.1 295.62 596.39 295.39 596.59C295.15 596.79 294.85 596.89 294.54 596.86C294.23 596.84 293.94 596.7 293.74 596.46C293.39 596.11 293 595.8 292.58 595.55C292.15 595.29 291.7 595.09 291.22 594.95C290.75 594.81 290.26 594.72 289.76 594.71C289.27 594.69 288.77 594.73 288.29 594.84C288.02 594.92 287.76 595.02 287.51 595.12C287.25 595.22 286.99 595.33 286.75 595.46C286.5 595.58 286.25 595.71 286.01 595.85C285.77 595.99 285.54 596.14 285.31 596.3C283.64 597.29 281.82 598.38 280.12 598.38Z" />
			</g>
			<g id="_Group_23">
				<path id="_Path_30" fill-rule="evenodd" class="shp4" d="M269.39 593.04C269.38 593.04 269.36 593.04 269.34 593.04C269.33 593.04 269.31 593.04 269.3 593.04C269.28 593.04 269.27 593.04 269.25 593.03C269.23 593.03 269.22 593.03 269.2 593.03C268.39 592.94 267.5 592.26 267.45 590.63C267.42 589.42 267.46 588.2 267.56 586.99C267.66 585.78 267.83 584.58 268.06 583.39C268.29 582.2 268.58 581.02 268.94 579.86C269.3 578.71 269.71 577.57 270.19 576.45C271.9 572.47 274.34 567.76 278.07 566.76C280.87 565.99 284.73 567.79 287.55 569.11C288.04 569.33 288.48 569.54 288.88 569.71C289.79 570.11 290.69 570.53 291.58 570.99C292.46 571.44 293.33 571.92 294.19 572.42C295.05 572.93 295.89 573.46 296.71 574.02C297.54 574.58 298.34 575.17 299.13 575.77C299.38 575.97 299.54 576.25 299.58 576.56C299.62 576.87 299.53 577.18 299.34 577.43C299.15 577.68 298.87 577.84 298.56 577.88C298.25 577.92 297.93 577.83 297.68 577.64C296.94 577.06 296.17 576.51 295.39 575.98C294.6 575.45 293.8 574.94 292.99 574.46C292.18 573.97 291.35 573.52 290.5 573.09C289.66 572.66 288.8 572.25 287.94 571.88C287.53 571.7 287.06 571.49 286.55 571.25C284.21 570.16 280.65 568.51 278.69 569.04C275.58 569.88 273.24 575.34 272.36 577.39C271.92 578.42 271.54 579.46 271.21 580.53C270.88 581.6 270.61 582.68 270.39 583.78C270.18 584.87 270.02 585.98 269.93 587.09C269.83 588.2 269.79 589.32 269.81 590.43C272.39 588.47 274.59 585.05 276.55 582.01C277.22 580.97 277.87 579.95 278.51 579.03C278.64 578.79 278.81 578.58 279.02 578.41C279.23 578.24 279.47 578.11 279.72 578.03C279.98 577.95 280.25 577.92 280.52 577.94C280.79 577.97 281.05 578.04 281.29 578.17C282.35 578.6 283.37 579.07 284.4 579.54C285.5 580.05 286.6 580.55 287.75 581C287.88 581 288.01 581.01 288.14 581.04C288.27 581.06 288.39 581.11 288.51 581.16C288.64 581.21 288.75 581.28 288.86 581.36C288.96 581.44 289.06 581.53 289.15 581.63C289.35 581.85 289.46 582.13 289.46 582.43C289.46 582.73 289.35 583.02 289.15 583.24C288.95 583.46 288.67 583.59 288.37 583.61C288.07 583.64 287.78 583.54 287.55 583.36C287.49 583.35 287.43 583.34 287.38 583.33C287.32 583.33 287.27 583.31 287.21 583.3C287.16 583.29 287.1 583.27 287.05 583.26C286.99 583.24 286.94 583.22 286.89 583.2C285.7 582.73 284.56 582.21 283.42 581.69C282.44 581.24 281.46 580.79 280.45 580.38C279.82 581.29 279.18 582.27 278.53 583.29C276.36 586.66 273.91 590.48 270.64 592.62C270.55 592.69 270.45 592.74 270.35 592.79C270.25 592.85 270.15 592.89 270.04 592.92C269.94 592.96 269.83 592.99 269.72 593.01C269.61 593.03 269.5 593.04 269.39 593.04L269.39 593.04Z" />
			</g>
			<g id="_Group_24">
				<path id="_Path_31" fill-rule="evenodd" class="shp4" d="M267.74 587.42C267.69 587.42 267.64 587.42 267.59 587.42C267.54 587.41 267.49 587.4 267.44 587.39C267.39 587.38 267.34 587.37 267.29 587.35C267.24 587.34 267.19 587.32 267.15 587.3C266.97 587.21 266.8 587.09 266.65 586.95C266.5 586.81 266.36 586.66 266.25 586.48C266.14 586.31 266.05 586.13 265.98 585.93C265.92 585.74 265.88 585.54 265.86 585.33C265.6 582.84 265.52 580.33 265.63 577.82C265.73 575.31 266.01 572.81 266.47 570.34C266.93 567.87 267.56 565.44 268.37 563.07C269.18 560.69 270.15 558.37 271.29 556.14C271.34 556.04 271.41 555.95 271.48 555.88C271.55 555.8 271.64 555.73 271.73 555.68C271.82 555.62 271.92 555.58 272.02 555.55C272.12 555.53 272.23 555.51 272.33 555.51C274.33 555.53 276.31 555.73 278.27 556.1C280.23 556.47 282.15 557.02 284.01 557.74C285.88 558.45 287.67 559.33 289.37 560.36C291.08 561.4 292.69 562.58 294.18 563.9C294.4 564.11 294.53 564.4 294.55 564.71C294.56 565.01 294.45 565.31 294.25 565.54C294.05 565.76 293.76 565.91 293.46 565.93C293.15 565.95 292.85 565.86 292.62 565.66C291.27 564.48 289.83 563.41 288.3 562.47C286.78 561.53 285.17 560.73 283.51 560.07C281.84 559.41 280.12 558.89 278.37 558.52C276.62 558.16 274.83 557.94 273.04 557.89C272.02 559.98 271.15 562.13 270.43 564.34C269.71 566.56 269.14 568.81 268.73 571.1C268.32 573.39 268.07 575.71 267.98 578.03C267.9 580.36 267.97 582.68 268.2 585C268.42 585.04 268.63 585.15 268.79 585.3C268.95 585.46 269.06 585.66 269.12 585.88C269.17 586.09 269.16 586.32 269.09 586.54C269.02 586.75 268.89 586.94 268.71 587.08C268.64 587.13 268.57 587.18 268.49 587.22C268.42 587.27 268.34 587.3 268.26 587.33C268.17 587.36 268.09 587.38 268 587.4C267.92 587.42 267.83 587.42 267.74 587.42Z" />
			</g>
			<g id="_Group_25">
				<path id="_Path_32" fill-rule="evenodd" class="shp4" d="M311.37 585.15C311.23 585.15 311.1 585.12 310.97 585.07C310.84 585.03 310.72 584.96 310.61 584.87C310.51 584.78 310.42 584.67 310.35 584.55C310.28 584.43 310.23 584.3 310.21 584.17C310.2 584.12 309.31 579.32 304.29 572.14C303.5 571.03 302.66 569.94 301.78 568.89C300.9 567.85 299.97 566.84 299.01 565.86C298.04 564.89 297.03 563.97 295.99 563.08C294.94 562.19 293.86 561.35 292.74 560.56C292.48 560.39 292.29 560.12 292.22 559.81C292.16 559.5 292.22 559.17 292.39 558.91C292.57 558.64 292.84 558.46 293.15 558.4C293.46 558.34 293.79 558.41 294.05 558.59C295.23 559.42 296.37 560.3 297.47 561.24C298.58 562.17 299.64 563.14 300.66 564.17C301.68 565.19 302.65 566.25 303.58 567.36C304.51 568.46 305.39 569.61 306.23 570.79C311.58 578.45 312.5 583.55 312.53 583.77C312.56 583.92 312.55 584.08 312.52 584.23C312.49 584.38 312.42 584.52 312.33 584.65C312.24 584.77 312.13 584.88 312 584.96C311.87 585.05 311.72 585.1 311.57 585.13C311.55 585.13 311.54 585.13 311.52 585.14C311.5 585.14 311.49 585.14 311.47 585.14C311.45 585.14 311.44 585.14 311.42 585.15C311.4 585.15 311.39 585.15 311.37 585.15Z" />
			</g>
		</g>
		<path id="_Path_33" fill-rule="evenodd" class="shp4" d="M172.76 17.73C192.43 4.73 209.11 1.12 222.8 6.92C243.34 15.62 265.47 55.14 279.69 61.47L293.9 67.79C280.21 82.26 267.74 88.58 256.51 86.77C253.52 104.16 247.95 118.12 239.78 128.66C227.54 144.48 164.38 179.64 162.53 173.6C158.54 160.55 162.49 158.18 158.54 155.81C154.59 153.43 125.6 124.71 125.62 72.54C125.63 45.65 133.26 12.19 172.76 17.73Z" />
		<path id="_Path_34" fill-rule="evenodd" class="shp0" d="M203.84 55.14C225.43 73.59 239.92 83.08 247.29 83.6C254.2 84.09 252.43 113.26 238.59 133.61C228.82 147.98 221.48 171.37 216.9 171.37C209 171.37 179.34 157.13 174.6 145.27C171.44 137.36 170.47 128.37 171.7 118.3C164.86 116.25 161.7 109.96 162.23 99.42C163.02 83.6 168.81 80.18 174.34 90.46C178.03 97.31 187.86 85.54 203.84 55.14Z" />
		<path id="_Path_35" fill-rule="evenodd" class="shp0" d="M198.31 134.99C200.82 180.96 202.6 204.74 203.65 206.32C204.71 207.91 210.55 212.72 221.17 220.76C219.01 237.41 205.83 246.31 181.66 247.46C141.55 249.36 131.36 216.22 133.73 214.64C136.1 213.06 156.25 203.95 157.83 199.21C158.88 196.05 164.09 165.51 173.44 107.59L198.31 134.99Z" />
		<path id="_Path_36" fill-rule="evenodd" class="shp6" d="M200.12 165.67L200.64 173.6C197.28 182.32 193.41 185.68 189.02 183.69C177.76 178.59 167.74 144.61 168.41 139.47C168.85 136.05 169.95 129 171.7 118.3C173.27 137.36 174.79 147.33 176.26 148.22C180.18 150.58 188.14 156.39 200.12 165.67Z" />
		<path id="_Path_37" fill-rule="evenodd" class="shp3" d="M65.72 245.57C48.6 249.11 35.94 267.29 27.74 300.1C19.55 332.91 11.86 376.58 4.69 431.12C37.29 451.85 66.95 454.17 93.7 438.07C89.1 316.45 79.77 252.28 65.72 245.57Z" />
		<g id="_Group_26">
			<path id="_Path_38" fill-rule="evenodd" class="shp4" d="M156.39 149.4C156.37 149.4 156.35 149.4 156.33 149.4C156.32 149.39 156.3 149.39 156.28 149.39C156.27 149.39 156.25 149.39 156.23 149.39C156.22 149.38 156.2 149.38 156.18 149.38C147.6 147.89 139.48 142.54 133.32 134.32C127.29 126.27 124.01 116.78 121.81 109.41C120.63 105.52 119.66 101.56 118.89 97.57C118.12 93.57 117.56 89.53 117.2 85.48C116.85 81.42 116.71 77.35 116.78 73.28C116.85 69.21 117.13 65.15 117.62 61.11C119.59 46.04 123.45 29.32 137.16 19.56C147.22 12.42 162.43 9.37 174.23 18.31C181.06 10.69 191.09 4.66 201.94 1.69C204.62 0.93 207.36 0.42 210.13 0.17C212.91 -0.09 215.69 -0.08 218.46 0.17C221.24 0.43 223.98 0.95 226.65 1.71C229.33 2.47 231.93 3.47 234.42 4.71C244.4 9.88 250.46 18.41 256.32 26.66C257.14 27.88 257.99 29.08 258.85 30.27C259.72 31.46 260.61 32.63 261.53 33.78C262.44 34.93 263.38 36.06 264.34 37.18C265.29 38.29 266.27 39.39 267.28 40.47C270.14 43.4 273.17 46.17 276.36 48.75C279.55 51.32 282.89 53.71 286.36 55.9C289.82 58.09 293.42 60.07 297.12 61.84C300.82 63.6 304.62 65.15 308.5 66.47C308.67 66.52 308.83 66.62 308.95 66.75C309.08 66.87 309.18 67.02 309.24 67.19C309.3 67.36 309.32 67.54 309.3 67.72C309.28 67.9 309.22 68.07 309.12 68.22C305.5 73.92 300.7 78.78 295.04 82.46C289.39 86.14 283 88.56 276.33 89.55C269.65 90.55 262.84 90.09 256.35 88.22C249.87 86.35 243.86 83.11 238.74 78.71C232.28 73.16 227.44 65.88 223.55 59.49C223.39 59.22 223.34 58.9 223.42 58.6C223.49 58.29 223.68 58.03 223.95 57.87C224.22 57.71 224.54 57.66 224.84 57.73C225.15 57.8 225.41 57.99 225.57 58.26C229.36 64.49 234.07 71.58 240.28 76.92C245.05 81.01 250.62 84.06 256.65 85.85C262.67 87.64 269 88.14 275.23 87.32C281.47 86.5 287.45 84.37 292.81 81.08C298.16 77.79 302.76 73.4 306.3 68.21C302.47 66.85 298.73 65.26 295.08 63.47C291.43 61.68 287.88 59.69 284.46 57.49C281.03 55.3 277.74 52.91 274.59 50.34C271.43 47.78 268.43 45.03 265.59 42.12C264.57 41.02 263.56 39.91 262.58 38.77C261.6 37.63 260.65 36.47 259.71 35.3C258.78 34.12 257.87 32.93 256.98 31.72C256.1 30.51 255.23 29.28 254.39 28.03C248.43 19.64 242.8 11.72 233.33 6.82C230.97 5.64 228.51 4.69 225.97 3.97C223.44 3.25 220.84 2.77 218.22 2.53C215.59 2.29 212.95 2.28 210.33 2.53C207.7 2.77 205.1 3.25 202.57 3.97C191.76 6.94 181.81 13.03 175.28 20.7C175.18 20.82 175.06 20.92 174.92 20.99C174.78 21.06 174.63 21.1 174.48 21.12C174.33 21.13 174.18 21.11 174.03 21.07C173.88 21.02 173.75 20.95 173.63 20.85C162.68 11.84 148.11 14.68 138.53 21.5C125.55 30.72 121.86 46.86 119.96 61.42C119.48 65.38 119.21 69.36 119.14 73.35C119.07 77.33 119.21 81.32 119.56 85.3C119.9 89.27 120.45 93.22 121.21 97.14C121.96 101.05 122.92 104.93 124.08 108.74C126.21 115.92 129.4 125.15 135.21 132.91C141.01 140.66 148.6 145.68 156.58 147.06C156.87 147.11 157.12 147.27 157.3 147.51C157.47 147.74 157.56 148.03 157.53 148.32C157.51 148.61 157.38 148.88 157.17 149.08C156.95 149.28 156.68 149.39 156.39 149.4Z" />
		</g>
		<path id="_Path_39" fill-rule="evenodd" class="shp4" d="M233.36 108.74C232.61 112.55 233.64 115.97 235.67 116.36C237.69 116.76 239.94 113.99 240.68 110.18C241.43 106.37 240.4 102.96 238.38 102.56C236.35 102.16 234.11 104.93 233.36 108.74Z" />
		<path id="_Path_40" fill-rule="evenodd" class="shp4" d="M201.65 101.8C200.9 105.62 201.94 109.03 203.96 109.43C205.98 109.82 208.23 107.06 208.98 103.24C209.72 99.43 208.69 96.02 206.67 95.62C204.65 95.23 202.4 97.99 201.65 101.8Z" />
		<g id="_Group_27">
			<path id="_Path_41" fill-rule="evenodd" class="shp4" d="M171.95 108.77C171.8 108.77 171.65 108.74 171.51 108.68C171.38 108.63 171.25 108.55 171.14 108.45C171.03 108.35 170.95 108.22 170.88 108.09C170.82 107.96 170.78 107.81 170.77 107.66C170.71 106.8 170.57 105.94 170.37 105.1C170.16 104.25 169.88 103.43 169.54 102.63C169.2 101.84 168.79 101.07 168.31 100.34C167.84 99.62 167.31 98.93 166.72 98.29C166.5 98.06 166.38 97.76 166.39 97.44C166.39 97.12 166.53 96.82 166.76 96.6C166.99 96.38 167.3 96.27 167.62 96.29C167.94 96.3 168.24 96.44 168.45 96.68C169.13 97.42 169.75 98.21 170.3 99.05C170.84 99.89 171.32 100.77 171.72 101.69C172.12 102.61 172.43 103.56 172.67 104.54C172.91 105.51 173.06 106.51 173.13 107.51C173.14 107.66 173.12 107.82 173.07 107.96C173.02 108.11 172.94 108.25 172.84 108.36C172.74 108.48 172.61 108.58 172.47 108.64C172.33 108.71 172.18 108.75 172.03 108.76L171.95 108.77Z" />
		</g>
		<g id="_Group_28">
			<path id="_Path_42" fill-rule="evenodd" class="shp4" d="M216.5 92.39C216.44 92.39 216.38 92.38 216.32 92.38C216.27 92.37 216.21 92.35 216.15 92.33C216.09 92.32 216.04 92.29 215.98 92.27C215.93 92.24 215.88 92.21 215.83 92.18C214.81 91.48 213.73 90.88 212.6 90.4C211.46 89.92 210.28 89.56 209.07 89.32C207.86 89.07 206.63 88.95 205.4 88.96C204.17 88.96 202.94 89.1 201.74 89.35C201.43 89.42 201.1 89.36 200.84 89.2C200.57 89.03 200.38 88.76 200.32 88.45C200.25 88.14 200.31 87.82 200.48 87.55C200.65 87.29 200.93 87.1 201.24 87.04C202.6 86.75 203.99 86.61 205.38 86.6C206.78 86.6 208.17 86.73 209.53 87.01C210.9 87.28 212.23 87.69 213.52 88.23C214.8 88.78 216.03 89.45 217.18 90.24C217.38 90.38 217.54 90.59 217.62 90.83C217.7 91.06 217.7 91.32 217.63 91.56C217.55 91.8 217.4 92.01 217.2 92.16C217 92.31 216.75 92.39 216.5 92.39Z" />
		</g>
		<g id="_Group_29">
			<path id="_Path_43" fill-rule="evenodd" class="shp4" d="M221.56 149.29C220.93 149.28 220.3 149.26 219.66 149.21C219.03 149.16 218.4 149.09 217.78 149.01C217.15 148.92 216.53 148.81 215.91 148.68C215.29 148.55 214.67 148.4 214.06 148.23C213.05 147.93 212.04 147.6 211.05 147.25C210.05 146.89 209.06 146.51 208.08 146.1C207.11 145.7 206.14 145.27 205.18 144.81C204.23 144.35 203.29 143.87 202.36 143.37C202.09 143.22 201.88 142.97 201.79 142.68C201.7 142.38 201.73 142.06 201.87 141.79C202.01 141.51 202.25 141.3 202.54 141.21C202.84 141.11 203.16 141.13 203.43 141.26C204.33 141.75 205.23 142.22 206.15 142.66C207.06 143.1 207.99 143.52 208.93 143.91C209.87 144.3 210.82 144.66 211.78 145.01C212.74 145.35 213.71 145.66 214.68 145.95C215.63 146.23 216.59 146.46 217.56 146.62C218.54 146.78 219.52 146.87 220.51 146.91C221.5 146.94 222.48 146.91 223.47 146.81C224.45 146.72 225.43 146.56 226.39 146.34C226.69 146.27 227.01 146.32 227.28 146.48C227.54 146.64 227.73 146.89 227.81 147.19C227.89 147.5 227.84 147.82 227.69 148.08C227.53 148.35 227.28 148.55 226.98 148.63C226.53 148.74 226.09 148.84 225.64 148.92C225.19 149 224.74 149.07 224.29 149.13C223.84 149.18 223.38 149.22 222.93 149.25C222.47 149.28 222.02 149.29 221.56 149.29L221.56 149.29Z" />
		</g>
		<g id="_Group_30">
			<path id="_Path_44" fill-rule="evenodd" class="shp4" d="M217.83 157.46C217.22 157.46 216.61 157.43 216 157.38C215.39 157.33 214.78 157.25 214.18 157.15C213.58 157.04 212.98 156.92 212.39 156.76C211.8 156.61 211.22 156.43 210.64 156.22C210.35 156.12 210.11 155.9 209.98 155.62C209.85 155.34 209.83 155.02 209.94 154.73C210.04 154.43 210.25 154.19 210.53 154.06C210.81 153.92 211.13 153.9 211.42 154C211.94 154.18 212.47 154.34 213 154.48C213.54 154.62 214.07 154.74 214.62 154.83C215.16 154.92 215.71 154.99 216.26 155.03C216.81 155.08 217.36 155.1 217.91 155.1C218.22 155.09 218.52 155.22 218.75 155.44C218.97 155.66 219.09 155.96 219.1 156.27C219.1 156.58 218.97 156.89 218.75 157.11C218.53 157.33 218.23 157.46 217.92 157.46L217.82 157.46L217.83 157.46Z" />
		</g>
		<g id="_Group_31">
			<path id="_Path_45" fill-rule="evenodd" class="shp4" d="M246.32 99.39C246.27 99.39 246.22 99.38 246.17 99.38C246.13 99.37 246.08 99.36 246.03 99.35C245.99 99.34 245.94 99.33 245.9 99.31C245.85 99.29 245.81 99.27 245.77 99.25C244.86 98.78 243.93 98.37 242.97 98.02C242.01 97.68 241.03 97.4 240.03 97.19C239.03 96.98 238.02 96.83 237 96.76C235.98 96.69 234.96 96.68 233.95 96.75C233.79 96.75 233.64 96.73 233.49 96.68C233.35 96.63 233.21 96.55 233.09 96.45C232.98 96.35 232.88 96.23 232.81 96.09C232.74 95.95 232.7 95.8 232.69 95.65C232.68 95.49 232.7 95.34 232.75 95.19C232.8 95.04 232.87 94.91 232.98 94.79C233.08 94.67 233.2 94.58 233.34 94.51C233.48 94.44 233.63 94.4 233.79 94.39C234.91 94.31 236.04 94.31 237.17 94.39C238.3 94.47 239.42 94.63 240.52 94.87C241.62 95.1 242.71 95.41 243.77 95.79C244.84 96.18 245.87 96.63 246.87 97.16C247.1 97.28 247.29 97.48 247.4 97.72C247.5 97.96 247.53 98.23 247.46 98.49C247.4 98.75 247.25 98.97 247.05 99.14C246.84 99.3 246.58 99.39 246.32 99.39Z" />
		</g>
		<g id="_Group_32">
			<path id="_Path_46" fill-rule="evenodd" class="shp4" d="M223.58 134.79C223.04 134.79 222.49 134.75 221.95 134.67C221.42 134.59 220.88 134.47 220.37 134.3C219.85 134.14 219.34 133.94 218.85 133.69C218.37 133.45 217.9 133.17 217.46 132.85C217.21 132.66 217.04 132.39 216.99 132.08C216.94 131.77 217.02 131.45 217.21 131.2C217.39 130.95 217.67 130.78 217.98 130.73C218.29 130.68 218.6 130.76 218.85 130.95C219.6 131.47 220.43 131.87 221.31 132.12C222.19 132.37 223.1 132.48 224.01 132.43C224.92 132.39 225.82 132.19 226.67 131.86C227.52 131.52 228.31 131.04 229 130.45C229.08 130.39 229.15 130.33 229.21 130.26C229.28 130.2 229.34 130.12 229.4 130.05C229.46 129.97 229.51 129.9 229.56 129.81C229.61 129.73 229.65 129.65 229.69 129.56C229.7 129.42 229.7 129.29 229.69 129.15C229.68 129.01 229.66 128.87 229.64 128.74C229.61 128.6 229.57 128.47 229.53 128.34C229.49 128.21 229.44 128.08 229.38 127.95C225.3 116.51 224.57 106.35 227.23 97.75C227.28 97.51 227.36 97.29 227.47 97.07C227.58 96.86 227.71 96.66 227.87 96.49C228.03 96.31 228.22 96.16 228.42 96.03C228.62 95.9 228.84 95.8 229.07 95.74C229.36 95.67 229.67 95.73 229.93 95.89C230.18 96.05 230.37 96.3 230.44 96.59C230.52 96.89 230.48 97.2 230.34 97.46C230.19 97.73 229.95 97.93 229.66 98.02C229.64 98.05 229.63 98.09 229.61 98.12C229.59 98.16 229.58 98.19 229.56 98.23C229.55 98.26 229.53 98.3 229.52 98.34C229.51 98.37 229.5 98.41 229.49 98.45C226.98 106.55 227.69 116.21 231.6 127.16C231.71 127.39 231.8 127.64 231.87 127.88C231.94 128.13 231.99 128.39 232.02 128.64C232.05 128.9 232.06 129.16 232.05 129.42C232.04 129.68 232.01 129.93 231.96 130.19C231.9 130.38 231.82 130.58 231.73 130.76C231.64 130.95 231.53 131.13 231.42 131.3C231.3 131.47 231.17 131.63 231.03 131.78C230.89 131.93 230.74 132.08 230.58 132.21C230.1 132.63 229.58 133 229.04 133.32C228.49 133.65 227.91 133.92 227.32 134.14C226.72 134.36 226.11 134.52 225.48 134.63C224.85 134.74 224.22 134.79 223.58 134.79Z" />
		</g>
		<g id="_Group_33">
			<path id="_Path_47" fill-rule="evenodd" class="shp4" d="M19.07 497.19C18.83 497.19 18.58 497.11 18.38 496.97C18.18 496.82 18.03 496.62 17.95 496.38C17.87 496.15 17.87 495.89 17.95 495.66C18.02 495.42 18.17 495.21 18.37 495.06C20.82 493.25 23.46 491.71 26.24 490.44C29.01 489.18 31.91 488.2 34.89 487.53C37.86 486.87 40.9 486.51 43.95 486.47C47 486.43 50.05 486.7 53.04 487.29C53.35 487.35 53.63 487.53 53.81 487.79C53.98 488.05 54.05 488.38 53.99 488.69C53.92 489 53.74 489.27 53.47 489.45C53.2 489.62 52.88 489.68 52.57 489.61C49.74 489.05 46.86 488.79 43.97 488.83C41.09 488.87 38.22 489.2 35.4 489.83C32.59 490.46 29.85 491.39 27.22 492.58C24.6 493.78 22.1 495.24 19.78 496.95C19.73 496.99 19.68 497.02 19.62 497.05C19.56 497.08 19.51 497.11 19.45 497.13C19.39 497.15 19.32 497.16 19.26 497.18C19.2 497.19 19.14 497.19 19.07 497.19Z" />
		</g>
		<path id="_Path_48" fill-rule="evenodd" class="shp5" d="M225.86 221.78C225.41 221.61 223.15 220.28 219.09 217.78C217.18 227.6 212.2 234.49 204.15 238.45C192.08 244.39 171.42 245.21 157.1 240.29C147.56 237.02 140.26 227.88 135.22 212.87L127.96 216.45C133.61 232.01 142.38 241.72 154.24 245.57C172.04 251.35 191.06 251.14 206.41 244.18C216.63 239.54 223.12 232.07 225.86 221.78Z" />
		<g id="_Group_34">
			<path id="_Path_49" fill-rule="evenodd" class="shp7" d="M273.56 439.5L271.22 439.2C271.35 438.17 284.1 336.47 284.32 334.09L286.67 334.31C286.44 336.73 274.09 435.3 273.56 439.5Z" />
		</g>
		<g id="_Group_35">
			<path id="_Path_50" fill-rule="evenodd" class="shp7" d="M283.85 361.18L281.52 360.77C283.27 350.85 292.63 340.55 293.03 340.12L294.77 341.71C294.68 341.81 285.48 351.95 283.85 361.18Z" />
		</g>
		<g id="_Group_36">
			<path id="_Path_51" fill-rule="evenodd" class="shp7" d="M92.52 438.14C92.48 437.44 88.33 367.84 87.71 353.4C87.68 352.73 84.5 285.85 74.7 266.2L76.81 265.14C86.84 285.24 89.94 350.52 90.07 353.29C90.68 367.72 94.83 437.3 94.87 438L92.52 438.14Z" />
		</g>
		<g id="_Group_37">
			<path id="_Path_52" fill-rule="evenodd" class="shp7" d="M88.79 334.5L86.51 333.89C87.83 328.94 92.56 310.87 92.56 310.87L94.84 311.46C91.68 323.52 89.67 331.2 88.79 334.5Z" />
		</g>
		<g id="_Group_38">
			<path id="_Path_53" fill-rule="evenodd" class="shp7" d="M70.52 253.83C68.9 249.3 66.87 246.75 64.67 246.44C61.97 246.05 59.11 249.11 58.24 250.32L56.32 248.95C56.48 248.72 60.29 243.45 64.99 244.1C68.17 244.54 70.77 247.55 72.74 253.04L70.52 253.83Z" />
		</g>
		<g id="_Group_39">
			<path id="_Path_54" fill-rule="evenodd" class="shp7" d="M289.47 301.65L287.12 301.46C288.64 282.88 288.8 249.88 288.8 249.55L291.16 249.56C291.16 249.9 291 282.98 289.47 301.65Z" />
		</g>
		<g id="_Group_40">
			<path id="_Path_55" fill-rule="evenodd" class="shp7" d="M179.17 250.69C149.67 250.69 142.41 241.32 135.95 232.98C129.08 224.12 126.92 217.09 126.83 216.79L129.09 216.11C129.11 216.17 131.23 223.04 137.81 231.53C144.43 240.08 151.92 249.76 186.51 248.14C219.49 246.6 224.5 222.57 224.7 221.55L227.01 221.99C226.96 222.26 221.52 248.87 186.62 250.5C183.99 250.63 181.51 250.69 179.17 250.69Z" />
		</g>
		<g id="_Group_41">
			<path id="_Path_56" fill-rule="evenodd" class="shp8" d="M199.2 558.12L198.18 555.99C203.01 553.66 207.64 550.92 212.01 547.8C216.39 544.68 220.49 541.2 224.27 537.39C228.05 533.58 231.51 529.46 234.59 525.07C237.68 520.67 240.39 516.03 242.69 511.17L244.83 512.18C242.47 517.16 239.69 521.92 236.53 526.42C233.36 530.93 229.82 535.15 225.94 539.06C222.06 542.96 217.86 546.53 213.38 549.72C208.9 552.92 204.16 555.73 199.2 558.12Z" />
		</g>
		<g id="_Group_42">
			<path id="_Path_57" fill-rule="evenodd" class="shp8" d="M203.22 542.24L201.72 540.42C205.16 537.59 208.42 534.55 211.48 531.32C214.55 528.09 217.4 524.67 220.04 521.09C222.68 517.5 225.09 513.75 227.26 509.87C229.43 505.98 231.36 501.96 233.03 497.84L235.22 498.72C233.51 502.94 231.54 507.05 229.32 511.02C227.1 514.99 224.64 518.82 221.94 522.49C219.25 526.15 216.33 529.65 213.2 532.95C210.07 536.25 206.74 539.36 203.22 542.24Z" />
		</g>
		<g id="_Group_43">
			<path id="_Path_58" fill-rule="evenodd" class="shp8" d="M164.29 477.68L162.79 475.85C190.17 453.48 207.48 420.28 222.75 390.99L224.84 392.09C209.47 421.58 192.04 455.01 164.29 477.68Z" />
		</g>
	</g>
	<g id="_Group_44">
		<path id="_Path_59" fill-rule="evenodd" class="shp3" d="M375.89 1375.65C374.31 1367.22 269.68 1300.72 260.21 1299.66C250.73 1298.6 241.33 1308.76 239.75 1311.39C238.7 1313.15 239.46 1317.3 242.05 1323.83C241.37 1330.82 235.43 1333.86 224.2 1332.96C206.2 1331.51 215.25 1297.65 210.51 1299.76C205.77 1301.86 197.34 1310.29 196.81 1313.98C196.29 1317.68 194.71 1335.6 192.6 1339.81C190.49 1344.02 184.17 1377.76 187.86 1383.55C191.55 1389.35 230 1393.04 238.42 1393.56C246.85 1394.08 371.68 1407.27 375.9 1398.84C378.7 1393.22 378.7 1385.49 375.89 1375.65Z" />
		<path id="_Path_60" fill-rule="evenodd" class="shp9" d="M377.66 1386.26C373.32 1386.85 368.97 1387.37 364.61 1387.81C360.26 1388.24 355.89 1388.6 351.52 1388.87C347.15 1389.15 342.77 1389.34 338.39 1389.46C334.01 1389.57 329.63 1389.61 325.25 1389.56C301.12 1389.16 224.61 1377.69 220.52 1375.23C216.43 1372.77 196.99 1335.91 192.6 1339.81C188.2 1343.71 179.2 1383.02 182.06 1385.88C184.92 1388.74 204.56 1393.65 216.02 1394.06C227.48 1394.47 374.64 1407.17 377.77 1399.39C379.85 1394.2 379.82 1389.82 377.66 1386.26Z" />
		<g id="_Group_45">
			<path id="_Path_61" fill-rule="evenodd" class="shp8" d="M213.65 1369L211.37 1368.37C213.78 1359.71 216.79 1344.75 214.63 1341.5C211.25 1336.43 211.31 1319.39 211.33 1317.47L213.69 1317.49C213.64 1322.52 214.07 1336.41 216.59 1340.19C220.06 1345.4 214.32 1366.6 213.65 1369Z" />
		</g>
		<g id="_Group_46">
			<path id="_Path_62" fill-rule="evenodd" class="shp8" d="M319.45 1364.83L318.61 1364.43C318.47 1364.36 303.69 1357.37 289.51 1349.66C275.37 1341.98 241.85 1325.05 241.51 1324.88L242.58 1322.77C242.91 1322.95 276.46 1339.89 290.63 1347.58C302.85 1354.22 315.52 1360.34 318.81 1361.9C321.65 1358.66 333.81 1345.97 346.47 1350.47L345.68 1352.7C333.08 1348.24 320.16 1363.95 320.03 1364.11L319.45 1364.83Z" />
		</g>
		<g id="_Group_47">
			<path id="_Path_63" fill-rule="evenodd" class="shp8" d="M329.26 1380.24C312.37 1380.24 281.15 1359.91 261.81 1347.31C254.32 1342.43 248.39 1338.58 246.32 1337.87C245.47 1337.61 244.61 1337.38 243.75 1337.18C242.89 1336.98 242.01 1336.8 241.14 1336.66C240.26 1336.51 239.39 1336.39 238.5 1336.3C237.62 1336.21 236.73 1336.14 235.85 1336.11C231.18 1335.72 226.34 1335.31 221.03 1332.86C211.17 1328.3 210.19 1313.17 209.32 1299.83L211.68 1299.68C212.5 1312.37 213.43 1326.75 222.02 1330.71C226.95 1332.99 231.57 1333.38 236.04 1333.76C236.98 1333.8 237.91 1333.87 238.84 1333.96C239.77 1334.06 240.7 1334.19 241.62 1334.35C242.54 1334.51 243.46 1334.69 244.37 1334.91C245.28 1335.12 246.18 1335.37 247.08 1335.64C249.43 1336.43 255.16 1340.17 263.1 1345.33C283.98 1358.94 318.94 1381.73 333.09 1377.38C353.15 1371.24 375.83 1374.45 376.06 1374.48L375.72 1376.82C375.49 1376.78 353.33 1373.65 333.78 1379.64C333.41 1379.74 333.04 1379.84 332.67 1379.91C332.29 1379.99 331.92 1380.06 331.54 1380.11C331.16 1380.16 330.78 1380.2 330.4 1380.22C330.02 1380.24 329.64 1380.25 329.26 1380.24Z" />
		</g>
		<g id="_Group_48">
			<path id="_Compound_Path_" fill-rule="evenodd" class="shp8" d="M300.79 1355.69C300.72 1355.69 300.66 1355.69 300.59 1355.69C300.52 1355.69 300.46 1355.68 300.39 1355.68C300.33 1355.67 300.26 1355.67 300.2 1355.66C300.13 1355.65 300.06 1355.64 300 1355.63L299.06 1355.49L299 1354.54C298.75 1350.17 302.43 1347.28 305.66 1345.6C305.67 1345.53 305.68 1345.45 305.68 1345.37C305.74 1344.91 305.79 1344.46 305.86 1344.01C305.98 1343.03 306.17 1342.06 306.41 1341.1C306.66 1340.14 306.96 1339.2 307.33 1338.28C307.69 1337.36 308.11 1336.46 308.59 1335.59C309.06 1334.73 309.59 1333.89 310.17 1333.09C309.36 1333.07 308.53 1333 307.71 1332.91C302.27 1332.37 295.15 1332.08 289.28 1334.49C289.22 1335.04 289.14 1335.59 289.03 1336.14C288.93 1336.69 288.8 1337.23 288.65 1337.76C288.5 1338.3 288.33 1338.83 288.14 1339.35C287.95 1339.87 287.73 1340.38 287.5 1340.89C287.32 1341.27 287.1 1341.63 286.84 1341.96C286.59 1342.3 286.3 1342.61 285.98 1342.89C285.66 1343.16 285.32 1343.41 284.95 1343.61C284.58 1343.82 284.19 1343.99 283.79 1344.12C283.34 1344.23 282.87 1344.25 282.42 1344.16C281.96 1344.07 281.53 1343.89 281.16 1343.61C280.78 1343.34 280.47 1342.99 280.25 1342.58C280.03 1342.17 279.89 1341.72 279.87 1341.26C279.87 1340.83 279.91 1340.41 280 1340C280.08 1339.58 280.21 1339.18 280.37 1338.79C280.53 1338.4 280.73 1338.02 280.97 1337.67C281.21 1337.32 281.48 1336.99 281.78 1336.69C282.17 1336.3 282.57 1335.93 282.98 1335.57C283.4 1335.21 283.83 1334.87 284.28 1334.55C284.72 1334.23 285.19 1333.93 285.66 1333.65C286.13 1333.37 286.62 1333.11 287.11 1332.88C287.15 1332.53 287.19 1332.19 287.23 1331.85C287.27 1331.4 287.32 1330.96 287.38 1330.52C287.43 1330.08 287.5 1329.64 287.57 1329.2C287.64 1328.76 287.71 1328.32 287.79 1327.88C287.88 1327.44 287.97 1327 288.06 1326.57C288.16 1326.17 288.27 1325.77 288.4 1325.37C288.53 1324.98 288.68 1324.59 288.84 1324.21C289.01 1323.83 289.19 1323.46 289.38 1323.09C289.58 1322.73 289.79 1322.37 290.01 1322.02C289.33 1322.05 288.65 1322.06 287.97 1322.06C287.29 1322.07 286.6 1322.06 285.92 1322.04C285.24 1322.03 284.56 1322 283.88 1321.97C283.2 1321.93 282.52 1321.88 281.84 1321.83C280.63 1321.76 279.42 1321.68 278.23 1321.63C277.66 1321.61 277.08 1321.6 276.5 1321.61C275.93 1321.61 275.35 1321.64 274.78 1321.67C274.2 1321.71 273.63 1321.77 273.06 1321.84C272.48 1321.91 271.91 1321.99 271.35 1322.09C271.29 1322.32 271.23 1322.55 271.17 1322.79C270.78 1324.36 270.38 1325.96 269.87 1327.54C269.18 1329.65 268.1 1332.25 265.72 1333.59C265.35 1333.79 264.96 1333.94 264.56 1334.05C264.16 1334.16 263.75 1334.22 263.34 1334.23C262.92 1334.25 262.51 1334.21 262.1 1334.13C261.69 1334.05 261.29 1333.93 260.91 1333.76C260.62 1333.64 260.35 1333.48 260.09 1333.29C259.84 1333.11 259.61 1332.89 259.41 1332.65C259.2 1332.41 259.03 1332.14 258.89 1331.86C258.75 1331.57 258.65 1331.27 258.58 1330.97C258.53 1330.67 258.51 1330.37 258.51 1330.07C258.52 1329.77 258.54 1329.48 258.59 1329.18C258.64 1328.89 258.72 1328.6 258.82 1328.32C258.92 1328.03 259.04 1327.76 259.19 1327.5C261.25 1323.21 265.37 1321.1 269.42 1320.11C269.52 1319.7 269.63 1319.29 269.75 1318.89C269.87 1318.48 269.99 1318.08 270.12 1317.68C270.25 1317.28 270.38 1316.88 270.53 1316.48C270.67 1316.08 270.82 1315.69 270.97 1315.3C271.1 1314.97 271.24 1314.64 271.39 1314.32C271.54 1314 271.7 1313.68 271.87 1313.37C272.03 1313.06 272.21 1312.75 272.39 1312.44C272.57 1312.14 272.76 1311.84 272.96 1311.55C270.61 1311.91 268.3 1312.54 266.09 1313.43C263.88 1314.32 261.77 1315.45 259.82 1316.82C257.86 1318.18 256.07 1319.76 254.47 1321.53C252.87 1323.3 251.48 1325.25 250.32 1327.33L248.25 1326.21C249.59 1323.77 251.24 1321.52 253.14 1319.49C255.04 1317.46 257.19 1315.68 259.53 1314.17C261.87 1312.67 264.38 1311.47 267.02 1310.58C269.65 1309.7 272.39 1309.14 275.16 1308.93C275.48 1308.63 275.81 1308.34 276.16 1308.08C276.5 1307.81 276.87 1307.56 277.24 1307.34C277.62 1307.11 278.01 1306.91 278.41 1306.73C278.81 1306.55 279.22 1306.39 279.63 1306.26L280.89 1305.86L281.14 1307.15C281.19 1307.34 281.21 1307.54 281.2 1307.74C281.2 1307.94 281.18 1308.14 281.13 1308.33C281.09 1308.52 281.02 1308.71 280.93 1308.89C280.85 1309.07 280.74 1309.24 280.62 1309.39C279.52 1310.8 277.25 1311.14 276.2 1311.23C275.88 1311.6 275.57 1311.98 275.28 1312.37C274.99 1312.76 274.72 1313.16 274.46 1313.58C274.2 1313.99 273.97 1314.42 273.75 1314.85C273.53 1315.29 273.33 1315.74 273.15 1316.19C273.04 1316.47 272.93 1316.75 272.83 1317.03C272.73 1317.31 272.63 1317.59 272.53 1317.88C272.44 1318.16 272.34 1318.45 272.26 1318.73C272.17 1319.02 272.08 1319.31 272 1319.6C272.53 1319.52 273.05 1319.46 273.58 1319.41C274.1 1319.36 274.63 1319.32 275.15 1319.3C275.68 1319.27 276.21 1319.25 276.74 1319.25C277.26 1319.25 277.79 1319.25 278.32 1319.27C279.53 1319.32 280.75 1319.4 281.98 1319.47C282.83 1319.55 283.68 1319.61 284.54 1319.65C285.39 1319.69 286.25 1319.71 287.1 1319.71C287.96 1319.71 288.81 1319.68 289.67 1319.64C290.52 1319.59 291.37 1319.53 292.22 1319.44C292.66 1319.03 293.14 1318.66 293.66 1318.36C294.18 1318.06 294.74 1317.82 295.31 1317.65C295.89 1317.48 296.48 1317.38 297.08 1317.35C297.68 1317.32 298.28 1317.36 298.87 1317.47L301.99 1318.13L299.2 1319.66C298.74 1319.91 298.27 1320.14 297.79 1320.35C297.32 1320.55 296.83 1320.74 296.34 1320.91C295.84 1321.08 295.35 1321.22 294.84 1321.35C294.34 1321.47 293.83 1321.58 293.31 1321.66C292.95 1322.04 292.62 1322.44 292.31 1322.87C292 1323.29 291.72 1323.73 291.47 1324.19C291.22 1324.65 291 1325.13 290.82 1325.62C290.63 1326.11 290.48 1326.61 290.35 1327.12C290.27 1327.51 290.19 1327.9 290.11 1328.29C290.04 1328.68 289.97 1329.07 289.91 1329.47C289.85 1329.86 289.79 1330.25 289.74 1330.65C289.69 1331.04 289.65 1331.44 289.61 1331.84C295.66 1329.74 302.59 1330.03 307.94 1330.57C308.32 1330.62 308.7 1330.66 309.08 1330.69C309.46 1330.71 309.85 1330.73 310.23 1330.74C310.61 1330.74 311 1330.74 311.38 1330.73C311.76 1330.71 312.14 1330.69 312.52 1330.65C312.84 1330.39 313.17 1330.14 313.51 1329.91C313.85 1329.69 314.2 1329.47 314.56 1329.28C314.92 1329.09 315.29 1328.91 315.67 1328.75C316.05 1328.6 316.44 1328.46 316.83 1328.34L320.09 1327.36L318.14 1330.14C317.87 1330.51 317.56 1330.86 317.22 1331.16C316.88 1331.47 316.51 1331.75 316.12 1331.98C315.73 1332.22 315.31 1332.41 314.88 1332.56C314.45 1332.72 314 1332.82 313.55 1332.89C310.44 1335.72 308.76 1340.29 308.2 1344.33C308.2 1344.37 308.18 1344.42 308.18 1344.46C309.96 1343.75 311.76 1343.11 313.59 1342.54C315.42 1341.97 317.27 1341.48 319.14 1341.06C321.01 1340.64 322.89 1340.3 324.79 1340.03C326.68 1339.76 328.59 1339.57 330.5 1339.46L330.64 1341.81C328.76 1341.92 326.89 1342.11 325.02 1342.38C323.16 1342.64 321.31 1342.99 319.47 1343.4C317.63 1343.82 315.81 1344.31 314.02 1344.88C312.22 1345.44 310.45 1346.08 308.7 1346.79C308.45 1346.9 308.15 1347.03 307.83 1347.16C307.79 1347.53 307.74 1347.9 307.67 1348.27C307.6 1348.63 307.51 1348.99 307.42 1349.35C307.32 1349.71 307.21 1350.07 307.09 1350.42C306.97 1350.77 306.83 1351.11 306.68 1351.45C305.68 1353.59 303.47 1355.69 300.79 1355.69ZM305.17 1348.63C303.46 1349.76 301.83 1351.32 301.44 1353.26C301.78 1353.15 302.11 1353 302.42 1352.82C302.74 1352.64 303.03 1352.43 303.3 1352.19C303.56 1351.94 303.8 1351.68 304.01 1351.38C304.23 1351.09 304.4 1350.78 304.55 1350.44C304.61 1350.3 304.68 1350.15 304.74 1350C304.8 1349.86 304.85 1349.71 304.9 1349.55C304.96 1349.4 305 1349.25 305.05 1349.1C305.09 1348.94 305.13 1348.79 305.17 1348.63ZM286.68 1335.79C286.39 1335.97 286.1 1336.16 285.82 1336.35C285.54 1336.55 285.27 1336.75 285 1336.97C284.73 1337.18 284.47 1337.4 284.22 1337.63C283.97 1337.86 283.72 1338.1 283.48 1338.34C283.3 1338.52 283.13 1338.71 282.98 1338.92C282.83 1339.13 282.7 1339.35 282.6 1339.59C282.49 1339.82 282.4 1340.06 282.34 1340.31C282.28 1340.56 282.24 1340.82 282.22 1341.07C282.23 1341.2 282.26 1341.32 282.32 1341.42C282.37 1341.53 282.46 1341.63 282.55 1341.7C282.65 1341.77 282.77 1341.82 282.89 1341.84C283.01 1341.86 283.13 1341.85 283.25 1341.82C283.48 1341.73 283.71 1341.62 283.92 1341.49C284.13 1341.36 284.33 1341.21 284.51 1341.04C284.7 1340.87 284.86 1340.68 285.01 1340.48C285.16 1340.28 285.28 1340.06 285.39 1339.84C285.54 1339.52 285.68 1339.19 285.81 1338.86C285.95 1338.53 286.07 1338.2 286.17 1337.86C286.28 1337.52 286.38 1337.18 286.46 1336.84C286.55 1336.49 286.62 1336.14 286.68 1335.79ZM261.32 1328.53C261.23 1328.67 261.16 1328.83 261.1 1328.99C261.04 1329.14 260.99 1329.31 260.95 1329.47C260.92 1329.64 260.89 1329.81 260.89 1329.98C260.88 1330.15 260.88 1330.32 260.9 1330.49C260.93 1330.61 260.98 1330.73 261.04 1330.85C261.1 1330.96 261.18 1331.07 261.27 1331.17C261.35 1331.27 261.45 1331.35 261.56 1331.43C261.66 1331.5 261.78 1331.56 261.9 1331.61C262.11 1331.71 262.33 1331.77 262.56 1331.82C262.78 1331.86 263.01 1331.88 263.24 1331.87C263.47 1331.87 263.7 1331.84 263.92 1331.78C264.15 1331.72 264.36 1331.64 264.57 1331.53C266.23 1330.59 267.08 1328.52 267.63 1326.81C268.05 1325.48 268.41 1324.09 268.76 1322.73C265.69 1323.69 262.81 1325.43 261.32 1328.53Z" />
		</g>
	</g>
	<g id="_Group_49">
		<path id="_Path_64" fill-rule="evenodd" class="shp3" d="M181.43 1310.87C182.58 1311.33 183.22 1312.88 184.07 1315.16C184.38 1316.05 184.67 1316.95 184.95 1317.85C185.23 1318.75 185.5 1319.65 185.76 1320.56C186.01 1321.47 186.25 1322.38 186.48 1323.3C186.71 1324.21 186.93 1325.13 187.13 1326.05C188.88 1333.14 189.92 1340.8 192.78 1347.55C195.94 1355 205.85 1390.13 201.95 1395.21C198.05 1400.29 184.88 1415.76 150.64 1415.76C116.41 1415.76 102.19 1404.3 99.55 1395.13C99.52 1394.99 99.49 1394.85 99.46 1394.71C99.43 1394.57 99.41 1394.43 99.39 1394.29C99.37 1394.15 99.35 1394.01 99.34 1393.86C99.32 1393.72 99.31 1393.58 99.3 1393.44C97.92 1377.87 104.43 1359.49 108.31 1344.67C108.81 1342.6 109.35 1340.55 109.91 1338.5C110.47 1336.44 111.05 1334.4 111.67 1332.37C112.28 1330.33 112.92 1328.31 113.59 1326.29C114.25 1324.27 114.95 1322.26 115.67 1320.26C117.69 1314.92 120.24 1310.27 126.45 1309.1C126.67 1309.07 126.89 1309.04 127.1 1309.01C127.32 1308.97 127.53 1308.92 127.75 1308.87C127.96 1308.82 128.17 1308.76 128.38 1308.69C128.58 1308.63 128.79 1308.55 128.99 1308.47C130.69 1307.65 131.46 1305.68 132.74 1304.29C135.26 1301.55 139.45 1301.33 143.17 1301.37C151.9 1301.45 160.51 1302.98 169.01 1304.87C175.57 1306.32 174.18 1307.6 177.3 1311.98C178.29 1311.3 180.19 1310.38 181.43 1310.87Z" />
		<path id="_Path_65" fill-rule="evenodd" class="shp9" d="M201.98 1382.09C195.57 1390.89 182.74 1396.11 163.48 1397.75C134.6 1400.2 107.22 1393.44 100.25 1382.09C97.24 1393.9 96.01 1400.43 96.55 1401.65C97.37 1403.48 119.46 1417.81 146.88 1419.04C174.29 1420.26 205.96 1402.73 205.3 1397.34C205.1 1396.06 204.89 1394.77 204.65 1393.49C204.42 1392.21 204.16 1390.93 203.88 1389.66C203.61 1388.39 203.31 1387.12 202.99 1385.86C202.67 1384.6 202.33 1383.34 201.98 1382.09L201.98 1382.09Z" />
		<g id="_Group_50">
			<path id="_Path_66" fill-rule="evenodd" class="shp8" d="M172.37 1355.72C172.32 1355.72 172.26 1355.72 172.21 1355.71C172.15 1355.71 172.1 1355.7 172.04 1355.69C171.99 1355.67 171.93 1355.66 171.88 1355.64C171.83 1355.62 171.78 1355.6 171.73 1355.58C171.3 1355.37 170.85 1355.13 170.36 1354.85C167.5 1353.26 163.17 1350.86 150.82 1350.21C149.29 1350.14 147.75 1350.16 146.22 1350.25C144.69 1350.34 143.17 1350.5 141.65 1350.75C140.14 1350.99 138.64 1351.32 137.16 1351.71C135.68 1352.11 134.22 1352.58 132.79 1353.13C130.23 1354.01 128.69 1354.54 127.53 1353.93C127.41 1353.86 127.29 1353.79 127.18 1353.69C127.07 1353.6 126.97 1353.5 126.89 1353.39C126.8 1353.28 126.72 1353.16 126.66 1353.03C126.6 1352.91 126.55 1352.78 126.51 1352.64C125.66 1349.66 123.82 1312.49 128.11 1307.69L129.87 1309.26C126.68 1312.83 127.83 1347.78 128.74 1351.84C129.02 1351.78 129.3 1351.73 129.58 1351.66C129.86 1351.6 130.13 1351.53 130.41 1351.45C130.68 1351.37 130.95 1351.28 131.22 1351.19C131.49 1351.1 131.76 1351 132.02 1350.89C133.53 1350.33 135.06 1349.84 136.61 1349.42C138.17 1349.01 139.74 1348.67 141.33 1348.42C142.92 1348.16 144.52 1347.99 146.12 1347.9C147.73 1347.8 149.34 1347.79 150.94 1347.86C163.84 1348.53 168.64 1351.19 171.5 1352.79C171.7 1352.89 171.88 1352.99 172.06 1353.09C173.51 1349.35 175.23 1329.84 176.12 1311.92L178.48 1312.04C177.53 1330.99 175.84 1353.91 173.14 1355.51C173.08 1355.54 173.02 1355.57 172.96 1355.6C172.9 1355.63 172.84 1355.65 172.77 1355.67C172.71 1355.69 172.64 1355.7 172.57 1355.71C172.51 1355.72 172.44 1355.72 172.37 1355.72Z" />
		</g>
		<g id="_Group_51">
			<path id="_Path_67" fill-rule="evenodd" class="shp8" d="M122.02 1379.97C121.68 1379.98 121.33 1379.96 121 1379.9C120.66 1379.84 120.33 1379.75 120 1379.63C119.68 1379.51 119.38 1379.36 119.08 1379.17C118.79 1378.99 118.52 1378.78 118.27 1378.55C113.73 1374.49 106.99 1357.05 105.53 1350.89L107.83 1350.35C109.34 1356.73 115.99 1373.34 119.84 1376.79C121.24 1378.03 122.75 1377.73 126.93 1376.66C128.88 1376.13 130.84 1375.67 132.82 1375.28C134.8 1374.89 136.8 1374.57 138.8 1374.32C140.8 1374.07 142.81 1373.88 144.83 1373.77C146.84 1373.66 148.86 1373.62 150.88 1373.64C163.9 1373.64 170.22 1374.96 174.4 1375.82C177.48 1376.45 179.03 1376.78 181.18 1376.15C183.67 1375.42 185.33 1360.91 186.23 1353.12C187.57 1341.44 188.1 1338.1 190.3 1338.35L190.03 1340.69C190.09 1340.7 190.15 1340.7 190.21 1340.69C190.27 1340.68 190.32 1340.67 190.38 1340.65C190.44 1340.64 190.49 1340.61 190.54 1340.58C190.59 1340.56 190.64 1340.52 190.69 1340.48C189.95 1341.43 189.19 1348.06 188.57 1353.39C186.92 1367.8 185.56 1377.33 181.84 1378.41C179.13 1379.21 177.17 1378.8 173.93 1378.13C169.84 1377.29 163.66 1376 150.88 1376C148.91 1375.98 146.94 1376.02 144.98 1376.13C143.01 1376.24 141.05 1376.42 139.09 1376.66C137.14 1376.91 135.2 1377.22 133.26 1377.61C131.33 1377.99 129.41 1378.44 127.51 1378.95C127.07 1379.09 126.62 1379.22 126.16 1379.33C125.71 1379.44 125.26 1379.54 124.8 1379.62C124.34 1379.71 123.88 1379.78 123.41 1379.84C122.95 1379.9 122.49 1379.94 122.02 1379.97L122.02 1379.97Z" />
		</g>
		<g id="_Group_52">
			<path id="_Compound_Path_2" fill-rule="evenodd" class="shp8" d="M126.67 1345.92C128.89 1344.71 131.16 1343.6 133.49 1342.59C135.81 1341.59 138.18 1340.69 140.58 1339.91C142.99 1339.12 145.43 1338.45 147.89 1337.89C150.36 1337.33 152.85 1336.88 155.36 1336.55C154.1 1336.2 152.83 1335.89 151.55 1335.61C150.27 1335.34 148.98 1335.1 147.68 1334.91C146.39 1334.71 145.09 1334.55 143.79 1334.43C142.48 1334.32 141.18 1334.24 139.87 1334.2C135.02 1336.37 130.01 1338.51 124.84 1337.03L123.26 1336.57L124.2 1335.22C125.77 1332.97 128.66 1332.41 131 1332.16C131.69 1332.09 132.39 1332.03 133.09 1331.98C133.79 1331.93 134.49 1331.89 135.19 1331.86C135.89 1331.84 136.59 1331.82 137.29 1331.81C137.99 1331.8 138.69 1331.8 139.39 1331.82C140.08 1331.51 140.76 1331.21 141.43 1330.92C142.85 1330.31 144.29 1329.75 145.75 1329.25C147.21 1328.75 148.69 1328.31 150.18 1327.92C151.67 1327.53 153.18 1327.19 154.7 1326.92C156.22 1326.64 157.74 1326.42 159.28 1326.26C151.15 1324.71 142.61 1325.04 134.63 1325.53L134.29 1325.71L133.66 1326.06C131.38 1327.33 129.02 1328.65 126.29 1328.65C126.21 1328.65 125.68 1328.64 124.7 1328.63L125.05 1327.19C125.6 1324.88 127.86 1323.59 131.75 1323.35L133.97 1323.2C135.1 1322.61 136.25 1322.07 137.41 1321.56C138.58 1321.05 139.76 1320.57 140.96 1320.14C142.15 1319.71 143.36 1319.31 144.58 1318.96C145.81 1318.6 147.04 1318.28 148.28 1318.01C147.47 1318.12 146.44 1318.27 145.35 1318.43C130.49 1320.59 129.51 1320.36 128.86 1319.37C127.64 1317.53 128.43 1315.15 129.79 1313.85C130.11 1313.58 130.45 1313.33 130.81 1313.1C131.16 1312.88 131.53 1312.67 131.9 1312.49C132.28 1312.31 132.67 1312.16 133.07 1312.03C133.47 1311.9 133.88 1311.79 134.29 1311.71C137.83 1310.79 141.44 1310.14 145.08 1309.76C148.72 1309.38 152.39 1309.27 156.05 1309.44C159.7 1309.61 163.34 1310.06 166.93 1310.78C170.53 1311.49 174.06 1312.48 177.5 1313.73L176.69 1315.95C173.36 1314.74 169.94 1313.79 166.47 1313.09C162.99 1312.4 159.47 1311.97 155.94 1311.8C152.4 1311.64 148.85 1311.74 145.33 1312.1C141.81 1312.47 138.32 1313.1 134.89 1313.99C134.57 1314.05 134.26 1314.13 133.96 1314.22C133.65 1314.32 133.35 1314.43 133.06 1314.56C132.77 1314.69 132.48 1314.84 132.21 1315.01C131.94 1315.17 131.67 1315.35 131.42 1315.55C131.27 1315.69 131.14 1315.84 131.03 1316.01C130.92 1316.18 130.84 1316.36 130.77 1316.55C130.71 1316.74 130.67 1316.94 130.65 1317.14C130.64 1317.34 130.64 1317.55 130.68 1317.75C132.7 1317.86 140.93 1316.69 145.01 1316.09C147.41 1315.75 149.15 1315.49 149.8 1315.44C150.69 1315.37 151.58 1315.33 152.47 1315.31C153.36 1315.29 154.25 1315.3 155.14 1315.34C156.03 1315.37 156.92 1315.43 157.81 1315.52C158.7 1315.61 159.58 1315.72 160.46 1315.87C161.71 1315.69 162.96 1315.52 164.22 1315.36C164.82 1315.25 165.43 1315.16 166.04 1315.09C166.64 1315.02 167.25 1314.98 167.86 1314.95C168.47 1314.92 169.08 1314.91 169.69 1314.92C170.3 1314.93 170.91 1314.95 171.52 1315C172.17 1315.06 172.82 1315.17 173.46 1315.35C174.1 1315.52 174.71 1315.75 175.31 1316.04C175.9 1316.33 176.47 1316.67 177 1317.07C177.53 1317.46 178.02 1317.9 178.47 1318.38L179.37 1319.44L178.18 1320.16C175.45 1321.82 171.84 1321.8 167.14 1320.1C166.6 1319.89 166.05 1319.71 165.5 1319.53C164.95 1319.35 164.39 1319.18 163.83 1319.03C163.28 1318.88 162.71 1318.74 162.15 1318.61C161.59 1318.48 161.02 1318.36 160.45 1318.25C153.51 1319.22 146.84 1320.38 140.41 1322.88C149.07 1322.55 158.49 1322.88 167.06 1325.92C168 1325.94 168.95 1325.98 169.89 1326.04C170.83 1326.1 171.77 1326.18 172.71 1326.29C173.65 1326.4 174.58 1326.52 175.51 1326.67C176.44 1326.82 177.37 1326.99 178.3 1327.19L179.71 1327.48L179.14 1328.8C178.92 1329.23 178.64 1329.62 178.3 1329.95C177.96 1330.29 177.57 1330.57 177.15 1330.79C176.72 1331.01 176.26 1331.16 175.79 1331.24C175.32 1331.32 174.84 1331.32 174.37 1331.25C174.02 1331.2 173.68 1331.13 173.34 1331.05C173 1330.96 172.67 1330.87 172.34 1330.75C172.01 1330.64 171.69 1330.51 171.37 1330.37C171.05 1330.23 170.74 1330.07 170.43 1329.9L170.01 1329.69C168.9 1329.16 167.78 1328.69 166.64 1328.27C164.77 1328.25 162.9 1328.31 161.04 1328.46C159.18 1328.61 157.32 1328.85 155.48 1329.17C153.64 1329.5 151.82 1329.91 150.02 1330.4C148.21 1330.9 146.44 1331.48 144.69 1332.14C146.1 1332.29 147.51 1332.47 148.92 1332.71C150.32 1332.94 151.72 1333.22 153.11 1333.54C154.49 1333.86 155.87 1334.23 157.23 1334.64C158.6 1335.04 159.95 1335.5 161.28 1335.99C162.57 1335.91 163.87 1335.87 165.16 1335.85C168.52 1335.82 172.28 1336.11 174.93 1338.53C175.41 1338.81 175.77 1339.26 175.94 1339.79C176.11 1340.32 176.07 1340.9 175.84 1341.41C175.61 1341.92 175.2 1342.32 174.69 1342.55C174.18 1342.77 173.61 1342.8 173.08 1342.62C172.34 1342.49 171.6 1342.34 170.87 1342.16C170.14 1341.98 169.42 1341.78 168.7 1341.54C167.99 1341.31 167.28 1341.06 166.59 1340.78C165.89 1340.49 165.21 1340.19 164.53 1339.86C163.92 1339.6 163.31 1339.34 162.7 1339.08C162.11 1338.84 161.52 1338.6 160.92 1338.38C158.03 1338.57 155.15 1338.91 152.3 1339.41C149.45 1339.91 146.62 1340.57 143.84 1341.37C141.06 1342.18 138.32 1343.14 135.64 1344.24C132.96 1345.35 130.35 1346.6 127.8 1347.99L126.67 1345.92ZM168.32 1338.91C168.86 1339.12 169.41 1339.31 169.96 1339.48C170.51 1339.65 171.07 1339.81 171.64 1339.94C172.2 1340.07 172.77 1340.19 173.34 1340.28C171.65 1338.73 169.16 1338.32 166.72 1338.23C167.24 1338.48 167.78 1338.7 168.32 1338.91ZM129.4 1335.09C129.82 1335.06 130.24 1335.01 130.65 1334.94C131.07 1334.87 131.48 1334.79 131.89 1334.69C132.3 1334.59 132.71 1334.48 133.11 1334.34C132.48 1334.39 131.86 1334.45 131.25 1334.51C130.98 1334.53 130.72 1334.56 130.46 1334.6C130.19 1334.64 129.93 1334.68 129.67 1334.74C129.41 1334.79 129.16 1334.85 128.9 1334.92C128.64 1334.99 128.39 1335.06 128.14 1335.15C128.56 1335.15 128.98 1335.13 129.4 1335.09ZM166.66 1317.43C167.08 1317.57 167.5 1317.72 167.93 1317.87C171.01 1318.99 173.47 1319.29 175.39 1318.79C175.08 1318.59 174.76 1318.41 174.43 1318.25C174.09 1318.09 173.75 1317.95 173.4 1317.82C173.05 1317.7 172.7 1317.6 172.34 1317.52C171.97 1317.45 171.61 1317.39 171.24 1317.35C170.86 1317.32 170.48 1317.29 170.09 1317.27C169.71 1317.26 169.33 1317.25 168.95 1317.26C168.56 1317.27 168.18 1317.28 167.8 1317.31C167.42 1317.34 167.04 1317.38 166.66 1317.43Z" />
		</g>
	</g>
</svg>